<svg xmlns="http://www.w3.org/2000/svg" width="48" height="48" viewBox="0 0 48 48"><g fill="none" fill-rule="evenodd"><rect width="48" height="48" fill="#FF7843" rx="8"/><path fill="#FFF" d="M24,29.5435722 C27.0189499,29.5435722 29.4662923,27.0616304 29.4662923,24 C29.4662923,20.9383696 27.0189499,18.4564278 24,18.4564278 C20.9810501,18.4564278 18.5337077,20.9383696 18.5337077,24 C18.5337077,27.0616304 20.9810501,29.5435722 24,29.5435722 Z M35.9812597,11.6318148 C35.1225125,10.760927 33.7356998,10.7482929 32.8836405,11.6123982 C32.0315812,12.4765035 32.0440392,13.8829223 32.9027864,14.7538101 C37.9823485,19.9051846 38.0556097,28.1758511 33.0750995,33.2267734 C32.2230402,34.0908786 32.2354982,35.4972975 33.0942454,36.3681852 C33.9529926,37.239073 35.3398054,37.2517071 36.1918646,36.3876018 C42.8764933,29.608469 42.7783162,18.5249648 35.9812597,11.6318148 Z M12.0187403,11.6318148 C5.22168377,18.5249648 5.12350666,29.608469 11.8081354,36.3876018 C12.6601946,37.2517071 14.0470074,37.239073 14.9057546,36.3681852 C15.7645018,35.4972975 15.7769598,34.0908786 14.9249005,33.2267734 C9.94439034,28.1758511 10.0176515,19.9051846 15.0972136,14.7538101 C15.9559608,13.8829223 15.9684188,12.4765035 15.1163595,11.6123982 C14.2643002,10.7482929 12.8774875,10.760927 12.0187403,11.6318148 Z"/></g></svg>