<?xml version="1.0" encoding="utf-8"?>
<!-- Generator: Adobe Illustrator 24.0.1, SVG Export Plug-In . SVG Version: 6.00 Build 0)  -->
<svg version="1.1" id="Layer_1" xmlns="http://www.w3.org/2000/svg" xmlns:xlink="http://www.w3.org/1999/xlink" x="0px" y="0px"
	 width="16px" height="16px" viewBox="0 0 16 16" style="enable-background:new 0 0 16 16;" xml:space="preserve">
<style type="text/css">
	.st0{fill:none;}
	.st1{fill-rule:evenodd;clip-rule:evenodd;fill:#D5DDE0;}
</style>
<g id="icon_x2F_nav_x2F_audience">
	<rect id="Rectangle" class="st0" width="16" height="16"/>
	<path id="Combined-Shape" class="st1" d="M7.8,8.2c2.4,0,4.4,2,4.4,4.4c0,0.7-0.2,1.3-0.4,1.9h-8c-0.3-0.6-0.4-1.2-0.4-1.9
		C3.4,10.1,5.4,8.2,7.8,8.2z M12.9,8.8c1.3,0,2.4,0.6,3.1,1.6l0,4.1l-3.1,0c0.2-0.6,0.4-1.2,0.4-1.9c0-1.3-0.5-2.5-1.2-3.5L11.9,9
		l0,0C12.2,8.9,12.6,8.8,12.9,8.8z M3,8.8c0.3,0,0.5,0,0.8,0.1c-0.9,1-1.4,2.3-1.4,3.7c0,0.7,0.1,1.3,0.4,1.9l-2.8,0l0-4.2
		C0.7,9.4,1.8,8.8,3,8.8z M3,3.5c1.1,0,2,0.9,2,2s-0.9,2-2,2s-2-0.9-2-2S1.9,3.5,3,3.5z M13,3.5c1.1,0,2,0.9,2,2s-0.9,2-2,2
		s-2-0.9-2-2S11.9,3.5,13,3.5z M7.8,1.5c1.4,0,2.5,1.1,2.5,2.5S9.2,6.4,7.8,6.4S5.4,5.3,5.4,4S6.5,1.5,7.8,1.5z"/>
</g>
</svg>
