<?xml version="1.0" encoding="utf-8"?>
<!-- Generator: Adobe Illustrator 24.0.1, SVG Export Plug-In . SVG Version: 6.00 Build 0)  -->
<svg version="1.1" id="Layer_1" xmlns="http://www.w3.org/2000/svg" xmlns:xlink="http://www.w3.org/1999/xlink" x="0px" y="0px"
	 width="26px" height="16px" viewBox="0 0 26 16" style="enable-background:new 0 0 26 16;" xml:space="preserve">
<style type="text/css">
	.st0{fill-rule:evenodd;clip-rule:evenodd;fill:#FFFFFF;}
</style>
<title>beatport</title>
<desc>Created with Sketch.</desc>
<g id="icon_x2F_link_x2F_beatport_x2F_color">
	<path id="Symbol_Green_Vector" class="st0" d="M17.3,11.3c0-1.4-1.1-2.5-2.5-2.5c-1.4,0-2.5,1.2-2.5,2.5c0,1.4,1.1,2.5,2.5,2.5
		C16.2,13.9,17.3,12.7,17.3,11.3 M19.4,11.3c0,2.6-2,4.6-4.6,4.6c-2.6,0-4.6-2-4.6-4.6c0-1.2,0.5-2.3,1.2-3.1l-3.1,3.1L6.6,9.7
		l3.5-3.5c0.5-0.5,0.7-1.1,0.7-1.8V0h2.3v4.4c0,1.3-0.5,2.5-1.4,3.4l-0.1,0.1c0.8-0.8,1.9-1.2,3.1-1.2C17.4,6.7,19.4,8.8,19.4,11.3"
		/>
</g>
</svg>
