<?xml version="1.0" encoding="utf-8"?>
<!-- Generator: Adobe Illustrator 24.0.1, SVG Export Plug-In . SVG Version: 6.00 Build 0)  -->
<svg version="1.1" id="Layer_1" xmlns="http://www.w3.org/2000/svg" xmlns:xlink="http://www.w3.org/1999/xlink" x="0px" y="0px"
	 width="49.9px" height="49.9px" viewBox="0 0 49.9 49.9" style="enable-background:new 0 0 49.9 49.9;" xml:space="preserve">
<style type="text/css">
	.st0{fill-rule:evenodd;clip-rule:evenodd;}
	.st1{fill-rule:evenodd;clip-rule:evenodd;fill:#FFFFFF;}
</style>
<title>Asset 1</title>
<g id="icon_x2F_link_x2F_beatport_x2F_color">
	<circle id="Oval" class="st0" cx="25" cy="25" r="24.8" fill="#D5DDE0"/>
	<path id="Symbol_Green_Vector" class="st1" d="M34.5,32.8c0-3.2-2.7-5.8-5.9-5.8c-3.3,0-5.9,2.7-5.9,5.8c0,3.2,2.6,5.9,5.9,5.9
		C32,38.6,34.5,35.9,34.5,32.8 M39.4,32.8c0,6-4.8,10.8-10.8,10.8c-6,0-10.8-4.7-10.8-10.8c0-2.9,1.1-5.4,2.8-7.3l-7.3,7.3l-3.8-3.8
		l8.3-8.2c1.1-1.1,1.7-2.6,1.7-4.2V6.3h5.4v10.3c0,3.1-1.1,5.8-3.3,8l-0.2,0.2c1.9-1.8,4.5-2.8,7.3-2.8C34.7,22,39.4,26.9,39.4,32.8
		"/>
</g>
</svg>
