<?xml version="1.0" encoding="utf-8"?>
<!-- Generator: Adobe Illustrator 24.0.1, SVG Export Plug-In . SVG Version: 6.00 Build 0)  -->
<svg version="1.1" id="Layer_1" xmlns="http://www.w3.org/2000/svg" xmlns:xlink="http://www.w3.org/1999/xlink" x="0px" y="0px"
	 width="16px" height="16px" viewBox="0 0 16 16" style="enable-background:new 0 0 16 16;" xml:space="preserve">
<style type="text/css">
	.st0{fill-rule:evenodd;clip-rule:evenodd;fill:#ffffff;}
	.st1{fill-rule:evenodd;clip-rule:evenodd;}
</style>
<title>Asset 1</title>
<g id="icon_x2F_link_x2F_beatport_x2F_color">
	<circle id="Oval" class="st0" cx="8" cy="8" r="8"/>
	<path id="Symbol_Green_Vector" class="st1" d="M11.1,10.5c0-1-0.9-1.9-1.9-1.9c-1.1,0-1.9,0.9-1.9,1.9c0,1,0.8,1.9,1.9,1.9
		C10.3,12.4,11.1,11.5,11.1,10.5 M12.6,10.5c0,1.9-1.5,3.5-3.5,3.5s-3.5-1.5-3.5-3.5c0-0.9,0.4-1.7,0.9-2.4l-2.4,2.4L3,9.3l2.7-2.6
		C6,6.3,6.2,5.8,6.2,5.3V2H8v3.3c0,1-0.4,1.9-1.1,2.6L6.8,7.9C7.5,7.4,8.3,7,9.2,7C11.1,7,12.6,8.6,12.6,10.5"/>
</g>
</svg>
