<?xml version="1.0" encoding="utf-8"?>
<!-- Generator: Adobe Illustrator 24.0.1, SVG Export Plug-In . SVG Version: 6.00 Build 0)  -->
<svg version="1.1" id="Layer_1" xmlns="http://www.w3.org/2000/svg" xmlns:xlink="http://www.w3.org/1999/xlink" x="0px" y="0px"
	 width="52px" height="52px" viewBox="0 0 52 52" style="enable-background:new 0 0 52 52;" xml:space="preserve">
<style type="text/css">
	.st0{fill-rule:evenodd;clip-rule:evenodd;fill:#D5DDE0;}
	.st1{fill-rule:evenodd;clip-rule:evenodd;fill:#FFFFFF;}
</style>
<g id="icon_x2F_link_x2F_beatport_x2F_color">
	<circle id="Oval" class="st0" cx="26" cy="26" r="26"/>
	<path id="Symbol_Green_Vector" class="st1" d="M36,34.2c0-3.4-2.8-6.1-6.2-6.1c-3.5,0-6.1,2.8-6.1,6.1c0,3.3,2.7,6.1,6.1,6.1
		C33.3,40.3,36,37.4,36,34.2 M41.1,34.2c0,6.3-5,11.3-11.3,11.3c-6.3,0-11.3-4.9-11.3-11.3c0-3,1.1-5.7,2.9-7.7l-7.7,7.7l-4-4
		l8.6-8.5c1.2-1.2,1.8-2.7,1.8-4.4V6.5h5.7v10.7c0,3.3-1.2,6.1-3.5,8.4l-0.3,0.3c2-1.8,4.7-2.9,7.6-2.9C36.2,22.9,41.1,28,41.1,34.2
		"/>
</g>
</svg>
