<svg xmlns="http://www.w3.org/2000/svg" width="48" height="48" viewBox="0 0 48 48"><g fill="none" fill-rule="evenodd"><rect width="48" height="48" fill="#000" rx="8"/><path fill="#01E697" d="M16.4216009,32.7647556 C19.2533137,32.7647556 21.5508503,30.448444 21.5508503,27.6057883 C21.5508503,24.7369838 19.1464649,22.4998031 16.4216009,22.4998031 C13.6163483,22.4998031 11.2386819,24.7633071 11.2386819,27.6057883 C11.2386819,30.5537236 13.6697727,32.7647556 16.4216009,32.7647556 M16.4216009,37.0285714 C11.1315605,37.0285714 6.85714286,32.8700218 6.85714286,27.6057883 C6.85714286,22.3943624 11.024698,18.2358128 16.4216009,18.2358128 C18.9592954,18.2358128 21.2035711,19.1831678 22.8866927,20.6837003 L16.4216009,14.3141186 L19.8143043,10.9714286 L27.0276242,18.1568564 C28.0162827,19.1307898 29.2987143,19.6308241 30.7147001,19.6308241 L39.7714286,19.6308241 L39.7714286,24.3422156 L30.7147001,24.3422156 C27.9360575,24.3422156 25.5851919,23.3682823 23.6616535,21.4734112 L23.4476833,21.2624359 C24.9973188,22.9208811 25.9324711,25.1843851 25.9324711,27.6057883 C25.9324711,32.9489781 21.6312527,37.0285714 16.4216009,37.0285714" transform="rotate(-90 23.314 24)"/></g></svg>