<?xml version="1.0" encoding="utf-8"?>
<!-- Generator: Adobe Illustrator 24.0.1, SVG Export Plug-In . SVG Version: 6.00 Build 0)  -->
<svg version="1.1" id="Layer_1" xmlns="http://www.w3.org/2000/svg" xmlns:xlink="http://www.w3.org/1999/xlink" x="0px" y="0px"
	 width="52px" height="52px" viewBox="0 0 52 52" style="enable-background:new 0 0 52 52;" xml:space="preserve">
<style type="text/css">
	.st0{fill-rule:evenodd;clip-rule:evenodd;fill:#01FF95;}
</style>
<g id="icon_x2F_link_x2F_beatport_x2F_color">
	<path id="Symbol_Green_Vector" class="st0" d="M36.1,33.3c0-3.2-2.7-5.8-5.9-5.8c-3.3,0-5.9,2.7-5.9,5.8c0,3.2,2.6,5.9,5.9,5.9
		C33.5,39.2,36.1,36.4,36.1,33.3 M41,33.3c0,6-4.8,10.8-10.8,10.8c-6,0-10.8-4.7-10.8-10.8c0-2.9,1.1-5.4,2.8-7.3l-7.3,7.3L11,29.5
		l8.3-8.2c1.1-1.1,1.7-2.6,1.7-4.2V6.9h5.4v10.3c0,3.1-1.1,5.8-3.3,8l-0.2,0.2c1.9-1.8,4.5-2.8,7.3-2.8C36.3,22.5,41,27.4,41,33.3"
		/>
</g>
</svg>
