<?xml version="1.0" encoding="utf-8"?>
<!-- Generator: Adobe Illustrator 24.0.1, SVG Export Plug-In . SVG Version: 6.00 Build 0)  -->
<svg version="1.1" id="Layer_1" xmlns="http://www.w3.org/2000/svg" xmlns:xlink="http://www.w3.org/1999/xlink" x="0px" y="0px"
	 width="52px" height="52px" viewBox="0 0 52 52" style="enable-background:new 0 0 52 52;" xml:space="preserve">
<style type="text/css">
	.st0{fill-rule:evenodd;clip-rule:evenodd;fill:#D5DDE0;}
</style>
<g id="icon_x2F_link_x2F_beatport_x2F_color">
	<path id="Symbol_Green_Vector" class="st0" d="M35.6,33.3c0-3.2-2.7-5.8-5.9-5.8c-3.3,0-5.9,2.7-5.9,5.8c0,3.2,2.6,5.9,5.9,5.9
		S35.6,36.4,35.6,33.3 M40.5,33.3c0,6-4.8,10.8-10.8,10.8s-10.8-4.7-10.8-10.8c0-2.9,1.1-5.4,2.8-7.3l-7.3,7.3l-3.9-3.8l8.3-8.2
		c1.1-1.1,1.7-2.6,1.7-4.2V6.9h5.4v10.3c0,3.1-1.1,5.8-3.3,8l-0.2,0.2c1.9-1.8,4.5-2.8,7.3-2.8C35.8,22.5,40.5,27.4,40.5,33.3"/>
</g>
</svg>
