<svg width="111" height="31" xmlns="http://www.w3.org/2000/svg"><g fill="none" fill-rule="evenodd"><path fill="none" d="M0 0h111v31H0z"/><g fill="#DEDEDE"><path d="M31.067 0c.01.348.026.697.027 1.045v28.91c0 .349-.017.697-.027 1.045h-9.385c0-6.266.002-12.533 0-18.799-.002-2.432-1.648-3.587-3.923-2.763-2.196.794-4.39 1.593-6.59 2.376-.998.355-1.808-.073-1.81-1.005-.013-3.603.014-7.206.026-10.809h21.682Z"/><path d="M4.692 0c.005 7.873.008 15.745.016 23.618 0 .347 0 .703.066 1.042.335 1.715 1.875 2.583 3.53 1.99 2.6-.93 5.195-1.875 7.793-2.811.272-.098.547-.185.893-.301V31H0V0h4.692ZM111 18.083c-.368.044-.736.122-1.105.124-2.177.012-4.355.006-6.624.006.002 1.398.269 2.651 1.386 3.477 1.69 1.248 3.405.744 5.116-.208l.708 1.337c-.178.136-.326.284-.504.377-1.644.858-3.382 1.075-5.17.607-1.687-.441-2.818-1.545-3.35-3.198-.589-1.831-.524-3.66.274-5.423 1.086-2.406 3.888-3.578 6.376-2.672 1.442.525 2.217 1.63 2.564 3.084.072.3.217.584.329.875v1.614Zm-2.257-1.35c-.103-1.123-.238-2.137-1.288-2.678-.962-.495-1.937-.398-2.819.211-.837.58-1.19 1.43-1.276 2.468h5.383ZM40.883 9.834c-1.895-.32-1.895-.32-1.688-1.623.483 0 .987-.002 1.491 0 1.779.01 3.557-.002 5.335.044.585.015 1.181.127 1.744.292 1.68.491 2.598 1.586 2.699 3.13.117 1.79-.57 2.935-2.232 3.72-.071.035-.134.084-.284.178.304.12.558.213.806.32 1.434.613 2.31 1.645 2.378 3.247.074 1.736-.528 3.14-2.183 3.878-.726.324-1.536.609-2.317.634-2.47.08-4.946.03-7.48.03.019-.483-.364-1.06.268-1.337.422-.185.947-.14 1.463-.203V9.834Zm2.229 6.562v5.75c1.2-.056 2.334-.035 3.447-.178 1.598-.204 2.378-1.131 2.386-2.635.008-1.494-.77-2.507-2.307-2.74-1.135-.171-2.301-.136-3.526-.197Zm-.032-1.425c1.236-.099 2.425-.092 3.568-.314 1.137-.22 1.725-1.217 1.683-2.44-.041-1.149-.638-1.993-1.779-2.185-1.124-.189-2.28-.184-3.472-.267v5.206ZM62.245 18.236h-7.333c-.35 3.597 2.493 5.035 6.455 3.279l.672 1.314c-.183.136-.334.283-.513.375-1.675.864-3.434 1.074-5.248.566-1.758-.493-2.847-1.698-3.337-3.418a7.585 7.585 0 0 1 .146-4.682c.905-2.572 3.504-3.947 6.157-3.286 1.196.298 2.066.995 2.602 2.109.504 1.047.68 2.459.4 3.743Zm-1.996-1.512c.029-1.876-.865-2.94-2.404-2.958-1.624-.018-2.872 1.263-2.84 2.958h5.244ZM92.352 18.211c.047 1.503.345 2.776 1.578 3.624 1.27.873 2.699.768 4.936-.335l.723 1.39c-2.108 1.246-4.255 1.572-6.46.624-2.07-.89-2.857-2.708-2.918-4.821a9.03 9.03 0 0 1 .423-3.005c.83-2.553 3.332-3.897 5.967-3.342 1.735.365 2.92 1.622 3.19 3.52.105.733.017 1.493.017 2.345h-7.456Zm5.342-1.49c.227-1.624-.65-2.818-2.115-2.954-1.294-.12-3.031.75-3.08 2.955h5.195ZM76.56 23.709h-5.401c.131-.5.111-1.11.397-1.336.322-.255.919-.166 1.437-.233V8.572l-1.715-.197v-1.34h3.785V22.05c.516.163 1.072.23 1.467.516.176.127.03.698.03 1.143M84.256 8.368V7.077c.665-.046 1.302-.107 1.94-.13.614-.022 1.23-.005 1.894-.005v15.185c.23.038.463.085.7.113 1.188.138 1.19.14.95 1.453h-5.423v-1.33l1.696-.22V8.575l-1.757-.208"/><path d="m71.509 12.547-.467 1.762c-1.565-.496-2.63.202-3.465 1.403-.132.19-.254.436-.256.656-.02 1.907-.011 3.814-.011 5.772.346.041.635.083.925.11 1.228.113 1.282.188.988 1.459h-5.685c-.026-.493-.37-1.067.225-1.356.41-.198.943-.14 1.476-.204v-8.124c-.56-.057-1.114-.112-1.664-.166-.291-1.257-.224-1.362 1.025-1.398.882-.026 1.764-.005 2.72-.005v1.626c1.746-1.865 2.695-2.213 4.189-1.535M75.08 17.651l3.749-3.348-.14-.206-1.144-.266v-1.27h5.283v1.211c-.069.048-.112.103-.152.101-1.312-.064-2.172.703-2.992 1.58-.677.724-1.397 1.407-2.156 2.167 1.435 1.466 2.853 2.926 4.288 4.368.137.136.377.197.58.234 1.166.214 1.166.208 1.058 1.45h-5.033c-.299-1.186-.247-1.283 1.002-1.482a24846.44 24846.44 0 0 0-4.343-4.539M9.413 19.21c0-.803-.288-1.797.082-2.355.365-.548 1.39-.672 2.139-.952 1.506-.563 3.02-1.11 4.534-1.654.765-.275.855-.217.863.567.01 1.156-.01 2.312.006 3.468.009.648-.264 1.063-.878 1.285a966.687 966.687 0 0 0-6.126 2.233c-.497.183-.702.029-.69-.495.015-.699.003-1.398.003-2.097h.067Z"/></g></g></svg>