<svg width="77" height="32" xmlns="http://www.w3.org/2000/svg"><g fill="none" fill-rule="evenodd"><path fill="none" d="M0 0h77v31H0z"/><g fill="#DEDEDE"><path d="M6.888.412c.616.361 1.228.726 1.847 1.083 1.655.957 3.313 1.91 4.969 2.864l8.217 4.738c.625.36 1.25.72 1.875 1.082.056.032.108.073.174.118l-8.228 4.735 6.285 3.626c-.24.14-.463.272-.687.4A103625.443 103625.443 0 0 1 3.016 29.604L.2 31.222c-.039.022-.07.057-.106.086-.013-.006-.037-.012-.038-.02-.004-.054-.002-.107-.002-.16V6.03c.061.02.128.032.183.064l5.779 3.332c.269.155.54.307.826.47.005-.061.01-.094.01-.126L6.848.412h.04Zm-.032 19.727 8.875-5.107-8.875-5.117v10.224ZM76.286 19.672H72.88v2.415h3.03v.524h-3.03v2.518h3.406v.52h-3.97v-6.5h3.97zM47.616 8.963v5.552h-.545V8.032c.205 0 .411-.011.614.008.057.005.122.09.156.152.533 1.01 1.062 2.021 1.593 3.032.183.347.369.693.569 1.069.287-.549.56-1.067.83-1.585.445-.853.888-1.706 1.337-2.556.028-.053.101-.11.158-.115.185-.014.372-.005.573-.005v6.478h-.561V8.954a.898.898 0 0 1-.04-.007c-.205.387-.412.774-.616 1.162-.452.856-.909 1.71-1.348 2.572-.1.195-.214.29-.43.248-.045-.008-.093-.001-.148-.001l-2.096-3.97-.046.005M44.526 8.95l-.783 1.483c-.414.785-.834 1.567-1.237 2.359-.085.166-.207.126-.334.137-.126.012-.203-.024-.267-.148-.65-1.243-1.306-2.481-1.96-3.72a.193.193 0 0 0-.093-.095v5.546h-.556v-6.48c.212 0 .419-.009.624.008.05.004.11.083.141.142.606 1.144 1.208 2.29 1.811 3.437l.357.67c.135-.252.25-.465.363-.68.595-1.143 1.19-2.286 1.782-3.43.055-.107.121-.16.249-.15.164.011.33.002.507.002v6.478h-.555V8.961l-.05-.01M33.957 11.166c.257.113.562.198.807.367.561.388.636.977.537 1.594-.095.597-.442 1.023-1.022 1.2a4.65 4.65 0 0 1-1.14.19c-.688.03-1.38.008-2.069.007-.032 0-.065-.006-.112-.012v-6.45c.011-.008.022-.02.032-.02.883.01 1.77-.027 2.648.047 1.168.099 1.773 1.172 1.33 2.259-.146.36-.41.603-.773.738-.093.035-.188.063-.238.08Zm-2.416.271v2.591c.056.004.096.01.135.01.548-.004 1.097 0 1.646-.013a2.3 2.3 0 0 0 .513-.08c.61-.157.915-.57.912-1.215-.002-.605-.319-1.074-.923-1.156-.75-.102-1.514-.096-2.283-.137Zm-.007-.429c.663-.022 1.322.001 1.967-.078.691-.085 1.002-.52.995-1.227-.005-.624-.36-1.041-1.02-1.132-.355-.049-.72-.03-1.08-.038-.284-.004-.57 0-.862 0v2.475ZM34.017 20.155v5.468h-.546v-6.47c.168 0 .342-.012.512.007.061.007.127.081.168.141.762 1.13 1.52 2.263 2.279 3.395l1.193 1.78c.035.054.076.104.145.199V19.17h.563v6.47c-.168 0-.321.01-.472-.005-.054-.006-.116-.058-.15-.106-.925-1.365-1.848-2.732-2.772-4.098-.29-.43-.583-.86-.875-1.289-.015.004-.03.01-.045.013M44.154 20.78l-.512.12c-.024-.09-.042-.172-.066-.252-.183-.595-.563-.978-1.193-1.074-.616-.094-1.196-.026-1.635.477-.462.53-.332 1.341.295 1.654.377.188.803.28 1.207.411.33.108.67.19.989.321.63.258.968.74.989 1.422.02.66-.247 1.175-.813 1.53-.98.615-2.588.407-3.308-.432a2.1 2.1 0 0 1-.468-1.063l.524-.169c.077.384.214.732.494 1.008.655.644 1.957.71 2.598.13.645-.582.531-1.54-.252-1.91-.37-.174-.783-.262-1.175-.39-.336-.11-.68-.204-1.004-.338-1.218-.501-1.135-2.103-.235-2.746.81-.579 2.178-.561 2.953.06.333.266.578.753.612 1.241M63.993 19.163h.59v.205c0 1.336 0 2.673-.002 4.01 0 .398-.072.785-.241 1.146-.238.51-.63.859-1.158 1.046a2.91 2.91 0 0 1-1.91.032c-.9-.293-1.353-.956-1.467-1.869a5.293 5.293 0 0 1-.033-.64c-.003-1.223-.001-2.446-.001-3.67v-.254h.59v.207c0 1.283-.009 2.567.006 3.85.004.31.045.63.138.925.24.756.954 1.165 1.825 1.089 1.007-.089 1.62-.684 1.646-1.698.035-1.376.014-2.753.017-4.13v-.249M47.854 25.637h-.591v-5.96h-2.37v-.508h5.318v.496h-2.357zM53.322 19.165h5.317v.499h-2.357v5.973h-.585v-5.968h-2.375zM68.088 19.668H65.71v-.5h5.308v.495h-2.351v5.972h-.58zM30.958 25.626h.553v-6.461h-.553zM36.807 14.515h.542V8.047h-.542zM51.49 25.638h.554v-6.47h-.553z"/></g></g></svg>