<svg width="361" height="106" xmlns="http://www.w3.org/2000/svg"><defs><linearGradient x1="50%" y1="99.709%" x2="50%" y2=".777%" id="a"><stop stop-color="#E09B3D" offset="0%"/><stop stop-color="#C74C4D" offset="30%"/><stop stop-color="#C21975" offset="60%"/><stop stop-color="#7024C4" offset="100%"/></linearGradient><linearGradient x1="50%" y1="146.099%" x2="50%" y2="-45.16%" id="b"><stop stop-color="#E09B3D" offset="0%"/><stop stop-color="#C74C4D" offset="30%"/><stop stop-color="#C21975" offset="60%"/><stop stop-color="#7024C4" offset="100%"/></linearGradient><linearGradient x1="50%" y1="658.141%" x2="50%" y2="-140.029%" id="c"><stop stop-color="#E09B3D" offset="0%"/><stop stop-color="#C74C4D" offset="30%"/><stop stop-color="#C21975" offset="60%"/><stop stop-color="#7024C4" offset="100%"/></linearGradient></defs><g fill="none" fill-rule="evenodd"><g transform="translate(347 79)"><path d="M.003 6.74A6.936 6.936 0 0 1 6.934 0a6.936 6.936 0 0 1 6.934 6.934c0 3.832-3.109 6.934-6.926 6.934-3.76.02-6.836-2.991-6.94-6.74L0 6.935l.003-.194Z" fill="#FFF" fill-rule="nonzero"/><circle fill="#000" cx="7" cy="7" r="5.6"/><path d="M9.15 8.76c0-.724-.6-1.31-1.338-1.31-.743 0-1.323.614-1.323 1.31 0 .715.586 1.322 1.323 1.322.764 0 1.338-.62 1.338-1.323m1.105 0A2.43 2.43 0 0 1 7.812 11.2a2.41 2.41 0 0 1-2.429-2.44c0-.649.246-1.221.635-1.65L4.367 8.76 3.5 7.892l1.863-1.84c.252-.253.382-.58.382-.942V2.8h1.221v2.311c0 .71-.252 1.31-.743 1.8l-.055.055a2.434 2.434 0 0 1 1.644-.634 2.42 2.42 0 0 1 2.443 2.427" fill="#01FF95"/></g><path d="M151 56h26V30h-26z"/><path d="M172.74 40.67c-.585-2.375-3.251-4.17-6.461-4.17-2.037 0-3.836.74-5.045 1.876a5.094 5.094 0 0 0-1.08-.118c-1.812 0-3.398.94-4.315 2.354-2.697.162-4.839 2.379-4.839 5.117a5.147 5.147 0 0 0 5.147 5.146h15.706A5.148 5.148 0 0 0 177 45.73c0-2.54-1.842-4.636-4.26-5.059" fill="#FFF"/><path d="M154.605 43.821c-.044 0-.081.036-.087.086l-.205 1.882.205 1.84c.006.048.043.084.087.084s.08-.035.087-.084l.232-1.84-.232-1.883c-.008-.05-.043-.085-.087-.085Zm-.769.722c-.044 0-.078.033-.084.081l-.152 1.165.152 1.143c.006.048.04.082.084.082.042 0 .076-.034.083-.082l.18-1.143-.18-1.165c-.007-.048-.04-.081-.083-.081Zm1.586-1.09c-.055 0-.099.043-.104.103l-.194 2.233.194 2.15c.005.06.049.103.104.103.054 0 .097-.043.105-.102l.22-2.151-.22-2.233c-.008-.06-.051-.104-.105-.104Zm.823-.079c-.064 0-.116.052-.121.12l-.184 2.295.184 2.22c.005.068.057.12.121.12.065 0 .117-.052.123-.12l.208-2.22-.208-2.295c-.006-.068-.058-.12-.123-.12Zm.97.286a.142.142 0 0 0-.139-.138c-.075 0-.135.06-.14.14l-.173 2.127.174 2.237c.004.08.064.14.14.14.073 0 .134-.06.138-.14l.197-2.237-.197-2.13Zm.699-1.49a.16.16 0 0 0-.158.158l-.162 3.462.162 2.237a.161.161 0 0 0 .158.157c.082 0 .152-.07.157-.158v.001l.184-2.237-.184-3.463c-.006-.088-.075-.157-.157-.157Zm.83-.798a.18.18 0 0 0-.175.176l-.152 4.254.152 2.224a.179.179 0 0 0 .176.174.18.18 0 0 0 .174-.175l.173-2.223-.173-4.254a.18.18 0 0 0-.174-.176Zm.864-.384a.195.195 0 0 0-.193.194l-.142 4.609.142 2.2a.195.195 0 0 0 .193.192.196.196 0 0 0 .192-.193v.002l.16-2.201-.16-4.61a.196.196 0 0 0-.192-.193Zm1.068.039a.214.214 0 0 0-.21-.212.212.212 0 0 0-.211.212l-.132 4.764.132 2.187c.001.117.095.21.21.21a.214.214 0 0 0 .21-.211l.149-2.186-.148-4.764Zm.653-.108a.23.23 0 0 0-.228.23l-.12 4.642.12 2.167a.23.23 0 0 0 .228.228.232.232 0 0 0 .229-.23v.002l.135-2.167-.135-4.643a.232.232 0 0 0-.229-.229Zm.87.152a.248.248 0 0 0-.246.248l-.11 4.473.111 2.152c.002.137.11.246.245.246a.248.248 0 0 0 .247-.248v.002l.124-2.152-.124-4.474a.247.247 0 0 0-.246-.247Zm1.024-.823a.26.26 0 0 0-.288-.002.27.27 0 0 0-.121.222l-.002.05-.099 5.273.1 2.14v.008c.004.06.026.115.063.158.05.062.123.097.201.098a.26.26 0 0 0 .185-.079.273.273 0 0 0 .08-.187l.01-.212.1-1.925-.11-5.324a.273.273 0 0 0-.12-.22Zm.871-.504a.274.274 0 0 0-.32.024.286.286 0 0 0-.105.218v.03l-.115 5.777.058 1.067.058 1.04a.284.284 0 0 0 .28.281c.154 0 .28-.127.283-.283v.002l.124-2.107-.124-5.807a.289.289 0 0 0-.139-.242Zm7.748 3.3c-.35 0-.685.071-.99.2-.204-2.322-2.137-4.144-4.495-4.144-.56 0-1.115.105-1.637.307-.193.076-.244.153-.246.304v8.18c.002.158.123.28.276.296h7.092a2.556 2.556 0 0 0 2.558-2.565 2.568 2.568 0 0 0-2.558-2.578Z" fill="#FF6400" fill-rule="nonzero"/><path d="M260 86h30V56h-30z"/><path d="M279.85 56h-9.7c-5.6 0-10.15 4.55-10.15 10.15v9.7c0 5.6 4.55 10.15 10.15 10.15h9.7c5.6 0 10.15-4.55 10.15-10.15v-9.7c0-5.6-4.55-10.15-10.15-10.15Z" fill="#FFF" fill-rule="nonzero"/><g transform="translate(263 59)" fill-rule="nonzero"><path d="M16.85 0h-9.7C3.207 0 0 3.207 0 7.15v9.7C0 20.793 3.207 24 7.15 24h9.7c3.943 0 7.15-3.207 7.15-7.15v-9.7C24 3.207 20.793 0 16.85 0Zm4.736 16.85a4.735 4.735 0 0 1-4.736 4.736h-9.7a4.735 4.735 0 0 1-4.736-4.736v-9.7A4.735 4.735 0 0 1 7.15 2.414h9.7a4.735 4.735 0 0 1 4.736 4.736v9.7Z" fill="url(#a)"/><path d="M12 6c-3.308 0-6 2.692-6 6s2.692 6 6 6 6-2.692 6-6-2.692-6-6-6Zm0 9.666a3.666 3.666 0 1 1 0-7.332 3.666 3.666 0 0 1 0 7.332Z" fill="url(#b)"/><circle fill="url(#c)" cx="18" cy="6" r="1.5"/></g><g><path d="M338 12h16v16h-16z"/><path d="m345.95 12-.12.004a1.6 1.6 0 0 0-1.48 1.596l-.001 2.825-.138-.002a5.41 5.41 0 0 0-5.411 5.41l.004.215a5.402 5.402 0 0 0 2.181 4.128l.08.057.053.051a5.421 5.421 0 0 0 3.697 1.46l.19-.003a5.41 5.41 0 0 0 5.222-5.407v-1.813l.195.037c.354.06.714.09 1.079.09a1.6 1.6 0 0 0 1.6-1.6v-2.062l-.005-.122a1.6 1.6 0 0 0-.857-1.298l-.05-.024-.029-.04a1.597 1.597 0 0 0-1.209-.617l-.201-.007-.097-.013a1.226 1.226 0 0 1-.215-.063l-.022-.01-.008-.013a1.266 1.266 0 0 1-.171-.438l-.01-.075v-.164l-.004-.12a1.6 1.6 0 0 0-.82-1.28l-.088-.044-.013-.02a1.598 1.598 0 0 0-1.278-.638h-2.075Z" fill="#FFF" fill-rule="nonzero"/><g fill-rule="nonzero"><path d="M348.627 18.128c.81.579 1.802.92 2.874.92v-2.062a2.91 2.91 0 0 1-.604-.063v1.623a4.928 4.928 0 0 1-2.873-.92v4.207a3.81 3.81 0 0 1-5.934 3.165 3.81 3.81 0 0 0 6.537-2.664v-4.206Zm.745-2.08a2.872 2.872 0 0 1-.745-1.681v-.265h-.572c.144.82.635 1.522 1.317 1.947Zm-5.95 7.335a1.743 1.743 0 0 1 1.917-2.716V18.56a3.847 3.847 0 0 0-.604-.035v1.64a1.746 1.746 0 0 0-2.273 1.662c0 .68.39 1.27.96 1.556Z" fill="#FF004F"/><path d="M348.024 17.626c.81.579 1.802.92 2.873.92v-1.623a2.885 2.885 0 0 1-1.525-.874 2.886 2.886 0 0 1-1.317-1.947h-1.502v8.232a1.743 1.743 0 0 1-3.132 1.05 1.743 1.743 0 0 1 1.314-3.218v-1.64a3.81 3.81 0 0 0-2.645 6.472 3.81 3.81 0 0 0 5.934-3.165v-4.207Z" fill="#000"/><path d="M350.897 16.923v-.439c-.539.001-1.068-.15-1.525-.435.405.443.938.749 1.525.874Zm-2.842-2.821a2.94 2.94 0 0 1-.031-.237V13.6h-2.075v8.233a1.743 1.743 0 0 1-2.528 1.55 1.743 1.743 0 0 0 3.132-1.05v-8.231h1.502Zm-3.32 4.423v-.467a3.81 3.81 0 0 0-2.645 6.94 3.81 3.81 0 0 1 2.645-6.473Z" fill="#00F2EA"/></g></g><g><path d="M72 56h34v34H72z"/><path d="M72.006 72.368C72.256 63.281 79.707 56 88.84 56c9.306 0 16.84 7.55 16.84 16.84 0 9.306-7.55 16.84-16.822 16.84-9.131.05-16.6-7.265-16.852-16.368L72 72.84l.006-.472Z" fill="#FFF" fill-rule="nonzero"/><path d="M89 59.4c-7.51 0-13.6 6.089-13.6 13.6 0 7.511 6.09 13.6 13.6 13.6 7.512 0 13.6-6.089 13.6-13.6 0-7.51-6.088-13.6-13.6-13.6Zm6.237 19.615a.847.847 0 0 1-1.166.281c-3.193-1.95-7.213-2.392-11.947-1.31a.848.848 0 0 1-.377-1.654c5.18-1.184 9.624-.674 13.209 1.517.4.245.526.767.28 1.166Zm1.664-3.703c-.307.499-.96.657-1.458.35-3.656-2.248-9.228-2.899-13.552-1.586a1.062 1.062 0 0 1-1.323-.707 1.062 1.062 0 0 1 .707-1.322c4.939-1.499 11.08-.773 15.277 1.807.499.307.656.96.35 1.458Zm.143-3.857c-4.383-2.603-11.615-2.842-15.8-1.572a1.272 1.272 0 1 1-.738-2.435c4.804-1.458 12.79-1.176 17.837 1.82a1.27 1.27 0 1 1-1.298 2.188Z" fill="#1ED760" fill-rule="nonzero"/></g><g><path d="M0 106h27V79H0z"/><path d="M6.478 81.857c-4.327.27-5.93 2.241-6.354 6.955l-.052.692a30.7 30.7 0 0 0-.021.36l-.03.75c-.012.384-.019.783-.021 1.197.001.277.005.548.01.811l.024.772c.232 5.765 1.704 8.101 6.443 8.399l.961.05.539.021 1.172.036 1.275.026 1.345.017.69.004h2.086l1.369-.012 1.313-.02 1.227-.032c.39-.012.762-.025 1.109-.04l.96-.05c4.326-.27 5.93-2.241 6.353-6.955l.052-.692c.008-.119.015-.239.021-.36l.03-.75c.012-.384.019-.783.021-1.197a50.387 50.387 0 0 0-.01-.811l-.024-.772c-.232-5.765-1.704-8.101-6.443-8.399l-.96-.05a76.49 76.49 0 0 0-.538-.021l-1.172-.036-1.274-.026-1.345-.017-.689-.004h-2.087l-1.369.012-1.313.021-1.228.03c-.39.013-.762.026-1.11.041l-.96.05Z" fill="#FFF" fill-rule="nonzero"/><path d="M11.294 94.962v-6.27l5.647 3.136-5.647 3.134Zm12.562-8.242a2.682 2.682 0 0 0-1.91-1.877c-1.685-.443-8.442-.443-8.442-.443s-6.757 0-8.442.443a2.682 2.682 0 0 0-1.91 1.877C2.7 88.374 2.7 91.827 2.7 91.827s0 3.453.452 5.108c.248.913.98 1.632 1.91 1.876 1.685.444 8.442.444 8.442.444s6.757 0 8.442-.444a2.683 2.683 0 0 0 1.91-1.876c.451-1.655.451-5.108.451-5.108s0-3.453-.451-5.107Z" fill="red" fill-rule="nonzero"/></g><g><path d="M34 20h20V0H34z"/><path d="M46.83.978c.966 0 1.887.276 2.68.774l.111.072.076-.034c.076-.036.15-.075.223-.116l.218-.13c1.392-.887 3.1.192 3.08 1.694l-.007.117.065.086.085.13.088.165.05.111.062.178.03.115.008.032c.01.05.02.099.027.148l.015.149.004.148-.006.135a1.986 1.986 0 0 1-.09.46l-.055.149-.048.106-.068.13-.082.128-.165.256a8.859 8.859 0 0 1-.99 1.21l-.098.094-.004.134c-.27 5.916-4.615 11.079-10.813 11.244l-.306.004c-2.177 0-4.265-.671-6.055-1.905-1.684-1.16-.74-3.765 1.239-3.645l.304.03-.007-.011a5.552 5.552 0 0 1-.491-1.055l-.073-.226a2.023 2.023 0 0 1-.085-.573l.001-.06-.024-.031a5.612 5.612 0 0 1-1.096-3.122l-.005-.276c0-.3.063-.578.175-.826l.054-.111a5.693 5.693 0 0 1-.197-1.25l-.005-.258c0-.951.234-1.874.674-2.69a2 2 0 0 1 3.355-.256c.812 1.073 1.856 1.88 3.024 2.351l.15.057.027-.089c.66-2.092 2.498-3.644 4.729-3.739l.217-.004Z" fill="#FFF" fill-rule="nonzero"/><path d="M51.644 4.598a6.041 6.041 0 0 1-1.843.544 3.43 3.43 0 0 0 1.412-1.911 6.147 6.147 0 0 1-2.04.837c-.584-.671-1.418-1.09-2.342-1.09-1.771 0-3.208 1.547-3.208 3.455 0 .271.027.534.082.787-2.667-.144-5.032-1.518-6.616-3.611a3.656 3.656 0 0 0-.434 1.739c0 1.198.566 2.256 1.428 2.876a3.04 3.04 0 0 1-1.455-.431v.042c0 1.675 1.107 3.072 2.576 3.389-.27.08-.553.121-.846.121-.207 0-.409-.02-.604-.06.409 1.371 1.593 2.371 2.998 2.398-1.098.927-2.483 1.48-3.986 1.48-.26 0-.515-.016-.766-.048a8.635 8.635 0 0 0 4.92 1.552c5.904 0 9.132-5.265 9.132-9.832 0-.15-.003-.3-.008-.448a6.792 6.792 0 0 0 1.6-1.789" fill="#00ACEE" fill-rule="nonzero"/></g></g></svg>