<svg version="1.1" id="Layer_1" xmlns="http://www.w3.org/2000/svg" x="0" y="0" width="1024" height="413.5" style="enable-background:new 0 0 1024 413.5" xml:space="preserve"><style>.st0{fill:#fff}.st1{fill-rule:evenodd;clip-rule:evenodd}.st3{fill:none}.st4{fill-rule:evenodd;clip-rule:evenodd;fill:#fff}.st17{fill:none;stroke:#fff;stroke-width:2.9026;stroke-linecap:round;stroke-linejoin:round}</style><g id="icon_x2F_link_x2F_beatport_x2F_BG" transform="translate(175 1)"><path id="Path_11_" class="st0" d="M737.8 183.1c.3-9.2 7.8-16.5 17-16.5 9.4 0 17 7.6 17 17s-7.6 17-17 17c-9.2 0-16.8-7.3-17-16.5v-1z"/><circle id="Oval_4_" class="st1" cx="754.9" cy="183.7" r="13.7"/><path id="Symbol_Green_Vector" d="M760.2 188c0-1.8-1.5-3.2-3.3-3.2-1.8 0-3.2 1.5-3.2 3.2 0 1.8 1.4 3.2 3.2 3.2 1.9.1 3.3-1.5 3.3-3.2m2.7 0c0 3.3-2.6 6-6 6-3.3 0-6-2.6-6-6 0-1.6.6-3 1.6-4l-4 4-2.1-2.1 4.6-4.5c.6-.6.9-1.4.9-2.3v-5.7h3v5.7c0 1.7-.6 3.2-1.8 4.4l-.1.1c1.1-1 2.5-1.6 4-1.6 3.3.1 5.9 2.8 5.9 6" style="fill-rule:evenodd;clip-rule:evenodd;fill:#01ff95"/></g><g id="icon_x2F_link_x2F_soundcloud_x2F_BG" transform="translate(0 198)"><path id="Rectangle_9_" class="st3" d="M787.6 110.5h60.8v60.8h-60.8z"/><path id="Fill-1_1_" class="st4" d="M838.4 135.4c-1.4-5.6-7.6-9.8-15.1-9.8-4.8 0-9 1.7-11.8 4.4-.8-.2-1.7-.3-2.5-.3-4.2 0-7.9 2.2-10.1 5.5-6.3.4-11.3 5.6-11.3 12 0 6.6 5.4 12 12 12h36.7c6.6 0 12-5.4 12-12 .1-5.9-4.2-10.8-9.9-11.8"/><path id="Shape-Copy" d="M796 142.8c-.1 0-.2.1-.2.2l-.5 4.4.5 4.3c0 .1.1.2.2.2s.2-.1.2-.2l.5-4.3-.5-4.4c0-.1-.1-.2-.2-.2zm-1.8 1.7c-.1 0-.2.1-.2.2l-.4 2.7.4 2.7c0 .1.1.2.2.2s.2-.1.2-.2l.4-2.7-.4-2.7c0-.1-.1-.2-.2-.2zm3.7-2.6c-.1 0-.2.1-.2.2l-.5 5.2.5 5c0 .1.1.2.2.2s.2-.1.2-.2l.5-5-.5-5.2c0-.1-.1-.2-.2-.2zm1.9-.2c-.2 0-.3.1-.3.3l-.4 5.4.4 5.2c0 .2.1.3.3.3.2 0 .3-.1.3-.3l.5-5.2-.5-5.4c0-.1-.1-.3-.3-.3zm2.3.7c0-.2-.2-.3-.3-.3-.2 0-.3.1-.3.3l-.4 5 .4 5.2c0 .2.2.3.3.3.2 0 .3-.1.3-.3l.5-5.2-.5-5zm1.6-3.5c-.2 0-.4.2-.4.4l-.4 8.1.4 5.2c0 .2.2.4.4.4s.4-.2.4-.4l.4-5.2-.4-8.1c0-.2-.2-.4-.4-.4zm2-1.8c-.2 0-.4.2-.4.4l-.4 10 .4 5.2c0 .2.2.4.4.4s.4-.2.4-.4l.4-5.2-.4-10c0-.3-.2-.4-.4-.4zm2-.9c-.2 0-.4.2-.5.5l-.3 10.8.3 5.1c0 .3.2.4.5.4.2 0 .4-.2.4-.5l.4-5.1-.4-10.8c0-.2-.2-.4-.4-.4zm2.5.1c0-.3-.2-.5-.5-.5s-.5.2-.5.5l-.3 11.1.3 5.1c0 .3.2.5.5.5s.5-.2.5-.5l.3-5.1-.3-11.1zm1.5-.3c-.3 0-.5.2-.5.5l-.3 10.9.3 5.1c0 .3.2.5.5.5s.5-.2.5-.5l.3-5.1-.3-10.9c0-.3-.2-.5-.5-.5zm2.1.4c-.3 0-.6.3-.6.6l-.3 10.5.3 5c0 .3.3.6.6.6s.6-.3.6-.6l.3-5-.3-10.5c-.1-.4-.3-.6-.6-.6zm2.4-2c-.1-.1-.2-.1-.3-.1-.1 0-.2 0-.3.1-.2.1-.3.3-.3.5v.1l-.2 12.3.2 5c0 .1.1.3.1.4.1.1.3.2.5.2s.3-.1.4-.2c.1-.1.2-.3.2-.4v-.5l.2-4.5-.3-12.4c0-.2-.1-.4-.2-.5zm2-1.1c-.2-.1-.5-.1-.8.1-.2.1-.2.3-.2.5v.1l-.3 13.5.1 2.5.1 2.4c0 .4.3.7.7.7.4 0 .7-.3.7-.7l.3-4.9-.3-13.6c0-.3-.1-.5-.3-.6zm18.1 7.7c-.8 0-1.6.2-2.3.5-.5-5.4-5-9.7-10.5-9.7-1.3 0-2.6.2-3.8.7-.5.2-.6.4-.6.7v19.1c0 .4.3.7.6.7h16.6c3.3 0 6-2.7 6-6s-2.7-6-6-6z" style="fill:#ff6400"/></g><g id="icon_x2F_link_x2F_instagram_x2F_BG" transform="translate(159 143)"><path id="Rectangle_8_" class="st3" d="M742.3 126.1h45.8v45.8h-45.8z"/><path id="Path_10_" class="st0" d="M772.6 126.1h-14.8c-8.5 0-15.5 6.9-15.5 15.5v14.8c0 8.5 6.9 15.5 15.5 15.5h14.8c8.5 0 15.5-6.9 15.5-15.5v-14.8c0-8.5-7-15.5-15.5-15.5z"/><g id="icon_x2F_instagram" transform="translate(6.4 6.4)"><linearGradient id="Shape_5_" gradientUnits="userSpaceOnUse" x1="346.518" y1="59.404" x2="346.518" y2="60.112" gradientTransform="matrix(51.2 0 0 -51.2 -16982.92 3202.32)"><stop offset="0" style="stop-color:#e09b3d"/><stop offset=".3" style="stop-color:#c74c4d"/><stop offset=".6" style="stop-color:#c21975"/><stop offset="1" style="stop-color:#7024c4"/></linearGradient><path id="Shape_4_" d="M766.2 124.3h-14.8c-6 0-10.9 4.9-10.9 10.9V150c0 6 4.9 10.9 10.9 10.9h14.8c6 0 10.9-4.9 10.9-10.9v-14.8c0-6-4.9-10.9-10.9-10.9zm7.2 25.7c0 4-3.2 7.2-7.2 7.2h-14.8c-4 0-7.2-3.2-7.2-7.2v-14.8c0-4 3.2-7.2 7.2-7.2h14.8c4 0 7.2 3.2 7.2 7.2V150z" style="fill:url(#Shape_5_)"/><linearGradient id="Shape_6_" gradientUnits="userSpaceOnUse" x1="350.936" y1="60.732" x2="350.936" y2="62.1" gradientTransform="matrix(25.6 0 0 -25.6 -8225.161 1714.96)"><stop offset="0" style="stop-color:#e09b3d"/><stop offset=".3" style="stop-color:#c74c4d"/><stop offset=".6" style="stop-color:#c21975"/><stop offset="1" style="stop-color:#7024c4"/></linearGradient><path id="Shape_1_" d="M758.8 133.5c-5 0-9.2 4.1-9.2 9.2s4.1 9.2 9.2 9.2 9.2-4.1 9.2-9.2-4.2-9.2-9.2-9.2zm0 14.7c-3.1 0-5.6-2.5-5.6-5.6s2.5-5.6 5.6-5.6c3.1 0 5.6 2.5 5.6 5.6 0 3.1-2.5 5.6-5.6 5.6z" style="fill:url(#Shape_6_)"/><linearGradient id="Oval_5_" gradientUnits="userSpaceOnUse" x1="376.874" y1="66.46" x2="376.874" y2="72.169" gradientTransform="matrix(6.4 0 0 -6.4 -1644.04 586.64)"><stop offset="0" style="stop-color:#e09b3d"/><stop offset=".3" style="stop-color:#c74c4d"/><stop offset=".6" style="stop-color:#c21975"/><stop offset="1" style="stop-color:#7024c4"/></linearGradient><circle id="Oval_3_" cx="768" cy="133.5" r="2.3" style="fill:url(#Oval_5_)"/></g></g><g id="icon_x2F_link_x2F_tiktok_x2F_BG" transform="translate(31 89)"><path id="Rectangle_7_" class="st3" d="M778.7 141.5h38.6v38.6h-38.6z"/><path id="Path_9_" class="st0" d="M797.9 141.5h-.3c-2 .1-3.6 1.8-3.6 3.9v6.8h-.3c-7.2 0-13.1 5.8-13.1 13.1v.5c.2 4 2.1 7.6 5.3 10l.2.1.1.1c2.5 2.3 5.6 3.5 8.9 3.5h.5c7-.2 12.6-6 12.6-13.1V162l.5.1c.9.1 1.7.2 2.6.2 2.1 0 3.9-1.7 3.9-3.9v-5.3c-.1-1.4-.9-2.5-2.1-3.1h-.1l-.1-.1c-.7-.9-1.7-1.4-2.9-1.5h-.7c-.2 0-.3-.1-.5-.2h-.1c-.2-.3-.3-.7-.4-1.1V146.2c-.1-1.3-.9-2.5-2-3.1l-.2-.1c-.7-.9-1.8-1.5-3.1-1.5h-5.1z"/><g id="icon_x2F_tiktok" transform="translate(8.1 5.4)"><path id="Shape_2_" d="M796.3 150.9c2 1.4 4.4 2.2 6.9 2.2v-5c-.5 0-1-.1-1.5-.2v3.9c-2.6 0-5-.8-6.9-2.2v10.2c0 5.1-4.1 9.2-9.2 9.2-1.9 0-3.7-.6-5.1-1.6 1.7 1.7 4 2.8 6.6 2.8 5.1 0 9.2-4.1 9.2-9.2v-10.1zm1.8-5c-1-1.1-1.7-2.5-1.8-4.1v-.6h-1.4c.4 1.9 1.6 3.6 3.2 4.7zm-14.4 17.7c-.6-.7-.9-1.6-.9-2.5 0-2.3 1.9-4.2 4.2-4.2.4 0 .9.1 1.3.2V152c-.5-.1-1-.1-1.5-.1v4c-.4-.1-.8-.2-1.3-.2-2.3 0-4.2 1.9-4.2 4.2.1 1.6 1.1 3 2.4 3.7z" style="fill:#ff004f"/><path id="Path_8_" d="M794.8 149.7c2 1.4 4.4 2.2 6.9 2.2V148c-1.4-.3-2.7-1.1-3.7-2.1-1.6-1-2.8-2.7-3.2-4.7h-3.6V161c0 2.3-1.9 4.2-4.2 4.2-1.4 0-2.6-.7-3.4-1.7-1.4-.7-2.3-2.1-2.3-3.8 0-2.3 1.9-4.2 4.2-4.2.4 0 .9.1 1.3.2v-4c-5 .1-9 4.2-9 9.2 0 2.5 1 4.8 2.6 6.4 1.5 1 3.2 1.6 5.1 1.6 5.1 0 9.2-4.1 9.2-9.2l.1-10z"/><path id="Shape_3_" d="M801.8 148v-1.1c-1.3 0-2.6-.4-3.7-1.1 1 1.1 2.3 1.9 3.7 2.2zm-6.9-6.8c0-.2-.1-.4-.1-.6v-.6h-5v19.9c0 2.3-1.9 4.2-4.2 4.2-.7 0-1.3-.2-1.9-.4.8 1 2 1.7 3.4 1.7 2.3 0 4.2-1.9 4.2-4.2v-19.9h3.6zm-8 10.6v-1.1c-.4-.1-.8-.1-1.3-.1-5.1 0-9.2 4.1-9.2 9.2 0 3.2 1.6 6 4.1 7.6-1.6-1.7-2.6-3.9-2.6-6.4 0-5 4-9 9-9.2z" style="fill:#00f2ea"/></g></g><g id="Group-38" transform="translate(15)"><circle id="Oval_2_" class="st4" cx="795.8" cy="179.3" r="12.5"/><path id="Combined-Shape" d="M795.9 169.7c5.3 0 9.6 4.3 9.6 9.6v.1c0 5.3-4.3 9.6-9.6 9.6h-.1c-5.3 0-9.6-4.3-9.6-9.6v-.1c0-5.3 4.3-9.6 9.7-9.6zm3.5 4.2c-.4.4-.4 1 0 1.4 2.2 2.3 2.3 5.9.1 8.1-.4.4-.4 1 0 1.4.4.4 1 .4 1.4 0 2.9-3 2.9-7.8-.1-10.9-.4-.3-1-.3-1.4 0zm-9.2.1c-3 3-3 7.9-.1 10.9.4.4 1 .4 1.4 0 .4-.4.4-1 0-1.4-2.2-2.2-2.2-5.9.1-8.1.4-.4.4-1 0-1.4-.4-.4-1-.4-1.4 0zm5.6 3.6c-1.4 0-2.5 1.1-2.5 2.5s1.1 2.5 2.5 2.5 2.5-1.1 2.5-2.5-1.1-2.5-2.5-2.5z" style="fill-rule:evenodd;clip-rule:evenodd;fill:#f68051"/></g><g id="spotify-copy-3" transform="translate(74)"><path id="Rectangle" class="st3" d="M48.6 152h43.5v43.5H48.6z"/><g id="icon_x2F_link_x2F_spotify_x2F_BG"><path id="Rectangle_1_" class="st3" d="M48.6 152h43.5v43.5H48.6z"/><path id="Path" class="st0" d="M48.7 172.9c.3-11.6 9.8-20.9 21.5-20.9 11.9 0 21.5 9.7 21.5 21.5 0 11.9-9.7 21.5-21.5 21.5-11.7.1-21.2-9.3-21.6-20.9v-.6l.1-.6z"/><path id="Shape" d="M70.4 156.3c-9.6 0-17.4 7.8-17.4 17.4 0 9.6 7.8 17.4 17.4 17.4 9.6 0 17.4-7.8 17.4-17.4 0-9.6-7.8-17.4-17.4-17.4zm8 25.1c-.3.5-1 .7-1.5.4-4.1-2.5-9.2-3.1-15.3-1.7-.6.1-1.2-.2-1.3-.8-.1-.6.2-1.2.8-1.3 6.6-1.5 12.3-.9 16.9 1.9.5.3.7 1 .4 1.5zm2.1-4.7c-.4.6-1.2.8-1.9.4-4.7-2.9-11.8-3.7-17.3-2-.7.2-1.5-.2-1.7-.9-.2-.7.2-1.5.9-1.7 6.3-1.9 14.2-1 19.5 2.3.7.4.9 1.2.5 1.9zm.2-5c-5.6-3.3-14.9-3.6-20.2-2-.9.3-1.8-.2-2-1.1-.3-.9.2-1.8 1.1-2 6.1-1.9 16.4-1.5 22.8 2.3.8.5 1 1.5.6 2.2-.5.8-1.5 1.1-2.3.6z" style="fill:#1ed760"/></g></g><g id="icon_x2F_link_x2F_youtube_x2F_BG" transform="translate(125 129)"><path id="Rectangle_2_" class="st3" d="M32.9 112h33.8v33.8H32.9z"/><path id="Path_1_" class="st0" d="M41 115.6c-5.4.3-7.4 2.8-8 8.7l-.1.9v4.9c.3 7.2 2.1 10.1 8.1 10.5l1.2.1H56c.5 0 1 0 1.4-.1l1.2-.1c5.4-.3 7.4-2.8 8-8.7l.1-.9V126c-.3-7.2-2.1-10.1-8.1-10.5l-1.2-.1H43.6c-.5 0-1 0-1.4.1l-1.2.1z"/><path id="Fill-1" d="M47 132v-7.9l7.1 3.9-7.1 4zm15.7-10.3c-.3-1.1-1.2-2-2.4-2.4-2.1-.6-10.6-.6-10.6-.6s-8.5 0-10.6.6c-1.2.3-2.1 1.2-2.4 2.4-.6 2.1-.6 6.4-.6 6.4s0 4.3.6 6.4c.3 1.1 1.2 2 2.4 2.4 2.1.6 10.6.6 10.6.6s8.5 0 10.6-.6c1.2-.3 2.1-1.2 2.4-2.4.6-2.1.6-6.4.6-6.4s0-4.3-.6-6.4z" style="fill:red"/></g><g id="icon_x2F_link_x2F_twitter_x2F_BG" transform="translate(231 59)"><path id="Rectangle_3_" class="st3" d="M0 133.7h24.9v22.1H0z"/><path id="Path_2_" class="st0" d="M16 134.8c1.2 0 2.3.3 3.3.9l.1.1h.1c.1 0 .2-.1.3-.1l.3-.1c1.7-1 3.9.2 3.8 1.9v.1l.1.1.1.1.1.2.1.1.1.2V139.1c0 .2-.1.3-.1.5l-.1.2-.1.1-.1.1-.2.3c-.4.5-.8.9-1.2 1.3l-.1.1v.1c-.3 6.5-5.7 12.2-13.4 12.4h-.4c-2.7 0-5.3-.7-7.5-2.1-2.1-1.3-.9-4.2 1.5-4h.4c-.2-.4-.5-.8-.6-1.2l-.1-.2c-.1-.2-.1-.4-.1-.6v-.1c-.8-1-1.3-2.2-1.4-3.4v-.3c0-.3.1-.6.2-.9l.1-.1c-.1-.4-.2-.9-.2-1.4v-.3c0-1.1.3-2.1.8-3 .9-1.4 3.1-1.6 4.2-.3 1 1.2 2.3 2.1 3.8 2.6l.2.1v-.1c.8-2.3 3.1-4 5.9-4.1h.1z"/><path id="path-1-copy" d="M22 138.8c-.7.3-1.5.5-2.3.6.8-.5 1.5-1.2 1.8-2.1-.8.4-1.6.8-2.5.9-.7-.7-1.8-1.2-2.9-1.2-2.2 0-4 1.7-4 3.8 0 .3 0 .6.1.9-3.3-.2-6.3-1.7-8.2-4-.3.6-.5 1.2-.5 1.9 0 1.3.7 2.5 1.8 3.2-.7 0-1.3-.2-1.8-.5 0 1.9 1.4 3.4 3.2 3.7-.3.1-.7.1-1.1.1-.3 0-.5 0-.8-.1.5 1.5 2 2.6 3.7 2.6-1.4 1-3.1 1.6-5 1.6-.3 0-.6 0-1-.1 1.8 1.1 3.9 1.7 6.1 1.7 7.3 0 11.3-5.8 11.3-10.9v-.5c.8-.2 1.5-.9 2.1-1.6" style="fill:#00acee"/></g><g id="Group-46" transform="translate(0 196)"><path id="Rectangle_4_" class="st4" d="M78.5 91.3h19.3c3.8 0 6.9 3.1 6.9 6.9v19.3c0 3.8-3.1 6.9-6.9 6.9H78.5c-3.8 0-6.9-3.1-6.9-6.9V98.2c0-3.8 3.1-6.9 6.9-6.9z"/><path id="Rectangle_5_" d="M79.9 94.7h16.4c2.7 0 4.9 2.2 4.9 4.9V116c0 2.7-2.2 4.9-4.9 4.9H79.9c-2.7 0-4.9-2.2-4.9-4.9V99.6c0-2.7 2.2-4.9 4.9-4.9z" style="fill-rule:evenodd;clip-rule:evenodd;fill:#ffdb00"/><path id="Rectangle_6_" class="st1" d="M81.5 102.3h.2c.9 0 1.6.7 1.6 1.6v9.9c0 .9-.7 1.6-1.6 1.6h-.2c-.9 0-1.6-.7-1.6-1.6V104c-.1-.9.7-1.7 1.6-1.7z"/><path id="Rectangle-Copy-3" class="st1" d="M88.4 106.5h.2c.9 0 1.6.7 1.6 1.6v6.4c0 .9-.7 1.6-1.6 1.6h-.2c-.9 0-1.6-.7-1.6-1.6v-6.4c-.1-.9.7-1.6 1.6-1.6z"/><path id="Rectangle-Copy-4" class="st1" d="M94.6 99.6h.2c.9 0 1.6.7 1.6 1.6v13.3c0 .9-.7 1.6-1.6 1.6h-.2c-.9 0-1.6-.7-1.6-1.6v-13.3c0-.9.7-1.6 1.6-1.6z"/></g><g id="Group-45" transform="translate(144 251)"><path id="Rectangle-Copy-12" class="st4" d="M33.9 74.2h20.7c3.8 0 6.9 3.1 6.9 6.9v20.7c0 3.8-3.1 6.9-6.9 6.9H33.9c-3.8 0-6.9-3.1-6.9-6.9V81.1c0-3.8 3.1-6.9 6.9-6.9z"/><g id="Group-2-Copy" transform="translate(5 5)"><path id="Rectangle-Copy-5" d="M30.6 72.7h17.3c2.8 0 5.2 2.3 5.2 5.2v17.3c0 2.8-2.3 5.2-5.2 5.2H30.6c-2.8 0-5.2-2.3-5.2-5.2V77.8c0-2.8 2.3-5.1 5.2-5.1z" style="fill-rule:evenodd;clip-rule:evenodd;fill:#c500ff"/><path id="Path_3_" class="st3" d="M26.8 74.1H51v24.1H26.8z"/><circle id="Oval" class="st17" cx="33" cy="80.3" r="2.1"/><circle id="Oval_1_" class="st17" cx="45.4" cy="92.7" r="2.1"/><path id="Path_4_" class="st17" d="M38.5 80.3h4.9c1.1 0 2 .9 2 2.1v8.3"/><path id="Path_5_" class="st17" d="m41.3 83.7-2.8-3.1 2.8-3.1"/><path id="Path_6_" class="st17" d="M39.9 92.7H35c-1.1 0-2-.9-2-2.1v-8.3"/><path id="Path_7_" class="st17" d="m37.2 89.3 2.7 3.1-2.7 3.1"/></g></g></svg>