<svg xmlns="http://www.w3.org/2000/svg" width="48" height="48" viewBox="0 0 48 48"><g fill="none" fill-rule="evenodd"><rect width="48" height="48" fill="#C500FF" rx="8"/><polygon points="3 3 45 3 45 45 3 45"/><path fill="#FFF" fill-rule="nonzero" d="M13.5 8.1779375C10.560706 8.1779375 8.1779375 10.560706 8.1779375 13.5 8.1779375 16.439294 10.560706 18.8220625 13.5 18.8220625 16.439294 18.8220625 18.8220625 16.439294 18.8220625 13.5 18.8220625 10.560706 16.439294 8.1779375 13.5 8.1779375ZM13.5 11.8220625C14.4266993 11.8220625 15.1779375 12.5733007 15.1779375 13.5 15.1779375 14.4266993 14.4266993 15.1779375 13.5 15.1779375 12.5733007 15.1779375 11.8220625 14.4266993 11.8220625 13.5 11.8220625 12.5733007 12.5733007 11.8220625 13.5 11.8220625ZM34.5 29.1779375C31.560706 29.1779375 29.1779375 31.560706 29.1779375 34.5 29.1779375 37.439294 31.560706 39.8220625 34.5 39.8220625 37.439294 39.8220625 39.8220625 37.439294 39.8220625 34.5 39.8220625 31.560706 37.439294 29.1779375 34.5 29.1779375ZM34.5 32.8220625C35.4266993 32.8220625 36.1779375 33.5733007 36.1779375 34.5 36.1779375 35.4266993 35.4266993 36.1779375 34.5 36.1779375 33.5733007 36.1779375 32.8220625 35.4266993 32.8220625 34.5 32.8220625 33.5733007 33.5733007 32.8220625 34.5 32.8220625Z"/><path fill="#FFF" fill-rule="nonzero" d="M31,11.6779375 C33.8658116,11.6779375 36.2025762,13.9430568 36.3176233,16.780625 L36.3220625,17 L36.3220625,31 C36.3220625,32.0062973 35.5062973,32.8220625 34.5,32.8220625 C33.5440175,32.8220625 32.7599903,32.0858344 32.6839776,31.1494375 L32.6779375,31 L32.6779375,17 C32.6779375,16.1220744 32.003696,15.4016262 31.1447789,15.3282215 L31,15.3220625 L22.25,15.3220625 C21.2437027,15.3220625 20.4279375,14.5062973 20.4279375,13.5 C20.4279375,12.5440175 21.1641656,11.7599903 22.1005625,11.6839776 L22.25,11.6779375 L31,11.6779375 Z"/><path fill="#FFF" fill-rule="nonzero" d="M26.2116073 6.96160725C26.9231669 6.25004758 28.0768331 6.25004758 28.7883927 6.96160725 29.4604213 7.63363583 29.4977562 8.70001248 28.9003975 9.41585751L28.7883927 9.53839275 24.827 13.5 28.7883927 17.4616073C29.4604213 18.1336358 29.4977562 19.2000125 28.9003975 19.9158575L28.7883927 20.0383927C28.1163642 20.7104213 27.0499875 20.7477562 26.3341425 20.1503975L26.2116073 20.0383927 20.9616073 14.7883927C20.2895787 14.1163642 20.2522438 13.0499875 20.8496025 12.3341425L20.9616073 12.2116073 26.2116073 6.96160725ZM13.5 15.1779375C14.4559825 15.1779375 15.2400097 15.9141656 15.3160224 16.8505625L15.3220625 17 15.3220625 31C15.3220625 31.8779256 15.996304 32.5983738 16.8552211 32.6717785L17 32.6779375 25.75 32.6779375C26.7562973 32.6779375 27.5720625 33.4937027 27.5720625 34.5 27.5720625 35.4559825 26.8358344 36.2400097 25.8994375 36.3160224L25.75 36.3220625 17 36.3220625C14.1341884 36.3220625 11.7974238 34.0569432 11.6823767 31.219375L11.6779375 31 11.6779375 17C11.6779375 15.9937027 12.4937027 15.1779375 13.5 15.1779375Z"/><path fill="#FFF" fill-rule="nonzero" d="M19.2116073,27.9616073 C19.8836358,27.2895787 20.9500125,27.2522438 21.6658575,27.8496025 L21.7883927,27.9616073 L27.0383927,33.2116073 C27.7104213,33.8836358 27.7477562,34.9500125 27.1503975,35.6658575 L27.0383927,35.7883927 L21.7883927,41.0383927 C21.0768331,41.7499524 19.9231669,41.7499524 19.2116073,41.0383927 C18.5395787,40.3663642 18.5022438,39.2999875 19.0996025,38.5841425 L19.2116073,38.4616073 L23.173,34.5 L19.2116073,30.5383927 C18.5395787,29.8663642 18.5022438,28.7999875 19.0996025,28.0841425 L19.2116073,27.9616073 Z"/></g></svg>