<?xml version="1.0" encoding="UTF-8"?>
<svg width="64px" height="64px" viewBox="0 0 64 64" version="1.1" xmlns="http://www.w3.org/2000/svg" xmlns:xlink="http://www.w3.org/1999/xlink">
    <title>database-curation-icon</title>
    <g id="Resources---FINAL" stroke="none" stroke-width="1" fill="none" fill-rule="evenodd">
        <g id="database-curation-icon">
            <rect id="Rectangle" fill-opacity="0" fill="#FFFFFF" x="0" y="0" width="64" height="64"></rect>
            <path d="M39.2554881,46.4095244 C50.1584322,46.4095244 58.9976674,37.589969 59,26.7089771 C59.0023317,15.8279853 50.1668781,7.00465906 39.2639349,7 C28.3609918,6.99534463 19.5179731,15.8111195 19.5109717,26.6921093 C19.5098508,31.9184802 21.5897106,36.9311137 25.2927687,40.6267161 C28.9958268,44.3223184 34.0185732,46.3979905 39.2554881,46.3968715" id="Path" fill="#B2CAFA" fill-rule="nonzero"></path>
            <polyline id="Path" stroke="#000000" stroke-width="2.5" points="30.2495883 34.4605598 31.2934444 43.5031561 22.5199822 44.5111695"></polyline>
            <path d="M24.7725137,11.2256422 C20.480531,16.066592 18.7126683,22.6365484 19.9972666,28.9720241 C21.2818649,35.3074997 25.4701248,40.6746348 31.3103489,43.4694151" id="Path" stroke="#000000" stroke-width="2.5"></path>
            <path d="M52.343837,39.1885218 C52.343837,39.1168221 52.343837,39.04934 52.343837,38.9776403 C52.347007,35.9897111 50.7792181,33.2191715 48.2136778,31.678973 C45.6481374,30.1387745 42.4610125,30.0547454 39.8175644,31.457608 C38.5418299,26.8634698 34.8789469,23.3153937 30.2395441,22.1797944 C25.6001414,21.0441952 20.7079355,22.498219 17.446985,25.9819005 C14.1860346,29.4655819 13.0650265,34.4354894 14.5156772,38.9776403 C11.4687926,38.9821608 8.65577156,40.6085587 7.13625196,43.2441856 C5.61673237,45.8798126 5.62156535,49.1242542 7.14893037,51.7553607 C8.6762954,54.3864672 11.4941494,56.004511 14.541034,56 L50.4632056,56 C54.8048072,55.9969244 58.451154,52.7392542 58.9328611,48.4331448 C59.4145683,44.1270354 56.5778688,40.1470504 52.343837,39.1885218 L52.343837,39.1885218 Z" id="Path" stroke="#000000" stroke-width="2.5"></path>
            <g id="icons_Database-curation" transform="translate(6.000000, 7.000000)"></g>
        </g>
    </g>
</svg>