<?xml version="1.0" encoding="UTF-8"?>
<svg width="105px" height="32px" viewBox="0 0 105 32" version="1.1" xmlns="http://www.w3.org/2000/svg" xmlns:xlink="http://www.w3.org/1999/xlink">
    <title>GoCrypto_logo_colour</title>
    <g id="04/06---payment" stroke="none" stroke-width="1" fill="none" fill-rule="evenodd">
        <g id="Checkout---NEW_v2.4-FINAL" transform="translate(-188.000000, -1366.000000)">
            <g id="payment-method" transform="translate(156.000000, 889.000000)">
                <g id="other---no-trial" transform="translate(0.000000, 369.000000)">
                    <g id="gocrypto" transform="translate(0.000000, 108.147904)">
                        <g id="GoCrypto_logo_colour" transform="translate(32.135255, 0.000000)">
                            <rect id="Rectangle" fill="#FFE702" fill-rule="nonzero" x="0" y="0" width="104.761358" height="31.7465356"></rect>
                            <path d="M26.2910596,20.316845 C26.5680286,19.8824651 27.0862417,19.6296924 27.6285783,19.7188792 C27.6819303,19.7276596 27.7338916,19.7401356 27.7849227,19.7553855 C27.7292497,20.4171213 27.6109491,21.0691541 27.4276954,21.7022398 C27.3381568,22.0109265 27.0551571,22.2124036 26.7480326,22.2124036 C26.6830825,22.2124036 26.6172038,22.2031627 26.5517901,22.1842156 C26.176004,22.0765467 25.959348,21.6856034 26.0679078,21.3117587 C26.1620865,20.9855128 26.2358518,20.653259 26.2910596,20.316845 Z M18.7774358,9.33451943 C20.7078615,9.05124819 22.6758646,9.67324305 24.3177219,11.0859017 C26.2736632,12.767969 27.558292,15.3797933 27.7856204,18.0558514 C28.4504356,17.9967011 29.1110743,17.8525246 29.7448082,17.6228579 L29.7448082,17.6228579 C29.9665663,17.5424514 30.2101316,17.6552051 30.2903928,17.874705 C30.3664773,18.0831152 30.2662693,18.3127819 30.0681701,18.4038175 C28.9366364,18.9190661 27.6830905,19.1903223 26.4198023,19.1866253 C25.5749798,19.1857011 24.7255187,19.0609322 23.9066783,18.8183276 C23.9758034,19.7277514 23.9043589,20.6473434 23.6960531,21.5368973 C23.670536,21.643645 23.6427011,21.750391 23.6134726,21.856675 L23.6134726,21.856675 L22.1386291,21.856675 C22.2077558,21.6454933 22.2685324,21.4315375 22.319565,21.2157347 C22.5737996,20.1302463 22.5863248,18.9832983 22.3460076,17.8931901 L22.3460076,17.8931901 L22.3371939,17.8488276 C22.2634284,17.4754465 22.5074558,17.1126928 22.8823133,17.0392181 C23.0507225,17.0059451 23.2182015,17.0373682 23.356917,17.1150034 C24.2690103,17.6284021 25.300333,17.9509541 26.3636657,18.0516926 C26.1414427,15.7776672 25.0465606,13.5748067 23.3931036,12.1524442 C22.455031,11.3456059 20.9286928,10.4435745 18.9834225,10.7286941 C17.237644,10.9847013 16.442927,12.2069724 16.442927,13.2346962 C16.442927,14.3862653 17.252025,15.3525297 18.3334531,15.6002183 L18.3334531,15.6002183 L17.2473863,16.7097356 C15.9372404,16.0960583 15.0274678,14.7698137 15.0274678,13.234696 C15.0274678,11.2615029 16.5695806,9.65799371 18.7774358,9.33451943 Z M14.0616992,11.9990242 C14.279748,12.2785987 14.4082568,12.6131636 14.4082568,12.9736067 C14.4082568,13.1875617 14.3544411,13.3922745 14.2597981,13.5826627 C12.462987,14.9786857 11.3532596,17.149199 11.3532598,19.5003952 C11.3532598,20.3095427 11.4850166,21.103905 11.7350762,21.8566749 L11.7350762,21.8566749 L10.2588421,21.8566749 C10.049145,21.096049 9.93965657,20.3039987 9.93965657,19.5003952 C9.93965657,16.4264644 11.5365128,13.6122371 14.0616992,11.9990242 Z M16.9365981,18.7964695 C18.3979861,18.7964695 19.5875088,19.980848 19.5875088,21.4364827 C19.5875088,21.579735 19.575447,21.7197541 19.553643,21.8565368 L19.553643,21.8565368 L18.0978223,21.8565368 C18.1460705,21.7252981 18.1734419,21.5843549 18.1734419,21.4364827 C18.1734419,20.7571846 17.6185787,20.2045069 16.9365979,20.2045069 C16.2546158,20.2045069 15.699289,20.7571846 15.699289,21.4364827 C15.699289,21.5843549 15.7271253,21.7252981 15.7749101,21.8565368 L15.7749101,21.8565368 L14.319553,21.8565368 C14.2977482,21.7197541 14.2856857,21.579735 14.2856857,21.4364827 C14.2856857,19.980848 15.4747457,18.7964695 16.9365981,18.7964695 Z M22.8742884,14.2254524 C23.2649192,14.2254524 23.5813211,14.5406088 23.5813211,14.92924 C23.5813211,15.3183331 23.2649192,15.6334897 22.8742884,15.6334897 C22.4836562,15.6334897 22.1672543,15.3183331 22.1672543,14.92924 C22.1672543,14.540609 22.4836562,14.2254524 22.8742884,14.2254524 Z" id="Combined-Shape" fill="#13100D"></path>
                            <path d="M69.2145406,15.0113926 L70.9670983,19.8583373 L72.7470636,15.0113926 L74.4448813,15.0113926 L71.0086253,23.5894295 L69.3685002,23.5894295 L70.0908194,21.8025964 L67.4345752,15.0113926 L69.2145406,15.0113926 Z M78.8467832,14.847064 C79.8052794,14.847064 80.5901625,15.1803808 81.2018451,15.846599 C81.8132547,16.5129897 82.1192036,17.3527179 82.1192036,18.3659204 C82.1192036,19.3791242 81.8132547,20.2166762 81.2018451,20.8784078 C80.5901623,21.5403472 79.8052792,21.8710749 78.8467832,21.8710749 C78.1164366,21.8710749 77.4912912,21.6566642 76.9710044,21.2275667 L76.9710044,21.2275667 L76.9710044,23.5894295 L75.4101436,23.5894295 L75.4101436,15.0113924 L76.9436025,15.0113924 L76.9436025,15.6138261 C77.427367,15.1027206 78.0616968,14.847064 78.8467832,14.847064 Z M39.5035364,11.9717493 C41.100777,11.9717493 42.3514107,12.5742179 43.2550971,13.7790853 L42.1871185,14.8744695 C41.5299413,13.9344046 40.6444112,13.4642 39.5308714,13.4642 C38.5814202,13.4642 37.7941219,13.7927878 37.1690434,14.4499977 C36.5436918,15.1072076 36.231119,15.9379272 36.231119,16.9419491 C36.231119,17.927781 36.5481792,18.7471446 37.1827124,19.3996263 C37.817039,20.0523827 38.6224939,20.3786244 39.5993499,20.3786244 C40.4482269,20.3786244 41.1739493,20.1140282 41.7763838,19.5844916 L41.7763838,18.1742221 L39.571945,18.1742221 L39.571945,16.695508 L43.3920541,16.695508 L43.3920541,20.0637048 C42.9446634,20.6113964 42.3719823,21.0495358 41.6736646,21.3781244 C40.9754166,21.7067813 40.2200076,21.8710749 39.407653,21.8710749 C38.0566455,21.8710749 36.911007,21.4078762 35.9709434,20.4813421 C35.0307404,19.5549461 34.5607088,18.3751017 34.5607088,16.941949 C34.5607088,15.4724164 35.0283922,14.2767297 35.9641076,13.3546476 C36.8996865,12.4328074 38.0795629,11.9717493 39.5035364,11.9717493 Z M48.157217,14.847064 C49.1246183,14.847064 49.9440154,15.1825206 50.6149284,15.8534328 C51.2858413,16.5243457 51.6212644,17.3618992 51.6212644,18.3659202 C51.6212644,19.3609676 51.2858413,20.1937589 50.6149284,20.8646705 C49.9440154,21.5355834 49.1246185,21.8710749 48.157217,21.8710749 C47.1803579,21.8710749 46.3588219,21.5379305 45.6926726,20.8715747 C45.026247,20.2053556 44.6931726,19.3701491 44.6931726,18.3659202 C44.6931726,17.361899 45.0262472,16.5243457 45.6926726,15.8534328 C46.3588219,15.1825206 47.1803581,14.847064 48.157217,14.847064 Z M57.4706149,11.9717495 C59.077037,11.9717495 60.3230434,12.5742181 61.2085067,13.7790855 L60.1542667,14.8744697 C59.4970227,13.9344048 58.6115594,13.4642002 57.4980225,13.4642002 C56.5485653,13.4642002 55.7591309,13.792788 55.1292888,14.4499979 C54.4994524,15.1072078 54.1845343,15.9379274 54.1845343,16.9419493 C54.1845343,17.9277811 54.50394,18.7471448 55.1429606,19.3996265 C55.781772,20.0523829 56.5851516,20.3786246 57.5527623,20.3786246 C58.6754838,20.3786244 59.5973937,19.8994097 60.3185619,18.9409834 L61.3454638,20.0637048 C60.3870375,21.2686404 59.1136232,21.8710749 57.5253547,21.8710749 C56.0740491,21.8710749 54.8760162,21.4123636 53.9312558,20.4950097 C52.9864956,19.5776571 52.5141183,18.3932918 52.5141183,16.9419491 C52.5141183,15.463201 52.9818046,14.2651674 53.91752,13.3478141 C54.853096,12.4304259 56.0374629,11.9717495 57.4706149,11.9717495 Z M91.4160903,14.847064 C92.3834916,14.847064 93.2028916,15.1825206 93.8738017,15.8534328 C94.5447175,16.5243457 94.8801377,17.3618992 94.8801377,18.3659202 C94.8801377,19.3609676 94.5447175,20.1937589 93.8738017,20.8646705 C93.2028916,21.5355834 92.3834918,21.8710749 91.4160903,21.8710749 C90.4392312,21.8710749 89.6176981,21.5379305 88.9515488,20.8715747 C88.2851204,20.2053556 87.9520488,19.3701491 87.9520488,18.3659202 C87.9520488,17.361899 88.2851206,16.5243457 88.9515488,15.8534328 C89.6176981,15.1825206 90.4392312,14.847064 91.4160903,14.847064 Z M85.3369423,13.1355781 L85.3369423,15.0113926 L86.9388768,15.0113926 L86.9388768,16.407959 L85.3369423,16.407959 L85.3369423,19.1189808 C85.3369423,19.6029227 85.4098415,19.926816 85.5559771,20.0911095 C85.7019093,20.255403 85.9941166,20.3375507 86.4322617,20.3375507 L86.9388768,20.3101444 L86.9388768,21.7067813 C86.7379954,21.7249364 86.4596636,21.7341164 86.1036716,21.7341164 C85.2363678,21.7341164 84.6339335,21.5540147 84.2962987,21.1933274 C83.9585301,20.832848 83.7897533,20.2190248 83.7897533,19.3517181 L83.7897533,16.407959 L82.8039192,16.407959 L82.8039192,15.0113926 L83.7897533,15.0113926 L83.7897533,13.1355781 L85.3369423,13.1355781 Z M66.1994503,14.9155427 C66.290573,14.9155427 66.3911472,14.9202371 66.5006326,14.9292109 L66.5006326,16.407959 C66.4274602,16.3989853 66.3453126,16.3942566 66.2541901,16.3942566 C65.4874665,16.3942566 64.9510952,16.6088394 64.6454255,17.0377981 C64.3394766,17.4669638 64.1867143,18.1515444 64.1867143,19.0915745 L64.1867143,21.7204488 L62.6258535,21.7204488 L62.6258535,15.0113926 L64.1593067,15.0113926 L64.1593067,15.7370469 C64.6156695,15.1893893 65.2957638,14.9155427 66.1994503,14.9155427 Z M78.7373036,16.2573337 C78.1622072,16.2573337 77.719371,16.4605952 77.4091438,16.866636 C77.0987133,17.2729171 76.9436025,17.7771549 76.9436025,18.3796229 C76.9436025,18.9820571 77.0987131,19.486536 77.4091438,19.8925768 C77.7193709,20.2988238 78.162207,20.5018442 78.7373036,20.5018442 C79.3031518,20.5018442 79.7436337,20.296477 80.0585577,19.8857423 C80.3734758,19.4749394 80.5309349,18.9730836 80.5309349,18.3796229 C80.5309349,17.7863712 80.3734758,17.2842394 80.0585577,16.8735048 C79.7436339,16.4627352 79.3031518,16.2573337 78.7373036,16.2573337 Z M48.157217,16.271036 C47.6095251,16.271036 47.159856,16.4674297 46.8085579,16.8598015 C46.4570535,17.2523819 46.2814379,17.7544789 46.2814379,18.3659204 C46.2814379,18.9775697 46.4570535,19.4797015 46.8085579,19.872005 C47.159856,20.2645846 47.6095251,20.4607705 48.157217,20.4607705 C48.6956604,20.4607705 49.1407027,20.2645846 49.492207,19.872005 C49.8434383,19.4797015 50.0193299,18.9775695 50.0193299,18.3659204 C50.0193299,17.7544789 49.8434383,17.2523819 49.492207,16.8598015 C49.1407027,16.4674297 48.6956604,16.271036 48.157217,16.271036 Z M91.4160901,16.271036 C90.8684015,16.271036 90.4187293,16.4674297 90.0674341,16.8598015 C89.7159297,17.2523819 89.5403112,17.7544789 89.5403112,18.3659204 C89.5403112,18.9775697 89.7159297,19.4797015 90.0674341,19.872005 C90.4187291,20.2645846 90.8684013,20.4607705 91.4160901,20.4607705 C91.9545364,20.4607705 92.3995758,20.2645846 92.7510802,19.872005 C93.1023114,19.4797015 93.278203,18.9775695 93.278203,18.3659204 C93.278203,17.7544789 93.1023114,17.2523819 92.7510802,16.8598015 C92.3995758,16.4674297 91.9545366,16.271036 91.4160901,16.271036 Z" id="Combined-Shape" fill="#13100D" fill-rule="nonzero"></path>
                        </g>
                    </g>
                </g>
            </g>
        </g>
    </g>
</svg>