<?xml version="1.0" encoding="UTF-8"?>
<svg width="20px" height="20px" viewBox="0 0 20 20" version="1.1" xmlns="http://www.w3.org/2000/svg" xmlns:xlink="http://www.w3.org/1999/xlink">
    <title>GoCrypto_logo_secondary-colour</title>
    <g id="Payment" stroke="none" stroke-width="1" fill="none" fill-rule="evenodd">
        <g id="Payment---Normal-Trial" transform="translate(-1190.000000, -585.000000)" fill-rule="nonzero">
            <g id="Group-9" transform="translate(837.000000, 387.000000)">
                <g id="paymen-methods-copy" transform="translate(18.000000, 190.000000)">
                    <g id="GoCrypto_logo_secondary-colour" transform="translate(335.006635, 8.067299)">
                        <rect id="Rectangle" fill="#FFE702" x="1.42108547e-14" y="0" width="19.9052133" height="19.9052133"></rect>
                        <path d="M8.7507109,9.85876777 C7.84033046,9.86137722 7.10340995,10.599569 7.10236967,11.5099526 C7.10256747,11.597878 7.10953912,11.6856575 7.12322275,11.7725118 L8.03033175,11.7725118 C7.9991404,11.688481 7.98309429,11.5995855 7.98293839,11.5099526 C7.98293839,11.0843531 8.32795497,10.7393365 8.7535545,10.7393365 C9.17915403,10.7393365 9.52417062,11.0843531 9.52417062,11.5099526 C9.52354866,11.5995428 9.50751702,11.6883581 9.47677725,11.7725118 L10.3829384,11.7725118 C10.3970934,11.6857139 10.4040681,11.5978967 10.4037994,11.5099526 C10.4027453,10.5977218 9.66294227,9.85876777 8.7507109,9.85876777 Z" id="Path" fill="#000000"></path>
                        <path d="M15.4094787,10.436019 C15.0820243,10.3824167 14.7541763,10.5293701 14.5763033,10.8094787 C14.5422403,11.0196395 14.4957127,11.2275893 14.4369668,11.4322275 C14.36991,11.665943 14.5047821,11.9098156 14.7383886,11.9772512 C14.778192,11.9884217 14.8193226,11.9941609 14.8606635,11.9943129 C15.0570832,11.9944191 15.2298696,11.8645395 15.2843602,11.6758294 C15.3980049,11.2783496 15.4726077,10.8707325 15.507109,10.4587678 C15.4750368,10.4492882 15.4424377,10.4416923 15.4094787,10.436019 Z" id="Path" fill="#000000"></path>
                        <circle id="Oval" fill="#000000" cx="12.4483412" cy="7.44075829" r="1"></circle>
                        <path d="M17.0672986,9.28246445 C17.0158803,9.14642851 16.8645602,9.0771087 16.7279621,9.12701422 L16.7279621,9.12701422 C16.3345167,9.27003332 15.9241092,9.36116417 15.507109,9.39810427 C15.3658768,7.72511848 14.5658768,6.09194313 13.3478673,5.03791469 C12.3251185,4.15450237 11.0995261,3.76587678 9.89668246,3.94312796 C8.52417062,4.1450237 7.562079,5.14597156 7.562079,6.37819905 C7.55995187,7.31171155 8.09889894,8.1619024 8.94407583,8.55829384 L9.61990521,7.86445498 C8.92800239,7.70562527 8.43885597,7.08808775 8.44265403,6.37819905 C8.44265403,5.73554502 8.93838863,4.97061611 10.0255924,4.81137441 C11.2369668,4.63222749 12.1876777,5.1971564 12.7744076,5.7014218 C13.8037915,6.59052133 14.4862559,7.96777251 14.6246445,9.38957346 C13.966173,9.32768127 13.3280562,9.12810832 12.7516588,8.80379147 C12.6050343,8.72109025 12.4236918,8.73125967 12.2872331,8.82983579 C12.1507745,8.9284119 12.0841432,9.09737578 12.1165877,9.26255924 L12.1222749,9.29004739 L12.1222749,9.29004739 C12.2709877,9.97493483 12.2654835,10.6843273 12.1061611,11.3668246 C12.0739336,11.5023697 12.036019,11.636019 11.9933649,11.7677725 L12.9118483,11.7677725 C12.9298578,11.7014218 12.9469194,11.6350711 12.9630332,11.5677725 C13.0929071,11.011227 13.1373335,10.4381586 13.0947867,9.86824645 C13.6027139,10.0195422 14.1297362,10.0971112 14.6597156,10.0985782 C15.4444365,10.100815 16.2203964,9.93366025 16.9345972,9.60853081 C17.0549214,9.54903748 17.111884,9.40907221 17.0672986,9.28246445 Z" id="Path" fill="#000000"></path>
                        <path d="M7.08341232,6.59905213 C7.14392156,6.48170743 7.17636852,6.35191959 7.17819905,6.21990521 C7.17645474,5.99856341 7.1003386,5.78423639 6.96208531,5.61137441 C4.90766414,6.92411582 3.94715797,9.42143187 4.59241706,11.7725118 L5.51184834,11.7725118 C4.88745066,9.88922156 5.51699056,7.81682783 7.08341232,6.59905213 L7.08341232,6.59905213 Z" id="Path" fill="#000000"></path>
                        <path d="M3.70521327,14.7014218 L3.70521327,15.0691943 L4.25308057,15.0691943 L4.25308057,15.4218009 C4.10340255,15.5530671 3.90993416,15.6234193 3.71090047,15.6189573 C3.48503621,15.6259731 3.26673975,15.5371395 3.10995261,15.3744076 C2.95057617,15.211278 2.86494425,14.9900051 2.87298578,14.7620853 C2.86543709,14.532706 2.94931194,14.3097217 3.10616114,14.1421801 C3.25830369,13.980714 3.47206368,13.8917622 3.69383886,13.8976303 C3.9614089,13.8892187 4.21358822,14.0225135 4.35734597,14.2483412 L4.62464455,13.9753555 C4.40737243,13.679084 4.05717656,13.5100239 3.69004739,13.5241706 C3.35874144,13.5122855 3.03748415,13.6390829 2.80360511,13.8740414 C2.56972608,14.1089998 2.44440938,14.4308376 2.45781991,14.7620853 C2.44690988,15.0878233 2.56980795,15.4038309 2.79792913,15.6366077 C3.0260503,15.8693844 3.33951093,15.9986407 3.66540284,15.9943128 C3.8618903,15.9971227 4.05641958,15.9549747 4.23412322,15.87109 C4.39982322,15.7963127 4.54633414,15.6848088 4.66255924,15.5450237 L4.66255924,14.7052133 L3.70521327,14.7014218 Z" id="Path" fill="#000000"></path>
                        <path d="M6.48056872,14.4909953 C6.13975555,14.1574368 5.5948416,14.1574368 5.25402844,14.4909953 C5.08851922,14.6571328 4.99870124,14.8840774 5.0056872,15.1184834 C5.0056872,15.5948617 5.39186813,15.9810427 5.86824645,15.9810427 C6.34462476,15.9810427 6.73080569,15.5948617 6.73080569,15.1184834 C6.73729202,14.8837981 6.64677238,14.6568132 6.48056872,14.4909953 L6.48056872,14.4909953 Z M6.19620853,15.4938389 C6.11250687,15.5889642 5.99113673,15.6423671 5.86445498,15.6398104 C5.73603196,15.6428845 5.61270978,15.5895373 5.52701422,15.4938389 C5.43688932,15.3886288 5.39012929,15.2530925 5.39620853,15.1146919 C5.38945003,14.9761937 5.43629428,14.8404132 5.52701422,14.735545 C5.61467236,14.6398467 5.7405473,14.588384 5.87014218,14.5952607 C5.99726299,14.5925176 6.1189519,14.646756 6.20189573,14.743128 C6.29261568,14.8479962 6.33945992,14.9837766 6.33270142,15.1222749 C6.33633087,15.2583411 6.28900409,15.3908561 6.2,15.4938389 L6.19620853,15.4938389 Z" id="Shape" fill="#000000"></path>
                        <path d="M8.91658768,15.2606635 C8.76087413,15.4868909 8.5030646,15.6211223 8.22843602,15.6189573 C8.00270003,15.6252621 7.78467991,15.536541 7.62748815,15.3744076 C7.46691558,15.2117869 7.3799161,14.9905205 7.38672986,14.7620853 C7.37979611,14.532456 7.46435173,14.3094746 7.62180095,14.1421801 C7.77546079,13.9806271 7.99038837,13.8917628 8.21327014,13.8976303 C8.4803994,13.8911083 8.73170636,14.023942 8.87677725,14.2483412 L9.13838863,13.9753555 C8.9238929,13.6778137 8.57403256,13.5082276 8.20758294,13.5241706 C7.8783515,13.5138287 7.55896844,13.6372733 7.32227488,13.8663507 C7.08632014,14.1029254 6.95987502,14.4272846 6.97345972,14.7611374 C6.96108518,15.0927267 7.08910865,15.414162 7.32606635,15.6464455 C7.56545656,15.8774294 7.88840094,16.0012704 8.22085308,15.9895735 C8.59050129,16.0001205 8.9428659,15.8330996 9.16872038,15.5402844 L8.91658768,15.2606635 Z" id="Path" fill="#000000"></path>
                        <path d="M10.3819905,14.2578199 C10.1901044,14.2439244 10.0025687,14.3194985 9.87393365,14.4625592 L9.87393365,14.2824645 L9.49478673,14.2824645 L9.49478673,15.9516588 L9.88341232,15.9516588 L9.88341232,15.2976303 C9.88341232,15.0625592 9.92322275,14.8919431 9.99905213,14.785782 C10.0748815,14.6796209 10.2075829,14.6265403 10.3990521,14.6265403 C10.4218009,14.6265403 10.442654,14.6265403 10.4616114,14.6265403 L10.4616114,14.2587678 C10.4293839,14.2597156 10.4047393,14.2578199 10.3819905,14.2578199 Z" id="Path" fill="#000000"></path>
                        <polygon id="Path" fill="#000000" points="11.1270142 16.4189573 11.535545 16.4189573 12.3914692 14.2824645 11.9687204 14.2824645 11.5251185 15.4900474 11.0881517 14.2824645 10.6454976 14.2824645 11.307109 15.9744076"></polygon>
                        <path d="M15.5042654,14.6293839 L15.5042654,14.2824645 L15.1042654,14.2824645 L15.1042654,13.814218 L14.7194313,13.814218 L14.7194313,14.2824645 L14.4748815,14.2824645 L14.4748815,14.6293839 L14.7194313,14.6293839 L14.7194313,15.3630332 C14.7194313,15.5791469 14.7611374,15.7327014 14.8464455,15.8218009 C14.9317536,15.9109005 15.0796209,15.9563981 15.2957346,15.9563981 C15.3848341,15.9563981 15.4549763,15.9563981 15.5042654,15.9507109 L15.5042654,15.6018957 L15.3772512,15.6094787 C15.2990501,15.6197633 15.2200904,15.5971053 15.1592417,15.5469194 C15.1145613,15.4750509 15.0952088,15.3903003 15.1042654,15.3061611 L15.1042654,14.6293839 L15.5042654,14.6293839 Z" id="Path" fill="#000000"></path>
                        <path d="M17.2312796,14.4909953 C16.8904665,14.1574368 16.3455525,14.1574368 16.0047393,14.4909953 C15.8401769,14.6577517 15.7505261,14.8842741 15.7563981,15.1184834 C15.7504602,15.3515855 15.8401984,15.5769586 16.0047393,15.7421801 C16.2534598,15.9918533 16.6288428,16.0655462 16.9534946,15.9284339 C17.2781464,15.7913217 17.4870627,15.4708579 17.4815166,15.1184834 C17.4880029,14.8837981 17.3974833,14.6568132 17.2312796,14.4909953 Z M16.9526066,15.4938389 C16.8661704,15.5868067 16.7449513,15.6396212 16.6180095,15.6396212 C16.4910676,15.6396212 16.3698486,15.5868067 16.2834123,15.4938389 C16.1932874,15.3886288 16.1465274,15.2530925 16.1526066,15.1146919 C16.1458481,14.9761937 16.1926924,14.8404132 16.2834123,14.735545 C16.3691033,14.6412563 16.4905995,14.587499 16.6180095,14.587499 C16.7454194,14.587499 16.8669157,14.6412563 16.9526066,14.735545 C17.0433266,14.8404132 17.0901708,14.9761937 17.0834123,15.1146919 C17.0894916,15.2530925 17.0427315,15.3886288 16.9526066,15.4938389 L16.9526066,15.4938389 Z" id="Shape" fill="#000000"></path>
                        <path d="M14.0748815,14.4909953 C13.925821,14.325638 13.7116264,14.2341374 13.4890995,14.2407583 C13.3112282,14.2329584 13.13859,14.3020137 13.0151659,14.4303318 L13.0151659,14.2805687 L12.636019,14.2805687 L12.636019,16.4170616 L13.0246445,16.4170616 L13.0246445,15.8293839 C13.1568007,15.9365002 13.3228312,15.992964 13.492891,15.9886256 C13.7148171,15.9962086 13.928915,15.9061351 14.078673,15.7421801 C14.3844123,15.3804346 14.3844123,14.850845 14.078673,14.4890995 L14.0748815,14.4909953 Z M13.7905213,15.4957346 C13.7123749,15.5978805 13.5891357,15.6552505 13.4606635,15.6492891 C13.3323078,15.6568649 13.2086143,15.5999944 13.1308057,15.4976303 C12.9766355,15.2704476 12.9766355,14.9722064 13.1308057,14.7450237 C13.2086143,14.6426597 13.3323078,14.5857891 13.4606635,14.5933649 C13.5891357,14.5874035 13.7123749,14.6447735 13.7905213,14.7469194 C13.8708241,14.8545229 13.9122594,14.9861801 13.9080569,15.1203791 C13.9119451,15.2551194 13.8705629,15.3872754 13.7905213,15.4957346 Z" id="Shape" fill="#000000"></path>
                    </g>
                </g>
            </g>
        </g>
    </g>
</svg>