<?xml version="1.0" encoding="UTF-8"?>
<svg width="377px" height="667px" viewBox="0 0 377 667" version="1.1" xmlns="http://www.w3.org/2000/svg" xmlns:xlink="http://www.w3.org/1999/xlink">
    <title>grid-mobile</title>
    <defs>
        <rect id="path-1" x="0" y="0" width="376" height="667"></rect>
    </defs>
    <g id="New-Version-Final" stroke="none" stroke-width="1" fill="none" fill-rule="evenodd">
        <g id="grid-mobile" transform="translate(0.500000, 0.000000)">
            <rect id="Rectangle" fill="#000000" x="0" y="0" width="376" height="667"></rect>
            <mask id="mask-2" fill="white">
                <use xlink:href="#path-1"></use>
            </mask>
            <use id="Mask" fill="#000000" xlink:href="#path-1"></use>
            <g id="Group" mask="url(#mask-2)" stroke="#707580" stroke-width="0.7">
                <g transform="translate(-708.024479, -562.500000)">
                    <line x1="34.3" y1="0" x2="34.3" y2="1792" id="Path-2-Copy"></line>
                    <line x1="84.7" y1="0" x2="84.7" y2="1792" id="Path-2-Copy-2"></line>
                    <line x1="135.1" y1="0" x2="135.1" y2="1792" id="Path-2-Copy-3"></line>
                    <line x1="185.5" y1="0" x2="185.5" y2="1792" id="Path-2-Copy-4"></line>
                    <line x1="437.5" y1="0" x2="437.5" y2="1792" id="Path-2-Copy-5"></line>
                    <line x1="739.9" y1="0" x2="739.9" y2="1792" id="Path-2-Copy-25"></line>
                    <line x1="1294.3" y1="0" x2="1294.3" y2="1792" id="Path-2-Copy-37"></line>
                    <line x1="1092.7" y1="0" x2="1092.7" y2="1792" id="Path-2-Copy-49"></line>
                    <line x1="1647.1" y1="0" x2="1647.1" y2="1792" id="Path-2-Copy-56"></line>
                    <line x1="235.9" y1="0" x2="235.9" y2="1792" id="Path-2-Copy-23"></line>
                    <line x1="286.3" y1="0" x2="286.3" y2="1792" id="Path-2-Copy-22"></line>
                    <line x1="588.7" y1="0" x2="588.7" y2="1792" id="Path-2-Copy-26"></line>
                    <line x1="941.5" y1="0" x2="941.5" y2="1792" id="Path-2-Copy-50"></line>
                    <line x1="1495.9" y1="0" x2="1495.9" y2="1792" id="Path-2-Copy-57"></line>
                    <line x1="336.7" y1="0" x2="336.7" y2="1792" id="Path-2-Copy-21"></line>
                    <line x1="639.1" y1="0" x2="639.1" y2="1792" id="Path-2-Copy-27"></line>
                    <line x1="991.9" y1="0" x2="991.9" y2="1792" id="Path-2-Copy-51"></line>
                    <line x1="1546.3" y1="0" x2="1546.3" y2="1792" id="Path-2-Copy-58"></line>
                    <line x1="387.1" y1="0" x2="387.1" y2="1792" id="Path-2-Copy-20"></line>
                    <line x1="689.5" y1="0" x2="689.5" y2="1792" id="Path-2-Copy-28"></line>
                    <line x1="1243.9" y1="0" x2="1243.9" y2="1792" id="Path-2-Copy-38"></line>
                    <line x1="1042.3" y1="0" x2="1042.3" y2="1792" id="Path-2-Copy-52"></line>
                    <line x1="1596.7" y1="0" x2="1596.7" y2="1792" id="Path-2-Copy-59"></line>
                    <line x1="487.9" y1="0" x2="487.9" y2="1792" id="Path-2-Copy-19"></line>
                    <line x1="790.3" y1="0" x2="790.3" y2="1792" id="Path-2-Copy-29"></line>
                    <line x1="1344.7" y1="0" x2="1344.7" y2="1792" id="Path-2-Copy-39"></line>
                    <line x1="1143.1" y1="0" x2="1143.1" y2="1792" id="Path-2-Copy-53"></line>
                    <line x1="1697.5" y1="0" x2="1697.5" y2="1792" id="Path-2-Copy-60"></line>
                    <line x1="538.3" y1="0" x2="538.3" y2="1792" id="Path-2-Copy-24"></line>
                    <line x1="891.1" y1="0" x2="891.1" y2="1792" id="Path-2-Copy-54"></line>
                    <line x1="1445.5" y1="0" x2="1445.5" y2="1792" id="Path-2-Copy-61"></line>
                    <line x1="840.7" y1="0" x2="840.7" y2="1792" id="Path-2-Copy-30"></line>
                    <line x1="1395.1" y1="0" x2="1395.1" y2="1792" id="Path-2-Copy-40"></line>
                    <line x1="1193.5" y1="0" x2="1193.5" y2="1792" id="Path-2-Copy-55"></line>
                    <line x1="1747.9" y1="0" x2="1747.9" y2="1792" id="Path-2-Copy-62"></line>
                    <line x1="896" y1="-490" x2="896" y2="1302" id="Path-2" transform="translate(896.000000, 406.000000) rotate(-90.000000) translate(-896.000000, -406.000000) "></line>
                    <line x1="896" y1="512.4" x2="896" y2="2304.4" id="Path-2-Copy-9" transform="translate(896.000000, 1408.400000) rotate(-90.000000) translate(-896.000000, -1408.400000) "></line>
                    <line x1="896" y1="-204.4" x2="896" y2="1587.6" id="Path-2-Copy-31" transform="translate(896.000000, 691.600000) rotate(-90.000000) translate(-896.000000, -691.600000) "></line>
                    <line x1="896" y1="-537.6" x2="896" y2="1254.4" id="Path-2-Copy" transform="translate(896.000000, 358.400000) rotate(-90.000000) translate(-896.000000, -358.400000) "></line>
                    <line x1="896" y1="464.8" x2="896" y2="2256.8" id="Path-2-Copy-10" transform="translate(896.000000, 1360.800000) rotate(-90.000000) translate(-896.000000, -1360.800000) "></line>
                    <line x1="896" y1="-252" x2="896" y2="1540" id="Path-2-Copy-32" transform="translate(896.000000, 644.000000) rotate(-90.000000) translate(-896.000000, -644.000000) "></line>
                    <line x1="896" y1="-585.2" x2="896" y2="1206.8" id="Path-2-Copy-2" transform="translate(896.000000, 310.800000) rotate(-90.000000) translate(-896.000000, -310.800000) "></line>
                    <line x1="896" y1="417.2" x2="896" y2="2209.2" id="Path-2-Copy-11" transform="translate(896.000000, 1313.200000) rotate(-90.000000) translate(-896.000000, -1313.200000) "></line>
                    <line x1="896" y1="-14" x2="896" y2="1778" id="Path-2-Copy-41" transform="translate(896.000000, 882.000000) rotate(-90.000000) translate(-896.000000, -882.000000) "></line>
                    <line x1="896" y1="33.6" x2="896" y2="1825.6" id="Path-2-Copy-42" transform="translate(896.000000, 929.600000) rotate(-90.000000) translate(-896.000000, -929.600000) "></line>
                    <line x1="896" y1="81.2" x2="896" y2="1873.2" id="Path-2-Copy-44" transform="translate(896.000000, 977.200000) rotate(-90.000000) translate(-896.000000, -977.200000) "></line>
                    <line x1="896" y1="-299.6" x2="896" y2="1492.4" id="Path-2-Copy-33" transform="translate(896.000000, 596.400000) rotate(-90.000000) translate(-896.000000, -596.400000) "></line>
                    <line x1="896" y1="702.8" x2="896" y2="2494.8" id="Path-2-Copy-66" transform="translate(896.000000, 1598.800000) rotate(-90.000000) translate(-896.000000, -1598.800000) "></line>
                    <line x1="896" y1="-632.8" x2="896" y2="1159.2" id="Path-2-Copy-3" transform="translate(896.000000, 263.200000) rotate(-90.000000) translate(-896.000000, -263.200000) "></line>
                    <line x1="896" y1="369.6" x2="896" y2="2161.6" id="Path-2-Copy-12" transform="translate(896.000000, 1265.600000) rotate(-90.000000) translate(-896.000000, -1265.600000) "></line>
                    <line x1="896" y1="-61.6" x2="896" y2="1730.4" id="Path-2-Copy-43" transform="translate(896.000000, 834.400000) rotate(-90.000000) translate(-896.000000, -834.400000) "></line>
                    <line x1="896" y1="-347.2" x2="896" y2="1444.8" id="Path-2-Copy-34" transform="translate(896.000000, 548.800000) rotate(-90.000000) translate(-896.000000, -548.800000) "></line>
                    <line x1="896" y1="655.2" x2="896" y2="2447.2" id="Path-2-Copy-68" transform="translate(896.000000, 1551.200000) rotate(-90.000000) translate(-896.000000, -1551.200000) "></line>
                    <line x1="896" y1="-680.4" x2="896" y2="1111.6" id="Path-2-Copy-4" transform="translate(896.000000, 215.600000) rotate(-90.000000) translate(-896.000000, -215.600000) "></line>
                    <line x1="896" y1="322" x2="896" y2="2114" id="Path-2-Copy-13" transform="translate(896.000000, 1218.000000) rotate(-90.000000) translate(-896.000000, -1218.000000) "></line>
                    <line x1="896" y1="-109.2" x2="896" y2="1682.8" id="Path-2-Copy-45" transform="translate(896.000000, 786.800000) rotate(-90.000000) translate(-896.000000, -786.800000) "></line>
                    <line x1="896" y1="-394.8" x2="896" y2="1397.2" id="Path-2-Copy-35" transform="translate(896.000000, 501.200000) rotate(-90.000000) translate(-896.000000, -501.200000) "></line>
                    <line x1="896" y1="607.6" x2="896" y2="2399.6" id="Path-2-Copy-70" transform="translate(896.000000, 1503.600000) rotate(-90.000000) translate(-896.000000, -1503.600000) "></line>
                    <line x1="896" y1="-728" x2="896" y2="1064" id="Path-2-Copy-5" transform="translate(896.000000, 168.000000) rotate(-90.000000) translate(-896.000000, -168.000000) "></line>
                    <line x1="896" y1="274.4" x2="896" y2="2066.4" id="Path-2-Copy-14" transform="translate(896.000000, 1170.400000) rotate(-90.000000) translate(-896.000000, -1170.400000) "></line>
                    <line x1="896" y1="-775.6" x2="896" y2="1016.4" id="Path-2-Copy-6" transform="translate(896.000000, 120.400000) rotate(-90.000000) translate(-896.000000, -120.400000) "></line>
                    <line x1="896" y1="226.8" x2="896" y2="2018.8" id="Path-2-Copy-15" transform="translate(896.000000, 1122.800000) rotate(-90.000000) translate(-896.000000, -1122.800000) "></line>
                    <line x1="896" y1="-823.2" x2="896" y2="968.8" id="Path-2-Copy-7" transform="translate(896.000000, 72.800000) rotate(-90.000000) translate(-896.000000, -72.800000) "></line>
                    <line x1="896" y1="179.2" x2="896" y2="1971.2" id="Path-2-Copy-16" transform="translate(896.000000, 1075.200000) rotate(-90.000000) translate(-896.000000, -1075.200000) "></line>
                    <line x1="896" y1="-870.8" x2="896" y2="921.2" id="Path-2-Copy-8" transform="translate(896.000000, 25.200000) rotate(-90.000000) translate(-896.000000, -25.200000) "></line>
                    <line x1="896" y1="131.6" x2="896" y2="1923.6" id="Path-2-Copy-17" transform="translate(896.000000, 1027.600000) rotate(-90.000000) translate(-896.000000, -1027.600000) "></line>
                    <line x1="896" y1="-156.8" x2="896" y2="1635.2" id="Path-2-Copy-47" transform="translate(896.000000, 739.200000) rotate(-90.000000) translate(-896.000000, -739.200000) "></line>
                    <line x1="896" y1="-442.4" x2="896" y2="1349.6" id="Path-2-Copy-36" transform="translate(896.000000, 453.600000) rotate(-90.000000) translate(-896.000000, -453.600000) "></line>
                    <line x1="896" y1="798" x2="896" y2="2590" id="Path-2-Copy-46" transform="translate(896.000000, 1694.000000) rotate(-90.000000) translate(-896.000000, -1694.000000) "></line>
                    <line x1="896" y1="750.4" x2="896" y2="2542.4" id="Path-2-Copy-48" transform="translate(896.000000, 1646.400000) rotate(-90.000000) translate(-896.000000, -1646.400000) "></line>
                    <line x1="896" y1="893.2" x2="896" y2="2685.2" id="Path-2-Copy-69" transform="translate(896.000000, 1789.200000) rotate(-90.000000) translate(-896.000000, -1789.200000) "></line>
                    <line x1="896" y1="845.6" x2="896" y2="2637.6" id="Path-2-Copy-71" transform="translate(896.000000, 1741.600000) rotate(-90.000000) translate(-896.000000, -1741.600000) "></line>
                    <line x1="896" y1="560" x2="896" y2="2352" id="Path-2-Copy-72" transform="translate(896.000000, 1456.000000) rotate(-90.000000) translate(-896.000000, -1456.000000) "></line>
                </g>
            </g>
        </g>
    </g>
</svg>