<svg width="1440" height="800" xmlns="http://www.w3.org/2000/svg" xmlns:xlink="http://www.w3.org/1999/xlink"><defs><path id="a" d="M0 0h1440v800H0z"/></defs><g fill="none" fill-rule="evenodd"><path fill="#000" d="M0 0h1440v800H0z"/><mask id="b" fill="#fff"><use xlink:href="#a"/></mask><use fill="#000" xlink:href="#a"/><g mask="url(#b)" stroke="#707580"><path d="M-511.094-880v2560M-439.094-880v2560M-367.094-880v2560M-295.094-880v2560M64.906-880v2560M496.906-880v2560M1288.906-880v2560M1000.906-880v2560M1792.906-880v2560M-223.094-880v2560M-151.094-880v2560M280.906-880v2560M784.906-880v2560M1576.906-880v2560M-79.094-880v2560M352.906-880v2560M856.906-880v2560M1648.906-880v2560M-7.094-880v2560M424.906-880v2560M1216.906-880v2560M928.906-880v2560M1720.906-880v2560M136.906-880v2560M568.906-880v2560M1360.906-880v2560M1072.906-880v2560M1864.906-880v2560M208.906-880v2560M712.906-880v2560M1504.906-880v2560M640.906-880v2560M1432.906-880v2560M1144.906-880v2560M1936.906-880v2560M-560.094-300h2560M-560.094 1132h2560M-560.094 108h2560M-560.094-368h2560M-560.094 1064h2560M-560.094 40h2560M-560.094-436h2560M-560.094 996h2560M-560.094 380h2560M-560.094 448h2560M-560.094 516h2560M-560.094-28h2560M-560.094 1404h2560M-560.094-504h2560M-560.094 928h2560M-560.094 312h2560M-560.094-96h2560M-560.094 1336h2560M-560.094-572h2560M-560.094 860h2560M-560.094 244h2560M-560.094-164h2560M-560.094 1268h2560M-560.094-640h2560M-560.094 792h2560M-560.094-708h2560M-560.094 724h2560M-560.094-776h2560M-560.094 656h2560M-560.094-844h2560M-560.094 588h2560M-560.094 176h2560M-560.094-232h2560M-560.094 1540h2560M-560.094 1472h2560M-560.094 1676h2560M-560.094 1608h2560M-560.094 1200h2560"/></g></g></svg>