<?xml version="1.0" encoding="utf-8"?>
<!-- Generator: Adobe Illustrator 24.0.1, SVG Export Plug-In . SVG Version: 6.00 Build 0)  -->
<svg version="1.1" id="Layer_1" xmlns="http://www.w3.org/2000/svg" xmlns:xlink="http://www.w3.org/1999/xlink" x="0px" y="0px"
	 width="353px" height="670px" viewBox="0 0 353 670" style="enable-background:new 0 0 353 670;" xml:space="preserve">
<style type="text/css">
	.st0{fill-rule:evenodd;clip-rule:evenodd;}
	.st1{fill:none;stroke:#707580;stroke-width:0.7;}
</style>
<path class="st0" d="M0-1h353V671H0V-1z"/>
<path id="a_1_" class="st0" d="M0.5,0h352v670H0.5V0z"/>
<path class="st1" d="M-685.2-561v1792 M-634.8-561v1792 M-584.4-561v1792 M-534-561v1792 M-282-561v1792 M20.4-561v1792 M574.8-561
	v1792 M373.2-561v1792 M927.6-561v1792 M-483.6-561v1792 M-433.2-561v1792 M-130.8-561v1792 M222-561v1792 M776.4-561v1792
	 M-382.8-561v1792 M-80.4-561v1792 M272.4-561v1792 M826.8-561v1792 M-332.4-561v1792 M-30-561v1792 M524.4-561v1792 M322.8-561
	v1792 M877.2-561v1792 M-231.6-561v1792 M70.8-561v1792 M625.2-561v1792 M423.6-561v1792 M978-561v1792 M-181.2-561v1792 M171.6-561
	v1792 M726-561v1792 M121.2-561v1792 M675.6-561v1792 M474-561v1792 M1028.4-561v1792 M-719.5-155h1792 M-719.5,847.4h1792
	 M-719.5,130.6h1792 M-719.5-202.6h1792 M-719.5,799.8h1792 M-719.5,83h1792 M-719.5-250.2h1792 M-719.5,752.2h1792 M-719.5,321
	h1792 M-719.5,368.6h1792 M-719.5,416.2h1792 M-719.5,35.4h1792 M-719.5,1037.8h1792 M-719.5-297.8h1792 M-719.5,704.6h1792
	 M-719.5,273.4h1792 M-719.5-12.2h1792 M-719.5,990.2h1792 M-719.5-345.4h1792 M-719.5,657h1792 M-719.5,225.8h1792 M-719.5-59.8
	h1792 M-719.5,942.6h1792 M-719.5-393h1792 M-719.5,609.4h1792 M-719.5-440.6h1792 M-719.5,561.8h1792 M-719.5-488.2h1792
	 M-719.5,514.2h1792 M-719.5-535.8h1792 M-719.5,466.6h1792 M-719.5,178.2h1792 M-719.5-107.4h1792 M-719.5,1133h1792
	 M-719.5,1085.4h1792 M-719.5,1228.2h1792 M-719.5,1180.6h1792 M-719.5,895h1792"/>
</svg>
