<svg xmlns="http://www.w3.org/2000/svg" xmlns:xlink="http://www.w3.org/1999/xlink" viewBox="0 0 893.45 540.7"><defs><style>.cls-1{fill:none;}.cls-2{clip-path:url(#clip-path);}.cls-3{fill:url(#linear-gradient);}</style><clipPath id="clip-path" transform="translate(-0.06 -0.72)"><rect class="cls-1" width="894.21" height="542.14"/></clipPath><linearGradient id="linear-gradient" x1="-46.83" y1="754.91" x2="-45.39" y2="754.91" gradientTransform="matrix(200.14, -546.91, -546.91, -200.14, 422526.54, 126137.41)" gradientUnits="userSpaceOnUse"><stop offset="0" stop-color="#7e8fff"/><stop offset="0.09" stop-color="#7e8fff"/><stop offset="0.15" stop-color="#838dfd"/><stop offset="0.23" stop-color="#9085f6"/><stop offset="0.3" stop-color="#a679ea"/><stop offset="0.38" stop-color="#c568da"/><stop offset="0.46" stop-color="#ed52c6"/><stop offset="0.47" stop-color="#f44ec2"/><stop offset="0.92" stop-color="#02ffdb"/><stop offset="1" stop-color="#02ffdb"/></linearGradient></defs><g id="Layer_2" data-name="Layer 2"><g id="Layer_1-2" data-name="Layer 1"><g class="cls-2"><path class="cls-3" d="M.18,193C152.27,206.27,206.93,540.6,303,540h0c.75,0,1.5,0,2.25-.07C443.59,533,492.12,1.51,596.88.72c35.76.23,76.61,60.8,129.63,221.73,20.7,62.95,55.6,91.93,88.44,91.91,32.43,0,63.37-28.25,77.17-81l1.39.37c-13.86,53.11-45.21,82.08-78.56,82.1-33.76,0-69-29.68-89.81-92.9C672.32,62,630.92,1.93,596.88,2.16,494.4,1.37,445.52,533.22,305.29,541.36h0c-.78,0-1.56.06-2.33.06-98.19-.61-152.24-334.51-302.9-347L.18,193Z" transform="translate(-0.06 -0.72)"/></g></g></g></svg>