<svg xmlns="http://www.w3.org/2000/svg" xmlns:xlink="http://www.w3.org/1999/xlink" viewBox="0 0 911.96 575.46"><defs><style>.cls-1{fill:none;}.cls-2{clip-path:url(#clip-path);}.cls-3{fill:url(#linear-gradient);}</style><clipPath id="clip-path" transform="translate(-0.11 -0.89)"><rect class="cls-1" width="912.85" height="577.23"/></clipPath><linearGradient id="linear-gradient" x1="-1040.46" y1="836.4" x2="-1038.69" y2="836.4" gradientTransform="matrix(0, -218.86, -218.86, 0, 183507.34, -227299.41)" gradientUnits="userSpaceOnUse"><stop offset="0" stop-color="#6d00c2"/><stop offset="0.1" stop-color="#6b05c4"/><stop offset="0.2" stop-color="#6512cc"/><stop offset="0.31" stop-color="#5c28d8"/><stop offset="0.43" stop-color="#4f47e9"/><stop offset="0.52" stop-color="#4266fa"/><stop offset="1" stop-color="#02ffdb"/><stop offset="1" stop-color="#02ffdb"/></linearGradient></defs><g id="Layer_2" data-name="Layer 2"><g id="Layer_1-2" data-name="Layer 1"><g class="cls-2"><path class="cls-3" d="M.11,574.6c141.25-17.39,345.13-471.9,434.17-472.52,8.77,0,16.47,4.43,22.69,13.82,13.44,20.27,26.06,32.79,38.35,32.71,10.73,0,22.11-9.43,34.54-32.64C574.2,33.55,596.08,1.21,613.57.89c21.12.54,31.56,47.41,62.18,109.17,25.86,52.59,81.75,80.65,133.9,80.65,41.92,0,81.29-18.09,100.85-56l1.57.81c-19.92,38.56-60,56.91-102.42,56.9-52.75,0-109.25-28.34-135.49-81.63C643.88,48.83,632,2.11,613.57,2.66c-15.33-.32-38.11,31.69-82.15,114.15-12.52,23.33-24.19,33.53-36.1,33.57-13.57-.07-26.27-13.19-39.82-33.5-6-9-13.08-13-21.22-13C347.76,103.22,143.16,558.08.33,576.35L.11,574.6Z" transform="translate(-0.11 -0.89)"/></g></g></g></svg>