<?xml version="1.0" encoding="utf-8"?>
<!-- Generator: Adobe Illustrator 25.4.1, SVG Export Plug-In . SVG Version: 6.00 Build 0)  -->
<svg version="1.1" id="Layer_1" xmlns="http://www.w3.org/2000/svg" xmlns:xlink="http://www.w3.org/1999/xlink" x="0px" y="0px"
	 viewBox="0 0 24 24" style="enable-background:new 0 0 24 24;" xml:space="preserve">
<style type="text/css">
	.st0{fill:#C6D7FF;}
</style>
<path class="st0" d="M16.1,19.3c-3,3.8-8.4,4.6-12.1,1.7s-4.1-8.3-1.1-12.1S19.1,15.4,16.1,19.3z"/>
<path d="M17.6,3C16.1,3,15,4.2,15,5.6v1.3c-0.3-0.2-0.7-0.3-1.1-0.3c-0.7,0-1.4,0.3-1.8,0.8c-0.5-0.5-1.1-0.8-1.9-0.8
	C9.7,6.6,9.4,6.7,9,6.9V5.6C9,4.2,7.9,3,6.4,3C5,3,3.8,4.2,3.8,5.6v7.5h0C4,17.5,7.6,21,12,21c4.5,0,8.2-3.7,8.2-8.2V5.6
	C20.2,4.2,19,3,17.6,3z M13.9,8.2c0.6,0,1.1,0.5,1.1,1.1v3.1c0,0.6-0.5,1.1-1.1,1.1c-0.6,0-1.1-0.5-1.1-1.1h0V9.3h0
	C12.8,8.7,13.2,8.2,13.9,8.2z M10.1,8.1c0.6,0,1.1,0.5,1.1,1.1v2.7c-0.5-0.6-1.2-1-2-1H9V9.2C9,8.6,9.5,8.1,10.1,8.1z M6.4,4.5
	C7,4.5,7.5,5,7.5,5.6v5.3H5.3V5.6C5.3,5,5.8,4.5,6.4,4.5z M12,19.5c-3.7,0-6.7-3-6.7-6.7v-0.4h3.9c0.6,0,1.1,0.5,1.1,1.1
	s-0.5,1.1-1.1,1.1v1.5c1.3,0,2.4-1,2.6-2.2c0.5,0.6,1.2,1,2.1,1c1.4,0,2.6-1.2,2.6-2.6h0v0c0,0,0,0,0,0h0V9.2V5.6
	c0-0.6,0.5-1.1,1.1-1.1c0.6,0,1.1,0.5,1.1,1.1v7.2C18.7,16.5,15.7,19.5,12,19.5z"/>
</svg>
