<?xml version="1.0" encoding="utf-8"?>
<!-- Generator: Adobe Illustrator 25.4.1, SVG Export Plug-In . SVG Version: 6.00 Build 0)  -->
<svg version="1.1" id="Layer_1" xmlns="http://www.w3.org/2000/svg" xmlns:xlink="http://www.w3.org/1999/xlink" x="0px" y="0px"
	 viewBox="0 0 24 24" style="enable-background:new 0 0 24 24;" xml:space="preserve">
<style type="text/css">
	.st0{fill:#C6D7FF;}
</style>
<path class="st0" d="M13.6,14.1l-1.2,2.1c-1.3,2.3-4.2,3-6.4,1.7l-0.1,0c-3.5-2-4.6-6.4-2.6-9.9L4.4,6C5.8,3.7,8.7,2.9,11,4.2l0,0
	C14.4,6.2,15.6,10.6,13.6,14.1z"/>
<g>
	<path d="M17,11.3V9.6h-4.4h-1.6c-1.5,0-2.8,1.2-2.8,2.8v2.2H6.4c-1.8,0-3.3,1.5-3.3,3.3c0,1.8,1.5,3.3,3.3,3.3h0
		c1.8,0,3.3-1.5,3.3-3.3v-2.5v-0.8v-2.2c0-0.6,0.5-1.1,1.1-1.1h1.6H17z M8.1,18c0,0.9-0.7,1.6-1.6,1.6h0c-0.9,0-1.6-0.7-1.6-1.6
		c0-0.9,0.7-1.6,1.6-1.6h1.6V18z"/>
	<rect x="12.5" y="12.8" width="4.4" height="1.7"/>
	<rect x="12.5" y="16" width="4.4" height="1.7"/>
	<path d="M16.2,3H7.8c-1,0-1.9,0.8-1.9,1.9v4.7h1.7V4.9c0-0.1,0.1-0.2,0.2-0.2h7.7v3.4h3.4v10.9c0,0.1-0.1,0.2-0.2,0.2H11V21h7.7
		c1,0,1.9-0.8,1.9-1.9V7.4L16.2,3z"/>
</g>
</svg>
