<?xml version="1.0" encoding="utf-8"?>
<!-- Generator: Adobe Illustrator 25.4.1, SVG Export Plug-In . SVG Version: 6.00 Build 0)  -->
<svg version="1.1" id="Layer_1" xmlns="http://www.w3.org/2000/svg" xmlns:xlink="http://www.w3.org/1999/xlink" x="0px" y="0px"
	 viewBox="0 0 24 24" style="enable-background:new 0 0 24 24;" xml:space="preserve">
<style type="text/css">
	.st0{fill:#C6D7FF;}
</style>
<path class="st0" d="M11.8,16.5H6.5c-2.6,0-4.7-2.1-4.7-4.7V6.5c0-2.6,2.1-4.7,4.7-4.7h5.3c2.6,0,4.7,2.1,4.7,4.7v5.3
	C16.5,14.4,14.4,16.5,11.8,16.5z"/>
<g>
	<path d="M7.1,3C5,3,3.3,4.6,3.3,6.7v9.6C3.3,18.9,5.4,21,8,21h12.6v-7.8v-1.7V3H7.1z M8.1,19.4c-1.7,0-3-1.4-3-3s1.4-3,3-3H19v2.2
		H8.7v1.7H19v2.1H8.1z M8.1,11.6c-1.2,0-2.2,0.4-3,1.1v-6c0-1.1,0.9-2,2-2H19v6.9H8.1z"/>
	<rect x="8.7" y="5.9" width="7.2" height="1.7"/>
</g>
</svg>
