<?xml version="1.0" encoding="UTF-8"?>
<svg width="16px" height="16px" viewBox="0 0 16 16" version="1.1" xmlns="http://www.w3.org/2000/svg" xmlns:xlink="http://www.w3.org/1999/xlink">
    <title>icon/other/time</title>
    <g id="icon/other/time" stroke="none" stroke-width="1" fill="none" fill-rule="evenodd">
        <polygon id="Bounds" points="0 0 16 0 16 16 0 16"></polygon>
        <path d="M7.99333333,1.33333333 C11.68,1.33333333 14.6666667,4.32 14.6666667,8 C14.6666667,11.68 11.68,14.6666667 7.99333333,14.6666667 C4.31333333,14.6666667 1.33333333,11.68 1.33333333,8 C1.33333333,4.32 4.31333333,1.33333333 7.99333333,1.33333333 Z M8,2.66666667 C5.05333333,2.66666667 2.66666667,5.05333333 2.66666667,8 C2.66666667,10.9466667 5.05333333,13.3333333 8,13.3333333 C10.9466667,13.3333333 13.3333333,10.9466667 13.3333333,8 C13.3333333,5.05333333 10.9466667,2.66666667 8,2.66666667 Z M8.5,4.5 L8.5,7.5 L11.5,7.5 L11.5,8.5 L7.5,8.5 L7.5,4.5 L8.5,4.5 Z" id="Combined-Shape" fill="#000000"></path>
    </g>
</svg>