<?xml version="1.0" encoding="UTF-8"?>
<svg width="16px" height="16px" viewBox="0 0 16 16" version="1.1" xmlns="http://www.w3.org/2000/svg" xmlns:xlink="http://www.w3.org/1999/xlink">
    <title>icon/other/ticket</title>
    <g id="icon/other/ticket" stroke="none" stroke-width="1" fill="none" fill-rule="evenodd">
        <polygon id="Bounds" points="0 0 16 0 16 16 0 16"></polygon>
        <path d="M1.33333333,2.66666667 C1.33333333,2.29847683 1.63181017,2 2,2 L14,2 C14.3681898,2 14.6666667,2.29847683 14.6666667,2.66666667 L14.6666667,6.33333333 C13.7461921,6.33333333 13,7.07952542 13,8 C13,8.92047458 13.7461921,9.66666667 14.6666667,9.66666667 L14.6666667,13.3333333 C14.6666667,13.7015232 14.3681898,14 14,14 L2,14 C1.63181017,14 1.33333333,13.7015232 1.33333333,13.3333333 L1.33333333,2.66666667 Z M5.39,12.6666667 C5.53082299,12.2663522 5.90897172,11.9985134 6.33333333,11.9985134 C6.75769495,11.9985134 7.13584367,12.2663522 7.27666667,12.6666667 L13.3333333,12.6666667 L13.3333333,10.688 C12.3117757,10.1817201 11.6654955,9.14013133 11.6654955,8 C11.6654955,6.85986867 12.3117757,5.81827993 13.3333333,5.312 L13.3333333,3.33333333 L7.27666667,3.33333333 C7.13584367,3.73364779 6.75769495,4.00148665 6.33333333,4.00148665 C5.90897172,4.00148665 5.53082299,3.73364779 5.39,3.33333333 L2.66666667,3.33333333 L2.66666667,12.6666667 L5.39,12.6666667 Z M6.33333333,7.33333333 C5.78104858,7.33333333 5.33333333,6.88561808 5.33333333,6.33333333 C5.33333333,5.78104858 5.78104858,5.33333333 6.33333333,5.33333333 C6.88561808,5.33333333 7.33333333,5.78104858 7.33333333,6.33333333 C7.33333333,6.88561808 6.88561808,7.33333333 6.33333333,7.33333333 Z M6.33333333,10.6666667 C5.78104858,10.6666667 5.33333333,10.2189514 5.33333333,9.66666667 C5.33333333,9.11438192 5.78104858,8.66666667 6.33333333,8.66666667 C6.88561808,8.66666667 7.33333333,9.11438192 7.33333333,9.66666667 C7.33333333,10.2189514 6.88561808,10.6666667 6.33333333,10.6666667 Z" id="Shape" fill="#000000"></path>
    </g>
</svg>