<svg xmlns="http://www.w3.org/2000/svg" viewBox="0 0 24 24"><defs><style>.cls-1{fill:#c6d7ff;}.cls-2{fill:none;stroke:#000;stroke-miterlimit:10;stroke-width:1.7px;}</style></defs><g id="Layer_2" data-name="Layer 2"><path class="cls-1" d="M2.62,10.91c-.87-3.37.74-6.78,3.64-7.44C12,2.15,13.82,4.82,14.69,8.19s-2.4,6.72-5.28,7.46S3.5,14.28,2.62,10.91Z"/></g><g id="Layer_1" data-name="Layer 1"><path class="cls-2" d="M11.73,4.4A6.28,6.28,0,0,0,7,14.88a2,2,0,0,0,.24.26l.25.27,4.2,4.19,4.19-4.19.26-.27.24-.26A6.29,6.29,0,0,0,11.73,4.4Z"/><path d="M11.73,9a1.7,1.7,0,1,0,1.69,1.7A1.69,1.69,0,0,0,11.73,9Z"/></g></svg>