<?xml version="1.0" encoding="UTF-8"?>
<svg width="16px" height="16px" viewBox="0 0 16 16" version="1.1" xmlns="http://www.w3.org/2000/svg" xmlns:xlink="http://www.w3.org/1999/xlink">
    <title>icon/verified</title>
    <g id="icon/verified" stroke="none" stroke-width="1" fill="none" fill-rule="evenodd">
        <polygon id="Bounds" points="0 0 16 0 16 15 0 15"></polygon>
        <path d="M8,0 C9.55233381,0 11.0014012,0.442136155 12.2281424,1.20734875 L11.5380963,1.95867349 C10.4999269,1.34935743 9.29076185,1 8,1 C4.13400675,1 1,4.13400675 1,8 C1,11.8659932 4.13400675,15 8,15 C11.8659932,15 15,11.8659932 15,8 C15,7.27621959 14.8901522,6.57809551 14.6862187,5.92138985 L15.453512,5.08804216 C15.8063321,5.99045071 16,6.97260857 16,8 C16,12.418278 12.418278,16 8,16 C3.581722,16 0,12.418278 0,8 C0,3.581722 3.581722,0 8,0 Z M15.260964,0.864994989 L15.9970504,1.5418826 L6.92737995,11.4047622 L3.1854253,7.81841373 L3.87736169,7.09645526 L6.882,9.976 L15.260964,0.864994989 Z" id="Combined-Shape" fill="#000000"></path>
    </g>
</svg>