<?xml version="1.0" encoding="UTF-8"?>
<svg width="14px" height="16px" viewBox="0 0 14 16" version="1.1" xmlns="http://www.w3.org/2000/svg" xmlns:xlink="http://www.w3.org/1999/xlink">
    <title>icon/other/explore track</title>
    <g id="Page-1" stroke="none" stroke-width="1" fill="none" fill-rule="evenodd">
        <g id="Channel-Breakdown" transform="translate(-1376.000000, -988.000000)">
            <g id="Group-9-Copy-4" transform="translate(295.000000, 779.000000)">
                <g id="Fanbase-vs.-Engagement-Copy-2" transform="translate(0.000000, 40.000000)">
                    <g id="Table" transform="translate(24.000000, 88.000000)">
                        <g id="Group-10" transform="translate(0.000000, 57.000000)">
                            <g id="Group-8" transform="translate(1056.000000, 0.000000)">
                                <g id="icon/other/explore-track" transform="translate(0.000000, 24.000000)">
                                    <polygon id="Bounds" points="0 0 16 0 16 16 0 16"></polygon>
                                    <path d="M4.66666667,11.3333333 L4.66666667,15.3333333 L2,15.3333333 L2,11.3333333 L4.66666667,11.3333333 Z M9.33333333,9.33333333 L9.33333333,15.3333333 L6.66666667,15.3333333 L6.66666667,9.33333333 L9.33333333,9.33333333 Z M14,6 L14,15.3333333 L11.3333333,15.3333333 L11.3333333,6 L14,6 Z M13.5291656,0.194564943 L14.4708344,1.13851284 L8.01057929,7.58317014 L6.28,5.933 L2.47504322,9.79796663 L1.52495678,8.86249159 L6.25041124,4.06322916 L7.989,5.721 L13.5291656,0.194564943 Z" id="Combined-Shape" fill="#4E63CE"></path>
                                </g>
                            </g>
                        </g>
                    </g>
                </g>
            </g>
        </g>
    </g>
</svg>