<?xml version="1.0" encoding="utf-8"?>
<!-- Generator: Adobe Illustrator 25.4.1, SVG Export Plug-In . SVG Version: 6.00 Build 0)  -->
<svg version="1.1" id="Layer_1" xmlns="http://www.w3.org/2000/svg" xmlns:xlink="http://www.w3.org/1999/xlink" x="0px" y="0px"
	 viewBox="0 0 24 24" style="enable-background:new 0 0 24 24;" xml:space="preserve">
<style type="text/css">
	.st0{fill:#C6D7FF;}
</style>
<path class="st0" d="M4.6,14l-2.1-2.1C0.7,10,0.7,7,2.5,5.2l1.4-1.4c3-3,8-3,11,0L17,5.8c1.9,1.9,1.9,5,0,6.9L15.7,14
	C12.6,17.1,7.7,17.1,4.6,14z"/>
<path d="M17.4,3.8H6.6c-1.9,0-3.5,1.6-3.5,3.5v9.4c0,1.9,1.6,3.5,3.5,3.5h10.9c1.9,0,3.5-1.6,3.5-3.5V7.3
	C20.9,5.4,19.4,3.8,17.4,3.8z M6.6,5.5h10.9c1,0,1.8,0.8,1.8,1.8v1.6H4.8V7.3C4.8,6.3,5.6,5.5,6.6,5.5z M17.4,18.5H6.6
	c-1,0-1.8-0.8-1.8-1.8v-6.1h2.4v4.3h1.7v-4.3h2.3v4.3h1.7v-4.3h2.3v4.3h1.7v-4.3h2.3v6.1C19.2,17.7,18.4,18.5,17.4,18.5z"/>
</svg>
