<?xml version="1.0" encoding="UTF-8"?>
<svg width="16px" height="16px" viewBox="0 0 16 16" version="1.1" xmlns="http://www.w3.org/2000/svg" xmlns:xlink="http://www.w3.org/1999/xlink">
    <title>icon/other/more horiz</title>
    <g id="icon/other/more-horiz" stroke="none" stroke-width="1" fill="none" fill-rule="evenodd">
        <polygon id="Bounds" points="0 0 16 0 16 16 0 16"></polygon>
        <path d="M8,11.5 C8.825,11.5 9.5,12.175 9.5,13 C9.5,13.825 8.825,14.5 8,14.5 C7.175,14.5 6.5,13.825 6.5,13 C6.5,12.175 7.175,11.5 8,11.5 Z M8,6.5 C8.825,6.5 9.5,7.175 9.5,8 C9.5,8.825 8.825,9.5 8,9.5 C7.175,9.5 6.5,8.825 6.5,8 C6.5,7.175 7.175,6.5 8,6.5 Z M8,1.5 C8.825,1.5 9.5,2.175 9.5,3 C9.5,3.825 8.825,4.5 8,4.5 C7.175,4.5 6.5,3.825 6.5,3 C6.5,2.175 7.175,1.5 8,1.5 Z" id="Combined-Shape" fill="#D5DDE0" transform="translate(8.000000, 8.000000) rotate(90.000000) translate(-8.000000, -8.000000) "></path>
    </g>
</svg>