<?xml version="1.0" encoding="utf-8"?>
<!-- Generator: Adobe Illustrator 25.4.1, SVG Export Plug-In . SVG Version: 6.00 Build 0)  -->
<svg version="1.1" id="Layer_1" xmlns="http://www.w3.org/2000/svg" xmlns:xlink="http://www.w3.org/1999/xlink" x="0px" y="0px"
	 viewBox="0 0 24 24" style="enable-background:new 0 0 24 24;" xml:space="preserve">
<style type="text/css">
	.st0{fill:#C6D7FF;}
</style>
<path class="st0" d="M11.6,15c-2.8-2-3.3-5.9-1.3-8.7s7.3-4.9,10-2.9s2,7.2-0.1,10S14.3,17,11.6,15z"/>
<g>
	<path d="M19.2,8.6c-0.4-3.5-3.5-6.3-7.2-6.3c-3.7,0-6.8,2.8-7.2,6.3c-1.1,0.3-2,1.4-2,2.6v1.3c0,1.2,0.8,2.3,2,2.6
		c0.3,3.1,2.7,5.6,5.8,6.2c0.4,0.4,0.9,0.6,1.4,0.6c1.1,0,2-0.9,2-2c0-1.1-0.9-2-2-2c-1,0-1.8,0.7-2,1.6c-2.1-0.8-3.6-2.7-3.6-5
		c0-0.5-0.4-0.8-0.9-0.8c-0.6,0-1.1-0.5-1.1-1v-1.3c0-0.6,0.5-1,1.1-1h6c2.6,0,4.5-1.5,5-3.7c0.6,0.8,0.9,1.8,0.9,2.9
		c0,0.5,0.4,0.8,0.9,0.8c0.6,0,1.1,0.5,1.1,1v1.3c0,0.6-0.5,1-1.1,1c-0.5,0-0.8,0.4-0.8,0.8c0,1.5-0.6,2.9-1.8,3.9
		c-0.3,0.3-0.4,0.9-0.1,1.2c0.2,0.2,0.4,0.3,0.6,0.3c0.2,0,0.4-0.1,0.6-0.2c1.3-1.2,2.1-2.7,2.3-4.4c1.2-0.3,2-1.4,2-2.6v-1.3
		C21.2,10,20.3,8.9,19.2,8.6z M11.6,8.5H6.5C6.9,6,9.2,4,12,4c1.2,0,2.3,0.4,3.2,1c0,0,0,0.1,0,0.1C15.1,7.2,13.7,8.5,11.6,8.5z"/>
	<path d="M8.4,12.6c0,0.6,0.5,1,1,1c0.6,0,1-0.5,1-1s-0.5-1-1-1C8.9,11.6,8.4,12,8.4,12.6z"/>
	<path d="M14.5,11.6c-0.6,0-1,0.5-1,1s0.5,1,1,1c0.6,0,1-0.5,1-1S15.1,11.6,14.5,11.6z"/>
</g>
</svg>
