<svg width="267" height="301" xmlns="http://www.w3.org/2000/svg"><g fill="none" fill-rule="evenodd"><path d="M74 0h63v63H74z"/><path d="M74 0h63v63H74z"/><path d="M74.012 30.33C74.475 13.492 88.282 0 105.204 0c17.242 0 31.203 13.99 31.203 31.204 0 17.242-13.99 31.204-31.17 31.204-16.92.09-30.76-13.462-31.225-30.33L74 31.205l.012-.874Z" fill="#FFF" fill-rule="nonzero"/><path d="M105.5 6.3c-13.917 0-25.2 11.283-25.2 25.2 0 13.918 11.283 25.2 25.2 25.2 13.919 0 25.2-11.282 25.2-25.2 0-13.916-11.281-25.199-25.2-25.199V6.3Zm11.556 36.346a1.57 1.57 0 0 1-2.16.52c-5.917-3.614-13.365-4.432-22.137-2.428a1.571 1.571 0 0 1-.7-3.063c9.6-2.195 17.834-1.25 24.477 2.81.74.455.975 1.42.52 2.16Zm3.085-6.863a1.964 1.964 0 0 1-2.702.649c-6.774-4.165-17.1-5.37-25.112-2.939a1.967 1.967 0 0 1-2.451-1.309 1.968 1.968 0 0 1 1.31-2.45c9.152-2.777 20.529-1.432 28.308 3.348a1.964 1.964 0 0 1 .647 2.702Zm.265-7.145c-8.122-4.824-21.522-5.268-29.277-2.914a2.357 2.357 0 1 1-1.368-4.511c8.902-2.702 23.7-2.18 33.05 3.371a2.354 2.354 0 0 1 .825 3.23 2.355 2.355 0 0 1-3.23.824Z" fill="#1ED760" fill-rule="nonzero"/><path d="M125 178h49v-49h-49z"/><path d="M136.756 134.185c-7.852.492-10.762 4.067-11.53 12.622l-.096 1.256c-.014.215-.026.433-.038.654l-.055 1.36a85.742 85.742 0 0 0-.037 2.173c.003.503.009.993.019 1.472l.043 1.4c.422 10.464 3.091 14.703 11.693 15.243l1.744.09c.315.014.64.027.977.04l2.128.064 2.313.047 2.442.03 1.25.01h3.788l2.484-.022 2.383-.04 2.226-.055c.71-.022 1.384-.046 2.013-.074l1.74-.09c7.853-.492 10.763-4.067 11.532-12.622l.095-1.256c.014-.215.026-.433.038-.654l.055-1.36c.021-.697.033-1.422.037-2.173a91.443 91.443 0 0 0-.019-1.472l-.043-1.4c-.422-10.464-3.091-14.703-11.693-15.243l-1.742-.09c-.314-.014-.64-.027-.976-.04l-2.126-.064-2.313-.047-2.44-.03a354.42 354.42 0 0 0-1.25-.01h-3.789l-2.484.022-2.384.04-2.227.055c-.71.022-1.385.046-2.014.074l-1.744.09Z" fill="#FFF" fill-rule="nonzero"/><path d="M145.496 157.969V146.59l10.25 5.69-10.25 5.689Zm22.798-14.96c-.451-1.656-1.78-2.961-3.467-3.404-3.058-.805-15.32-.805-15.32-.805s-12.263 0-15.32.805c-1.688.443-3.017 1.748-3.468 3.405-.819 3.003-.819 9.27-.819 9.27s0 6.266.82 9.269c.45 1.657 1.78 2.962 3.466 3.405 3.058.805 15.32.805 15.32.805s12.263 0 15.321-.805c1.687-.443 3.016-1.748 3.467-3.405.82-3.003.82-9.27.82-9.27s0-6.266-.82-9.27Z" fill="red" fill-rule="nonzero"/><g><path d="M231 91h36V59h-36z"/><path d="M254.096 60.564c1.736 0 3.395.442 4.824 1.239l.198.115.137-.053a8.08 8.08 0 0 0 .402-.186l.392-.208c2.506-1.42 5.58.306 5.542 2.71l-.011.187.117.137.153.209.158.263.089.178.112.285.055.184.014.051c.02.079.035.158.048.237l.027.238.008.237-.01.215a2.869 2.869 0 0 1-.163.736l-.1.24-.085.169-.123.207-.147.206-.297.41a14.668 14.668 0 0 1-1.783 1.934l-.176.152-.007.214c-.485 9.466-8.306 17.726-19.463 17.99l-.55.007a20.834 20.834 0 0 1-10.9-3.047c-3.031-1.857-1.333-6.025 2.23-5.832l.547.047-.011-.017a8.469 8.469 0 0 1-.886-1.689l-.13-.361a2.905 2.905 0 0 1-.154-.917l.002-.096-.044-.05c-1.172-1.402-1.887-3.136-1.972-4.995l-.008-.441c0-.48.113-.925.314-1.321l.098-.178a8.18 8.18 0 0 1-.354-2.002l-.01-.412c0-1.521.42-2.997 1.213-4.302 1.245-2.05 4.458-2.269 6.039-.411a12.847 12.847 0 0 0 5.444 3.762l.27.091.048-.142c1.188-3.347 4.496-5.83 8.512-5.982l.39-.008Z" fill="#FFF" fill-rule="nonzero"/><path d="M262.76 66.357c-1.035.44-2.149.737-3.317.87 1.193-.683 2.109-1.767 2.54-3.058a11.87 11.87 0 0 1-3.67 1.34 5.886 5.886 0 0 0-4.217-1.745c-3.189 0-5.775 2.476-5.775 5.53 0 .433.05.854.148 1.259-4.801-.231-9.057-2.43-11.909-5.78a5.341 5.341 0 0 0-.782 2.783c0 1.918 1.02 3.61 2.57 4.602a5.98 5.98 0 0 1-2.617-.69v.069c0 2.68 1.991 4.915 4.636 5.421-.484.13-.995.195-1.522.195a6 6 0 0 1-1.088-.099c.736 2.196 2.868 3.796 5.397 3.838a11.922 11.922 0 0 1-7.176 2.369c-.466 0-.927-.026-1.378-.076a16.917 16.917 0 0 0 8.856 2.482c10.628 0 16.438-8.424 16.438-15.731 0-.24-.005-.481-.015-.717a11.423 11.423 0 0 0 2.881-2.862" fill="#00ACEE" fill-rule="nonzero"/></g><g transform="translate(0 196)"><rect fill="#FFF" width="48" height="48" rx="10"/><rect fill="#FFDB00" x="5" y="5" width="38" height="38" rx="7.091"/><rect fill="#000" x="12" y="16" width="5" height="19" rx="2.364"/><rect fill="#000" x="22" y="22" width="5" height="14" rx="2.364"/><rect fill="#000" x="31" y="12" width="5" height="24" rx="2.364"/></g><g transform="translate(144 251)"><rect fill="#FFF" width="50" height="50" rx="10"/><g transform="translate(5 5)"><rect fill="#C500FF" width="40" height="40" rx="7.464"/><path d="M2 2h35v35H2z"/><circle stroke="#FFF" stroke-width="2.903" stroke-linecap="round" stroke-linejoin="round" cx="11" cy="11" r="3"/><circle stroke="#FFF" stroke-width="2.903" stroke-linecap="round" stroke-linejoin="round" cx="29" cy="29" r="3"/><path d="M19 11h7.143C27.72 11 29 12.343 29 14v12" stroke="#FFF" stroke-width="2.903" stroke-linecap="round" stroke-linejoin="round"/><path stroke="#FFF" stroke-width="2.903" stroke-linecap="round" stroke-linejoin="round" d="m23 16-4-4.5L23 7M21 29h-7.143C12.28 29 11 27.657 11 26V14"/><path stroke="#FFF" stroke-width="2.903" stroke-linecap="round" stroke-linejoin="round" d="m17 24 4 4.5-4 4.5"/></g></g></g></svg>