<?xml version="1.0" encoding="utf-8"?>
<!-- Generator: Adobe Illustrator 25.4.1, SVG Export Plug-In . SVG Version: 6.00 Build 0)  -->
<svg version="1.1" id="Layer_1" xmlns="http://www.w3.org/2000/svg" xmlns:xlink="http://www.w3.org/1999/xlink" x="0px" y="0px"
	 viewBox="0 0 24 24" style="enable-background:new 0 0 24 24;" xml:space="preserve">
<style type="text/css">
	.st0{fill:#C6D7FF;}
</style>
<path class="st0" d="M18,10.9l-5.6-3.3C9.8,6.2,6.7,8,6.7,10.9v6.5c0,2.9,3.2,4.7,5.7,3.3l5.6-3.3C20.5,16,20.5,12.4,18,10.9z"/>
<g>
	<path d="M3.1,4.1V17h17.8V4.1H3.1z M19.2,15.3H4.8V5.8h14.4V15.3z"/>
	<rect x="8.6" y="18.2" width="6.8" height="1.7"/>
	<path d="M10.8,13.3l3.1-1.9c0.5-0.3,0.5-0.9,0-1.2l-3.1-1.9c-0.5-0.3-1.1,0.1-1.1,0.6v3.8C9.7,13.3,10.3,13.6,10.8,13.3z"/>
</g>
</svg>
