<?xml version="1.0" encoding="UTF-8"?>
<svg width="16px" height="16px" viewBox="0 0 16 16" version="1.1" xmlns="http://www.w3.org/2000/svg" xmlns:xlink="http://www.w3.org/1999/xlink">
    <title>icon/other/unlock</title>
    <g id="icon/other/unlock" stroke="none" stroke-width="1" fill="none" fill-rule="evenodd">
        <polygon id="Bounds" points="0 0 16 0 16 16 0 16"></polygon>
        <path d="M5,4 C5,3.17157288 4.32842712,2.5 3.5,2.5 C2.72030388,2.5 2.07955132,3.09488808 2.00686658,3.85553999 L2,4 L2,8 L0.5,8 L0.5,4 C0.5,2.34314575 1.84314575,1 3.5,1 C5.15685425,1 6.5,2.34314575 6.5,4 L6.5,8 L12,8 L12,14 C12,14.5522847 11.5522847,15 11,15 L5,15 C4.44771525,15 4,14.5522847 4,14 L4,8 L5,8 L5,4 Z M8,10.5 C7.44771525,10.5 7,10.9477153 7,11.5 C7,12.0522847 7.44771525,12.5 8,12.5 C8.55228475,12.5 9,12.0522847 9,11.5 C9,10.9477153 8.55228475,10.5 8,10.5 Z" id="Combined-Shape" fill="#707580"></path>
    </g>
</svg>