<?xml version="1.0" encoding="utf-8"?>
<!-- Generator: Adobe Illustrator 25.4.1, SVG Export Plug-In . SVG Version: 6.00 Build 0)  -->
<svg version="1.1" id="Layer_1" xmlns="http://www.w3.org/2000/svg" xmlns:xlink="http://www.w3.org/1999/xlink" x="0px" y="0px"
	 viewBox="0 0 24 24" style="enable-background:new 0 0 24 24;" xml:space="preserve">
<style type="text/css">
	.st0{fill:#C6D7FF;}
</style>
<g>
	<path class="st0" d="M8.1,8l-2.6,4.5c-1.7,3,0.4,6.8,3.9,6.8h5.2c3.5,0,5.6-3.8,3.9-6.8L15.9,8C14.2,5,9.9,5,8.1,8z"/>
	<g>
		<path d="M11.9,8.8c0-0.7-0.3-1.3-0.9-1.7L6.1,4.3c-0.6-0.4-1.3-0.4-1.9,0c-0.6,0.3-1,1-1,1.7v5.8c0,0.7,0.4,1.3,1,1.7
			c0.3,0.2,0.6,0.3,1,0.3c0.3,0,0.7-0.1,1-0.3l4.9-2.9C11.6,10.1,11.9,9.5,11.9,8.8z M10.1,9l-4.9,2.9c-0.2,0.1-0.3,0-0.3-0.2V5.9
			c0-0.2,0.2-0.3,0.3-0.2s4.9,2.9,4.9,2.9C10.2,8.7,10.2,8.9,10.1,9z"/>
		<path d="M18.3,5.5c-1.8,0-3.2,1.4-3.2,3.2v4.7h-3c-1.8,0-3.2,1.5-3.2,3.3s1.5,3.2,3.2,3.2h1.5c1.8,0,3.2-1.4,3.2-3.2v-2.5v-0.9
			V8.8c0-0.8,0.7-1.5,1.5-1.5H20V5.5H18.3z M15.1,16.8c0,0.8-0.7,1.5-1.5,1.5h-1.5c-0.8,0-1.5-0.7-1.5-1.6c0-0.8,0.7-1.5,1.5-1.5h3
			V16.8z"/>
	</g>
</g>
</svg>
