<svg id="ikone" xmlns="http://www.w3.org/2000/svg" viewBox="0 0 300 300"><defs><style>.cls-1{fill:#fff;}</style></defs><path class="cls-1" d="M240.88,52.45a29.82,29.82,0,0,0-16.19,54.87l-32.91,70a29.79,29.79,0,0,0-25.16,3.14l-33.23-39.64a23.87,23.87,0,1,0-32.94,3.29L73.69,179.7a29.92,29.92,0,1,0,6.39,4.82L107.56,148a23.74,23.74,0,0,0,19.7-2l33.23,39.64A29.83,29.83,0,1,0,199,180.85l33-70.11a29.83,29.83,0,1,0,8.95-58.29ZM81,205.72a21.83,21.83,0,1,1-21.83-21.83A21.86,21.86,0,0,1,81,205.72Zm18.39-80.31a15.87,15.87,0,1,1,15.87,15.87A15.9,15.9,0,0,1,99.34,125.41Zm105,80.31a21.83,21.83,0,1,1-21.83-21.83A21.86,21.86,0,0,1,204.36,205.72Zm36.52-101.61a21.83,21.83,0,1,1,21.83-21.83A21.85,21.85,0,0,1,240.88,104.11Z"/></svg>