<?xml version="1.0" encoding="utf-8"?>
<!-- Generator: Adobe Illustrator 25.4.1, SVG Export Plug-In . SVG Version: 6.00 Build 0)  -->
<svg version="1.1" id="Layer_1" xmlns="http://www.w3.org/2000/svg" xmlns:xlink="http://www.w3.org/1999/xlink" x="0px" y="0px"
	 viewBox="0 0 24 24" style="enable-background:new 0 0 24 24;" xml:space="preserve">
<style type="text/css">
	.st0{fill:#C6D7FF;}
</style>
<path class="st0" d="M14.7,4c3.5,0,6.3,3,6.3,6.7s-2.8,6.7-6.3,6.7S11.2,4,14.7,4z"/>
<g>
	<path d="M12,14.4c2.5,0,4.4-2,4.4-4.4V7.5C16.4,5,14.4,3,12,3S7.5,5,7.5,7.5v2.5C7.5,12.4,9.5,14.4,12,14.4z M9.2,7.5
		c0-1.5,1.2-2.7,2.7-2.7s2.7,1.2,2.7,2.7v2.5c0,1.5-1.2,2.7-2.7,2.7s-2.7-1.2-2.7-2.7V7.5z"/>
	<path d="M17.9,14.8l-1.3-1.1c-1.1,1.4-2.8,2.1-4.6,2.1s-3.4-0.8-4.6-2.1l-1.3,1.1c1.3,1.5,3,2.5,5,2.7v1.8H8.9V21h6.2v-1.7h-2.2
		v-1.8C14.8,17.3,16.6,16.3,17.9,14.8z"/>
</g>
</svg>
