<?xml version="1.0" encoding="UTF-8"?>
<svg width="16px" height="16px" viewBox="0 0 16 16" version="1.1" xmlns="http://www.w3.org/2000/svg" xmlns:xlink="http://www.w3.org/1999/xlink">
    <title>icon/other/save chart</title>
    <g id="icon/other/save-chart" stroke="none" stroke-width="1" fill="none" fill-rule="evenodd">
        <polygon id="Bounds" points="0 0 16 0 16 16 0 16"></polygon>
        <path d="M10.8571427,1 L5.14285701,1 C3.96778498,1 3.00571415,1.9418421 3.00571415,3.11111111 L3,13.9994752 L3.00569292,14.110595 C3.08876518,14.9074607 4.06203415,15.2997036 4.67572449,14.7371541 L8,11.689 L11.3242752,14.7371541 C11.9656767,15.3251055 13,14.870105 13,14 L13,3.11111111 C13,1.94131256 12.0317927,1 10.8571427,1 Z M10.5571429,2.3 C11.1438095,2.3 11.6309201,2.73555556 11.6932609,3.2904856 L11.6999999,3.41111111 L11.6999999,13.4 L7.99999986,10.03 L4.29999986,13.4 L4.30571415,3.41111111 C4.30571415,2.84074074 4.74873637,2.36716049 5.31885785,2.30655144 L5.44285701,2.3 L10.5571429,2.3 Z" id="Path" fill="#667DD5"></path>
    </g>
</svg>