<?xml version="1.0" encoding="UTF-8"?>
<svg width="927px" height="259px" viewBox="0 0 927 259" version="1.1" xmlns="http://www.w3.org/2000/svg" xmlns:xlink="http://www.w3.org/1999/xlink">
    <title>icons-laptop</title>
    <defs>
        <linearGradient x1="50%" y1="99.7089109%" x2="50%" y2="0.776721582%" id="linearGradient-1">
            <stop stop-color="#E09B3D" offset="0%"></stop>
            <stop stop-color="#C74C4D" offset="30%"></stop>
            <stop stop-color="#C21975" offset="60%"></stop>
            <stop stop-color="#7024C4" offset="100%"></stop>
        </linearGradient>
        <linearGradient x1="50%" y1="146.098873%" x2="50%" y2="-45.1596833%" id="linearGradient-2">
            <stop stop-color="#E09B3D" offset="0%"></stop>
            <stop stop-color="#C74C4D" offset="30%"></stop>
            <stop stop-color="#C21975" offset="60%"></stop>
            <stop stop-color="#7024C4" offset="100%"></stop>
        </linearGradient>
        <linearGradient x1="50%" y1="658.140556%" x2="50%" y2="-140.029283%" id="linearGradient-3">
            <stop stop-color="#E09B3D" offset="0%"></stop>
            <stop stop-color="#C74C4D" offset="30%"></stop>
            <stop stop-color="#C21975" offset="60%"></stop>
            <stop stop-color="#7024C4" offset="100%"></stop>
        </linearGradient>
    </defs>
    <g id="Analytics---B" stroke="none" stroke-width="1" fill="none" fill-rule="evenodd">
        <g id="icons-laptop">
            <g id="instagram-copy-6" transform="translate(836.000000, 206.000000)" fill-rule="nonzero">
                <path d="M25.2754058,0 L10.7245941,0 C4.81102799,0 0,5.07830732 0,11.3204049 L0,26.679595 C0,32.9216926 4.81102799,38 10.7245941,38 L25.2754058,38 C31.1889719,38 36,32.9216926 36,26.679595 L36,11.3204049 C36,5.07830732 31.1889067,0 25.2754058,0 Z M32.3784013,26.679595 C32.3784013,30.820374 29.1982491,34.1772014 25.2754058,34.1772014 L10.7245941,34.1772014 C6.8017509,34.1772014 3.62159867,30.820374 3.62159867,26.679595 L3.62159867,11.3204049 C3.62159867,7.17955698 6.8017509,3.8227986 10.7245941,3.8227986 L25.2754058,3.8227986 C29.1982491,3.8227986 32.3784013,7.17955698 32.3784013,11.3204049 L32.3784013,26.679595 L32.3784013,26.679595 Z" id="Shape" fill="url(#linearGradient-1)"></path>
                <path d="M18.6923077,9.85185185 C13.7296997,9.85185185 9.69230769,13.9557174 9.69230769,18.9999679 C9.69230769,24.0442184 13.7296997,28.1481481 18.6923077,28.1481481 C23.6549156,28.1481481 27.6923077,24.0442825 27.6923077,18.9999679 C27.6923077,13.9556532 23.6549156,9.85185185 18.6923077,9.85185185 Z M18.6923077,24.5898984 C15.6550911,24.5898984 13.1929848,22.0872549 13.1929848,19.0000321 C13.1929848,15.9128093 15.6551542,13.4101658 18.6923077,13.4101658 C21.7295243,13.4101658 24.1916306,15.9128093 24.1916306,19.0000321 C24.1916306,22.0871907 21.7294611,24.5898984 18.6923077,24.5898984 Z" id="Shape" fill="url(#linearGradient-2)"></path>
                <ellipse id="Oval" fill="url(#linearGradient-3)" cx="27" cy="9.14814815" rx="2.07692308" ry="2.11111111"></ellipse>
            </g>
            <g id="youtube-copy-6" transform="translate(0.000000, 220.000000)">
                <rect id="Rectangle" transform="translate(19.000000, 19.500000) scale(-1, 1) rotate(-180.000000) translate(-19.000000, -19.500000) " x="0" y="0" width="38" height="39"></rect>
                <rect id="Rectangle" fill="#FFFFFF" transform="translate(19.000000, 19.500000) scale(-1, 1) rotate(-180.000000) translate(-19.000000, -19.500000) " x="9" y="9" width="20" height="21"></rect>
                <path d="M31.0570833,5.27618395 C25.35075,4.90718908 12.6413333,4.90868906 6.94291665,5.27618395 C0.772666665,5.67517839 0.0459166666,9.20612928 0,18.5 C0.0459166666,27.7773709 0.766333332,31.3233216 6.94291665,31.723816 C12.6429166,32.0913109 25.35075,32.092811 31.0570833,31.723816 C37.2273333,31.3248215 37.9540833,27.7938707 38,18.5 C37.9540833,9.22262906 37.2336666,5.67667837 31.0570833,5.27618395 Z M14.25,24.4999165 L14.25,12.5000835 L26.9166667,18.4895002 L14.25,24.4999165 L14.25,24.4999165 Z" id="Icon" fill="#FF0000" fill-rule="nonzero"></path>
            </g>
            <g id="spotify-copy-6" transform="translate(44.000000, 32.000000)">
                <rect id="Rectangle" x="0" y="0" width="46" height="46"></rect>
                <path d="M22.9998627,0 C10.2976589,0 0,10.2976302 0,23.0001373 C0,35.7031938 10.2976589,46 22.9998627,46 C35.7034397,46 46,35.7031938 46,23.0001373 C46,10.2984542 35.7034397,0.00109861896 22.999588,0.00109861896 L22.9998627,0 Z M33.5474514,33.1727996 C33.1354792,33.8484503 32.251112,34.062681 31.5754775,33.6479523 C26.175345,30.3493489 19.3772532,29.602288 11.3712587,31.4314886 C10.5997719,31.6072676 9.83075701,31.1238753 9.65498218,30.3520954 C9.4783834,29.5803156 9.95984166,28.8112823 10.7332509,28.6355033 C19.4945279,26.6329956 27.0097261,27.4956861 33.0723101,31.2007786 C33.7479446,31.6155072 33.9621702,32.497149 33.5474514,33.1727996 L33.5474514,33.1727996 Z M36.3625953,26.9092983 C35.8435102,27.7538616 34.7394246,28.0202767 33.8962546,27.5011792 C27.7139241,23.7002323 18.289921,22.5996907 10.9774132,24.8194503 C10.029053,25.1059152 9.02741108,24.5714371 8.73957979,23.6247022 C8.45394568,22.6763194 8.98868569,21.6765761 9.93539797,21.3881887 C18.2882731,18.8536747 28.6724462,20.0813814 35.7721017,24.444272 C36.6152716,24.9633694 36.8816804,26.0674815 36.3625953,26.9095729 L36.3625953,26.9092983 Z M36.6042857,20.3878961 C29.1915313,15.9849059 16.9614478,15.5800648 9.88403876,17.7281396 C8.74754459,18.0728313 7.54568414,17.4312378 7.20127532,16.2947165 C6.8568665,15.1576459 7.49789536,13.9565807 8.63521348,13.611065 C16.7595813,11.1446654 30.2654057,11.6211914 38.7998233,16.6877474 C39.824261,17.2944597 40.1593318,18.6147251 39.5523593,19.6356167 C38.9481333,20.6578817 37.6243291,20.9948831 36.6053843,20.3878961 L36.6042857,20.3878961 Z" id="Shape" fill="#1ED760" fill-rule="nonzero"></path>
            </g>
            <g id="beatport-copy-5" transform="translate(827.000000, 0.000000)">
                <rect id="Rectangle" fill-opacity="0" fill="#D8D8D8" x="0" y="0" width="39" height="40"></rect>
                <ellipse id="Oval" fill="#000000" cx="19.5" cy="20" rx="19.5" ry="20"></ellipse>
                <path d="M12.4270182,28.0728012 C14.9219735,28.0728012 16.9462787,25.9393563 16.9462787,23.3211208 C16.9462787,20.6788009 14.8278315,18.6182397 12.4270182,18.6182397 C9.95537633,18.6182397 7.86047057,20.703046 7.86047057,23.3211208 C7.86047057,26.0363244 10.0024473,28.0728012 12.4270182,28.0728012 M12.4270182,32 C7.76608846,32 4,28.1697569 4,23.3211208 C4,18.5211233 7.67193445,14.6908802 12.4270182,14.6908802 C14.6629209,14.6908802 16.6402992,15.563444 18.1232579,16.9455134 L12.4270182,11.0787935 L15.416249,8 L21.7717349,14.6181572 C22.6428186,15.5152011 23.7727387,15.975759 25.0203304,15.975759 L33,15.975759 L33,20.3151986 L25.0203304,20.3151986 C22.572134,20.3151986 20.5008418,19.4181548 18.8060576,17.6728787 L18.6175335,17.4785594 C19.9828807,19.0060747 20.8068213,21.090881 20.8068213,23.3211208 C20.8068213,28.2424798 17.0171193,32 12.4270182,32" id="Symbol_Green_Vector" fill="#01FF95" transform="translate(18.500000, 20.000000) rotate(-90.000000) translate(-18.500000, -20.000000) "></path>
            </g>
            <g id="soundcloud-copy-3" transform="translate(887.000000, 98.000000)">
                <rect id="Rectangle" transform="translate(20.000000, 20.000000) scale(-1, 1) rotate(-180.000000) translate(-20.000000, -20.000000) " x="0" y="0" width="40" height="40"></rect>
                <path d="M1.93269131,19.3388735 C1.8471575,19.3388735 1.77694936,19.4101249 1.76617997,19.5084176 L1.37206171,23.2302318 L1.76617997,26.8698493 C1.77694936,26.9664251 1.8471575,27.0376764 1.93269131,27.0376764 C2.01677539,27.0376764 2.0855338,26.9681419 2.09920265,26.8698493 L2.54530392,23.2302318 L2.09920265,19.5067007 C2.0853267,19.4086227 2.01656829,19.3388735 1.93269131,19.3388735 L1.93269131,19.3388735 Z M0.453764109,20.7654044 C0.369680024,20.7654044 0.304028166,20.8319344 0.293258776,20.9267932 L-1.98840944e-13,23.2302318 L0.293258776,25.4926793 C0.304028166,25.5873236 0.369680024,25.6540681 0.453764109,25.6540681 C0.534741637,25.6540681 0.600393497,25.5873236 0.614062337,25.4926793 L0.959304131,23.2302318 L0.614062337,20.9267932 C0.600393497,20.8317198 0.534741637,20.7654044 0.453764109,20.7654044 L0.453764109,20.7654044 Z M3.50315833,18.6091902 C3.39774256,18.6091902 3.31365849,18.6946061 3.30288909,18.8132869 L2.93010251,23.2302318 L3.30288909,27.484071 C3.31365849,27.6029664 3.39774256,27.6881677 3.50315833,27.6881677 C3.60691726,27.6881677 3.69100135,27.6029664 3.70487728,27.4857878 L4.12799006,23.2302318 L3.70487728,18.8132869 C3.69100135,18.6946061 3.60691726,18.6091902 3.50315833,18.6091902 L3.50315833,18.6091902 Z M5.08729419,18.4540252 C4.9634462,18.4540252 4.86279382,18.5568247 4.85347416,18.6931038 L4.50056953,23.2304464 L4.85347416,27.6205646 C4.86258672,27.7566292 4.9634462,27.859214 5.08729419,27.859214 C5.21114217,27.859214 5.31179455,27.7564145 5.32256394,27.6205646 L5.7231024,23.2304464 L5.32256394,18.6916015 C5.31200165,18.5568247 5.21114217,18.4540252 5.08729419,18.4540252 L5.08729419,18.4540252 Z M6.95267681,19.0191005 C6.94356424,18.8639355 6.8275862,18.746757 6.68530598,18.746757 C6.54012632,18.746757 6.42559801,18.8639355 6.41648544,19.0223197 L6.08346277,23.2302318 L6.41648544,27.6566197 C6.42559801,27.8130723 6.54033342,27.9321824 6.68530598,27.9321824 C6.8275862,27.9321824 6.94356424,27.8130723 6.95267681,27.6566197 L7.3316765,23.2302318 L6.95267681,19.0191005 L6.95267681,19.0191005 Z M8.29574401,16.0728968 C8.13378895,16.0728968 8.00082841,16.2089613 7.99316557,16.3847291 L7.68002485,23.233451 L7.99316557,27.6581219 C8.00082841,27.8308851 8.13378895,27.9684519 8.29574401,27.9684519 C8.45459251,27.9684519 8.58755306,27.8302414 8.59811535,27.6564049 L8.59811535,27.6581219 L8.95101997,23.233451 L8.59811535,16.3832268 C8.58734595,16.2091759 8.45459251,16.0728968 8.29574401,16.0728968 Z M9.89354871,14.4944201 C9.71171169,14.4944201 9.56363258,14.6480828 9.55596976,14.8412343 L9.26416071,23.257273 L9.55596976,27.6551173 C9.56363258,27.8467665 9.71171169,28 9.89354871,28 C10.0722792,28 10.2220151,27.8465519 10.2296779,27.6534004 L10.2296779,27.6551173 L10.5612509,23.257273 L10.2296779,14.8412343 C10.2220151,14.6480828 10.0724863,14.4944201 9.89354871,14.4944201 L9.89354871,14.4944201 Z M11.5543129,13.734691 C11.352594,13.734691 11.1891892,13.9025181 11.1831832,14.1177747 L10.9095992,23.2349532 L11.1831832,27.5866558 C11.1891892,27.7986933 11.3528011,27.966735 11.5543129,27.966735 C11.7529253,27.966735 11.9163301,27.7989079 11.9239929,27.5853682 L11.9239929,27.588802 L12.2309206,23.2349532 L11.9239929,14.1177747 C11.9163301,13.9025181 11.7529253,13.734691 11.5543129,13.734691 Z M13.6075386,13.8106639 C13.5998757,13.5763068 13.4225949,13.3925982 13.2026509,13.3925982 C12.98105,13.3925982 12.8023196,13.5763068 12.7977632,13.8106639 L12.5442684,23.2351679 L12.7977632,27.5617608 C12.8005927,27.7915239 12.9809093,27.9763714 13.2026509,27.9768218 C13.4225949,27.9768218 13.5998757,27.793328 13.6075386,27.5589708 L13.8916848,23.2353825 L13.6075386,13.8106639 L13.6075386,13.8106639 Z M14.8634152,13.5984119 C14.6235891,13.5984119 14.429533,13.7980017 14.4249767,14.0512448 L14.1926064,23.2349532 L14.4249767,27.5205551 C14.429533,27.7722959 14.6235891,27.9721004 14.8634152,27.9721004 C15.1032412,27.9721004 15.2958476,27.7722959 15.3035104,27.5177652 L15.3035104,27.522272 L15.5632184,23.2351679 L15.3035104,14.0514594 C15.2956405,13.7980017 15.1032412,13.5984119 14.8634152,13.5984119 Z M16.5378482,13.8992989 C16.2781402,13.8992989 16.0704152,14.1145555 16.0642022,14.3884014 L15.8533706,23.236241 L16.0654447,27.4935139 C16.070001,27.7643552 16.277726,27.9796118 16.537434,27.9796118 C16.797142,27.9796118 17.0065237,27.7643552 17.01108,27.4905094 L17.01108,27.4939431 L17.2492492,23.2368847 L17.01108,14.3873283 C17.0094873,14.1175628 16.7981796,13.8996476 16.5378482,13.8992989 L16.5378482,13.8992989 Z M18.50554,12.2716759 C18.4227492,12.2143548 18.3255186,12.1835309 18.22595,12.1830408 C18.1250906,12.1830408 18.0304443,12.2145889 17.9509164,12.2684567 C17.8077958,12.3653543 17.7206614,12.5297661 17.7185461,12.7069105 L17.7154395,12.8067055 L17.5259397,23.234524 C17.5259397,23.2407478 17.718339,27.4664727 17.718339,27.4664727 L17.718339,27.4836417 C17.7245521,27.6027518 17.7672154,27.7115604 17.8376307,27.7971909 C17.9328097,27.9180909 18.075176,27.9885487 18.225743,27.9892693 C18.3632598,27.9892693 18.4885574,27.9289631 18.5800974,27.8338897 C18.6716371,27.7388163 18.7298332,27.6089756 18.7329398,27.4647559 L18.7542715,27.0451879 L18.9468779,23.236241 L18.7329398,12.7069105 C18.7296807,12.532218 18.6449235,12.3699957 18.50554,12.2716759 L18.50554,12.2716759 Z M20.1812157,11.2743705 C19.9870589,11.1511741 19.7386448,11.1703575 19.5642539,11.3220145 C19.4392775,11.4276909 19.3659955,11.5853862 19.3641918,11.7525277 L19.362742,11.8111169 L19.1415554,23.2381725 L19.2546339,25.3501764 L19.3646059,27.4065958 C19.3677125,27.7104874 19.6106451,27.9624427 19.9051464,27.9624427 C20.2002692,27.9624427 20.4432018,27.7104874 20.447551,27.4020889 L20.447551,27.4065958 L20.687377,23.2381725 L20.447551,11.7525277 C20.4439951,11.5562957 20.3434113,11.3757156 20.1812157,11.2743705 L20.1812157,11.2743705 Z M35.0802526,17.8018171 C34.4063373,17.8018171 33.7632805,17.942603 33.176763,18.197563 C32.7855441,13.603348 29.066998,10 24.5328776,10 C23.4562816,10.001267 22.3890581,10.2073491 21.3842808,10.6079979 C21.012944,10.7567245 20.915191,10.9103873 20.9108418,11.2080551 L20.9108418,27.3892122 C20.915191,27.7010444 21.1485969,27.9433423 21.4422698,27.973388 C21.4544889,27.975105 35.0804598,27.973388 35.0804598,27.973388 C37.798281,27.973388 40,25.7173789 40,22.9010158 C39.9997929,20.0846528 37.7980739,17.8018171 35.0802526,17.8018171 Z" id="Shape" fill="#FF6400" fill-rule="nonzero"></path>
            </g>
        </g>
    </g>
</svg>