<?xml version="1.0" encoding="UTF-8"?>
<svg width="18px" height="18px" viewBox="0 0 18 18" version="1.1" xmlns="http://www.w3.org/2000/svg" xmlns:xlink="http://www.w3.org/1999/xlink">
    <title>icon/nav/more</title>
    <g id="Page-1" stroke="none" stroke-width="1" fill="none" fill-rule="evenodd">
        <g id="icon/nav/more" transform="translate(-3.000000, -3.000000)">
            <rect id="Rectangle" transform="translate(12.000000, 12.000000) scale(-1, 1) rotate(-180.000000) translate(-12.000000, -12.000000) " x="0" y="0" width="24" height="24"></rect>
            <path d="M8,16 L8,21 L3,21 L3,16 L8,16 Z M14.5,16 L14.5,21 L9.5,21 L9.5,16 L14.5,16 Z M21,16 L21,21 L16,21 L16,16 L21,16 Z M8,9.5 L8,14.5 L3,14.5 L3,9.5 L8,9.5 Z M14.5,9.5 L14.5,14.5 L9.5,14.5 L9.5,9.5 L14.5,9.5 Z M21,9.5 L21,14.5 L16,14.5 L16,9.5 L21,9.5 Z M8,3 L8,8 L3,8 L3,3 L8,3 Z M14.5,3 L14.5,8 L9.5,8 L9.5,3 L14.5,3 Z M21,3 L21,8 L16,8 L16,3 L21,3 Z" id="Combined-Shape" fill="#000000"></path>
        </g>
    </g>
</svg>