<?xml version="1.0" encoding="utf-8"?>
<!-- Generator: Adobe Illustrator 25.4.1, SVG Export Plug-In . SVG Version: 6.00 Build 0)  -->
<svg version="1.1" id="Layer_1" xmlns="http://www.w3.org/2000/svg" xmlns:xlink="http://www.w3.org/1999/xlink" x="0px" y="0px"
	 viewBox="0 0 24 24" style="enable-background:new 0 0 24 24;" xml:space="preserve">
<style type="text/css">
	.st0{fill:#C6D7FF;}
</style>
<path class="st0" d="M2.8,14.1l-0.5-1.9c-0.5-2,0.7-4,2.6-4.5l0.1,0c3-0.8,6.1,1,6.9,4l0.5,1.8c0.5,2-0.7,4-2.7,4.6l0,0
	C6.7,19,3.6,17.1,2.8,14.1z"/>
<g>
	<path d="M10.9,14.5c3,0,5.5-2.5,5.5-5.5c0-3-2.5-5.5-5.5-5.5S5.4,6,5.4,9C5.4,12,7.8,14.5,10.9,14.5z M10.9,5.2
		c2.1,0,3.8,1.7,3.8,3.8c0,2.1-1.7,3.8-3.8,3.8S7.1,11.1,7.1,9C7.1,6.9,8.8,5.2,10.9,5.2z"/>
	<path d="M10.9,8V6.3C9.4,6.3,8.2,7.5,8.2,9h1.7C9.9,8.4,10.3,8,10.9,8z"/>
	<path d="M17,15.1c3.4-3.4,3.4-8.8,0-12.2l-1.2,1.2c2.7,2.7,2.7,7.1,0,9.8c-1.3,1.3-3.1,2-4.9,2c-1.9,0-3.6-0.7-4.9-2l-1.2,1.2
		c1.4,1.4,3.3,2.3,5.3,2.5v1.6H7.4v1.7h7v-1.7h-2.6v-1.6C13.7,17.4,15.5,16.5,17,15.1z"/>
</g>
</svg>
