<?xml version="1.0" encoding="UTF-8"?>
<svg width="16px" height="16px" viewBox="0 0 16 16" version="1.1" xmlns="http://www.w3.org/2000/svg" xmlns:xlink="http://www.w3.org/1999/xlink">
    <title>icon/other/explore chart</title>
    <g id="icon/other/explore-chart" stroke="none" stroke-width="1" fill="none" fill-rule="evenodd">
        <polygon id="Bounds" points="0 0 16 0 16 16 0 16"></polygon>
        <path d="M8,0 C12.418278,0 16,3.581722 16,8 C16,12.418278 12.418278,16 8,16 C3.581722,16 0,12.418278 0,8 C0,3.581722 3.581722,0 8,0 Z M8,1 C4.13400675,1 1,4.13400675 1,8 C1,11.8659932 4.13400675,15 8,15 C11.8659932,15 15,11.8659932 15,8 C15,4.13400675 11.8659932,1 8,1 Z M5.5,6 L5.5,10.149 L7.295,8.41740532 L8,9.09911362 L5,12 L2,9.09911362 L2.705,8.41740532 L4.5,10.149 L4.5,6 L5.5,6 Z M11,4 L14,6.90088638 L13.295,7.58259468 L11.5,5.85 L11.5,10 L10.5,10 L10.5,5.85 L8.705,7.58259468 L8,6.90088638 L11,4 Z" id="Combined-Shape" fill="#6889E2"></path>
    </g>
</svg>