<?xml version="1.0" encoding="UTF-8"?>
<svg width="16px" height="16px" viewBox="0 0 16 16" version="1.1" xmlns="http://www.w3.org/2000/svg" xmlns:xlink="http://www.w3.org/1999/xlink">
    <title>icon/other/help/tooltip 2</title>
    <g id="icon/other/help/tooltip-2" stroke="none" stroke-width="1" fill="none" fill-rule="evenodd">
        <polygon id="Bounds" points="0 0 16 0 16 16 0 16"></polygon>
        <path d="M8,0 C12.416,0 16,3.584 16,8 C16,12.416 12.416,16 8,16 C3.584,16 0,12.416 0,8 C0,3.584 3.584,0 8,0 Z M8,1 C4.13628475,1 1,4.13628475 1,8 C1,11.8637153 4.13628475,15 8,15 C11.8637153,15 15,11.8637153 15,8 C15,4.13628475 11.8637153,1 8,1 Z M8.8,7.4 L8.8,12.2 L7.2,12.2 L7.2,7.4 L8.8,7.4 Z M8.8,3.8 L8.8,5.4 L7.2,5.4 L7.2,3.8 L8.8,3.8 Z" id="Combined-Shape" fill="#D5DDE0"></path>
    </g>
</svg>