<?xml version="1.0" encoding="UTF-8"?>
<svg width="16px" height="16px" viewBox="0 0 16 16" version="1.1" xmlns="http://www.w3.org/2000/svg" xmlns:xlink="http://www.w3.org/1999/xlink">
    <title>icon/other/update</title>
    <g id="icon/other/update" stroke="none" stroke-width="1" fill="none" fill-rule="evenodd">
        <polygon id="Bounds" points="0 0 16 0 16 16 0 16"></polygon>
        <path d="M8,2.66666667 L8,0.666666667 L5.33333333,3.33333333 L8,6 L8,4 C10.2066667,4 12,5.79333333 12,8 C12,8.67333333 11.8333333,9.31333333 11.5333333,9.86666667 L12.5066667,10.84 C13.0266667,10.02 13.3333333,9.04666667 13.3333333,8 C13.3333333,5.05333333 10.9466667,2.66666667 8,2.66666667 L8,2.66666667 Z M8,12 C5.79333333,12 4,10.2066667 4,8 C4,7.32666667 4.16666667,6.68666667 4.46666667,6.13333333 L3.49333333,5.16 C2.97333333,5.98 2.66666667,6.95333333 2.66666667,8 C2.66666667,10.9466667 5.05333333,13.3333333 8,13.3333333 L8,15.3333333 L10.6666667,12.6666667 L8,10 L8,12 L8,12 Z" id="Icon" fill="#FFFFFF"></path>
    </g>
</svg>