<?xml version="1.0" encoding="UTF-8"?>
<svg width="16px" height="16px" viewBox="0 0 16 16" version="1.1" xmlns="http://www.w3.org/2000/svg" xmlns:xlink="http://www.w3.org/1999/xlink">
    <title>icon/other/photo</title>
    <g id="icon/other/photo" stroke="none" stroke-width="1" fill="none" fill-rule="evenodd">
        <polygon id="Bounds" points="0 0 16 0 16 16 0 16"></polygon>
        <path d="M6,1.33 L4.78,2.66333333 L2.66666667,2.66333333 C1.93333333,2.66333333 1.33333333,3.26333333 1.33333333,3.99666667 L1.33333333,11.9966667 C1.33333333,12.73 1.93333333,13.33 2.66666667,13.33 L13.3333333,13.33 C14.0666667,13.33 14.6666667,12.73 14.6666667,11.9966667 L14.6666667,3.99666667 C14.6666667,3.26333333 14.0666667,2.66333333 13.3333333,2.66333333 L11.22,2.66333333 L10,1.33 L6,1.33 L6,1.33 Z M8,4.66333333 C9.84,4.66333333 11.3333333,6.15666667 11.3333333,7.99666667 C11.3333333,9.83666667 9.84,11.33 8,11.33 C6.16,11.33 4.66666667,9.83666667 4.66666667,7.99666667 C4.66666667,6.15666667 6.16,4.66333333 8,4.66333333 Z M8,5.86333333 C6.82179253,5.86333333 5.86666667,6.8184592 5.86666667,7.99666667 C5.86666667,9.17487413 6.82179253,10.13 8,10.13 C9.17820747,10.13 10.1333333,9.17487413 10.1333333,7.99666667 C10.1333333,6.8184592 9.17820747,5.86333333 8,5.86333333 Z" id="Icon" fill="#4E63CE"></path>
    </g>
</svg>