<?xml version="1.0" encoding="utf-8"?>
<!-- Generator: Adobe Illustrator 25.4.1, SVG Export Plug-In . SVG Version: 6.00 Build 0)  -->
<svg version="1.1" id="Layer_1" xmlns="http://www.w3.org/2000/svg" xmlns:xlink="http://www.w3.org/1999/xlink" x="0px" y="0px"
	 viewBox="0 0 24 24" style="enable-background:new 0 0 24 24;" xml:space="preserve">
<style type="text/css">
	.st0{fill:#C6D7FF;}
</style>
<path class="st0" d="M5.4,21.1c-2.3-3.9-1.1-8.8,2.6-10.9s8.5-0.7,10.8,3.2S7.7,25,5.4,21.1z"/>
<path d="M13.1,18.1c0.5-1.4,1.8-2.4,3.3-2.4H21V3.9h-4.6c-1.8,0-3.5,1-4.4,2.4c-0.9-1.4-2.6-2.4-4.4-2.4H3v11.9h4.6
	c1.6,0,2.9,1,3.3,2.4H3v1.7h18.1v-1.7H13.1z M16.4,5.6h2.9V14h-2.9c-1.4,0-2.6,0.5-3.6,1.4V9.1C12.9,7.1,14.4,5.6,16.4,5.6z M7.6,14
	H4.7V5.6h2.9c2,0,3.6,1.6,3.6,3.6v6.3C10.2,14.6,9,14,7.6,14z"/>
</svg>
