<?xml version="1.0" encoding="utf-8"?>
<!-- Generator: Adobe Illustrator 25.4.1, SVG Export Plug-In . SVG Version: 6.00 Build 0)  -->
<svg version="1.1" id="Layer_1" xmlns="http://www.w3.org/2000/svg" xmlns:xlink="http://www.w3.org/1999/xlink" x="0px" y="0px"
	 viewBox="0 0 24 24" style="enable-background:new 0 0 24 24;" xml:space="preserve">
<style type="text/css">
	.st0{fill:#C6D7FF;}
</style>
<path class="st0" d="M11,12c-1.2,0.5-2.5,0.2-3.6-0.8c-0.9-0.9-2.1-1.2-3.1-0.7l0,0c-1.9,0.8-2.2,3.9-0.4,5.6
	c2.8,2.7,6.6,3.7,9.9,2.3s5.1-4.9,5.1-8.8c0-2.4-2.4-4.3-4.3-3.5l0,0c-1,0.4-1.6,1.5-1.6,2.8C12.8,10.2,12.1,11.5,11,12z"/>
<g>
	<path d="M19.3,15V8.3c0-1.5-1.2-2.7-2.7-2.7h-3.5l1.3-1.3c0.3-0.3,0.3-0.9,0-1.2c-0.3-0.3-0.9-0.3-1.2,0l-2.8,2.8
		c-0.3,0.3-0.3,0.9,0,1.2l2.8,2.8c0.2,0.2,0.4,0.2,0.6,0.2s0.4-0.1,0.6-0.2c0.3-0.3,0.3-0.9,0-1.2l-1.3-1.3h3.5c0.5,0,1,0.4,1,1V15
		c-1.1,0.4-1.8,1.4-1.8,2.5c0,1.5,1.2,2.7,2.7,2.7s2.7-1.2,2.7-2.7C21.2,16.3,20.4,15.3,19.3,15z M18.5,18.5c-0.5,0-1-0.4-1-1
		c0-0.5,0.4-1,1-1s1,0.4,1,1C19.5,18.1,19,18.5,18.5,18.5z"/>
	<path d="M10.8,14.2c-0.3-0.3-0.9-0.3-1.2,0c-0.3,0.3-0.3,0.9,0,1.2l1.3,1.3H7.4c-0.5,0-1-0.4-1-1V9c1.1-0.4,1.8-1.4,1.8-2.5
		C8.2,5,7,3.8,5.5,3.8S2.8,5,2.8,6.5c0,1.2,0.8,2.2,1.8,2.5v6.7c0,1.5,1.2,2.7,2.7,2.7h3.5l-1.3,1.3c-0.3,0.3-0.3,0.9,0,1.2
		c0.2,0.2,0.4,0.2,0.6,0.2c0.2,0,0.4-0.1,0.6-0.2l2.8-2.8c0.3-0.3,0.3-0.9,0-1.2L10.8,14.2z M5.5,5.5c0.5,0,1,0.4,1,1
		c0,0.5-0.4,1-1,1s-1-0.4-1-1C4.5,5.9,5,5.5,5.5,5.5z"/>
</g>
</svg>
