<?xml version="1.0" encoding="utf-8"?>
<!-- Generator: Adobe Illustrator 25.4.1, SVG Export Plug-In . SVG Version: 6.00 Build 0)  -->
<svg version="1.1" id="Layer_1" xmlns="http://www.w3.org/2000/svg" xmlns:xlink="http://www.w3.org/1999/xlink" x="0px" y="0px"
	 viewBox="0 0 24 24" style="enable-background:new 0 0 24 24;" xml:space="preserve">
<style type="text/css">
	.st0{fill:#C7D8FF;}
</style>
<path class="st0" d="M11.7,13.3c-1-1-1.3-2.5-0.9-3.7c0.4-1.2,0.1-2.4-0.8-3.3C8.3,4.7,5.5,5.3,4.7,7.5C3.6,11,4.4,15.1,7.2,17.9
	s6.8,3.6,10.4,2.5c2.2-0.7,2.8-3.6,1.2-5.3c-0.9-0.9-2.1-1.1-3.3-0.8C14.2,14.7,12.7,14.3,11.7,13.3"/>
<path d="M19.1,4v3.3c0,2.5-1.2,4.8-3.3,6.2c-0.3-0.6-0.8-1.2-1.3-1.6c1.1-0.8,1.8-2.1,1.8-3.5c0-2.4-2-4.4-4.4-4.4
	C9.5,4,7.6,6,7.6,8.4c0,1.4,0.7,2.7,1.8,3.5c-0.5,0.4-1,0.9-1.3,1.5c-2-1.4-3.2-3.7-3.2-6.2V4H3.2v3.3c0,3.2,1.7,6.2,4.4,7.9
	c0,0.1,0,0.2,0,0.3V20h1.7v-4.6c0-1.5,1.2-2.7,2.7-2.7c1.5,0,2.7,1.2,2.7,2.7V20h1.7v-4.6c0-0.1,0-0.2,0-0.2
	c2.8-1.7,4.5-4.7,4.5-7.9V4H19.1z M11.9,11.1c-1.5,0-2.7-1.2-2.7-2.7c0-1.5,1.2-2.7,2.7-2.7c1.5,0,2.7,1.2,2.7,2.7
	C14.6,9.9,13.4,11.1,11.9,11.1z"/>
</svg>
