<?xml version="1.0" encoding="utf-8"?>
<!-- Generator: Adobe Illustrator 25.4.1, SVG Export Plug-In . SVG Version: 6.00 Build 0)  -->
<svg version="1.1" id="Layer_1" xmlns="http://www.w3.org/2000/svg" xmlns:xlink="http://www.w3.org/1999/xlink" x="0px" y="0px"
	 viewBox="0 0 24 24" style="enable-background:new 0 0 24 24;" xml:space="preserve">
<style type="text/css">
	.st0{fill:#C6D7FF;}
</style>
<path class="st0" d="M13.1,17.6L13.1,17.6c0.3,0.6-0.2,1.5-1.2,1.9c-3.9,1.7-8,1.2-9.4-1.6c-0.7-1.5-0.5-3.4,0.6-5.3
	c1.8-3.1,5.2-5.5,8.5-6.2c0.9-0.2,1.5,0.3,1.2,1.1l0,0C11.5,11.2,11.5,14.8,13.1,17.6z"/>
<g>
	<path d="M4,11.5c0-3.7,3-6.8,6.8-6.8c2.4,0,4.5,1.2,5.8,3.2L18,7c-1.6-2.5-4.3-4-7.2-4c-4.7,0-8.5,3.8-8.5,8.5c0,4,2.7,7.4,6.5,8.3
		l0.4-1.7C6.2,17.4,4,14.6,4,11.5z"/>
	<path d="M19.2,9.6c-1.5,0-2.7,1.2-2.7,2.7v2.1h-1.6c-1.8,0-3.3,1.5-3.3,3.3c0,1.8,1.5,3.3,3.3,3.3h0c1.8,0,3.3-1.5,3.3-3.3v-2.4
		v-0.9v-2.1c0-0.6,0.5-1,1-1h1.6V9.6H19.2z M16.5,17.7c0,0.9-0.7,1.6-1.6,1.6h0c-0.9,0-1.6-0.7-1.6-1.6c0-0.9,0.7-1.6,1.6-1.6h1.6
		V17.7z"/>
	<path d="M12.4,11.6c0-0.8-0.7-1.5-1.5-1.5c-0.8,0-1.5,0.7-1.5,1.5s0.7,1.5,1.5,1.5C11.7,13.1,12.4,12.4,12.4,11.6z"/>
</g>
</svg>
