<svg id="ikone" xmlns="http://www.w3.org/2000/svg" viewBox="0 0 300 300"><defs><style>.cls-1{fill:#fff;}</style></defs><path class="cls-1" d="M199.83,126.32V74.4H153.21V29.47h-8V74.4H98.6v51.92H49.27V258.53H250.73V126.32ZM98.6,250.53H57.27V134.32H98.6Zm93.23,0H106.6V82.4h85.23Zm50.9,0h-42.9V134.32h42.9Z"/><polygon class="cls-1" points="143.48 118.47 131.02 118.47 131.02 92.39 123.02 92.39 123.02 126.47 143.48 126.47 143.48 118.47"/><polygon class="cls-1" points="179.15 118.47 166.69 118.47 166.69 92.39 158.69 92.39 158.69 126.47 179.15 126.47 179.15 118.47"/><polygon class="cls-1" points="143.48 172.84 131.02 172.84 131.02 146.76 123.02 146.76 123.02 180.84 143.48 180.84 143.48 172.84"/><polygon class="cls-1" points="179.15 172.84 166.69 172.84 166.69 146.76 158.69 146.76 158.69 180.84 179.15 180.84 179.15 172.84"/><polygon class="cls-1" points="143.48 227.21 131.02 227.21 131.02 201.13 123.02 201.13 123.02 235.21 143.48 235.21 143.48 227.21"/><polygon class="cls-1" points="88.72 172.84 76.26 172.84 76.26 146.76 68.26 146.76 68.26 180.84 88.72 180.84 88.72 172.84"/><polygon class="cls-1" points="88.72 227.21 76.26 227.21 76.26 201.13 68.26 201.13 68.26 235.21 88.72 235.21 88.72 227.21"/><polygon class="cls-1" points="179.15 227.21 166.69 227.21 166.69 201.13 158.69 201.13 158.69 235.21 179.15 235.21 179.15 227.21"/><polygon class="cls-1" points="232.04 172.84 219.58 172.84 219.58 146.76 211.58 146.76 211.58 180.84 232.04 180.84 232.04 172.84"/><polygon class="cls-1" points="232.04 227.21 219.58 227.21 219.58 201.13 211.58 201.13 211.58 235.21 232.04 235.21 232.04 227.21"/></svg>