<svg width="223" height="283" xmlns="http://www.w3.org/2000/svg"><defs><linearGradient x1="50%" y1="99.709%" x2="50%" y2=".777%" id="a"><stop stop-color="#E09B3D" offset="0%"/><stop stop-color="#C74C4D" offset="30%"/><stop stop-color="#C21975" offset="60%"/><stop stop-color="#7024C4" offset="100%"/></linearGradient><linearGradient x1="50%" y1="146.099%" x2="50%" y2="-45.16%" id="b"><stop stop-color="#E09B3D" offset="0%"/><stop stop-color="#C74C4D" offset="30%"/><stop stop-color="#C21975" offset="60%"/><stop stop-color="#7024C4" offset="100%"/></linearGradient><linearGradient x1="50%" y1="658.141%" x2="50%" y2="-140.029%" id="c"><stop stop-color="#E09B3D" offset="0%"/><stop stop-color="#C74C4D" offset="30%"/><stop stop-color="#C21975" offset="60%"/><stop stop-color="#7024C4" offset="100%"/></linearGradient></defs><g fill="none" fill-rule="evenodd"><g transform="translate(175 1)"><path d="M.01 23.108C.361 10.28 10.88 0 23.773 0c13.137 0 23.774 10.659 23.774 23.774 0 13.137-10.659 23.775-23.748 23.775C10.908 47.618.363 37.292.01 24.441L0 23.774l.01-.666Z" fill="#FFF" fill-rule="nonzero"/><circle fill="#000" cx="24" cy="24" r="19.2"/><path d="M31.37 30.031c0-2.478-2.059-4.488-4.585-4.488-2.55 0-4.538 2.104-4.538 4.488 0 2.455 2.011 4.535 4.538 4.535 2.62 0 4.585-2.127 4.585-4.535m3.79 0a8.334 8.334 0 0 1-8.375 8.369c-4.632 0-8.328-3.647-8.328-8.369a8.37 8.37 0 0 1 2.175-5.657l-5.661 5.657L12 27.062l6.387-6.311c.865-.865 1.31-1.987 1.31-3.226V9.6h4.187v7.925c0 2.43-.865 4.488-2.55 6.171l-.187.187a8.346 8.346 0 0 1 5.638-2.174c4.749 0 8.375 3.764 8.375 8.322" fill="#01FF95"/></g><path d="M0 283h85v-85H0z"/><path d="M71.073 232.884c-1.913-7.765-10.63-13.634-21.123-13.634-6.66 0-12.542 2.418-16.494 6.133a16.653 16.653 0 0 0-3.532-.387c-5.92 0-11.105 3.073-14.105 7.697C7.004 233.224 0 240.47 0 249.42c0 9.29 7.531 16.825 16.826 16.825h51.348c9.29 0 16.826-7.535 16.826-16.825 0-8.3-6.022-15.156-13.927-16.537" fill="#FFF"/><path d="M11.786 243.185c-.146 0-.265.118-.283.28l-.67 6.152.67 6.015c.018.16.137.277.283.277.143 0 .26-.114.283-.277l.758-6.015-.758-6.155c-.024-.162-.14-.277-.283-.277Zm-2.515 2.358c-.143 0-.254.11-.272.267l-.499 3.807.499 3.739c.018.156.13.267.272.267.138 0 .25-.11.273-.267l.587-3.74-.587-3.806c-.023-.158-.135-.267-.273-.267Zm5.184-3.564c-.179 0-.322.141-.34.337l-.634 7.3.634 7.031c.018.197.161.338.34.338.177 0 .32-.141.343-.335l.72-7.033-.72-7.3c-.023-.197-.166-.338-.343-.338Zm2.693-.256c-.21 0-.381.17-.397.395l-.6 7.499.6 7.256c.015.225.187.394.397.394.21 0 .382-.17.4-.394l.681-7.256-.68-7.502c-.019-.222-.19-.392-.4-.392Zm3.172.934a.463.463 0 0 0-.455-.45c-.247 0-.441.193-.457.455l-.566 6.955.566 7.315c.016.26.21.456.457.456.242 0 .44-.197.455-.456l.644-7.315-.644-6.96Zm2.283-4.87a.525.525 0 0 0-.515.516l-.532 11.319.532 7.313c.013.285.24.513.515.513.27 0 .496-.229.514-.516v.003l.6-7.313-.6-11.322c-.019-.288-.244-.513-.514-.513Zm2.716-2.609c-.31 0-.56.254-.574.573l-.496 13.91.496 7.269c.013.317.265.57.574.57a.587.587 0 0 0 .571-.573v.003l.564-7.269-.564-13.91a.587.587 0 0 0-.571-.573Zm2.823-1.255a.638.638 0 0 0-.63.633l-.466 15.068.465 7.193c.01.35.289.628.631.628a.64.64 0 0 0 .629-.63v.005l.522-7.196-.522-15.068a.642.642 0 0 0-.629-.633Zm3.49.125a.698.698 0 0 0-.687-.69.693.693 0 0 0-.689.69l-.43 15.577.43 7.15c.005.38.312.686.689.687a.698.698 0 0 0 .688-.69l.483-7.147-.483-15.577Zm2.136-.35a.751.751 0 0 0-.746.748l-.395 15.178.395 7.084a.75.75 0 0 0 .746.746c.408 0 .735-.33.748-.751v.007l.441-7.085-.441-15.179a.757.757 0 0 0-.748-.749Zm2.846.497a.812.812 0 0 0-.805.808l-.358 14.624.36 7.036c.008.448.361.803.803.803a.81.81 0 0 0 .805-.808v.006l.405-7.036L37.419 235a.809.809 0 0 0-.805-.806Zm3.345-2.69a.849.849 0 0 0-.943-.005.88.88 0 0 0-.394.724l-.006.165-.322 17.235.327 6.994v.029a.87.87 0 0 0 .203.518c.162.2.404.316.66.317.234 0 .447-.1.602-.257a.893.893 0 0 0 .26-.61l.036-.693.328-6.295-.364-17.403a.893.893 0 0 0-.387-.72Zm2.85-1.649a.895.895 0 0 0-1.05.079.934.934 0 0 0-.34.712l-.002.096-.376 18.887.192 3.49.187 3.4a.93.93 0 0 0 .919.918.935.935 0 0 0 .922-.926v.007l.408-6.89-.408-18.982a.945.945 0 0 0-.453-.79Zm25.327 10.789a8.292 8.292 0 0 0-3.236.654c-.665-7.593-6.986-13.549-14.694-13.549-1.83.002-3.645.343-5.353 1.005-.631.246-.797.5-.805.992v26.744a.987.987 0 0 0 .904.965c.02.003 23.185 0 23.185 0a8.357 8.357 0 0 0 8.363-8.383c0-4.655-3.743-8.428-8.364-8.428Z" fill="#FF6400" fill-rule="nonzero"/><path d="M159 207h64v-64h-64z"/><path d="M201.347 143h-20.694C168.708 143 159 152.708 159 164.653v20.694c0 11.945 9.708 21.653 21.653 21.653h20.694c11.945 0 21.653-9.708 21.653-21.653v-20.694c0-11.945-9.708-21.653-21.653-21.653Z" fill="#FFF" fill-rule="nonzero"/><g transform="translate(165.4 149.4)" fill-rule="nonzero"><path d="M35.947 0H15.253C6.843 0 0 6.842 0 15.253v20.694C0 44.357 6.842 51.2 15.253 51.2h20.694c8.41 0 15.253-6.842 15.253-15.253V15.253C51.2 6.843 44.358 0 35.947 0ZM46.05 35.947c0 5.58-4.523 10.102-10.102 10.102H15.253c-5.58 0-10.102-4.523-10.102-10.102V15.253c0-5.58 4.523-10.102 10.102-10.102h20.694c5.58 0 10.102 4.523 10.102 10.102v20.694Z" fill="url(#a)"/><path d="M25.6 12.8c-7.058 0-12.8 5.742-12.8 12.8 0 7.058 5.742 12.8 12.8 12.8 7.058 0 12.8-5.742 12.8-12.8 0-7.058-5.742-12.8-12.8-12.8Zm0 20.621a7.821 7.821 0 1 1 0-15.642 7.821 7.821 0 0 1 0 15.642Z" fill="url(#b)"/><circle fill="url(#c)" cx="38.4" cy="12.8" r="3.2"/></g><g><path d="M31 89h54v54H31z"/><path d="m57.829 89-.403.015a5.4 5.4 0 0 0-4.997 5.385l-.002 9.534-.464-.007c-10.085 0-18.263 8.174-18.263 18.258l.014.728a18.233 18.233 0 0 0 7.362 13.931l.268.192.178.172c3.448 3.181 7.834 4.929 12.48 4.929l.64-.012c9.79-.337 17.625-8.377 17.625-18.247l-.003-6.12.659.126c1.195.2 2.412.3 3.643.3a5.4 5.4 0 0 0 5.4-5.4v-6.956l-.016-.411a5.402 5.402 0 0 0-2.892-4.38l-.168-.081-.099-.137a5.39 5.39 0 0 0-4.08-2.081l-.681-.023-.327-.045a4.137 4.137 0 0 1-.724-.215l-.075-.035-.028-.041a4.274 4.274 0 0 1-.576-1.48l-.036-.25.002-.556-.014-.403a5.4 5.4 0 0 0-2.77-4.322l-.293-.149-.046-.069A5.392 5.392 0 0 0 64.83 89h-7.001Z" fill="#FFF" fill-rule="nonzero"/><g fill-rule="nonzero"><path d="M66.866 109.683a16.628 16.628 0 0 0 9.7 3.102v-6.957a9.823 9.823 0 0 1-2.037-.213v5.476c-3.617 0-6.965-1.15-9.7-3.102v14.196c0 7.101-5.76 12.858-12.864 12.858-2.65 0-5.115-.801-7.162-2.175a12.829 12.829 0 0 0 9.198 3.869c7.106 0 12.866-5.757 12.866-12.859v-14.195Zm2.513-7.019a9.693 9.693 0 0 1-2.513-5.676v-.895h-1.93a9.739 9.739 0 0 0 4.443 6.571ZM49.297 127.42a5.883 5.883 0 0 1 6.47-9.167v-7.112a12.982 12.982 0 0 0-2.037-.117v5.535a5.893 5.893 0 0 0-1.785-.275 5.883 5.883 0 0 0-2.648 11.136Z" fill="#FF004F"/><path d="M64.83 107.989a16.631 16.631 0 0 0 9.699 3.102v-5.476a9.737 9.737 0 0 1-5.15-2.95 9.74 9.74 0 0 1-4.443-6.572h-5.07v27.785a5.884 5.884 0 0 1-10.57 3.54 5.881 5.881 0 0 1 2.648-11.135 5.9 5.9 0 0 1 1.786.276v-5.536c-6.98.144-12.593 5.844-12.593 12.855 0 3.5 1.398 6.672 3.666 8.99a12.809 12.809 0 0 0 7.162 2.175c7.105 0 12.865-5.757 12.865-12.858v-14.196Z" fill="#000"/><path d="M74.529 105.615v-1.48a9.701 9.701 0 0 1-5.15-1.47 9.728 9.728 0 0 0 5.15 2.95Zm-9.593-9.522a9.921 9.921 0 0 1-.106-.798V94.4h-7.001v27.785a5.883 5.883 0 0 1-8.532 5.234 5.877 5.877 0 0 0 4.684 2.32 5.884 5.884 0 0 0 5.885-5.86V96.092h5.07Zm-11.206 14.93v-1.576c-.584-.08-1.174-.12-1.765-.12-7.105 0-12.865 5.757-12.865 12.858 0 4.452 2.264 8.375 5.704 10.683a12.81 12.81 0 0 1-3.667-8.99c0-7.01 5.613-12.71 12.593-12.855Z" fill="#00F2EA"/></g></g><g transform="translate(15)"><circle fill="#FFF" cx="17.5" cy="17.5" r="17.5"/><path d="M17.565 4C24.985 4 31 10.015 31 17.435v.13C31 24.985 24.985 31 17.565 31h-.13C10.015 31 4 24.985 4 17.565v-.13C4 10.015 10.015 4 17.435 4h.13Zm4.971 5.943a1.38 1.38 0 0 0 .012 1.929c3.111 3.163 3.156 8.241.105 11.343a1.38 1.38 0 0 0 .012 1.929 1.326 1.326 0 0 0 1.897.012c4.095-4.163 4.035-10.969-.129-15.201a1.326 1.326 0 0 0-1.897-.012Zm-12.871.012c-4.163 4.232-4.223 11.038-.129 15.2.522.531 1.371.523 1.897-.011a1.38 1.38 0 0 0 .012-1.93c-3.05-3.1-3.006-8.18.106-11.342a1.38 1.38 0 0 0 .011-1.93 1.326 1.326 0 0 0-1.897.013ZM17.5 15a3.5 3.5 0 1 0 0 7 3.5 3.5 0 0 0 0-7Z" fill="#F68051"/></g></g></svg>