<?xml version="1.0" encoding="UTF-8"?>
<svg width="16px" height="16px" viewBox="0 0 16 16" version="1.1" xmlns="http://www.w3.org/2000/svg" xmlns:xlink="http://www.w3.org/1999/xlink">
    <title>icon/other/map</title>
    <g id="icon/other/map" stroke="none" stroke-width="1" fill="none" fill-rule="evenodd">
        <polygon id="Bounds" points="0 0 16 0 16 16 0 16"></polygon>
        <path d="M12.5,7.26666667 C14.0203571,7.26666667 15.25,8.51866667 15.25,10.0666667 C15.25,10.9575758 14.7550505,12.0284665 14.1851087,12.9662799 L13.9374809,13.3591396 C13.8542241,13.4867685 13.7706612,13.6107688 13.6880165,13.7302279 L13.4440618,14.0740685 L13.1045301,14.5267607 L12.7396694,14.9838718 L12.5,15.2666667 L12.2603306,14.9838718 L11.9979339,14.6581017 L11.6735537,14.2340596 C11.6349862,14.1821688 11.59573,14.1288004 11.5559382,14.0740685 L11.3119835,13.7302279 C11.2293388,13.6107688 11.1457759,13.4867685 11.0625191,13.3591396 L10.8148913,12.9662799 C10.2449495,12.0284665 9.75,10.9575758 9.75,10.0666667 C9.75,8.51866667 10.9796429,7.26666667 12.5,7.26666667 Z M5.4166668,0.6 L9.4166668,2.6 L13.6186668,0.799333333 C13.7217041,0.755163733 13.8400433,0.765746062 13.9336088,0.827496618 C14.0271743,0.889247174 14.0833336,0.993894571 14.0833336,1.106 L14.0836183,5.53920404 C13.663602,5.3894172 13.2161567,5.29755272 12.7504949,5.27319988 L12.7500001,2.622 L10.0833335,3.76466667 L10.0828435,5.93260905 C9.56749352,6.24084172 9.11523748,6.64464196 8.74953244,7.11959339 L8.75000013,3.75733333 L6.08333347,2.424 L6.08333347,10.776 L8.03605976,11.7530831 C8.116951,12.0044236 8.21389417,12.2586864 8.32546284,12.5165115 C8.49213961,12.9016863 8.69025842,13.2909201 8.91555786,13.6834902 L5.4166668,11.9333333 L1.2146668,13.734 C1.11162951,13.7781696 0.993290342,13.7675873 0.899724825,13.7058367 C0.806159309,13.6440862 0.75,13.5394388 0.75,13.4273333 L0.75,2.6 L5.4166668,0.6 Z M4.75000013,2.33666667 L2.08333347,3.47933333 L2.08333347,11.9113333 L4.75000013,10.7686667 L4.75000013,2.33666667 Z M12.5,9.01666667 C11.948,9.01666667 11.5,9.46466667 11.5,10.0166667 C11.5,10.5686667 11.948,11.0166667 12.5,11.0166667 C13.052,11.0166667 13.5,10.5686667 13.5,10.0166667 C13.5,9.46466667 13.052,9.01666667 12.5,9.01666667 Z" id="Combined-Shape" fill="#000000"></path>
    </g>
</svg>