<?xml version="1.0" encoding="utf-8"?>
<!-- Generator: Adobe Illustrator 25.4.1, SVG Export Plug-In . SVG Version: 6.00 Build 0)  -->
<svg version="1.1" id="Layer_1" xmlns="http://www.w3.org/2000/svg" xmlns:xlink="http://www.w3.org/1999/xlink" x="0px" y="0px"
	 viewBox="0 0 24 24" style="enable-background:new 0 0 24 24;" xml:space="preserve">
<style type="text/css">
	.st0{fill:#C6D7FF;}
</style>
<path class="st0" d="M12.2,13L12.2,13c0.4,0.5-0.1,1.5-0.9,2c-3.6,2.3-7.5,2.7-9.1,0.3c-0.8-1.2-0.8-3.1,0-5C3.5,7,6.5,4.1,9.6,2.8
	c0.9-0.4,1.5,0,1.3,0.8l0,0C10,7.4,10.4,10.7,12.2,13z"/>
<path d="M21.4,9.8c-0.1-0.4-0.5-0.7-1-0.8l-5.1-0.7l-2.3-4.6c-0.2-0.4-0.6-0.7-1.1-0.7s-0.9,0.3-1.1,0.7L8.6,8.2L3.5,9
	C3.1,9,2.7,9.3,2.6,9.8c-0.1,0.4,0,0.9,0.3,1.2l3.7,3.6l-0.9,5.1c-0.1,0.4,0.1,0.9,0.5,1.2c0.4,0.3,0.8,0.3,1.2,0.1l4.6-2.4l4.6,2.4
	c0.2,0.1,0.4,0.1,0.6,0.1c0.2,0,0.5-0.1,0.7-0.2c0.4-0.3,0.5-0.7,0.5-1.2l-0.9-5.1l3.7-3.6C21.5,10.7,21.6,10.2,21.4,9.8z M16,13.6
	c-0.3,0.3-0.4,0.7-0.3,1l0.7,4.3l-3.9-2c-0.3-0.2-0.8-0.2-1.1,0l-3.9,2l0.7-4.3c0.1-0.4-0.1-0.8-0.3-1l-3.2-3.1l4.4-0.6
	c0.4-0.1,0.7-0.3,0.9-0.6L12,5.3l1.9,3.9c0.2,0.3,0.5,0.6,0.9,0.6l4.4,0.6L16,13.6z"/>
</svg>
