<?xml version="1.0" encoding="utf-8"?>
<!-- Generator: Adobe Illustrator 25.4.1, SVG Export Plug-In . SVG Version: 6.00 Build 0)  -->
<svg version="1.1" id="Layer_1" xmlns="http://www.w3.org/2000/svg" xmlns:xlink="http://www.w3.org/1999/xlink" x="0px" y="0px"
	 viewBox="0 0 24 24" style="enable-background:new 0 0 24 24;" xml:space="preserve">
<style type="text/css">
	.st0{fill:#C6D7FF;}
</style>
<path class="st0" d="M5.9,5.8c2.4-2.4,6.4-2.4,8.8,0s3.5,8,1,10.4s-7.4,0.9-9.9-1.6S3.5,8.2,5.9,5.8z"/>
<path d="M15.2,3c-3.2,0-5.8,2.6-5.8,5.8c0,0.4,0,0.8,0.1,1.2l-4,4c-1.1,1.1-1.2,2.7-0.5,3.9l-1.9,1.9l1.2,1.2l1.9-1.9
	c0.5,0.3,1,0.4,1.6,0.4c0.8,0,1.7-0.3,2.3-0.9l4-4c0.4,0.1,0.8,0.1,1.2,0.1c3.2,0,5.8-2.6,5.8-5.8C21,5.6,18.4,3,15.2,3z M8.8,17.4
	c-0.6,0.6-1.6,0.6-2.2,0c-0.6-0.6-0.6-1.6,0-2.2l3.5-3.5c0.5,0.9,1.3,1.7,2.2,2.2L8.8,17.4z M15.2,13c-2.3,0-4.1-1.9-4.1-4.1
	c0-2.3,1.9-4.1,4.1-4.1c2.3,0,4.1,1.9,4.1,4.1C19.3,11.1,17.4,13,15.2,13z"/>
</svg>
