<?xml version="1.0" encoding="UTF-8"?>
<svg width="16px" height="16px" viewBox="0 0 16 16" version="1.1" xmlns="http://www.w3.org/2000/svg" xmlns:xlink="http://www.w3.org/1999/xlink">
    <title>icon/link/beatport/color</title>
    <g id="icon/link/beatport/color" stroke="none" stroke-width="1" fill="none" fill-rule="evenodd">
        <circle id="Oval" fill="#000000" cx="8" cy="8" r="8"></circle>
        <path d="M5.31204201,11.2459388 C6.3444373,11.2459388 7.18208085,10.3881162 7.18208085,9.33536732 C7.18208085,8.27293453 6.30548198,7.4444172 5.31204201,7.4444172 C4.28929365,7.4444172 3.4224361,8.28268307 3.4224361,9.33536732 C3.4224361,10.4271054 4.30877131,11.2459388 5.31204201,11.2459388 M5.31204201,12.825 C3.38338143,12.825 1.825,11.2849231 1.825,9.33536732 C1.825,7.40536832 3.34442115,5.8652914 5.31204201,5.8652914 C6.23724312,5.8652914 7.05546863,6.21613478 7.66910672,6.77184186 L5.31204201,4.41293154 L6.54896511,3.175 L9.17882133,5.83605072 C9.53926975,6.19673711 10.0068229,6.38191977 10.5230678,6.38191977 L13.825,6.38191977 L13.825,8.12673611 L10.5230678,8.12673611 C9.51002097,8.12673611 8.65293453,7.76604973 7.95164451,7.06430331 L7.87363453,6.98617075 C8.4386058,7.60035919 8.77954675,8.43862507 8.77954675,9.33536732 C8.77954675,11.3141638 7.2113942,12.825 5.31204201,12.825" id="Symbol_Green_Vector" fill="#01FF95" transform="translate(7.825000, 8.000000) rotate(-90.000000) translate(-7.825000, -8.000000) "></path>
    </g>
</svg>