<?xml version="1.0" encoding="utf-8"?>
<!-- Generator: Adobe Illustrator 25.4.1, SVG Export Plug-In . SVG Version: 6.00 Build 0)  -->
<svg version="1.1" id="Layer_1" xmlns="http://www.w3.org/2000/svg" xmlns:xlink="http://www.w3.org/1999/xlink" x="0px" y="0px"
	 viewBox="0 0 24 24" style="enable-background:new 0 0 24 24;" xml:space="preserve">
<style type="text/css">
	.st0{fill:#C6D7FF;}
</style>
<path class="st0" d="M15.4,18.7l-4.8-0.1c-2.1-0.1-3.8-1.9-3.8-4.2l0.1-5c0.1-2.3,1.8-4.1,4-4l4.8,0.1c2.1,0.1,3.8,1.9,3.8,4.2
	l-0.1,5C19.3,16.9,17.6,18.8,15.4,18.7z"/>
<g>
	<path d="M19.3,5.2c-1.8,0-3.2,1.4-3.2,3.2V13h-3c-1.8,0-3.2,1.4-3.2,3.3c0,1.8,1.4,3.2,3.2,3.2h1.5c1.8,0,3.2-1.4,3.2-3.2v-2.4V13
		V8.4c0-0.8,0.7-1.5,1.5-1.5H21V5.2H19.3z M16.1,16.3c0,0.8-0.7,1.5-1.5,1.5h-1.5c-0.8,0-1.5-0.7-1.5-1.6c0-0.8,0.7-1.5,1.5-1.5h3
		V16.3z"/>
	<rect x="3" y="4.5" width="10.6" height="1.7"/>
	<rect x="3" y="9" width="10.6" height="1.7"/>
	<rect x="3" y="13.5" width="5.6" height="1.7"/>
</g>
</svg>
