<?xml version="1.0" encoding="utf-8"?>
<!-- Generator: Adobe Illustrator 25.4.1, SVG Export Plug-In . SVG Version: 6.00 Build 0)  -->
<svg version="1.1" id="Layer_1" xmlns="http://www.w3.org/2000/svg" xmlns:xlink="http://www.w3.org/1999/xlink" x="0px" y="0px"
	 viewBox="0 0 24 24" style="enable-background:new 0 0 24 24;" xml:space="preserve">
<style type="text/css">
	.st0{fill:#C6D7FF;}
</style>
<path class="st0" d="M11,12.9c-1.2,0.3-2.5-0.3-3.3-1.5c-0.8-1-1.8-1.6-2.9-1.3l0,0c-2,0.5-2.7,3.5-1.3,5.5c2.3,3.2,5.7,5,9.1,4.2
	s5.7-3.9,6.2-7.8c0.4-2.5-1.6-4.8-3.6-4.3l0,0c-1,0.2-1.8,1.2-2,2.5C13.1,11.5,12.2,12.6,11,12.9z"/>
<g>
	<path d="M6.7,10.6h1.7c0-0.8,0.7-1.5,1.5-1.5V7.4C8.2,7.4,6.7,8.9,6.7,10.6z"/>
	<path d="M20.6,18.7l-4.8-4.8c0.5-1,0.9-2.1,0.9-3.3c0-3.7-3-6.8-6.8-6.8s-6.8,3-6.8,6.8s3,6.8,6.8,6.8c1.9,0,3.7-0.8,4.9-2.1
		l4.6,4.6L20.6,18.7z M9.9,15.7c-2.8,0-5.1-2.3-5.1-5.1s2.3-5.1,5.1-5.1S15,7.8,15,10.6S12.7,15.7,9.9,15.7z"/>
</g>
</svg>
