<svg width="79" height="31" xmlns="http://www.w3.org/2000/svg"><g fill="none" fill-rule="evenodd"><path fill="none" d="M0 0h79v31H0z"/><g fill="#DEDEDE"><path d="m78.552 18.08-4.574.008c-.07 0-.139 0-.209-.003-.223-.007-.493.059-.657-.044-.153-.095-.193-.37-.282-.565-.35-.76-.704-1.52-1.05-2.282-.078-.17-.19-.25-.381-.25-2.254.005-4.507.005-6.76.005-.178 0-.28.08-.36.238-.438.88-.888 1.757-1.332 2.635-.094.186-.221.276-.45.274-1.508-.011-3.016-.007-4.524-.008h-.52c.048-.118.069-.19.103-.256.598-1.16 1.203-2.315 1.795-3.476.502-.983.985-1.976 1.485-2.959.375-.737.767-1.465 1.148-2.199.353-.68.694-1.367 1.053-2.045.4-.753.796-1.509 1.227-2.244.228-.39.595-.672.995-.878a9.56 9.56 0 0 1 1.185-.496 2.73 2.73 0 0 1 .76-.148c.988-.048 1.979-.05 2.92.321.749.295 1.382.734 1.765 1.474.401.774.821 1.537 1.224 2.31a543.38 543.38 0 0 1 1.658 3.22c.299.583.584 1.173.885 1.754.449.865.911 1.724 1.36 2.588.484.933.96 1.87 1.44 2.805.023.044.064.078.096.118v.104ZM68.013 7.168c-.088.11-.162.176-.2.259-.343.735-.679 1.474-1.018 2.21-.295.642-.595 1.281-.89 1.923-.093.205-.018.307.214.297.086-.004.172-.01.259-.011 1.144 0 2.288.002 3.432-.003.108 0 .217-.041.356-.07l-2.153-4.605ZM49.667 8.514c-.104.222-.216.44-.31.665-.502 1.193-.997 2.39-1.498 3.583-.29.69-.587 1.377-.882 2.066-.216.508-.423 1.02-.65 1.524-.259.582-.686 1.01-1.228 1.346-.69.43-1.448.547-2.235.563-.716.016-1.414-.09-2.07-.393-.815-.374-1.39-.974-1.708-1.819-.159-.419-.336-.83-.513-1.241-.29-.673-.59-1.342-.88-2.015-.482-1.117-.958-2.236-1.442-3.353-.154-.356-.322-.706-.485-1.058-.01-.02-.032-.036-.094-.102-.017.169-.038.29-.038.41-.003 2.751-.003 5.502-.003 8.254 0 .294-.004.588 0 .882.004.184-.07.262-.263.261-1.499-.005-3-.002-4.499-.003-.244 0-.257-.018-.258-.302v-6.23c.002-1.808.012-3.616.004-5.423-.003-.532.227-.953.562-1.322.442-.49 1.01-.798 1.628-1.02a6.556 6.556 0 0 1 2.188-.385c.828-.004 1.645.115 2.408.448.903.395 1.647.987 2.077 1.896.262.553.48 1.126.716 1.69.39.932.777 1.863 1.165 2.794.396.947.79 1.894 1.19 2.839.04.094.117.173.214.31.155-.356.285-.643.407-.934.565-1.334 1.127-2.67 1.69-4.004.39-.92.777-1.843 1.174-2.76.26-.6.67-1.07 1.23-1.42.983-.616 2.062-.79 3.198-.792.974 0 1.891.212 2.736.677.63.346 1.169.817 1.418 1.521.09.255.127.54.131.812.018 1.245.019 2.491.02 3.737 0 2.5-.003 5-.006 7.5 0 .358-.004.365-.354.365-1.464.001-2.93-.005-4.394-.002-.182 0-.246-.064-.245-.24a2896.605 2896.605 0 0 0 .018-9.032c0-.09-.02-.182-.03-.272l-.09-.021M10.545 10.88V3.979c.007-.311.017-.322.323-.322 1.836-.005 3.673-.011 5.51-.012 1.698-.001 3.397-.001 5.095.009.874.004 1.75.013 2.622.055a4.91 4.91 0 0 1 2.244.638c.329.19.653.368.915.65.38.407.621.872.622 1.431.006 2.994.003 5.986.003 8.98 0 .475-.198.868-.512 1.207-.644.696-1.46 1.076-2.379 1.267-.948.198-1.906.21-2.868.208-3.597-.005-7.194-.004-10.79-.007-.19 0-.381-.01-.572-.003-.16.005-.218-.066-.213-.218.005-.155.001-.311.001-.467v-6.513Zm5.21-.025h.002v3.761c0 .363-.002.366.366.365 1.707 0 3.413.003 5.12-.013.277-.003.564-.073.829-.163.365-.122.453-.297.452-.691-.002-2.17-.004-4.34.002-6.51 0-.292-.122-.486-.366-.63-.34-.2-.708-.263-1.096-.262-1.68.005-3.361.005-5.041.006-.262 0-.268.005-.268.247v3.89ZM5.29 3.736V18.08h-.414c-1.499 0-2.998 0-4.499-.003-.324 0-.325-.004-.325-.337 0-2.535.003-5.07 0-7.604C.05 8.139.042 6.141.038 4.142c0-.086 0-.172.003-.259.005-.138.075-.197.215-.196 1.647.008 3.294.013 4.94.021.025 0 .049.014.095.028M24.867 25.5c-.201.369-.404.737-.603 1.108-.2.373-.388.751-.6 1.117-.051.09-.174.191-.264.19-.09 0-.217-.1-.266-.19-.348-.646-.678-1.302-1.02-1.95-.04-.076-.122-.13-.185-.192-.041.087-.116.174-.118.261-.01.502-.002 1.003-.002 1.504 0 .104-.011.208-.014.311-.003.161-.026.282-.242.283-.239 0-.213-.162-.214-.3-.005-.796-.003-1.592-.003-2.387 0-.139.012-.278-.002-.415-.023-.214.074-.268.272-.265.218.004.387.028.501.262.35.71.72 1.412 1.089 2.114.053.1.134.187.202.28.074-.09.166-.168.218-.268.343-.658.676-1.32 1.014-1.98.228-.445.327-.485.874-.332v.783c-.002.735-.002 1.47-.008 2.204-.001.205-.091.296-.268.291-.191-.004-.245-.126-.244-.294.005-.58.01-1.159.01-1.738 0-.125-.025-.25-.038-.374l-.09-.024M1.552 19.944c.39 0 .78-.012 1.169.003.415.016.774.17 1.017.525.21.309.198.583-.03.881-.21.276-.21.296.019.572a.715.715 0 0 1 .032.863 1.17 1.17 0 0 1-.913.52c-.37.03-.742.05-1.113.05-.476 0-.951-.025-1.426-.039-.137-.003-.27-.012-.266-.2.003-.205.165-.177.283-.178.675-.008 1.351-.003 2.026-.01.198-.003.4-.01.59-.058.283-.068.423-.266.415-.52-.007-.23-.161-.421-.432-.481-.166-.037-.343-.034-.515-.034-.538 0-1.074.012-1.612.002-.092-.001-.227-.062-.267-.136-.083-.155.027-.278.245-.28.546-.004 1.091.005 1.637.004.164 0 .33 0 .49-.028.288-.051.462-.26.453-.514a.538.538 0 0 0-.485-.518c-.154-.022-.311-.02-.467-.021-.718-.007-1.438-.006-2.156-.018-.19-.003-.268-.113-.193-.26.03-.058.13-.112.2-.113.432-.01.866-.005 1.299-.005v-.007M.002 26.223c0-.466.005-.933-.002-1.4-.002-.179.086-.259.247-.259.814.001 1.628.003 2.441.015a1 1 0 0 1 .878.508c.061.1.11.225.112.34.006.526.006 1.054-.016 1.58-.022.51-.482.934-.997.936-.796.003-1.593-.006-2.39-.003-.19 0-.268-.085-.267-.265v-1.452H.002Zm.476.027H.48c0 .329.002.657 0 .985-.004.262.025.294.296.295H1.4c.373 0 .745.002 1.118-.002.423-.006.653-.22.666-.632.014-.414.013-.83.014-1.244 0-.434-.175-.643-.611-.665-.596-.03-1.194-.027-1.79-.038-.26-.004-.32.058-.32.317v.984ZM6.011 19.944c.39 0 .784-.032 1.168.01.266.03.545.12.773.258.472.284.544.768.193 1.19-.15.18-.149.305.004.461.414.422.214 1.128-.44 1.326-.414.124-.868.14-1.306.158-.527.024-1.057 0-1.585-.007-.068 0-.152.004-.2-.032-.06-.046-.13-.133-.126-.2.003-.055.097-.123.166-.152.067-.029.153-.017.23-.017.71 0 1.422 0 2.132.004.223.001.426-.039.61-.176.28-.21.289-.636-.022-.798-.18-.094-.41-.124-.62-.13-.588-.016-1.178-.002-1.767-.005-.19-.002-.286-.124-.205-.278.035-.068.162-.12.248-.121.363-.011.727 0 1.091.003.286.002.572.01.857.007.426-.004.725-.373.59-.736-.088-.237-.297-.336-.528-.355-.302-.025-.605-.02-.909-.022-.528-.004-1.057-.004-1.585-.008-.123-.001-.255.008-.253-.177.001-.182.119-.202.263-.202.407.003.814.002 1.221.002v-.003M59.998 20.703c.347 0 .693.006 1.039 0 .549-.013 1.114.538 1.043 1.114-.018.145-.002.293-.003.44 0 .519-.307.907-.82 1.014a4.816 4.816 0 0 1-1.93.018.765.765 0 0 1-.623-.556.649.649 0 0 1 .38-.79c.219-.089.46-.154.696-.166.484-.023.97.002 1.454-.005.093-.001.258-.043.266-.085a.498.498 0 0 0-.07-.334c-.147-.211-.385-.247-.625-.247-.529 0-1.057.003-1.585.003-.095 0-.19-.007-.285-.012-.143-.007-.253-.044-.253-.222 0-.186.134-.18.251-.182.355-.005.71-.002 1.065-.002v.012m.465 1.513v.006c-.295 0-.59-.01-.884.003-.203.009-.343.145-.356.314-.016.203.111.296.281.35.049.016.101.029.152.03.39.003.78.017 1.169.001.265-.011.516-.09.656-.349.115-.211.028-.352-.213-.354-.268-.002-.537 0-.805 0M50.422 22.93l.961-.001c.116 0 .23.03.212.163-.011.082-.091.163-.156.23-.03.03-.097.04-.147.038-.683-.013-1.369-.006-2.05-.06-.239-.018-.487-.157-.695-.295-.244-.162-.334-.427-.316-.726.011-.173.021-.349-.003-.518-.077-.543.475-1.043.983-1.046.476-.003.952-.019 1.429-.022.3-.002.573.076.792.303.368.382.133.99-.411 1.148a2.05 2.05 0 0 1-.538.068c-.468.006-.936-.006-1.403-.005-.114 0-.262-.045-.3.125-.035.151-.018.319.129.39.189.093.397.174.604.196.3.033.606.008.909.008v.003Zm-.584-1.15v-.008h.83c.252-.002.4-.112.409-.301.009-.204-.131-.334-.388-.362-.017-.002-.034-.005-.051-.005-.416-.002-.832-.014-1.246-.002-.262.008-.493.1-.611.363-.096.213-.035.31.2.314.285.005.57.002.857.002ZM75.031 20.692c.312 0 .624.003.936 0 .68-.008 1.209.475 1.15 1.166-.01.137-.016.279.002.415.06.443-.377.899-.764.984a4.56 4.56 0 0 1-1.933.026.983.983 0 0 1-.48-.267c-.341-.357-.248-.858.2-1.069.205-.096.443-.158.669-.168.502-.023 1.005 0 1.507-.006.088 0 .242-.035.248-.073a.503.503 0 0 0-.06-.312c-.137-.235-.376-.285-.629-.286l-1.637.002c-.104 0-.208-.01-.312-.015-.138-.007-.204-.081-.198-.218.005-.134.092-.176.21-.176h1.091v-.003m.492 1.515v.012c-.303 0-.606-.01-.908.004-.203.01-.34.149-.353.316-.017.204.126.288.28.357.052.024.117.023.177.024.337.005.674.02 1.01.007.18-.007.361-.043.53-.097a.436.436 0 0 0 .307-.355c.031-.182-.029-.262-.214-.267-.276-.006-.553-.001-.83-.001M34.053 20.755c.078-.02.15-.056.223-.055.745.003 1.49-.003 2.234.025.472.018.861.416.9.881.022.275.028.553.016.829-.019.405-.345.726-.81.827a4.658 4.658 0 0 1-1.931.008.815.815 0 0 1-.534-.38c-.21-.326-.065-.773.327-.943.216-.095.462-.155.697-.167.484-.023.97.004 1.455-.002.093-.001.254-.043.264-.092a.451.451 0 0 0-.077-.31c-.146-.217-.365-.287-.628-.283-.607.008-1.214-.01-1.82-.002-.22.003-.319-.078-.316-.336m1.781 1.449v.014c-.293 0-.587-.008-.88.002-.221.008-.36.138-.377.32-.018.181.098.315.324.37.059.013.12.022.18.023.388.003.777.01 1.166.005.265-.003.55-.193.62-.397.077-.22 0-.334-.229-.336-.268-.003-.536-.001-.804-.001M49.947 25.296c.294 0 .589-.005.883.001.616.013 1.14.445 1.109 1.132-.007.146-.017.297.007.44.088.545-.557 1.062-1.017 1.072-.467.01-.935.01-1.402 0-.352-.009-.68-.241-.771-.52-.162-.49.175-.957.747-.992.492-.03.986-.016 1.48-.021.017 0 .035.003.052 0 .13-.025.313.075.367-.14.04-.162-.097-.421-.28-.48a1.64 1.64 0 0 0-.482-.076 61.494 61.494 0 0 0-1.662.002c-.16.002-.241-.047-.247-.216-.006-.189.112-.207.255-.207h.96v.005Zm.475 1.536v.01c-.277 0-.555-.011-.831.003-.26.014-.375.132-.374.34.002.193.144.329.389.335.415.01.831.004 1.247.001a.556.556 0 0 0 .477-.27.41.41 0 0 0 .053-.313c-.02-.058-.167-.095-.26-.1-.232-.015-.467-.006-.7-.006ZM58.098 25.938c0 .32-.018.641.003.96.041.616-.534 1.01-.98 1.038-.422.027-.849.024-1.272.004a1.063 1.063 0 0 1-1.014-1.09c.006-.291-.006-.596.08-.866.142-.449.519-.657.973-.682.458-.026.919-.01 1.378-.014.274-.001.3-.028.307-.292.001-.051 0-.104.002-.155.005-.226.056-.282.263-.287.197-.004.255.058.256.295.003.363.001.726.001 1.09h.003Zm-1.416-.224v.02c-.268 0-.538-.02-.803.004-.335.032-.517.26-.512.595.002.198.01.396.016.594.01.372.185.572.559.591.362.019.725.017 1.088.002.308-.012.509-.243.517-.555.009-.327.02-.655.022-.982.002-.242-.033-.27-.265-.269-.208.002-.415 0-.622 0ZM15.046 21.301c0 .329.006.658-.002.986-.01.475-.344.882-.815.973-.59.114-1.184.136-1.775.006-.457-.1-.821-.494-.787-.953.014-.199.018-.4 0-.597-.051-.577.493-.959.901-.985.518-.033 1.04-.028 1.559-.04.374-.01.387-.024.395-.404.005-.31.045-.342.315-.33.16.009.207.082.206.23-.005.371-.002.743-.002 1.114h.005m-1.521-.216v.016c-.243 0-.485-.01-.727.003-.412.02-.61.223-.631.63-.01.18-.009.363-.002.544.014.363.207.613.574.643.412.034.835.049 1.24-.013.416-.065.566-.267.547-.654-.015-.284-.007-.57-.006-.854 0-.254-.06-.315-.322-.315h-.673M17.633 27.944c-.313 0-.625.006-.936-.001-.448-.012-.958-.356-1.025-.738-.074-.424-.118-.869.043-1.28.156-.398.523-.577.92-.61.482-.04.972-.042 1.454-.005.565.043.953.625.645 1.118a.767.767 0 0 1-.672.373c-.512.008-1.022.012-1.534.017-.043 0-.09-.013-.129-.002-.088.027-.228.048-.244.103a.427.427 0 0 0 .047.31.613.613 0 0 0 .567.303c.598-.007 1.196-.003 1.793-.006.14 0 .267.006.28.187.012.14-.026.234-.196.232-.337-.005-.675-.001-1.013-.001m-.518-1.521v.02c.328-.022.656-.036.982-.069a.273.273 0 0 0 .253-.284c-.001-.157-.05-.314-.246-.348-.085-.015-.17-.035-.256-.036-.381-.002-.762.001-1.143.003-.242.002-.407.143-.525.329-.137.215-.047.373.207.383.242.01.485.002.728.002M5.489 25.258c.436.044.876.068 1.308.136.322.05.665.426.664.855 0 .215-.007.432.009.647.031.442-.207.723-.564.905-.176.09-.393.124-.594.138-.318.021-.64-.01-.96.01-.281.018-.516-.066-.76-.197-.322-.174-.45-.75-.093-1.067a.948.948 0 0 1 .661-.255c.485.008.97.006 1.454-.011.123-.005.312-.055.347-.137.064-.152-.01-.34-.173-.417a1.387 1.387 0 0 0-.533-.152c-.562-.017-1.125.001-1.688-.004-.087 0-.203-.024-.254-.082-.122-.137-.013-.327.185-.331.329-.007.658-.002.987-.002a.709.709 0 0 0 .004-.036m.272 2.271v-.003c.224 0 .449.003.673-.001a.572.572 0 0 0 .49-.293c.146-.236.05-.41-.223-.416-.216-.004-.432 0-.648.003-.32.004-.64-.007-.957.018-.226.019-.36.196-.34.38.018.18.164.303.383.31.207.008.414.002.622.002M59.976 27.95c-.364 0-.728-.004-1.092.001-.154.003-.224-.06-.222-.212.001-.15.064-.218.221-.217.615.004 1.231 0 1.847-.002.112 0 .226.003.337-.012.164-.023.262-.129.286-.29.027-.173-.068-.29-.22-.338-.112-.036-.238-.036-.358-.039-.407-.009-.815-.006-1.222-.018-.266-.008-.508-.084-.697-.29-.316-.345-.236-.896.184-1.098.173-.084.378-.136.57-.14.667-.018 1.334-.01 2.002-.008.125 0 .276-.02.286.176.01.17-.06.26-.24.257-.399-.004-.798 0-1.197 0-.294.002-.59-.001-.884.006-.255.007-.39.119-.399.314-.01.217.107.338.39.348.45.017.901.01 1.352.016.357.006.664.121.852.446a.696.696 0 0 1-.206.9c-.18.125-.37.213-.602.204-.329-.011-.658-.002-.988-.002v-.003ZM69.148 22.034c0 .069-.009.14 0 .207.08.546-.413.977-.867 1.053a4.468 4.468 0 0 1-1.701-.02c-.43-.093-.876-.485-.826-1.013.02-.205.005-.414.006-.62 0-.466.477-.895.9-.918a16.425 16.425 0 0 1 1.556-.013c.454.019 1.008.462.935 1.065-.01.085-.001.172-.001.259h-.002Zm-1.602-.915-.002-.046c-.266.02-.536.016-.796.065-.312.058-.43.227-.437.544-.004.233-.002.467.003.7a.47.47 0 0 0 .337.463c.466.151.944.08 1.416.05.363-.02.53-.234.533-.595.002-.19-.002-.38.007-.57.015-.354-.195-.597-.542-.61-.173-.006-.345-.001-.519-.001ZM31.195 27.944h-1.04c-.141 0-.286.015-.29-.198-.003-.229.152-.215.302-.215l1.82.002c.078 0 .156.002.233-.003.22-.013.35-.136.356-.331.008-.222-.101-.342-.353-.352-.45-.017-.901-.006-1.35-.035a1.613 1.613 0 0 1-.621-.15c-.26-.133-.414-.384-.375-.683.036-.274.191-.497.486-.571.181-.046.367-.1.552-.104.624-.013 1.248-.004 1.871-.006.143 0 .268.013.27.195.002.186-.113.222-.274.22-.659-.004-1.317.002-1.976-.002-.158-.001-.29.034-.384.169-.122.18-.052.417.155.48.122.037.254.057.382.06.415.008.831 0 1.247.01a.866.866 0 0 1 .744.402.615.615 0 0 1-.05.767c-.19.208-.41.36-.718.348-.328-.013-.658-.003-.987-.003M21.527 23.228c-.318.148-.416.122-.581-.135-.019-.029-.043-.057-.053-.09-.12-.4-.417-.473-.791-.453-.433.022-.867.028-1.299.006-.278-.014-.412.124-.518.34-.042.084-.091.165-.136.247-.079.146-.214.163-.357.152-.138-.01-.186-.08-.126-.21.059-.125.115-.252.182-.373.447-.804.897-1.607 1.347-2.411.037-.068.075-.136.118-.2.152-.224.39-.23.52.001.56 1.003 1.111 2.009 1.665 3.015.015.028.017.064.03.111m-1.552-1.037.006.02c.106-.029.219-.045.315-.093.04-.019.078-.125.059-.162a30.432 30.432 0 0 0-.627-1.161c-.106-.188-.225-.174-.332.023-.185.34-.368.683-.552 1.025-.134.249-.079.345.204.347.309.003.618 0 .927 0M45.866 27.049c.134-.397.418-.775.117-1.227-.042-.062-.051-.146-.07-.221-.025-.109-.068-.228.075-.29.14-.06.304.007.362.158.11.29.215.581.318.874.06.171.102.348.167.516.029.077.094.14.168.244.066-.123.128-.214.164-.314.148-.414.285-.833.434-1.247.03-.083.081-.191.15-.22.084-.036.22-.03.29.02.049.034.058.183.028.26-.28.74-.568 1.479-.865 2.213-.024.059-.135.121-.2.115-.087-.008-.203-.06-.246-.13-.075-.12-.097-.273-.152-.408-.046-.115-.107-.223-.162-.335h-.079l-.226.502c-.034.08-.049.174-.103.235-.057.063-.165.146-.224.128-.101-.03-.224-.113-.263-.206-.209-.493-.395-.995-.587-1.494-.08-.209-.161-.418-.233-.63-.034-.103-.083-.225.067-.286.15-.06.33.019.382.17.125.359.241.72.37 1.078.063.174.147.341.221.511l.097-.016ZM44.088 27.902c-.297.082-.434-.026-.53-.217-.272-.549-.146-.467-.83-.474-.408-.005-.816.01-1.223-.006-.234-.01-.377.077-.463.287-.043.103-.085.214-.158.295a.482.482 0 0 1-.25.144c-.16.03-.236-.066-.187-.216.05-.155.122-.304.198-.449.431-.816.866-1.63 1.3-2.446.069-.13.126-.257.318-.248.19.009.24.142.309.271.477.9.957 1.798 1.428 2.7.055.104.059.234.088.359m-1.834-1.092v-.01h.494c.21-.001.288-.08.206-.27a16.164 16.164 0 0 0-.556-1.136c-.078-.146-.206-.144-.28-.008-.2.372-.399.746-.583 1.127-.096.196-.024.29.2.296.173.004.347 0 .52 0M58.094 22.316v.751c-.002.156-.057.28-.232.283-.245.006-.323-.066-.324-.29-.003-.44 0-.88 0-1.321.001-.38-.17-.596-.544-.618-.397-.023-.797-.02-1.193.004-.403.025-.552.2-.556.598-.006.432.002.864 0 1.296-.002.282-.092.346-.367.304-.13-.02-.184-.09-.184-.206-.001-.519-.017-1.038.01-1.555.023-.422.425-.815.886-.841.56-.031 1.126-.035 1.683.018.385.036.845.435.82.928-.012.216-.003.432-.003.649h.004ZM73.136 22.327c0 .25-.005.501.002.752.005.185-.094.243-.259.24-.155-.002-.297-.006-.294-.225.005-.467-.006-.933 0-1.4.003-.289-.163-.543-.452-.56a10.384 10.384 0 0 0-1.373.006c-.328.024-.459.208-.465.547-.008.449-.001.899-.006 1.348-.002.272-.088.328-.355.287-.151-.024-.184-.123-.186-.237-.006-.493-.022-.986.002-1.477a.97.97 0 0 1 .878-.883 13.06 13.06 0 0 1 1.684.007c.457.032.82.486.825.947.002.216 0 .432 0 .648ZM27.797 20.71c.216 0 .432.006.65 0 .488-.013 1.069.48 1.044 1.071-.018.432-.017.864-.017 1.296 0 .17-.084.222-.24.234-.167.012-.276-.03-.28-.212-.007-.415-.013-.83-.015-1.245-.003-.57-.194-.766-.764-.765-.346.001-.692.01-1.038.023-.292.01-.52.253-.526.563-.007.449-.006.899-.009 1.348-.002.248-.038.29-.253.29-.246-.001-.286-.036-.288-.284-.003-.45-.004-.9 0-1.35.003-.286.138-.513.36-.685.235-.182.49-.315.804-.296.19.011.381.002.572.002v.01M24.966 22.357c0-.225.008-.45-.001-.674-.014-.315-.147-.514-.454-.54-.49-.039-.985-.034-1.476-.008-.242.013-.418.3-.419.58 0 .442.008.883.003 1.324-.003.244-.09.313-.32.28-.127-.018-.213-.076-.211-.216.006-.51-.019-1.022.027-1.528.041-.458.443-.813.908-.845.466-.03.936-.049 1.401-.026.648.032 1.06.451 1.089 1.095.018.422-.011.847-.018 1.271-.004.204-.155.23-.306.24-.173.012-.219-.102-.218-.252.002-.233 0-.467 0-.7h-.005ZM43.962 20.712c.217 0 .433-.011.65.002.633.04 1.016.436 1.024 1.065.006.432-.009.865-.007 1.297 0 .177-.075.248-.251.241-.171-.006-.277-.044-.273-.25.008-.441-.003-.882-.003-1.324 0-.4-.16-.587-.56-.614a13.1 13.1 0 0 0-1.115-.035c-.242.005-.49.056-.581.338a.838.838 0 0 0-.043.249c-.003.44.004.882 0 1.323-.001.127-.003.262-.176.304-.26.063-.376-.022-.376-.289 0-.406.02-.814-.004-1.219-.035-.616.499-1.078 1.04-1.087.225-.005.45-.001.675-.001M30.083 20.734c.073-.016.14-.038.208-.042.236-.014.293.038.295.273.003.458.001.916.004 1.374.002.277.101.466.37.51.39.061.79.053 1.186.079.266.018.505-.035.66-.269a.663.663 0 0 0 .12-.323c.014-.458.014-.916.006-1.374-.004-.188.062-.275.252-.272.214.004.264.056.262.278-.003.431-.033.866.005 1.295.046.519-.466.987-.911 1.025-.539.046-1.081.12-1.624-.01-.512-.121-.87-.543-.869-1.066 0-.459.005-.917.009-1.375 0-.025.012-.05.027-.103M26.058 25.347c.096-.017.154-.034.214-.038.229-.015.299.043.302.275.006.467.002.933.005 1.4a.557.557 0 0 0 .53.544c.372.008.745.01 1.116 0 .342-.01.54-.214.545-.554.007-.458.002-.916.003-1.374 0-.146.022-.276.213-.293.224-.018.284.023.287.25.004.502.005 1.003 0 1.504-.003.262-.337.651-.59.763-.417.183-.851.114-1.28.115-.218 0-.447-.03-.653-.1-.456-.156-.692-.518-.692-.999v-1.493M14.995 27.53c.117.369.085.414-.26.415-.556 0-1.111-.012-1.665.003-.432.012-.779-.16-1.055-.463-.1-.11-.147-.29-.166-.445a5.681 5.681 0 0 1-.027-.803c.008-.39.25-.645.572-.796.21-.098.464-.127.7-.136.51-.019 1.023-.006 1.534-.005.06 0 .122-.002.183 0 .133.005.237.038.24.205.003.166-.098.204-.233.205-.278.003-.555.002-.833.003-.347 0-.693-.003-1.04 0-.387.002-.608.228-.604.617 0 .2.007.399.015.598.015.416.198.596.627.6.468.006.936.002 1.404.002h.608M8.056 26.93c0-.164.012-.33-.002-.492-.055-.637.302-.99.868-1.095.537-.098 1.103-.125 1.647.03.415.118.699.461.714.887.017.482-.005.966-.003 1.45.001.199-.16.19-.271.205-.13.018-.221-.054-.221-.215 0-.431-.055-.867-.01-1.294a.636.636 0 0 0-.65-.697c-.32.003-.64-.003-.96.001-.381.005-.623.256-.628.64-.004.441-.018.882-.012 1.322.002.198-.098.253-.27.265-.197.013-.2-.123-.203-.255-.004-.25-.001-.501-.001-.752h.002ZM36.672 27.944h-.857c-.616-.005-1.074-.454-1.086-1.066-.004-.173.006-.346-.003-.518-.035-.638.498-1.028.99-1.05.65-.03 1.3-.01 1.949-.01.146 0 .258.046.26.217.001.193-.146.193-.274.193-.545.002-1.09-.008-1.636-.003-.248.002-.512-.015-.677.233-.042.063-.098.136-.099.205-.004.343-.027.692.026 1.028.034.211.22.354.475.352.519-.004 1.039.002 1.558.005.139 0 .277.009.415 0 .155-.008.201.078.199.206-.002.126-.047.212-.2.21-.347-.007-.693-.002-1.04-.002M63.165 19.98v.39c.001.25.07.317.326.32.12.002.242.002.363.003.137.001.213.066.208.206-.004.138-.078.195-.219.19-.146-.004-.294 0-.44.016-.154.018-.246.089-.234.273.018.266.01.535.011.802.003.468.171.662.641.748.078.014.18.04.217.095.082.127-.013.28-.172.293-.587.047-1.271-.391-1.23-1.058.04-.628.007-1.26.01-1.89.001-.441.013-.45.519-.388M47.573 23.31c-.357.023-.7-.026-.993-.26-.227-.18-.356-.407-.349-.714.017-.698.014-1.398.02-2.097.002-.256.041-.296.276-.294.19 0 .245.066.25.304.002.06.004.121-.002.18-.015.185.057.278.252.266.138-.008.277 0 .416 0 .132.002.181.075.176.201-.005.123-.054.195-.188.192-.138-.003-.277.001-.415 0-.17-.002-.253.065-.245.249.013.328.008.656.014.983.005.336.08.435.404.544.066.022.133.04.2.054.26.055.278.088.184.393M52.208 22.324c0-.215.005-.432-.001-.647-.014-.53.358-.835.776-.932.298-.07.618-.045.929-.053.127-.003.18.088.18.207 0 .129-.073.183-.197.186-.164.004-.328.012-.493.02-.459.022-.657.224-.66.676-.004.423 0 .847-.007 1.27-.004.23-.06.272-.277.27-.186-.001-.265-.086-.259-.272.008-.241.002-.483.002-.725h.007M41.647 21.627v1.449c.001.134-.015.24-.19.238-.151-.003-.306.018-.316-.2-.004-.069-.02-.137-.02-.205 0-.862-.001-1.725.002-2.587 0-.317.068-.378.321-.37.164.006.206.08.205.226-.004.483-.002.966-.002 1.449M77.702 20.005c.42-.131.529-.064.53.291.003.899.004 1.798-.006 2.697-.001.105-.05.254-.128.305-.22.143-.383.03-.387-.262-.009-.673-.007-1.348-.009-2.022v-1.01M52.481 26.908c0-.19.017-.383-.003-.57-.054-.538.491-.988.961-1.032.215-.02.433-.008.65-.015.155-.004.219.072.218.22 0 .15-.093.19-.22.195-.173.007-.346.023-.519.018-.354-.01-.58.287-.564.623.021.44.003.882-.002 1.323 0 .137-.023.257-.201.275-.224.023-.308-.035-.315-.26-.008-.259-.002-.518-.002-.777h-.003M9.15 22.354c0-.207-.004-.415 0-.623.012-.518.423-.961.936-1.002.25-.02.502-.03.753-.03.113 0 .236.025.225.187-.01.148-.099.212-.242.213-.173.002-.347.002-.52.005-.388.007-.622.244-.623.637-.002.424.005.848.005 1.272 0 .27-.054.315-.322.298-.131-.008-.21-.057-.208-.204.004-.25 0-.502 0-.753H9.15ZM38.032 21.637c0-.467.003-.934-.002-1.401-.002-.17.024-.289.237-.279.224.01.28.043.282.27.004.942-.001 1.885.006 2.828.002.202-.09.253-.268.25-.185-.002-.265-.075-.261-.266.008-.468.003-.934.003-1.402h.003M65.166 22.02c0 .346-.002.692.001 1.037.001.152-.006.273-.216.264-.17-.006-.32-.01-.32-.233-.001-.734-.003-1.467 0-2.2.001-.199.155-.195.298-.202.159-.008.241.047.238.221-.006.372-.002.742-.002 1.114h.001ZM34.103 27.917c-.402.044-.43.027-.434-.33-.007-.672-.006-1.344-.006-2.017 0-.134.01-.261.197-.272.213-.012.278.035.28.261.004.491.001.983 0 1.474 0 .208-.001.414-.007.621-.003.084-.019.168-.03.263M64.837 20.349c-.072-.002-.2-.032-.2-.203-.001-.185.138-.215.285-.216.172-.003.25.082.24.254-.006.134-.058.168-.325.165M33.864 24.539c.16.041.27.046.267.212-.003.166-.111.194-.242.197-.143.004-.252-.056-.215-.208.02-.078.124-.135.19-.201M65.818 24.383h-1.5l-1.061 1.058v1.497l1.061 1.059h1.5l1.061-1.06v-1.496zM71.445 24.383h-1.5l-1.061 1.058v1.497l1.061 1.059h1.5l1.06-1.06v-1.496zM77.072 24.383h-1.5L74.51 25.44v1.497l1.062 1.059h1.5l1.06-1.06v-1.496z"/></g></g></svg>