<?xml version="1.0" encoding="UTF-8"?>
<svg width="132px" height="31px" viewBox="0 0 132 31" version="1.1" xmlns="http://www.w3.org/2000/svg" xmlns:xlink="http://www.w3.org/1999/xlink">
    <title>insomniac-logo</title>
    <g id="New-Version-Final" stroke="none" stroke-width="1" fill="none" fill-rule="evenodd">
        <g id="insomniac-logo">
            <rect id="Rectangle-Copy-24" fill-opacity="0" fill="#707580" x="0" y="0" width="132" height="31"></rect>
            <g id="Group-5" transform="translate(0.566946, 4.619444)" fill="#DEDEDE">
                <path d="M131.063382,4.74914708 C131.196039,3.86916511 131.277074,3.14972444 131.277074,2.61658356 C131.277074,0.403749386 129.727807,0.270763683 126.522428,0.270763683 C124.145406,0.270763683 122.675374,0.29712121 121.767783,1.25737383 C121.046273,2.02952956 120.859592,3.14972444 120.618889,4.74914708 L118.695661,17.6769149 C118.535393,18.6898826 118.48197,19.4901929 118.48197,20.0496913 C118.48197,21.9689985 120.138082,22.2092114 123.236615,22.2092114 C125.587226,22.2092114 127.029046,22.1289408 127.911426,21.2495578 C128.71217,20.4492475 128.87304,19.3032941 129.113143,17.6769149 L129.861665,12.8522894 L125.320111,12.8522894 L124.625612,17.5439292 C124.518767,18.2370123 124.385509,18.6371675 123.770845,18.6371675 C123.343461,18.6371675 123.183192,18.4502687 123.183192,17.9967994 C123.183192,17.8901712 123.183192,17.730828 123.209603,17.5439292 L125.106419,4.88213279 C125.213265,4.21540717 125.320111,3.81645006 125.908364,3.81645006 C126.388571,3.81645006 126.575851,4.00215082 126.575851,4.45562008 C126.575851,4.48257664 126.54884,4.61616138 126.522428,4.88213279 L126.095045,7.76109354 L130.608986,7.76109354 L131.063382,4.74914708 Z M113.515433,5.92205702 L113.702113,5.92205702 L113.114461,14.2654123 L111.645629,14.2654123 L113.515433,5.92205702 Z M111.699052,0.403749386 L105.662855,22.0486701 L109.909682,22.0486701 L110.897707,17.7835431 L112.794523,17.7835431 L112.473385,22.0486701 L116.746623,22.0486701 L117.174007,0.403749386 L111.699052,0.403749386 Z M102.992306,0.403749386 L99.7599155,22.0486701 L104.274458,22.0486701 L107.506848,0.403749386 L102.992306,0.403749386 Z M90.5459518,0.403749386 L87.3141615,22.0486701 L91.213439,22.0486701 L92.789717,11.4397656 L92.9769976,11.4397656 L93.5646504,22.0486701 L97.7580544,22.0486701 L100.989845,0.403749386 L97.1175788,0.403749386 L95.4344548,11.4930797 L95.2471742,11.4930797 L94.7663674,0.403749386 L90.5459518,0.403749386 Z M74.2543433,0.403749386 L71.0219528,22.0486701 L75.1091111,22.0486701 L76.9789154,9.57377254 L77.1385841,9.57377254 L76.8984808,22.0486701 L79.4357723,22.0486701 L82.9088664,9.57377254 L83.0955467,9.57377254 L81.2257424,22.0486701 L85.285889,22.0486701 L88.5446909,0.403749386 L83.0157124,0.403749386 L79.8367448,11.359495 L79.6494643,11.359495 L79.7833218,0.403749386 L74.2543433,0.403749386 Z M67.1772989,4.88213279 L65.2804829,17.5439292 C65.1742372,18.2639689 65.0403796,18.6371675 64.4257152,18.6371675 C63.9983313,18.6371675 63.8386626,18.4502687 63.8386626,17.9967994 C63.8386626,17.8638137 63.8386626,17.730828 63.865074,17.5439292 L65.7606895,4.88213279 C65.8675354,4.21540717 65.9749817,3.81645006 66.5626345,3.81645006 C67.0440416,3.81645006 67.2307219,4.00215082 67.2307219,4.45562008 C67.2307219,4.48257664 67.2307219,4.61616138 67.1772989,4.88213279 L67.1772989,4.88213279 Z M71.7176521,4.74914708 C71.8515097,3.84280759 71.9319443,3.14972444 71.9319443,2.61658356 C71.9319443,0.403749386 70.3820775,0.270763683 67.1772989,0.270763683 C64.8266877,0.270763683 63.3314444,0.29712121 62.4226535,1.25737383 C61.6747317,2.02952956 61.5138625,3.176681 61.2737593,4.74914708 L59.3511322,17.6769149 C59.1908632,18.6898826 59.1374402,19.4901929 59.1374402,20.0496913 C59.1374402,21.9689985 60.7935527,22.2092114 63.8908851,22.2092114 C66.2420966,22.2092114 67.6845171,22.1289408 68.5662964,21.2495578 C69.3940525,20.4228899 69.5273098,19.2769366 69.7680134,17.6769149 L71.7176521,4.74914708 Z M59.5126016,4.72278956 C59.6194476,3.97579329 59.7533052,3.28271014 59.7533052,2.66989765 C59.7533052,0.403749386 58.2040387,0.270763683 54.9710479,0.270763683 C50.5375407,0.270763683 49.6827729,0.723633915 49.0951201,4.72278956 L48.7211593,7.25490922 C48.6683365,7.60175031 48.6143133,7.9743499 48.6143133,8.37390604 C48.6143133,9.60013007 49.1221318,10.5340252 50.1101568,11.1468377 L52.9415748,12.8522894 C53.609062,13.2524446 53.662485,13.4920585 53.662485,13.8922137 C53.662485,14.0257984 53.6360736,14.1851416 53.609062,14.3720405 L53.1288554,17.5972433 C53.0172074,18.3208772 52.8473343,18.6952739 52.2542792,18.6611289 C51.9295395,18.6425588 51.6858346,18.3484328 51.6858346,18.023756 C51.6858346,17.8374562 51.6858346,17.7038715 51.7128463,17.5972433 L52.353922,13.3590728 L47.8135688,13.3590728 L47.1454814,17.730828 C46.9852125,18.7701532 46.9582009,19.4632364 46.9582009,19.8100775 C46.9582009,22.0223126 48.4534441,22.2092114 51.7392576,22.2092114 C54.1432918,22.2092114 55.6127239,22.1289408 56.4674917,21.1962437 C57.2154134,20.3965324 57.3216591,19.24998 57.5623627,17.730828 L58.1770271,13.6789573 C58.2298498,13.3590728 58.283873,13.0391883 58.283873,12.6929462 C58.283873,11.5200363 57.7226316,10.5867402 56.600749,9.94697116 L54.0100345,8.42781916 C53.4223817,8.08097807 53.2621127,7.81440763 53.2621127,7.44120901 C53.2621127,7.20159514 53.2891244,7.01529534 53.3155357,6.90866717 L53.609062,4.85577526 C53.715908,4.18964868 53.9031885,3.78889446 54.4374183,3.78889446 C54.8918138,3.78889446 55.0784941,3.97579329 55.0784941,4.42926255 C55.0784941,4.42926255 55.0784941,4.56224826 55.0250711,4.85577526 L54.5706757,7.94739333 L59.0317948,7.94739333 L59.5126016,4.72278956 Z M37.4507109,0.403749386 L34.2189206,22.0486701 L38.118198,22.0486701 L39.6944761,11.4397656 L39.8811564,11.4397656 L40.4694095,22.0486701 L44.6622132,22.0486701 L47.8946037,0.403749386 L44.0211374,0.403749386 L42.3386136,11.4930797 L42.1519333,11.4930797 L41.6711264,0.403749386 L37.4507109,0.403749386 Z M30.9343076,0.403749386 L27.701917,22.0486701 L32.2164591,22.0486701 L35.4482494,0.403749386 L30.9343076,0.403749386 Z M13.7585188,19.9173047 C8.95645296,19.9173047 5.06377838,16.0325646 5.06377838,11.2402871 C5.06377838,6.44860852 8.95645296,2.56386851 13.7585188,2.56386851 C18.5599843,2.56386851 22.4532591,6.44860852 22.4532591,11.2402871 C22.4532591,16.0325646 18.5599843,19.9173047 13.7585188,19.9173047 L13.7585188,19.9173047 Z M22.8212174,4.46580367 C22.6153288,4.23457628 22.0168714,3.57863328 21.8644058,3.42108716 C19.816925,1.31188599 16.9512922,0 13.7765265,0 C10.7668318,0 8.03325581,1.17830125 6.01278663,3.09820746 C5.83390968,3.26833331 5.36991007,3.73198617 5.14121169,3.97759039 C4.22701841,4.95461598 1.7701615,7.74192443 0,11.2271083 C1.65311115,14.4828619 3.90287897,17.127001 4.93712389,18.2573795 C5.12560498,18.4634475 5.66283609,19.0373227 5.81590193,19.1900765 C7.8537786,21.2232003 10.6677892,22.4811732 13.7765265,22.4811732 C17.1301692,22.4811732 20.1404642,21.0171324 22.2035517,18.6964719 C22.318201,18.5670805 22.8200169,17.9920071 22.9880892,17.8009151 C24.1309809,16.5004107 26.0566092,14.1024749 27.5164372,11.2271083 C25.9827775,8.20617632 23.9346964,5.71299391 22.8212174,4.46580367 L22.8212174,4.46580367 Z" id="Fill-196"></path>
                <path d="M13.7584587,7.41143699 C11.6425485,7.41143699 9.92160816,9.1294685 9.92160816,11.2404668 C9.92160816,13.3520641 11.6425485,15.0694966 13.7584587,15.0694966 C15.8737687,15.0694966 17.5953093,13.3520641 17.5953093,11.2404668 C17.5953093,9.1294685 15.8737687,7.41143699 13.7584587,7.41143699" id="Fill-198"></path>
                <path d="M8.46214031,11.2671837 C8.46694238,14.1772943 10.8409637,16.5434813 13.7582186,16.5434813 C16.6754736,16.5434813 19.0488946,14.1784924 19.0542969,11.2689808 L19.0542969,11.2492127 C19.0542969,11.2432223 19.0542969,11.237232 19.0542969,11.2318407 C19.0494949,8.32173012 16.6760739,5.95494403 13.7582186,5.95494403 C10.8415639,5.95494403 8.4681429,8.31993301 8.46214031,11.2300436 L8.46274057,11.2492127 C8.46274057,11.255203 8.46214031,11.2611934 8.46214031,11.2671837 M13.7582186,18.2746916 C9.87154662,18.2746916 6.70998656,15.1189768 6.70998656,11.2402272 C6.70998656,7.36207653 9.87154662,4.20636174 13.7582186,4.20636174 C17.6448906,4.20636174 20.8070509,7.36207653 20.8070509,11.2402272 C20.8070509,15.1189768 17.6448906,18.2746916 13.7582186,18.2746916" id="Fill-200"></path>
            </g>
        </g>
    </g>
</svg>