<?xml version="1.0" encoding="UTF-8"?>
<svg width="24px" height="24px" viewBox="0 0 24 24" version="1.1" xmlns="http://www.w3.org/2000/svg" xmlns:xlink="http://www.w3.org/1999/xlink">
    <title>icon/link/instagram/black</title>
    <g id="Resources---Mobile" stroke="none" stroke-width="1" fill="none" fill-rule="evenodd">
        <g id="icon/link/instagram/black">
            <rect id="Rectangle" transform="translate(12.000000, 12.000000) scale(-1, 1) rotate(-180.000000) translate(-12.000000, -12.000000) " x="0" y="0" width="24" height="24"></rect>
            <path d="M16.8502705,0 C20.7926044,0 24,3.20735199 24,7.14972942 L24,7.14972942 L24,16.8502705 C24,20.7926479 20.7926479,24 16.8502705,24 L16.8502705,24 L7.14972942,24 C3.20735199,24 0,20.7926479 0,16.8502705 L0,16.8502705 L0,7.14972942 C0,3.20735199 3.20735199,0 7.14972942,0 L7.14972942,0 Z M16.8502706,2.41439912 L7.14972942,2.41439912 C4.5345006,2.41439912 2.41439912,4.53445704 2.41439912,7.14972942 L2.41439912,7.14972942 L2.41439912,16.8502706 C2.41439912,19.4654994 4.5345006,21.5856009 7.14972942,21.5856009 L7.14972942,21.5856009 L16.8502706,21.5856009 C19.4654994,21.5856009 21.5856009,19.4654994 21.5856009,16.8502706 L21.5856009,16.8502706 L21.5856009,7.14972942 C21.5856009,4.53445704 19.4654994,2.41439912 16.8502706,2.41439912 L16.8502706,2.41439912 Z M12,6 C15.3084052,6 18,8.69156204 18,11.999979 C18,15.3083958 15.3084052,18 12,18 C8.69159469,18 6,15.3083538 6,11.999979 C6,8.69160412 8.69159469,6 12,6 Z M12,8.33379293 C9.97523103,8.33379293 8.33378474,9.97520288 8.33378474,12.000021 C8.33378474,14.0248392 9.97518892,15.6662492 12,15.6662492 C14.024769,15.6662492 15.6662152,14.0247971 15.6662152,12.000021 C15.6662152,9.97520288 14.0248111,8.33379293 12,8.33379293 Z M18,4.5 C18.8284271,4.5 19.5,5.17157288 19.5,6 C19.5,6.82842712 18.8284271,7.5 18,7.5 C17.1715729,7.5 16.5,6.82842712 16.5,6 C16.5,5.17157288 17.1715729,4.5 18,4.5 Z" id="Combined-Shape" fill="#D5DDE0"></path>
        </g>
    </g>
</svg>