<?xml version="1.0" encoding="UTF-8"?>
<svg width="204px" height="38px" viewBox="0 0 204 38" version="1.1" xmlns="http://www.w3.org/2000/svg" xmlns:xlink="http://www.w3.org/1999/xlink">
    <title>RollingStone</title>
    <g id="Analytics-landing" stroke="none" stroke-width="1" fill="none" fill-rule="evenodd">
        <g id="1920_Analytics-landing-update---EXT_Final" transform="translate(-574.000000, -733.000000)" fill="#D5DDE0" fill-rule="nonzero">
            <g id="Partner_logos" transform="translate(-2.000000, 701.000000)">
                <g id="Logo" transform="translate(576.000000, 32.000000)">
                    <g id="RollingStone" transform="translate(0.000000, 0.520000)">
                        <path d="M23.8010573,8.17186406 C23.8010573,5.25334118 21.8084106,3.41165261 19.18174,3.41165261 C18.5678438,3.41165261 17.0079437,3.43178035 16.4644946,3.49216358 L14.6429338,14.783828 C14.9750415,14.8140196 15.5486822,14.783828 15.8505984,14.783828 C20.1780634,14.783828 23.8010573,11.9659438 23.8010573,8.17186406 Z M56.1060864,1.19760077 L52.4730286,23.3683108 C52.3220705,24.2740593 52.3120067,24.6363587 54.0329288,24.6363587 L53.6001823,27.4743706 L50.6112123,27.4743706 C52.2516234,28.229161 53.8517791,29.406634 53.8517791,30.9564703 C53.8517791,33.9253125 50.9332562,36.2903224 43.2847135,36.2903224 C29.1248456,36.2903224 19.7755085,29.0644623 16.5651333,18.2055444 L14.0592292,18.2055444 L12.972331,25.0389135 C12.7710536,26.3472169 12.7911813,26.7698995 15.1159357,26.9208576 L16.7160914,27.0315602 L16.0619397,30.3727657 C13.7472492,30.2318715 11.1910257,30.111105 8.64486605,30.1211689 C6.33017549,30.1211689 3.89471846,30.2419354 1.60015565,30.3727657 L2.14360474,27.0315602 C2.74743706,27.0013686 3.16005581,27.0013686 3.55254682,26.9611131 C3.91565331,26.9298388 4.27375544,26.8555157 4.61931725,26.7397079 C5.26340506,26.5384305 5.7867264,26.1258117 5.92762061,25.2905103 L9.3795287,4.46835917 C8.39598212,4.64150109 7.4318982,4.91117492 6.50126131,5.27346893 C5.73640704,5.57538509 4.90110566,6.26979226 4.90110566,6.83336909 C4.90110566,7.07490202 4.95142502,7.25605171 5.05206374,7.41707366 C5.18289408,7.6183511 5.34391603,7.7995008 5.34391603,8.07122534 C5.34391603,8.26243891 5.26340506,8.3731415 5.16276634,8.50397184 C4.65957274,9.10780416 3.53241907,9.59087002 2.47571251,9.59087002 C1.81384806,9.59091923 1.17952188,9.32594563 0.714357994,8.85510899 C0.249194112,8.3842724 -0.00807151951,7.74678111 -0.000360499501,7.08496589 C-0.000360499501,3.19024742 4.87091405,1.63034726 7.99071437,1.01645107 C11.4977208,0.375129277 15.0531727,0.0350718491 18.6181632,0 C25.8138317,0 31.0369812,2.24424346 31.0369812,7.92026726 C31.0369812,12.5899039 27.4944983,15.6090655 23.7004186,16.8972411 C26.5887498,25.9044065 33.6435241,32.6673285 42.7010089,32.6673285 C46.1428531,32.6673285 47.3505178,31.1980032 47.3505178,29.7588695 C47.369825,29.1542813 47.1409265,28.5681186 46.7170189,28.1366073 C46.2931113,27.705096 45.7111101,27.4658138 45.1062743,27.4743706 L43.6772045,27.4743706 L44.2206536,24.6363587 C45.2270408,24.6363587 46.3340667,24.5457838 46.5051525,23.509205 L49.0915676,7.51771238 C49.1318231,7.23592397 49.0211205,7.1151575 48.7292682,7.1151575 L46.3240028,7.1151575 L46.7970048,4.57906176 L55.8142341,0.90574848 L56.1060864,1.20766464 L56.1060864,1.19760077 Z M186.433229,24.6363587 L185.88978,27.4743706 L176.188207,27.4743706 L176.661209,24.6363587 C178.150662,24.6363587 178.362003,24.5055283 178.553217,23.2274166 L179.609924,16.2430894 C179.791073,15.0454886 179.066474,14.6429338 178.372067,14.6429338 C176.963125,14.6429338 175.503864,16.1122591 175.252267,17.8029896 L174.37671,23.4689495 C174.24588,24.2740593 174.37671,24.6363587 176.047313,24.6363587 L175.604503,27.4743706 L165.762036,27.4743706 L166.265229,24.6363587 C168.046535,24.6363587 168.348451,24.374698 168.519537,23.2877998 L169.686946,16.0921313 C169.767457,15.5889377 169.686946,15.5184906 169.284391,15.5184906 L167.140786,15.5184906 L167.583597,13.0427781 L176.369357,9.26882611 L176.631017,9.52042291 L176.228463,11.7344748 C177.838682,10.3054049 179.619987,9.29901773 181.642826,9.29901773 C184.168858,9.29901773 185.859588,11.6740915 185.859588,14.2101873 C185.859588,14.8039557 185.809269,15.2870216 185.678438,16.1323868 L184.511029,23.2173527 C184.309752,24.4048896 184.521093,24.6262948 186.443293,24.6262948 L186.433229,24.6363587 Z M150.867505,10.144383 L149.196902,13.6969298 C148.560089,13.439655 147.880956,13.3031458 147.194192,13.2943749 L145.201545,13.2943749 L143.852986,21.54675 C143.611453,23.0261391 143.893242,23.2877998 144.658096,23.2877998 C145.483334,23.2877998 146.328699,22.8651172 147.848344,21.4763028 L149.156647,24.0526541 C147.355214,25.9647898 145.060651,27.9775642 142.142128,27.9775642 C139.042456,27.9775642 137.673769,26.2063227 137.673769,23.3985024 C137.673769,22.804734 137.774408,21.9996242 137.854919,21.4360474 L139.163222,13.2943749 L136.878723,13.3346304 L137.422172,10.2148301 L139.595969,10.2450217 L140.109226,6.94407168 L146.107294,4.50861466 L146.509849,4.91116954 L145.664483,10.1745746 L150.867505,10.1343191 L150.867505,10.144383 Z M138.911625,1.23785626 C138.142716,3.90140871 137.524485,6.60616716 137.059873,9.33927322 L133.567709,9.33927322 C133.889753,8.18192794 133.990392,7.45732915 134.000456,6.82330522 C134.030647,5.31372442 132.309725,4.35765658 129.753502,4.35765658 C127.136895,4.35765658 125.385781,5.69615155 125.35559,7.37681818 C125.325398,8.96690995 125.92923,9.6311255 127.942005,11.0501315 L131.424104,13.5157801 C134.664671,15.8103429 136.617062,17.9539476 136.556679,21.6574525 C136.445977,27.8064783 131.232891,30.9162148 124.560544,30.9162148 C123.000644,30.9162148 121.702404,30.664618 120.635634,30.4130212 C119.729885,30.191616 118.854328,29.9098276 117.908324,29.9098276 C117.196867,29.9249968 116.499545,30.1114097 115.875422,30.4532767 L115.331973,30.1513605 C114.891437,27.1692639 114.354415,24.2022204 113.721754,21.2548977 L117.364875,20.3793408 C118.320943,24.8879555 120.414228,26.9611131 124.953035,26.9611131 C127.931941,26.9611131 129.532097,25.5119155 129.572352,23.1871611 C129.612607,20.9529815 128.455262,20.0271053 126.341849,18.6382909 C125.395845,18.0344586 124.459905,17.4306263 123.574284,16.826794 C122.69169,16.2527813 121.866045,15.595635 121.108636,14.8643389 C119.500218,13.2225451 118.656508,10.9799571 118.783881,8.68512154 C118.864392,3.85446298 123.191857,0.432746496 129.059095,0.432746496 C131.514679,0.432746496 133.426815,1.04664269 135.640867,1.16740915 C136.375529,1.19760077 137.613386,1.03657882 138.398368,0.835301376 L138.901561,1.23785626 L138.911625,1.23785626 Z M76.1231278,4.17650688 C76.1231278,6.46100582 73.6474153,8.46371635 71.0710641,8.46371635 C69.7627607,8.46371635 68.243116,7.91020339 68.243116,6.06851482 C68.243116,3.33114163 71.0207447,1.48945306 73.3253714,1.48945306 C74.8450161,1.48945306 76.1231278,2.50590413 76.1231278,4.17650688 Z M75.5394232,9.52042291 L73.3253714,22.9657559 C73.0737746,24.4753367 73.043583,24.6363587 75.2173793,24.6363587 L74.774569,27.4743706 L64.6402499,27.4743706 L65.0729964,24.6363587 C66.7435991,24.6363587 67.226665,24.2338038 67.3675592,23.3280553 L68.4947128,15.9814287 C68.5550961,15.5587461 68.5651599,15.5184906 68.1324134,15.5184906 L65.807659,15.5184906 L66.2404055,13.0427781 L75.2878264,9.26882611 L75.5394232,9.52042291 L75.5394232,9.52042291 Z M66.5322578,1.08689818 L62.9696471,22.8550533 C62.7079864,24.4753367 62.8790723,24.6363587 64.4993556,24.6363587 L64.0565453,27.4643067 L54.173823,27.4643067 L54.6166333,24.6363587 C56.3476193,24.6363587 56.7803658,24.3042509 56.9715794,23.0764585 L59.4472919,7.69886208 C59.5278029,7.19566848 59.4674196,7.12522138 59.0849925,7.12522138 L56.7904297,7.12522138 L57.2332401,4.60925338 L66.280661,0.845365248 L66.5322578,1.09696205 L66.5322578,1.08689818 Z M197.956362,14.8240835 C197.906043,13.2138639 197.251891,12.7509258 196.315951,12.7509258 C195.249181,12.7509258 193.729536,14.0592292 193.155895,16.9777521 L197.956362,14.8240835 L197.956362,14.8240835 Z M203.733025,15.6996403 L192.682893,20.7818957 C192.914362,22.6739036 193.971069,23.9419515 195.702055,23.9419515 C197.513552,23.9419515 198.137512,22.9255004 198.137512,22.4524984 C198.139019,22.2469833 198.075625,22.046235 197.956362,21.8788577 C197.815468,21.6775803 197.704765,21.5568138 197.704765,21.2951532 C197.693998,21.135038 197.744348,20.9767964 197.84566,20.8523428 C198.487268,20.1712317 199.385761,19.7913811 200.321372,19.8057001 C201.609548,19.8057001 202.756829,20.7718318 202.756829,22.2411571 C202.756829,25.4314045 199.626965,28.0178196 194.725859,28.0178196 C189.895201,28.0178196 186.443293,25.0892329 186.443293,19.5440394 C186.443293,14.5825505 190.871396,9.22857062 196.396462,9.22857062 C201.025843,9.22857062 203.038618,11.5533251 203.733025,15.6996403 L203.733025,15.6996403 Z M160.559014,15.6593848 C160.559014,13.6566743 159.904862,12.7509258 158.717325,12.7509258 C156.986339,12.7509258 155.114459,16.4141752 155.114459,21.6171971 C155.114459,23.6098437 155.788739,24.4854006 156.966212,24.4854006 C158.797836,24.4854006 160.569078,20.2585743 160.569078,15.6593848 M166.848934,17.1186463 C166.848934,22.5732649 162.924024,28.0480113 156.684423,28.0480113 C151.934276,28.0480113 148.90505,25.2804465 148.90505,19.7654446 C148.90505,14.1397402 153.152004,9.15812352 159.009178,9.15812352 C163.568112,9.15812352 166.858998,12.0363909 166.858998,17.1085824 M105.700848,30.272127 C105.700848,29.8595082 105.31842,29.5777198 104.4328,29.5777198 C103.416349,29.5777198 102.389834,29.718614 101.343191,29.718614 C99.7508832,29.7786093 98.1672474,29.4577419 96.7238738,28.7826739 C96.0194028,29.3361869 95.5967201,29.9702108 95.5967201,30.8860232 C95.5967201,32.0634962 97.1364925,33.0296279 98.8372869,33.0296279 C103.335838,33.0296279 105.700848,31.3892168 105.700848,30.272127 M106.717299,14.391337 C106.717299,13.3849498 106.324808,12.499329 105.509634,12.499329 C103.657882,12.499329 102.862836,15.9311094 102.862836,17.9841393 C102.862836,19.4132091 103.164752,20.0170414 104.140947,20.0170414 C105.771295,20.0170414 106.717299,16.273281 106.717299,14.3812731 M118.059282,11.4124308 C118.059282,12.5697761 117.032767,13.9887821 116.046508,13.9887821 C115.724464,13.9887821 115.613762,13.757313 115.442676,13.5157801 C115.333297,13.3638535 115.178102,13.2509846 114.999865,13.1937362 C114.861469,13.1416751 114.714978,13.114421 114.567119,13.1132252 C113.510412,13.1132252 112.755622,14.310826 112.755622,15.3675325 L112.785814,16.0921313 C112.769128,17.2379627 112.442204,18.3578502 111.83981,19.3326981 C110.231827,21.8537684 107.45318,23.3852465 104.462991,23.3985024 C103.343313,23.4381837 102.225522,23.2780125 101.162041,22.9255004 C100.980063,23.1244863 100.873279,23.3807697 100.860125,23.6500992 C100.860125,24.3948257 101.453894,24.5558477 102.359642,24.5558477 C104.241586,24.5558477 105.922253,24.2740593 107.663303,24.2740593 C110.642209,24.2740593 112.785814,25.7433846 112.785814,28.4908216 C112.785814,33.3717996 105.338548,36.3406418 98.3944765,36.3406418 C94.268289,36.3406418 90.2930596,35.1531049 90.2930596,31.6508774 C90.2930596,29.9198915 91.2994468,28.5713326 93.563818,27.4743706 L85.3516984,27.4743706 L85.8247004,24.6363587 C87.4751754,24.5961032 87.6361974,24.4753367 87.7871555,23.428694 L88.8740536,16.1726423 C89.0149478,15.2769577 88.4111155,14.6429338 87.6462612,14.6429338 C86.2171914,14.6429338 84.75793,16.2531533 84.5566525,17.5513928 L83.6106486,23.5494605 C83.4898821,24.294187 83.6509041,24.6363587 85.2108042,24.6363587 L84.7679939,27.4743706 L75.3582735,27.4743706 L75.8312755,24.6363587 C77.4616228,24.6363587 77.5119421,24.3948257 77.6427725,23.5494605 L78.8504371,16.0619397 C78.9309481,15.5587461 78.8504371,15.5184906 78.4881377,15.5184906 L76.1533194,15.5184906 L76.6263214,13.0025226 L85.6435507,9.26882611 L85.8951475,9.52042291 L85.5328481,11.7042831 C87.3443451,10.1343191 89.1960975,9.26882611 90.8365087,9.26882611 C93.7147761,9.26882611 95.1237181,11.9558799 95.1237181,14.4215286 C95.1237181,14.6932531 95.053271,15.3675325 95.0230794,15.6291932 L93.7852232,23.3683108 C93.6342651,24.3042509 94.2884168,24.5759754 95.1941652,24.6363587 C95.6470395,22.9154365 96.9251512,22.0197519 98.434732,21.4058557 C97.2838266,20.2252909 96.6657091,18.6254576 96.7238738,16.9777521 C96.7238738,12.0766464 101.141914,9.08767642 105.630401,9.08767642 C107.673367,9.08767642 110.209462,9.77201971 111.618404,11.9156244 C112.634855,10.1343191 114.094117,9.08767642 115.613762,9.08767642 C116.972384,9.08767642 118.049219,9.95316941 118.049219,11.402367 M39.8931886,15.6593848 C39.8931886,13.6566743 39.2289731,12.7509258 38.0414362,12.7509258 C36.3104502,12.7509258 34.4486339,16.4141752 34.4486339,21.6171971 C34.4486339,23.6098437 35.1229133,24.4954644 36.3003863,24.4954644 C38.132011,24.4954644 39.8931886,20.2686382 39.8931886,15.6593848 M46.1831086,17.1186463 C46.1831086,22.5732649 42.2581985,28.0480113 36.008534,28.0480113 C31.2684503,28.0480113 28.229161,25.2804465 28.229161,19.7654446 C28.229161,14.1397402 32.4761149,9.15812352 38.3332884,9.15812352 C42.9022863,9.15812352 46.1831086,12.0363909 46.1831086,17.1085824" id="Shape"></path>
                    </g>
                </g>
            </g>
        </g>
    </g>
</svg>