<?xml version="1.0" encoding="UTF-8"?>
<svg width="67px" height="34px" viewBox="0 0 67 34" version="1.1" xmlns="http://www.w3.org/2000/svg" xmlns:xlink="http://www.w3.org/1999/xlink">
    <title>dj mag</title>
    <defs>
        <polygon id="path-1" points="0.000120260141 0.1349712 65.4604554 0.1349712 65.4604554 31.71168 0.000120260141 31.71168"></polygon>
    </defs>
    <g id="Analytics-landing" stroke="none" stroke-width="1" fill="none" fill-rule="evenodd">
        <g id="1920_Analytics-landing-update---EXT_Final" transform="translate(-1195.000000, -735.000000)">
            <g id="Partner_logos" transform="translate(-2.000000, 701.000000)">
                <g id="Logo" transform="translate(576.000000, 32.000000)">
                    <g id="dj-mag" transform="translate(621.600000, 2.200000)">
                        <path d="M16.8505122,21.8592804 L13.7249461,21.887585 L13.6169692,9.97604899 L16.7438457,9.94669603 C19.4644981,9.92258467 20.4863481,13.4729824 20.5065282,15.8655108 C20.5301154,18.2640669 19.5735234,21.835169 16.8505122,21.8592804 M37.3414991,5.62971427 C38.6600236,5.61792067 39.7300962,5.95390723 39.7340587,6.38031139 C39.7387449,6.80592931 38.6733897,7.16288227 37.3564377,7.17415171 C36.0381753,7.18699363 34.966006,6.85100707 34.9623153,6.42381667 C34.9584057,5.99636419 36.0248092,5.64072163 37.3414991,5.62971427 M64.957917,6.48540547 C64.957917,3.54355747 64.8929212,2.34952099 64.8929212,2.34952099 C64.8900383,1.84685155 64.6845676,1.36252771 64.3268284,1.00976803 C63.9659442,0.658580832 63.4821445,0.461758752 62.9802613,0.466557134 L53.0206972,0.473290272 C51.974998,0.483511392 51.1324108,1.33972675 51.1418457,2.38595011 L51.2592575,15.4889018 C51.3135081,21.3248992 49.1128223,21.3442932 47.7974428,21.356873 C46.3350364,21.3718116 45.2764953,20.9443591 44.5717621,20.0532871 C42.7309122,17.7260167 43.4081269,12.9108208 43.6196255,12.0593229 C43.6156943,12.0732132 43.6031145,12.1274637 43.5758581,12.1995357 C43.7760873,11.6609613 43.7231471,11.0581773 43.4191343,10.5599632 C43.074237,9.98417347 42.4502245,9.63875203 41.7813964,9.64530403 L33.2695621,9.72261763 C33.0792921,9.15835939 32.856262,8.62371619 32.6088585,8.10768067 C33.7567689,8.53591939 35.4529506,8.80769635 37.3713762,8.78961283 C40.8198249,8.75868739 43.6070457,7.82856547 43.5952521,6.71341507 C43.5868655,5.59905091 40.7828716,4.71977251 37.3362575,4.75069795 C34.5880866,4.77559555 32.2901692,5.37392419 31.4604239,6.17772355 C31.0384751,5.58306403 30.5840284,5.01330211 30.0627513,4.50093571 C26.4850972,0.986442912 21.5925877,0.500546592 18.9940645,0.524920032 L2.14101014,0.524133792 C1.09426262,0.533568672 0.252723744,1.39083235 0.262002792,2.43810403 L0.289414944,29.6959965 C0.299636064,30.7448407 1.15506518,31.5861175 2.20207478,31.5768385 L19.0071685,31.4907204 C24.1489161,31.4453805 29.2980018,29.2436464 32.0959679,24.5820295 C32.2416844,24.7906452 32.3936908,24.996378 32.5556562,25.2005383 C35.6489865,29.1162756 40.8064588,31.070344 47.8823567,31.0066586 C53.0967004,30.9594842 57.4582357,29.4763735 60.4920738,26.7150986 C60.8820489,26.359456 61.2486988,25.9844196 61.5914994,25.5915616 C62.4039474,24.7458295 65.0318236,22.0838829 65.1985065,16.3721114 C65.3628306,10.732936 64.957917,8.27017027 64.957917,6.48540547" id="Fill-1" fill="#D5DDE0" fill-rule="nonzero"></path>
                        <path d="M19.9040849,22.6053435 C19.0675256,23.3436228 18.0249713,23.7944004 16.765939,23.7944004 L11.7216852,23.7944004 L11.7216852,8.01980525 L16.765939,8.01980525 C18.5748152,8.01980525 19.9428728,8.93944397 20.8803329,10.328468 C23.1821816,13.7402254 22.8556299,20.0007924 19.9040849,22.6053435 L19.9040849,22.6053435 Z M53.2904561,2.43881165 L53.293339,3.62524781 C53.293339,3.62524781 53.2865249,13.4873182 53.2865249,15.8041054 C53.2865249,21.5693412 51.2577636,23.5718945 47.8491512,23.5718945 C43.3350852,23.5718945 41.9172324,20.2762385 41.5927774,17.1650868 C41.3073723,14.430282 41.8671752,11.8375246 41.9122529,11.7526107 L31.91757,11.7526107 C30.5466296,5.79002861 26.3371006,3.46380653 22.453075,2.70456077 C21.2810532,2.47550285 20.1378603,2.38744397 19.1123412,2.38744397 L2.03075309,2.38744397 L2.03075309,29.6754756 L18.842923,29.6754756 C19.2648718,29.6754756 19.6889172,29.6566059 20.1127006,29.6227976 C25.2678142,29.2131665 30.4428459,26.2810155 31.943516,19.9965992 C32.6084129,22.4315844 34.0050372,24.9271102 36.7521598,26.7435867 C39.2154497,28.3724139 42.7640129,29.4550664 47.8491512,29.4550664 C57.6336459,29.4550664 63.3750324,24.1133518 63.3750324,15.8054158 C63.3750324,15.5650884 63.3823707,2.42413517 63.3823707,2.42413517 L53.2904561,2.43881165 Z" id="Fill-5" fill="#D5DDE0" fill-rule="nonzero"></path>
                        <path d="M19.9040849,22.6053435 C19.0675256,23.3436228 18.0249713,23.7944004 16.765939,23.7944004 L11.7216852,23.7944004 L11.7216852,8.01980525 L16.765939,8.01980525 C18.5748152,8.01980525 19.9428728,8.93944397 20.8803329,10.328468 C23.1821816,13.7402254 22.8556299,20.0007924 19.9040849,22.6053435 L19.9040849,22.6053435 Z M53.2904561,2.43881165 L53.293339,3.62524781 C53.293339,3.62524781 53.2865249,13.4873182 53.2865249,15.8041054 C53.2865249,21.5693412 51.2577636,23.5718945 47.8491512,23.5718945 C43.3350852,23.5718945 41.9172324,20.2762385 41.5927774,17.1650868 C41.3073723,14.430282 41.8671752,11.8375246 41.9122529,11.7526107 L31.91757,11.7526107 C30.5466296,5.79002861 26.3371006,3.46380653 22.453075,2.70456077 C21.2810532,2.47550285 20.1378603,2.38744397 19.1123412,2.38744397 L2.03075309,2.38744397 L2.03075309,29.6754756 L18.842923,29.6754756 C19.2648718,29.6754756 19.6889172,29.6566059 20.1127006,29.6227976 C25.2678142,29.2131665 30.4428459,26.2810155 31.943516,19.9965992 C32.6084129,22.4315844 34.0050372,24.9271102 36.7521598,26.7435867 C39.2154497,28.3724139 42.7640129,29.4550664 47.8491512,29.4550664 C57.6336459,29.4550664 63.3750324,24.1133518 63.3750324,15.8054158 C63.3750324,15.5650884 63.3823707,2.42413517 63.3823707,2.42413517 L53.2904561,2.43881165 Z" id="Fill-7" fill="#D5DDE0" fill-rule="nonzero"></path>
                        <path d="M11.9838439,23.5323467 L16.7660176,23.5323467 C17.8885063,23.5323467 18.8859828,23.1544273 19.7306666,22.4088097 C22.467306,19.9937425 22.9466503,13.8597601 20.6628852,10.475259 C19.6947616,9.0401089 18.3471463,8.28191146 16.7660176,8.28191146 L11.9838439,8.28191146 L11.9838439,23.5323467 Z M16.7660176,24.0565067 L11.7217639,24.0565067 C11.5768336,24.0565067 11.4596839,23.9393569 11.4596839,23.7944267 L11.4596839,8.01983146 C11.4596839,7.87490122 11.5768336,7.75775146 11.7217639,7.75775146 L16.7660176,7.75775146 C18.529554,7.75775146 20.0270791,8.5958833 21.0974138,10.1819915 C23.5525792,13.8204481 23.0378541,20.1895163 20.0776605,22.8019297 C19.1341725,23.6345579 18.0200704,24.0565067 16.7660176,24.0565067 L16.7660176,24.0565067 Z M2.29264963,29.4131598 L18.8430016,29.4131598 C19.2416253,29.4131598 19.6620016,29.3958625 20.0920749,29.36153 C26.0572778,28.8876894 30.3923431,25.3637617 31.6885908,19.9355607 C31.7163712,19.8191972 31.8196308,19.736642 31.9394013,19.7345454 C32.053144,19.7437182 32.1647901,19.8121211 32.1962397,19.9274363 C32.9678032,22.7531828 34.549456,24.9730004 36.8969066,26.5250382 C39.5737917,28.2953886 43.2588986,29.1930126 47.8492298,29.1930126 C52.5454413,29.1930126 56.4381156,27.933194 59.1068762,25.5501006 C61.7276762,23.2099883 63.1130311,19.8399015 63.1130311,15.805442 C63.1130311,15.5852948 63.1190589,4.5401953 63.1201072,2.68650346 L53.5531389,2.70065578 L53.5554976,3.62448778 C53.5554976,3.6255361 53.5486836,13.4873444 53.5486836,15.8041316 C53.5486836,21.2823899 51.7377108,23.8337387 47.8492298,23.8337387 C44.0388487,23.8337387 41.7852228,21.5373937 41.3320864,17.1923694 C41.104601,15.0129121 41.4073034,12.8727668 41.5826349,12.0147169 L31.9176487,12.0147169 C31.7955194,12.0147169 31.689377,11.9300651 31.6621207,11.8110807 C30.2615652,5.71903114 25.8539037,3.63628138 22.4028343,2.96194954 C21.3427207,2.75464426 20.2354327,2.64955018 19.1121578,2.64955018 L2.29264963,2.64955018 L2.29264963,29.4131598 Z M18.8430016,29.9373198 L2.03056963,29.9373198 C1.88590147,29.9373198 1.76848963,29.82017 1.76848963,29.6752398 L1.76848963,2.38747018 C1.76848963,2.24280202 1.88590147,2.12539018 2.03056963,2.12539018 L19.1121578,2.12539018 C20.269241,2.12539018 21.4103373,2.23362922 22.5032109,2.4474865 C26.067761,3.14409514 30.6106557,5.28135754 32.124954,11.4905569 L41.9120695,11.4905569 C42.0040596,11.4905569 42.0892356,11.5385175 42.136672,11.6174036 C42.1796532,11.6886894 42.185681,11.7754379 42.1550176,11.8514411 C42.0832077,12.0836439 41.5847316,14.5650174 41.8533636,17.1381188 C42.280816,21.2333809 44.2977837,23.3095787 47.8492298,23.3095787 C51.4284564,23.3095787 53.0245236,20.9948881 53.0245236,15.8041316 C53.0245236,13.4873444 53.0313376,3.62501194 53.0313376,3.62501194 L53.0281927,2.4396241 C53.0279306,2.36991082 53.0557111,2.30308042 53.104458,2.25380938 C53.153729,2.20453834 53.2205594,2.17675786 53.2900106,2.17675786 L63.3821872,2.16208138 L63.3824493,2.16208138 C63.4519005,2.16208138 63.5187309,2.18959978 63.5677399,2.23887082 C63.6170109,2.28787978 63.6445293,2.35471018 63.6445293,2.42442346 C63.6445293,2.42442346 63.6371911,15.5651147 63.6371911,15.805442 C63.6371911,24.3864654 57.5875984,29.7171726 47.8492298,29.7171726 C43.1543287,29.7171726 39.3719901,28.7901956 36.6075703,26.9621876 C34.3974496,25.5010916 32.8365012,23.4759995 31.9587952,20.9348718 C30.3671834,26.0954891 26.0101034,29.417091 20.1334836,29.8841175 C19.6897821,29.9194983 19.2555156,29.9373198 18.8430016,29.9373198 L18.8430016,29.9373198 Z" id="Fill-9" fill="#E8ECED" fill-rule="nonzero"></path>
                        <g id="Fill-11-Clipped" transform="translate(0.000000, 0.127109)">
                            <mask id="mask-2" fill="white">
                                <use xlink:href="#path-1"></use>
                            </mask>
                            <g id="path-1"></g>
                            <path d="M37.3437268,5.76473789 C35.9961114,5.77600733 35.2476109,6.14160893 35.2245479,6.29466365 C35.2502317,6.44667005 35.9997805,6.80178845 37.3539479,6.78501533 C38.6950113,6.77348381 39.4463946,6.40840637 39.4720785,6.25508957 C39.4458705,6.10413149 38.6805969,5.74613021 37.3437268,5.76473789 L37.3437268,5.76473789 Z M37.2829242,7.30943741 C36.194506,7.30943741 35.2628116,7.08064157 34.8966858,6.72106781 C34.7360308,6.56355773 34.7011741,6.40421309 34.7003398,6.29885693 C34.6993396,6.19350077 34.7313133,6.03363197 34.8890855,5.87323901 C35.2573079,5.49820253 36.2191415,5.25001277 37.3390093,5.24057789 C38.6098353,5.22773597 39.9894244,5.54065949 39.9962872,6.25063421 C39.9972868,6.35599037 39.9658372,6.51507293 39.8083271,6.67546589 C39.4403668,7.05076445 38.4787953,7.29947837 37.3586653,7.30917533 C37.3335057,7.30943741 37.3080839,7.30943741 37.2829242,7.30943741 L37.2829242,7.30943741 Z M13.8812769,10.1084518 L13.9847985,21.4960899 L16.8482845,21.470144 C17.9676282,21.4601849 18.8505757,20.8013158 19.4722295,19.5118822 C19.9688711,18.4821699 20.2574212,17.0724416 20.2445793,15.7408131 C20.2333098,14.4120675 19.9188138,13.0102016 19.4040887,11.9909724 C18.7635652,10.7238156 17.8779969,10.0817196 16.7714951,10.0817196 L16.7460733,10.0817196 L13.8812769,10.1084518 Z M13.7250772,22.0226086 C13.6564122,22.0226086 13.5903681,21.9958764 13.5413591,21.9476537 C13.491826,21.8989068 13.4637834,21.8326006 13.4629972,21.7628873 L13.3549984,9.85135133 C13.3537098,9.70668317 13.4698113,9.58822301 13.6144794,9.58691261 L16.7410938,9.55755965 L16.771233,9.55755965 C18.0735085,9.55755965 19.1448916,10.3165433 19.8719015,11.7543142 C20.4214833,12.8424704 20.7569457,14.3310848 20.7687393,15.7360956 C20.7823674,17.1442515 20.4744234,18.6409904 19.9444977,19.7396297 C19.2389783,21.2028224 18.1696919,21.9825104 16.8527399,21.994304 L13.7271738,22.0226086 L13.7250772,22.0226086 Z M2.1408791,0.658874684 C1.24246886,0.667281888 0.515983104,1.40713373 0.524227112,2.30842685 L0.551363904,29.568678 C0.560012544,30.4634192 1.29147782,31.1875462 2.18464646,31.1875462 L2.1998471,31.1875462 L19.0059892,31.101584 C24.541905,31.052575 29.3518593,28.5174752 31.8712343,24.3200019 C31.9170983,24.2437366 31.998081,24.196038 32.0869261,24.1928931 C32.1783921,24.1879136 32.2598989,24.231943 32.3110045,24.3048012 C32.4611764,24.5199689 32.6082033,24.7181014 32.7607338,24.9107302 C35.9067421,28.8930358 41.1161063,30.9569158 47.8284993,30.9055481 C53.1167495,30.8573254 57.4680637,29.4161475 60.4112221,26.7371657 C60.7915002,26.3901718 61.1542189,26.0193286 61.4894193,25.6351193 C61.8500413,25.2595587 64.9362954,21.8839683 64.9362954,16.2447929 L64.8712996,2.28090845 L64.8712996,2.28117053 C64.8686788,1.85083517 64.6907265,1.43019677 64.3835687,1.12670813 C64.0743143,0.825578208 63.6526276,0.667281888 63.2233405,0.658874684 L53.2928673,0.658874684 C52.394457,0.667806048 51.6679713,1.40713373 51.6760957,2.30737853 L51.7193389,15.2978979 C51.7767345,21.453895 49.0906765,21.4795788 47.7999325,21.4918966 C46.2471085,21.5123388 45.1254061,21.0484572 44.3664225,20.0887203 C42.5840164,17.8358806 43.0665057,13.4004387 43.3152196,12.1018323 C43.3107642,12.0619961 43.3152196,12.0208496 43.3301581,11.9807513 C43.3343514,11.9694819 43.3385447,11.9579504 43.3424759,11.9464188 C43.3534833,11.9136588 43.3602973,11.8882371 43.3637044,11.8751331 C43.3639665,11.8735606 43.3642285,11.8719881 43.3647527,11.8701536 C43.3650148,11.8698915 43.3650148,11.8696294 43.3650148,11.8691052 C43.3681597,11.858622 43.3718289,11.8481388 43.3760221,11.8381798 C43.493434,11.4086307 43.4297485,10.9536598 43.195449,10.5691884 C42.9027057,10.0809334 42.3696349,9.78032765 41.799873,9.78032765 L41.7836241,9.78032765 L33.2720519,9.85764125 L33.2696932,9.85764125 C33.1572609,9.85764125 33.0571463,9.78609341 33.0215034,9.67942685 C32.8430269,9.15133565 32.6307421,8.63241725 32.3725933,8.09410493 C32.3262052,7.99765949 32.3432404,7.88286845 32.4153124,7.80372029 C32.4876465,7.72483421 32.5998167,7.69731581 32.7004554,7.73531741 C33.8792913,8.17482557 35.5877908,8.41489085 37.3686244,8.40047645 C39.9810378,8.37688925 42.3431649,7.81236893 43.1126317,7.02717725 C43.2604449,6.87674333 43.3346135,6.72945437 43.333041,6.58924157 C43.3319927,6.44824253 43.2554653,6.30252605 43.1052935,6.15471293 C42.3389716,5.40070877 40.0523236,4.88493533 37.5077889,4.88493533 C37.4511796,4.88493533 37.3948324,4.88519741 37.3382231,4.88572157 C34.7832052,4.90878461 32.4412583,5.46518045 31.6429626,6.23884061 C31.5879258,6.29178077 31.5119226,6.31851293 31.4364436,6.31169885 C31.3601783,6.30462269 31.2909892,6.26452445 31.2466977,6.20241149 C30.7710225,5.53148669 30.3362317,5.00994749 29.8789021,4.56048029 C26.3670301,1.11098333 21.5502618,0.636094368 18.9965543,0.659681568 L2.1408791,0.658874684 Z M2.18386022,31.7117062 C1.0047623,31.7117062 0.038735424,30.7556384 0.027203904,29.5715609 L3.23307482e-05,2.31104765 C-0.010535616,1.12277693 0.948677184,0.145742688 2.13878246,0.134852131 L18.9939335,0.135521568 C21.6299341,0.113768928 26.5994951,0.604644768 30.2466004,4.18675421 C30.6719562,4.60503389 31.0771319,5.08044701 31.5077293,5.66829245 C32.551594,4.89070109 34.7771773,4.38462461 37.3337677,4.36156157 C37.3922116,4.36103741 37.4511796,4.36077533 37.5093613,4.36077533 C40.2205789,4.36077533 42.6031482,4.92529565 43.4729917,5.78098685 C43.7258989,6.02996285 43.8551044,6.30016733 43.857201,6.58426205 C43.860346,6.86809469 43.7355959,7.14091997 43.4871441,7.39435133 C42.6141556,8.28463709 40.1571556,8.89947677 37.3736039,8.92463645 C35.8024343,8.93695421 34.2760804,8.75638109 33.0959341,8.41593917 C33.2288087,8.72257277 33.3480551,9.02606141 33.4560321,9.33164669 L41.7789066,9.25616765 L41.8001351,9.25616765 C42.5528289,9.25616765 43.2578241,9.65400509 43.6438679,10.2981977 C43.965178,10.8247164 44.0430157,11.4531843 43.8632289,12.0402435 C43.6569719,12.9452057 43.0499946,17.5800905 44.7773639,19.7637411 C45.4288948,20.5879827 46.4046186,20.9879168 47.794953,20.9677366 C49.0015693,20.9562051 51.247857,20.9347145 51.1951789,15.3013049 L51.1519357,2.31026141 C51.1411905,1.12303901 52.1004033,0.146528928 53.2902465,0.134852131 L63.2207197,0.134852131 C63.7951991,0.141549408 64.3356081,0.348592608 64.7502186,0.752195808 C65.1574909,1.15396445 65.3917905,1.70957405 65.3954596,2.27802557 L65.3954596,2.27828765 L65.4604554,16.2434825 C65.4604554,21.9678339 62.4743159,25.3659632 61.8757252,25.9889273 C61.5363316,26.3786403 61.1594605,26.7638979 60.7642439,27.12452 C57.7238538,29.8920848 53.2525069,31.3804371 47.8329546,31.4297081 C40.961217,31.4923452 35.5995844,29.3495792 32.3497924,25.2359715 C32.2695959,25.1345465 32.1907098,25.0318112 32.1120858,24.9256688 C29.4475185,29.0798988 24.5817412,31.5764729 19.0096583,31.625744 L2.20351622,31.7117062 L2.18386022,31.7117062 Z" id="Fill-11" fill="#E8ECED" fill-rule="nonzero" mask="url(#mask-2)"></path>
                        </g>
                    </g>
                </g>
            </g>
        </g>
    </g>
</svg>