<?xml version="1.0" encoding="UTF-8"?>
<svg width="109px" height="29px" viewBox="0 0 109 29" version="1.1" xmlns="http://www.w3.org/2000/svg" xmlns:xlink="http://www.w3.org/1999/xlink">
    <title>complex</title>
    <g id="Analytics-landing" stroke="none" stroke-width="1" fill="none" fill-rule="evenodd">
        <g id="1920_Analytics-landing-update---EXT_Final" transform="translate(-1015.000000, -737.000000)" fill="#D5DDE0" fill-rule="nonzero">
            <g id="Partner_logos" transform="translate(-2.000000, 701.000000)">
                <g id="Logo" transform="translate(576.000000, 32.000000)">
                    <g id="complex" transform="translate(441.840000, 4.720000)">
                        <path d="M14.5422789,27.5536482 L6.01082194,27.5536482 C2.07598378,27.5536482 0,24.6340442 0,20.1903108 L0,7.60914328 C0,3.16741051 0.942098167,0 6.63058827,0 L8.80466097,0 C12.8188038,0 14.5703995,3.17180089 14.5703995,7.65288037 L14.5703995,10.1286112 L8.02495136,10.1286112 L8.02495136,6.12224873 C8.02495136,5.77140719 7.72912853,5.45424377 7.37828699,5.45424377 L7.29792633,5.45424377 C6.9470848,5.45424377 6.62308572,5.77140719 6.62308572,6.12224873 L6.62308572,21.2057117 C6.62308572,21.6347465 6.98782087,21.9043937 7.33871798,21.9043937 L14.4565831,21.9043937 L14.5422789,27.5536482 L14.5422789,27.5536482 Z M51.6514546,0.282707255 L51.6514546,27.5536482 L45.1061731,27.5536482 L45.1061731,15.2261226 L43.6063296,27.5536482 L39.2146139,27.5536482 L37.6042885,15.2261226 L37.6042885,27.5536482 L31.0811256,27.5536482 L31.0591737,0.282707255 L39.7296224,0.282707255 L41.3551752,12.6180134 L42.9633332,0.282707255 L51.6514546,0.282707255 Z M68.1604023,0.282596106 L74.7835436,0.282596106 L74.7835436,21.9043937 L79.3416492,21.9043937 L79.3416492,27.5535371 L68.1604023,27.5535371 L68.1604023,0.282596106 L68.1604023,0.282596106 Z M107.832505,0.28265168 L104.32698,13.4504076 L107.910643,27.5535927 L101.054589,27.5535927 L99.8080542,20.5410412 L98.366064,27.5535927 L92.4051475,27.5535927 L95.9898109,14.3852254 L92.4833407,0.28265168 L99.3399506,0.28265168 L100.469667,7.17816338 L101.872033,0.28265168 L107.832561,0.28265168 L107.832505,0.28265168 Z M21.8657695,6.24973653 L21.8657695,21.5399364 C21.8657695,21.9528546 22.2007723,22.2874128 22.649925,22.2874128 C23.0628433,22.2874128 23.3972347,21.9527434 23.3972347,21.5398253 L23.3972347,6.24962538 C23.3972347,5.83670718 23.0626765,5.5015932 22.6136349,5.5015932 C22.2008278,5.5015932 21.865825,5.83670718 21.865825,6.24962538 L21.8657695,6.24973653 Z M30.0426058,21.9435737 C30.0426058,25.878134 28.1332342,27.7872277 24.1981738,27.7872277 L21.081336,27.7872277 C17.1467758,27.7872277 15.2379043,25.8780785 15.2379043,21.9435737 L15.2379043,5.8925595 C15.2379043,1.95772134 17.1467202,0.0489055207 21.0812805,0.0489055207 L24.1980627,0.0489055207 C28.1331231,0.0489055207 30.0426058,1.95777691 30.0426058,5.8925595 L30.0426058,21.9435737 L30.0426058,21.9435737 Z M59.3600206,5.53977286 L59.3600206,11.9986361 L60.0470319,12.0021372 C60.4266054,12.0021372 60.7339322,11.6679125 60.7339322,11.254772 L60.7339322,6.28713814 C60.7339322,5.87449781 60.4266054,5.53977286 60.0470319,5.53977286 L59.3599649,5.53977286 L59.3600206,5.53977286 Z M59.3825282,16.9242001 L59.3825282,27.5536482 L52.7596092,27.5536482 L52.7596092,0.282707255 L61.4083838,0.282707255 C65.3429441,0.282707255 67.2520378,2.19152308 67.2520378,6.12608336 L67.2520378,11.0807128 C67.2520378,15.0154954 65.3428886,16.9241445 61.4083838,16.9241445 L59.3824726,16.9241445 L59.3825282,16.9242001 Z M80.0848464,0.207848463 L91.7864371,0.207848463 L91.7864371,5.86366078 L86.7158238,5.86366078 L86.7158238,10.8559141 L91.5919264,10.8559141 L91.5919264,16.5117265 L86.7158238,16.5117265 L86.7158238,21.854988 L91.8645747,21.854988 L91.8645747,27.5110226 L80.0848464,27.5110226 L80.0848464,0.207848463 L80.0848464,0.207848463 Z" id="Shape"></path>
                    </g>
                </g>
            </g>
        </g>
    </g>
</svg>