<?xml version="1.0" encoding="UTF-8"?>
<svg width="105px" height="20px" viewBox="0 0 105 20" version="1.1" xmlns="http://www.w3.org/2000/svg" xmlns:xlink="http://www.w3.org/1999/xlink">
    <title>Star</title>
    <g id="Analytics-landing" stroke="none" stroke-width="1" fill="none" fill-rule="evenodd">
        <g id="1920_Analytics-landing-update---EXT_Final" transform="translate(-396.000000, -576.000000)" fill-rule="nonzero">
            <g id="Banner_01" transform="translate(-0.730593, 73.000000)">
                <g id="Trustpilot" transform="translate(396.730593, 498.600000)">
                    <g id="Star" transform="translate(0.000000, 4.400000)">
                        <g id="Logo_Trustpilot">
                            <polygon id="Path" fill="#00B67A" points="20.3065344 7.3764864 12.5485056 7.3764864 10.1603328 -4.0163286e-15 7.7580288 7.3764864 0 7.3623552 6.2742528 11.9267328 3.8719488 19.3032192 10.1462016 14.7388416 16.4204544 19.3032192 14.0322816 11.9267328"></polygon>
                            <polygon id="Path" fill="#005128" points="14.5692672 13.5942144 14.0322816 11.9267328 10.1603328 14.7388416"></polygon>
                        </g>
                        <g id="Logo_Trustpilot-Copy" transform="translate(20.800000, 0.000000)">
                            <polygon id="Path" fill="#00B67A" points="20.3065344 7.3764864 12.5485056 7.3764864 10.1603328 -4.0163286e-15 7.7580288 7.3764864 0 7.3623552 6.2742528 11.9267328 3.8719488 19.3032192 10.1462016 14.7388416 16.4204544 19.3032192 14.0322816 11.9267328"></polygon>
                            <polygon id="Path" fill="#005128" points="14.5692672 13.5942144 14.0322816 11.9267328 10.1603328 14.7388416"></polygon>
                        </g>
                        <g id="Logo_Trustpilot-Copy-2" transform="translate(41.600000, 0.000000)">
                            <polygon id="Path" fill="#00B67A" points="20.3065344 7.3764864 12.5485056 7.3764864 10.1603328 -4.0163286e-15 7.7580288 7.3764864 0 7.3623552 6.2742528 11.9267328 3.8719488 19.3032192 10.1462016 14.7388416 16.4204544 19.3032192 14.0322816 11.9267328"></polygon>
                            <polygon id="Path" fill="#005128" points="14.5692672 13.5942144 14.0322816 11.9267328 10.1603328 14.7388416"></polygon>
                        </g>
                        <g id="Logo_Trustpilot-Copy-3" transform="translate(62.400000, 0.000000)">
                            <polygon id="Path" fill="#00B67A" points="20.3065344 7.3764864 12.5485056 7.3764864 10.1603328 -4.0163286e-15 7.7580288 7.3764864 0 7.3623552 6.2742528 11.9267328 3.8719488 19.3032192 10.1462016 14.7388416 16.4204544 19.3032192 14.0322816 11.9267328"></polygon>
                            <polygon id="Path" fill="#005128" points="14.5692672 13.5942144 14.0322816 11.9267328 10.1603328 14.7388416"></polygon>
                        </g>
                        <g id="Logo_Trustpilot-Copy-4" transform="translate(83.200000, 0.000000)">
                            <polygon id="Path" fill="#00B67A" points="20.3065344 7.3764864 12.5485056 7.3764864 10.1603328 -4.0163286e-15 7.7580288 7.3764864 0 7.3623552 6.2742528 11.9267328 3.8719488 19.3032192 10.1462016 14.7388416 16.4204544 19.3032192 14.0322816 11.9267328"></polygon>
                            <polygon id="Path" fill="#005128" points="14.5692672 13.5942144 14.0322816 11.9267328 10.1603328 14.7388416"></polygon>
                        </g>
                    </g>
                </g>
            </g>
        </g>
    </g>
</svg>