<?xml version="1.0" encoding="UTF-8"?>
<svg width="146px" height="31px" viewBox="0 0 146 31" version="1.1" xmlns="http://www.w3.org/2000/svg" xmlns:xlink="http://www.w3.org/1999/xlink">
    <title>mixmag</title>
    <g id="Analytics-landing" stroke="none" stroke-width="1" fill="none" fill-rule="evenodd">
        <g id="1920_Analytics-landing-update---EXT_Final" transform="translate(-1332.000000, -743.000000)" fill="#D5DDE0" fill-rule="nonzero">
            <g id="Partner_logos" transform="translate(-2.000000, 701.000000)">
                <g id="Logo" transform="translate(576.000000, 32.000000)">
                    <g id="mixmag" transform="translate(758.000000, 10.000000)">
                        <path d="M133.661916,0.0938919738 C135.828211,0.0938919738 137.836257,0.817396334 139.485704,2.05046261 L139.485492,0.485108531 L146,0.485108531 L146,21.8064109 L145.990952,21.8064936 C145.754157,26.9186397 140.899349,31 134.945077,31 C129.692933,31 125.296242,27.8244353 124.169843,23.5670114 L131.114428,23.5669822 C131.859168,24.962928 133.339363,25.9141848 135.043782,25.9141848 C137.397339,25.9141848 139.323355,24.1003622 139.475772,21.8064936 L139.485492,21.8064109 L139.485704,19.8498403 C137.836257,21.0829065 135.828211,21.8064109 133.661916,21.8064109 C128.047068,21.8064109 123.495335,16.9458981 123.495335,10.9501514 C123.495335,4.95440482 128.047068,0.0938919738 133.661916,0.0938919738 Z M109.874091,0.0938919738 C112.247255,0.0938919738 114.435878,0.913722848 116.191256,2.29532388 L116.19119,0.485108531 L122.705698,0.485108531 L122.705698,21.8064109 L116.19119,21.8064109 L116.191256,19.604979 C114.435878,20.98658 112.247255,21.8064109 109.874091,21.8064109 C104.095704,21.8064109 99.4113957,16.9458981 99.4113957,10.9501514 C99.4113957,4.95440482 104.095704,0.0938919738 109.874091,0.0938919738 Z M22.6704887,0 C26.2751832,0 32.2251007,2.71113074 32.2251007,9.03710247 L32.2251007,9.03710247 L32.1382406,21.8064109 L26.0146029,21.8064109 L25.9711728,9.55350833 C25.9711728,7.74608783 24.494551,6.23990409 22.6704887,6.23990409 C20.8029963,6.23990409 19.3263744,7.74608783 19.3263744,9.55350833 L19.3263744,9.55350833 L19.2395143,21.8064109 L13.0724465,21.8064109 L12.9855864,9.55350833 C12.9855864,7.40181726 11.899835,6.23990409 9.68490224,6.23990409 C7.86083994,6.23990409 6.38421807,7.74608783 6.38421807,9.55350833 L6.38421807,9.55350833 L6.29735796,21.8064109 L0,21.8064109 L0.0434300549,9.03710247 C0.0434300549,2.71113074 6.08020769,0 9.68490224,0 C11.5958247,0 14.1581979,0.731574962 16.1559804,2.40989399 C18.1537629,0.731574962 20.7595662,0 22.6704887,0 Z M88.6052084,0 C92.2099029,0 98.1598204,2.71113074 98.1598204,9.03710247 L98.1598204,9.03710247 L98.0729603,21.8064109 L91.9493226,21.8064109 L91.9058925,9.55350833 C91.9058925,7.74608783 90.4292707,6.23990409 88.6052084,6.23990409 C86.737716,6.23990409 85.2610941,7.74608783 85.2610941,9.55350833 L85.2610941,9.55350833 L85.174234,21.8064109 L79.0071662,21.8064109 L78.9203061,9.55350833 C78.9203061,7.40181726 77.8345547,6.23990409 75.6196219,6.23990409 C73.7955596,6.23990409 72.3189378,7.74608783 72.3189378,9.55350833 L72.3189378,9.55350833 L72.2320777,21.8064109 L65.9347197,21.8064109 L65.9781498,9.03710247 C65.9781498,2.71113074 72.0149274,0 75.6196219,0 C77.5305444,0 80.0929176,0.731574962 82.0907001,2.40989399 C84.0884827,0.731574962 86.6942859,0 88.6052084,0 Z M40.5952568,8.07862191 L40.5952568,21.8064109 L34.0807485,21.8064109 L34.0807485,8.07862191 L40.5952568,8.07862191 Z M49.8655994,0.320797577 L53.6716515,5.91910651 L53.8019416,5.91910651 L57.1500041,0.320797577 L64.8371238,0.320797577 L57.1421077,10.6293539 L65.243787,21.8064109 L57.3829471,21.8064109 L52.8820141,15.0853104 L52.795154,15.0853104 L48.6219205,21.8064109 L41.2822413,21.8064109 L49.435247,10.0933872 L42.3521999,0.320797577 L49.8655994,0.320797577 Z M111.058547,5.57092378 C108.005814,5.57092378 105.531085,8.02307444 105.531085,11.0479556 C105.531085,14.0728367 108.005814,16.5249874 111.058547,16.5249874 C113.385074,16.5249874 115.375887,15.1007385 116.191406,13.0841613 L116.191406,9.01174988 C115.375887,6.99517269 113.385074,5.57092378 111.058547,5.57092378 Z M134.747668,5.57092378 C131.803961,5.57092378 129.417615,8.02307444 129.417615,11.0479556 C129.417615,14.0728367 131.803961,16.5249874 134.747668,16.5249874 C136.810468,16.5249874 138.599577,15.3208596 139.485635,13.5593178 L139.485635,8.53659331 C138.599577,6.77505156 136.810468,5.57092378 134.747668,5.57092378 Z M37.4248628,0.485108531 C39.1692815,0.485108531 40.5834122,1.88633748 40.5834122,3.61484099 C40.5834122,5.3433445 39.1692815,6.74457345 37.4248628,6.74457345 C35.6804441,6.74457345 34.2663133,5.3433445 34.2663133,3.61484099 C34.2663133,1.88633748 35.6804441,0.485108531 37.4248628,0.485108531 Z" id="Combined-Shape"></path>
                    </g>
                </g>
            </g>
        </g>
    </g>
</svg>