<?xml version="1.0" encoding="UTF-8"?>
<svg width="96px" height="32px" viewBox="0 0 96 32" version="1.1" xmlns="http://www.w3.org/2000/svg" xmlns:xlink="http://www.w3.org/1999/xlink">
    <title>vice-ar21</title>
    <g id="Analytics-landing" stroke="none" stroke-width="1" fill="none" fill-rule="evenodd">
        <g id="1920_Analytics-landing-update---EXT_Final" transform="translate(-849.000000, -736.000000)" fill="#D5DDE0" fill-rule="nonzero">
            <g id="Partner_logos" transform="translate(-2.000000, 701.000000)">
                <g id="Logo" transform="translate(576.000000, 32.000000)">
                    <g id="vice-ar21" transform="translate(275.520000, 3.040000)">
                        <path d="M29.399496,30.4695955 C25.9407389,30.1545404 23.6488842,28.5150553 23.1822945,26.0237228 C23.0846959,25.5014847 23.1035307,24.2566746 23.2165396,23.7858042 C23.2465041,23.6608095 23.2627705,23.5589303 23.252497,23.5589303 C23.2422234,23.5589303 22.7148486,23.9424756 22.0796016,24.4116338 C19.6225142,26.2266252 17.6003399,27.5022559 15.5516256,28.5296095 C13.1887123,29.7144906 11.8129146,30.0655031 9.5219161,30.0706399 C7.96718765,30.0732083 7.01346106,29.8942775 5.9998055,29.4114213 C4.43309126,28.6640216 3.70110182,27.5330765 3.70110182,25.8627708 C3.70110182,25.0468808 3.77558496,24.7044296 4.08807168,24.0905858 L4.357752,23.4947207 C4.357752,23.4587633 4.14029549,23.0341238 3.87403968,22.5504115 C2.92630598,20.8270259 1.7619719,18.239807 0.85190784,15.8349435 C-1.23704448,10.3112056 1.22432352,5.49634176 7.43125152,2.95877837 C7.85931552,2.78412826 8.91920198,2.29356691 9.78988416,1.8680713 C11.5809039,0.992252352 11.7461366,0.919481472 12.5466163,0.660930816 C14.1236041,0.151534656 15.5653236,0.313342848 16.7356506,1.13180122 C17.4362069,1.67668724 17.9336334,2.44091522 18.1482618,3.3020857 C18.1859315,3.49557062 18.2355869,3.72501293 18.2578462,3.81319411 L18.2980842,3.97243392 L18.7758036,3.82689216 C20.6901059,3.24643738 22.8903548,2.75159539 24.5666534,2.5255776 C25.7583836,2.36462554 28.389265,2.32866816 29.3549773,2.45965574 L29.9028993,2.53413888 L30.3361,2.24990438 C32.6390844,0.737126208 36.5036461,0.691751424 42.1121407,2.1129239 C43.8928869,2.56410336 44.8774341,2.86631654 45.8448588,3.25756704 C47.6769727,3.99983002 47.7557364,3.9964055 49.3036159,3.09147821 C50.8086889,2.21137862 53.3899148,1.22854368 55.4566078,0.747399744 C56.8366861,0.426351744 57.7133612,0.32960928 59.2835,0.327844552 C61.0454114,0.32532864 61.7234648,0.416078208 62.9194756,0.814177728 C64.0949393,1.20542822 64.400577,1.24224173 65.3765629,1.11125414 C66.4347372,0.969993024 69.5835759,0.917769216 71.4019918,1.01279942 C75.7922162,1.2413856 78.8562983,1.69770182 86.7155533,3.2900999 L94.0885277,4.69757434 L94.4172808,4.74894202 L94.4112879,4.96982304 C94.4078634,5.09139322 94.3539274,5.25748205 94.29143,5.34052646 C93.7743287,6.02714112 91.4388115,8.94311309 90.873767,9.60918067 C89.9251772,10.7264277 88.6709497,11.9892165 87.8054043,12.6912415 L87.094818,13.2734085 L87.1350561,13.9137923 C87.181287,14.6397888 87.0956742,15.5233129 86.9312976,16.0172988 L86.8234255,16.3409151 L87.3242604,16.9915724 C87.8670455,17.697878 88.3276424,18.4341481 88.5228396,18.9195727 L88.6512588,19.2277788 L88.5314008,19.7688516 C87.723216,23.403115 85.9013756,25.7959928 82.8997908,27.1657976 C80.5925259,28.218835 74.2340632,29.6725404 69.8412705,30.1536843 C67.4441121,30.4165156 64.1788399,30.4747323 62.6172624,30.2821035 C60.0814113,29.9704729 58.2852547,29.3942988 56.8983274,28.4457089 L56.4034854,28.1075384 L55.912924,28.372938 C54.3958652,29.1913964 52.2144511,29.8283556 49.7804792,30.1622456 C48.6075838,30.3249099 45.7763685,30.3908317 44.5795016,30.2846719 C41.7542792,30.0346825 39.3194511,29.3018369 37.7107866,28.2171228 C37.5138772,28.085279 37.3392271,27.9774069 37.3212484,27.9774069 C37.3032697,27.9774069 37.1097848,28.1486325 36.8931844,28.3558155 C35.8178876,29.3848813 34.1766902,30.0920431 32.2230061,30.3677163 C31.4242387,30.4807252 30.0792616,30.5261 29.3909347,30.4636026 L29.399496,30.4695955 Z M31.9096633,27.0707674 C33.1253651,26.9303624 34.0131698,26.6101705 34.4035642,26.171833 C34.703209,25.8362308 34.8915571,25.4826499 35.2819515,24.5409091 C35.4702996,24.0837368 35.9223352,23.1026141 36.2836212,22.3577827 L36.9428398,21.0051005 L36.9822217,21.4177542 C37.204815,23.7592643 38.5146908,25.2018399 41.2594372,26.1264582 C44.1873949,27.1127176 46.6821519,27.2907923 49.7299676,26.7325968 C52.3291722,26.2557335 55.2554177,25.1342058 57.9539332,23.5820458 L58.6431162,23.1967882 C58.6533898,23.1967882 58.6499652,23.5332465 58.6362672,23.945044 C58.5780505,25.71038 59.0840221,26.1675523 61.658399,26.6760924 C64.0666871,27.1529556 66.8705063,27.2034672 69.8198673,26.8242025 C72.4430435,26.4868881 78.4941562,25.1265007 80.5659859,24.4082093 C83.2045724,23.4938646 84.4442458,22.2875802 84.9921677,20.10531 L85.1377094,19.5299919 L85.0092902,19.4246882 C84.8123808,19.2534626 84.2011054,19.0933667 83.6394854,19.0462796 C82.5111087,18.9606668 81.0368563,19.2046633 78.1773888,19.9828836 C75.3795625,20.7448376 74.0696867,20.9845534 72.32661,21.0547559 C70.4628194,21.1300952 68.2942472,20.7379885 68.04597,20.2825284 C67.9055651,20.0154165 68.0314159,19.6233099 68.3284923,19.4007166 C69.3130395,18.6644465 70.8523576,18.4221623 75.1817969,18.3185708 C79.6268135,18.2124109 81.1490091,17.9007804 82.4623094,16.8289081 C83.4151799,16.0498316 83.970807,14.9505633 83.8449562,14.0944353 C83.6840041,13.0071527 82.1909169,12.3350922 80.1413464,12.4284102 C79.1542308,12.473785 78.453062,12.6056287 76.40606,13.1304351 C75.5028449,13.3615897 74.4686423,13.5961688 74.1073563,13.650961 C73.1510613,13.7947905 71.2821339,13.7793802 71.0381374,13.6252771 C70.9850575,13.591032 70.995331,13.5276785 71.0843683,13.3735755 C71.149434,13.2597105 71.3009687,12.9241083 71.4216828,12.6270319 C71.6528373,12.0534261 71.8497468,11.7041259 72.0124111,11.5671454 C72.1493916,11.4515681 74.2177968,11.5114971 76.198877,11.6887156 C77.9539394,11.8462431 80.3117159,11.8770637 81.1541459,11.7554936 C83.7798904,11.3753727 85.7207326,10.3317527 87.4894931,8.35666541 C87.7131841,8.10426538 87.9429797,7.85734215 88.1786761,7.61611469 C88.3276424,7.46886067 88.4166797,7.32674342 88.4166797,7.2342816 C88.4166797,7.07504179 88.3687365,7.05021408 87.9389603,6.98771674 C87.3199797,6.89696717 85.2524306,6.50828506 83.1018371,6.0785088 C77.9804794,5.0511552 75.6346886,4.66846598 72.627111,4.3662528 C71.1331676,4.2164304 66.841398,4.21214976 65.7232948,4.35769152 C64.6616961,4.49724038 64.5503994,4.55802547 63.1977172,5.7634537 C63.0145058,5.9346793 62.8492731,6.04426368 62.8295821,6.02542886 C62.8098912,6.00659405 62.8766692,5.72321568 62.9751239,5.39531866 C63.0598684,5.12468416 63.133839,4.85079305 63.1968611,4.5742919 C63.2456604,4.30375546 63.2439481,4.3020432 62.2183068,4.03664352 C58.862285,3.1676736 55.2870945,3.8311728 50.6571542,6.17867578 C46.4390116,8.31899578 43.4374268,10.3437385 40.7175082,12.8864387 L40.1695862,13.3975471 L40.5993625,12.6741189 C41.6232916,10.9498771 42.4331887,9.80180947 43.9588088,7.90976659 C45.0418107,6.56564563 45.1077325,6.47403994 45.0049972,6.43722643 C44.3671818,6.20778413 39.9024743,5.12563834 38.1499803,4.77633811 C36.5378913,4.45357786 35.2708218,4.33371994 34.2974043,4.40991533 C33.1159476,4.50408941 32.4533046,4.7729136 31.7153222,5.46295277 C30.9473754,6.18210029 30.7795743,6.2223383 29.7291053,5.95094573 C28.0742099,5.52545011 25.8850906,5.59650874 22.9870973,6.1701145 C18.8665532,6.98600448 17.400006,7.76080032 17.2724429,9.1879657 C17.2510397,9.43196218 17.2964145,9.80437786 17.4333949,10.4978415 C17.7621481,12.1604421 17.654276,12.5183036 16.0653024,15.0396006 C15.3581407,16.1628405 14.9780198,16.6559702 14.5499558,17.0112634 C14.1775402,17.3194694 13.7982755,17.5249402 13.7297852,17.4547377 C13.5885241,17.3109082 13.4832204,15.8709009 13.514041,14.4959593 C13.5551351,12.6552841 13.9044353,10.4618842 14.6612525,7.28479315 C14.9377818,6.12302746 15.0037037,5.00064365 14.8410394,4.25581229 L14.738304,3.78494189 L14.2220588,3.81918701 C13.4429823,3.86884243 13.0423144,4.02722611 11.40711,4.92616051 C10.7457109,5.27087384 10.0683222,5.58399829 9.37723046,5.8644768 C6.67015373,6.96032064 5.39794752,7.73083584 4.55722982,8.78815392 C3.74647661,9.80694624 3.41857958,10.8942288 3.48193306,12.3607761 C3.52131494,13.2853943 3.63261158,13.6852061 4.4005584,15.6483076 C5.63851949,18.8159812 6.43814304,20.4152283 7.91924448,22.694241 C8.29337242,23.2704152 8.59986624,23.7678255 8.59986624,23.7986461 C8.59986624,23.8294668 8.28309888,24.1779108 7.89441677,24.5691613 C7.34649485,25.1239323 7.17355699,25.3371082 7.11790867,25.5314492 C7.00661203,25.9184191 7.02887136,26.0160177 7.26773107,26.2163516 C7.66154995,26.5451048 8.09817523,26.6572575 9.11953594,26.6915027 C11.3026623,26.7642735 13.0440267,26.1812504 16.283615,24.292632 C19.8262727,22.2276513 21.8022161,20.4272141 26.0366252,15.4060234 L27.7916876,13.2853943 C28.4620358,12.440396 28.6880536,12.1963995 28.9988281,11.9772307 L29.2471052,11.8017245 L29.3181638,12.1184918 C29.3566896,12.293142 29.4020644,12.8316465 29.4183308,13.3145027 C29.4696985,14.8358421 29.2608033,15.6894017 28.2505722,18.0831356 C26.7865933,21.550454 26.1684689,24.1667812 26.5006466,25.4749448 C26.7215276,26.3464831 27.747169,26.8550231 29.7650627,27.0930267 C30.480985,27.1373538 31.1991886,27.129342 31.9139439,27.0690551 L31.9096633,27.0707674 Z M48.0288413,21.3775162 C46.7925924,21.0984184 46.1265249,20.4075231 46.1299362,19.4058534 C46.1316616,18.868205 46.2129938,18.5702724 46.5443153,17.8930752 C47.1846991,16.5831994 48.1058928,15.4359878 50.1015272,13.4754547 C50.8335166,12.7563072 51.6596801,11.9087405 51.9370656,11.5919731 C52.2144511,11.2752058 52.4507424,11.0269286 52.4644404,11.0397706 C52.5046785,11.0800086 52.1391118,12.3950212 51.6194421,14.0764566 C51.1699749,15.5318742 50.7461916,17.0215369 50.7461916,17.1482438 C50.7461916,17.2749508 52.6938828,17.1516684 55.611567,16.8289081 L58.3451837,16.5498104 C58.8845443,16.5121407 58.9384804,16.4967304 59.0386474,16.3511887 C59.1824769,16.145718 59.423905,15.5592703 59.5523242,15.102954 C59.6079725,14.9026201 59.6738943,14.7176964 59.6978659,14.6920126 C59.7577949,14.6260908 60.0231946,15.1423359 60.1892834,15.6483076 C60.360509,16.1962295 60.3904735,17.4427519 60.2260969,17.8143114 C60.1284983,18.0343363 60.1165125,18.0411853 59.8168677,18.0411853 C58.628562,18.0411853 57.0721213,18.4992138 55.1338476,19.4195514 C51.6083124,21.0924255 50.8044083,21.3603936 49.164067,21.4057684 C48.6717934,21.4194664 48.160685,21.4066245 48.0296974,21.37666 L48.0288413,21.3775162 Z M61.4015606,10.119433 C61.4255322,10.059504 61.5770669,9.63144 61.7388751,9.16399411 L62.1301256,8.05530835 L62.226868,7.79504544 L62.4117917,7.97312006 C62.6968823,8.24879328 63.1395005,8.44399046 64.1437386,8.73935462 C64.9913053,8.98763174 65.7309999,9.2675856 65.7309999,9.33864422 C65.7309999,9.38829965 65.1317103,9.49874016 63.8817635,9.68451994 C62.7028752,9.85831392 61.8869852,10.0235466 61.5299798,10.1622394 C61.3758768,10.2221683 61.363891,10.2170316 61.4015606,10.1211452 L61.4015606,10.119433 Z" id="Shape"></path>
                    </g>
                </g>
            </g>
        </g>
    </g>
</svg>