<?xml version="1.0" encoding="utf-8"?>
<!-- Generator: Adobe Illustrator 24.0.1, SVG Export Plug-In . SVG Version: 6.00 Build 0)  -->
<svg version="1.1" id="Capa_1" xmlns="http://www.w3.org/2000/svg" xmlns:xlink="http://www.w3.org/1999/xlink" x="0px" y="0px"
	 width="260.4px" height="260.4px" viewBox="0 0 260.4 260.4" style="enable-background:new 0 0 260.4 260.4;" xml:space="preserve"
	>
<style type="text/css">
	.st0{fill:#D5DDE0;}
</style>
<path class="st0" d="M34.7,0.2C15.6,0.2,0,15.7,0,34.9C0,54,15.6,69.6,34.7,69.6c19.1,0,34.7-15.6,34.7-34.7
	C69.4,15.8,53.8,0.2,34.7,0.2z"/>
<path class="st0" d="M60.7,83.5H8.7c-2.5,0-4.5,2-4.5,4.5v167.7c0,2.5,2,4.5,4.5,4.5h52.1c2.5,0,4.5-2,4.5-4.5V88
	C65.2,85.5,63.2,83.5,60.7,83.5z"/>
<path class="st0" d="M193.9,81.6c-19.1,0-35.8,5.8-46,15.3V88c0-2.5-2-4.5-4.5-4.5h-50c-2.5,0-4.5,2-4.5,4.5v167.7
	c0,2.5,2,4.5,4.5,4.5h52c2.5,0,4.5-2,4.5-4.5v-83c0-23.8,4.4-38.6,26.2-38.6c21.5,0,23.1,15.8,23.1,40v81.5c0,2.5,2,4.5,4.5,4.5
	h52.1c2.5,0,4.5-2,4.5-4.5v-92C260.4,125.5,252.8,81.6,193.9,81.6z"/>
</svg>
