<svg width="182" height="31" xmlns="http://www.w3.org/2000/svg"><g fill="none" fill-rule="evenodd"><path fill="none" d="M0 0h182v31H0z"/><g fill="#DEDEDE"><path d="M0 .124c.964-.12 25.612-.17 30.547-.073.152.003.305.026.424.038.046.057.066.076.078.098a.154.154 0 0 1 .028.07l.015 30.312c0 .102-.021.203-.037.347-.154.027-.3.065-.448.075-.184.014-.369.004-.553.004l-29.04-.001c-.31 0-.625.032-.953-.047-.023-.125-.059-.222-.059-.32C0 20.472 0 10.32 0 .123m15.2 15.937c-.123-.364-.208-.604-.284-.847a4.069 4.069 0 0 1-.091-2.16c.174-.78.498-1.49.998-2.107a41.451 41.451 0 0 1 1.598-1.83c.21-.23.32-.446.273-.77a12.738 12.738 0 0 0-.825-3.012c-.025-.061-.108-.099-.171-.154-.411 1.026-1.054 1.874-1.79 2.66-.699.746-1.376 1.508-1.907 2.388-.288.476-.482.987-.636 1.513-.086.297-.168.62-.14.92.074.795.349 1.51.928 2.105.544.558 1.19.933 2.047 1.294m1.153 0c1.25.149 2.346-.025 3.352-.606.99-.573 1.63-1.458 2.066-2.493.369-.873.515-1.8.637-2.731.015-.118-.02-.243-.038-.407-.107.067-.178.096-.23.145-.673.62-1.364 1.212-2.178 1.656-.55.3-1.087.636-1.589 1.01-1.122.837-1.74 1.985-2.02 3.426m3.473-9.07c-.132.216-.247.386-.34.566-.366.703-.814 1.323-1.477 1.797a8.826 8.826 0 0 0-1.795 1.748c-1.029 1.31-1.188 2.74-.576 4.272.039.096.077.197.23.17.023-.065.055-.134.074-.206.02-.075.024-.155.043-.23.246-.96.712-1.795 1.449-2.464a7.135 7.135 0 0 1 1.556-1.056c.303-.156.6-.323.91-.463.434-.194.63-.526.637-.987.003-.156.033-.313.021-.467a6.956 6.956 0 0 0-.732-2.68m-5.806 9.107c-.202-.16-.406-.316-.604-.48-.68-.567-1.182-1.25-1.41-2.118-.286-1.096-.074-2.12.42-3.108.094-.187.23-.355.306-.547.054-.135.09-.314.047-.444-.18-.543-.367-1.088-.688-1.636-.08.145-.156.246-.196.359-.229.648-.54 1.256-1.014 1.753-.991 1.038-1.098 2.3-.86 3.59.206 1.124.964 1.883 2.024 2.332.61.26 1.255.336 1.975.3m1.586 10.992c.063-.226.135-.396.157-.572.323-2.579.638-5.157.954-7.735a.133.133 0 0 0-.016-.073c-.012-.023-.034-.04-.047-.054-.82-.119-1.88-.102-2.438.05.015.322.012.657.048.989.202 1.807.414 3.613.62 5.42.062.542.108 1.085.168 1.627.031.273.088.306.554.348m-2.316-9.213c.79.112 3.418.106 4.07-.007a2.572 2.572 0 0 0-.012-1.14c-.16-.01-.286-.028-.412-.028a404.06 404.06 0 0 0-3.217.002c-.145.002-.29.054-.462.087 0 .244-.004.451.001.658.003.129.018.257.032.428M62.81 16.653c.595-1.635.95-3.159 1.493-4.64a5.903 5.903 0 0 1 1.548.01c-.169.834-.497 1.57-.747 2.33-.261.793-.537 1.583-.808 2.375-.26.764-.522 1.527-.78 2.277-.465.114-.882.04-1.321.064-.097-.211-.195-.392-.263-.582-.38-1.059-.75-2.12-1.127-3.178-.067-.189-.15-.373-.254-.632-.393.74-.57 1.478-.838 2.18-.268.706-.51 1.422-.769 2.148-.467.105-.901.075-1.38.024a475.753 475.753 0 0 1-2.32-6.665c-.021-.066-.002-.146-.002-.247.114-.018.215-.049.315-.05.419-.005.838-.002 1.276-.002.074.169.152.303.194.446.354 1.204.7 2.408 1.05 3.613l.129.423c.308-.365.345-.764.48-1.119.148-.39.264-.793.397-1.19.123-.371.25-.742.376-1.113l.378-1.094c.466-.092.881-.067 1.34-.028.08.179.176.36.241.551.378 1.114.747 2.23 1.121 3.345.066.197.14.392.27.754M118.532 12.068h1.204c.17 0 .304.073.407.203.098.123.19.25.286.376.741.982 1.481 1.966 2.225 2.947.122.162.255.317.381.471.214-.122.155-.29.157-.428.005-.994 0-1.987.005-2.981.001-.202.03-.405.049-.63.192-.02.345-.049.498-.052.338-.005.678.003 1.03.005.039.143.087.24.087.337.005 2.119.005 4.236.003 6.355 0 .1-.026.2-.047.34-.424.102-.838.045-1.286.05-.148-.167-.31-.334-.455-.515-.848-1.066-1.69-2.137-2.537-3.203-.125-.157-.27-.3-.487-.537-.1 1.463.015 2.81-.07 4.18-.478.126-.93.11-1.369.021-.038-.083-.078-.13-.078-.176-.004-2.222-.003-4.444-.003-6.763M45.284 19.046h-1.3c-1.16-1.34-2.266-2.764-3.427-4.128-.236.112-.167.287-.167.423-.008.995-.002 1.99-.007 2.985-.001.23.045.472-.11.697-.385.072-.771.054-1.19.014-.03-.114-.076-.209-.076-.304-.005-2.094-.007-4.19-.005-6.283 0-.1.033-.199.053-.312.375-.132.744-.076 1.104-.053.115.007.243.097.33.184.147.147.27.32.4.485.793 1.01 1.583 2.024 2.381 3.031.107.136.17.337.434.35.059-1.352-.008-2.701.04-4.091.517-.117 1.002-.08 1.516-.035.029.111.075.207.075.304.005 2.12.006 4.24.004 6.361 0 .1-.029.2-.055.372M93.57 16.55c.507.864 1.11 1.587 1.608 2.44-.317.131-.6.062-.871.076-.261.013-.522.003-.803.003l-1.609-2.23c-.39-.09-.749-.082-1.161-.005-.024.148-.063.293-.067.44-.008.418 0 .836-.006 1.254-.002.151-.024.302-.04.486-.465.09-.897.06-1.274.033-.074-.07-.097-.085-.11-.107a.172.172 0 0 1-.02-.075c-.008-2.115-.016-4.23-.02-6.347 0-.103.024-.205.041-.308.004-.022.028-.04.07-.102.146-.014.324-.041.502-.043.814-.005 1.628-.009 2.442.002.314.005.628.038.94.079 1.072.141 1.84.989 1.899 2.061.052.954-.316 1.672-1.159 2.143l-.362.2m-2.658-3.102c-.135.757-.13 1.348.013 1.976.504.033 1.024.036 1.544.002.154-.01.31-.066.454-.126.378-.156.562-.452.55-.865-.012-.402-.18-.712-.572-.854a2.073 2.073 0 0 0-.611-.127c-.446-.019-.892-.006-1.378-.006M148.305 12.095c.2-.013.354-.03.507-.03.815-.003 1.63-.011 2.443.002.366.007.734.041 1.096.097.898.14 1.62.871 1.77 1.762.177 1.044-.185 1.844-1.087 2.4-.11.066-.224.125-.38.213.08.154.139.293.221.416.367.542.741 1.078 1.109 1.62.085.125.153.262.269.462-.59.052-1.106.028-1.655.021-.62-.694-1.079-1.52-1.7-2.277-.258 0-.518-.005-.778.003-.1.003-.2.035-.347.062-.133.7.015 1.409-.093 2.122-.426.192-.867.07-1.34.085-.034-.133-.09-.252-.09-.37-.005-2.091-.004-4.182-.001-6.273 0-.076.026-.153.056-.315Zm1.589 3.345c.575 0 1.068.008 1.56-.005a1.53 1.53 0 0 0 .454-.109c.43-.15.632-.442.624-.88-.008-.446-.21-.733-.628-.888-.073-.028-.147-.064-.223-.07-.589-.052-1.18-.102-1.787.037v1.915ZM83 11.94c.88.003 1.665.262 2.359.783 1.758 1.317 1.88 3.906.365 5.385-1.947 1.9-5.356 1.292-6.182-1.457-.646-2.15.543-4.044 2.374-4.542.35-.095.721-.114 1.083-.168m2.27 3.61c-.01-1.268-.93-2.244-2.125-2.253-1.221-.01-2.163 1.007-2.14 2.312.02 1.207.948 2.095 2.175 2.083 1.252-.011 2.1-.88 2.09-2.142M145.257 14.797v1.248c-.161.025-.31.067-.457.069-.658.008-1.315.003-1.973.003h-.656c-.154.521-.086 1.002-.066 1.528 1.235.125 2.44-.013 3.66.084.163.415.093.821.06 1.258-.116.03-.213.074-.31.074-1.604.004-3.21.002-4.814 0-.05-.001-.102-.023-.195-.045-.026-.1-.085-.221-.085-.34-.006-2.07-.005-4.138-.003-6.205.001-.1.035-.2.058-.333.444-.142.892-.057 1.33-.072.447-.015.894-.003 1.342-.003.421 0 .842-.007 1.263.002.442.01.89-.045 1.365.053.153.41.058.814.073 1.246-.43.138-.824.066-1.209.078-.42.012-.841.003-1.263.003h-1.194c-.167.415-.095.795-.076 1.221.168.027.314.07.46.072.685.007 1.369 0 2.053.007.204.002.407.032.637.052M52.847 14.878c.052.372.052.756-.003 1.187-.178.02-.328.049-.477.05-.736.005-1.473 0-2.208.005-.178 0-.357.028-.558.046-.122.491-.076.952-.035 1.45.159.028.307.074.456.076.894.007 1.788.001 2.682.006.204 0 .41.02.639.034.093.445.085.848.016 1.244-.6.113-4.106.143-5.258.047-.028-.104-.085-.223-.085-.342-.005-2.093-.003-4.186 0-6.279 0-.076.027-.152.047-.254.093-.026.19-.077.289-.077 1.577-.005 3.155-.004 4.732 0 .074 0 .148.036.258.064.107.402.07.806.025 1.258-.432.091-.85.042-1.262.05-.394.008-.789.002-1.183.002h-1.27c-.196.412-.117.792-.085 1.208.162.031.31.082.456.084.736.009 1.473.003 2.209.007.206.001.424-.038.615.134M114.333 12.122c.574-.085 1.037-.068 1.543-.028.033.174.084.319.085.465.007 1.15.013 2.302-.002 3.452-.005.442-.028.885-.186 1.314-.29.783-.811 1.333-1.592 1.635-.897.347-1.796.332-2.692-.006-.766-.29-1.26-.844-1.51-1.604a3.71 3.71 0 0 1-.202-1.072c-.024-1.308-.01-2.616-.008-3.923 0-.051.023-.102.045-.189.435-.18.893-.102 1.4-.056.025.164.067.311.068.458.006 1.072.003 2.145.005 3.218 0 .209-.007.42.016.627.071.687.517 1.152 1.204 1.253.18.027.367.031.55.018.653-.045 1.079-.398 1.215-1.034.055-.252.057-.52.058-.78.007-.967.003-1.935.003-2.904v-.844M99.832 16.195c-.335.209-.554.463-.813.77v1.995c-.467.192-.906.082-1.383.093-.035-.138-.093-.257-.093-.375a1670.7 1670.7 0 0 1 .001-6.28c0-.075.033-.15.056-.248.429-.161.865-.075 1.246-.064.208.151.171.32.172.47.005.73.002 1.462.002 2.173.238.136.317-.047.411-.143.676-.696 1.356-1.39 2.01-2.106.269-.294.549-.455.958-.423.364.03.731.006 1.066.006.137.191.027.283-.06.374-.668.702-1.34 1.402-2.01 2.104-.142.151-.279.309-.418.462.024.242.192.384.31.546.71.974 1.43 1.94 2.14 2.914.118.161.308.298.263.57-.175.012-.354.032-.532.034-.392.004-.784-.001-1.178-.004-.749-.947-1.389-1.932-2.148-2.868M156.103 17.972c.268-.396.547-.732.899-1.015.192.126.361.248.542.35.566.32 1.177.439 1.824.373.103-.01.209-.026.308-.057.433-.137.542-.641.186-.927a1.849 1.849 0 0 0-.557-.278c-.347-.118-.708-.2-1.057-.312a10.656 10.656 0 0 1-.81-.303c-1.555-.65-1.334-2.577-.382-3.308.296-.228.623-.408.99-.462 1.093-.163 2.152-.089 3.111.535.065.042.12.1.21.178-.108.486-.451.85-.71 1.312-.159-.083-.297-.142-.422-.222a3.949 3.949 0 0 0-1.153-.493c-.327-.084-.627-.028-.92.103-.38.171-.425.639-.076.89.168.12.36.22.556.287.396.14.807.237 1.201.38.343.124.692.254 1.001.443.452.277.675.71.706 1.246.07 1.235-.583 2.07-1.784 2.421-1.018.3-2.945-.207-3.663-1.14M135.608 19.068c-.326 0-.586.004-.846-.001-.156-.003-.311-.018-.508-.03-1.007-2.187-1.964-4.391-2.94-6.586-.039-.089-.055-.188-.093-.323.613-.116 1.179-.066 1.785-.034.087.19.185.37.255.56.423 1.153.839 2.31 1.26 3.463.07.187.153.369.262.63.439-.809.658-1.617.971-2.384.314-.771.596-1.555.897-2.346.22-.017.399-.041.579-.043.311-.003.622.008.875.013.073.067.1.08.106.101a.132.132 0 0 1-.004.078c-.074.223-.144.448-.228.667-.779 2.052-1.56 4.103-2.371 6.235M71.328 12.088h1.821c.633.895 1.112 1.884 1.704 2.773.062.005.086.014.104.007a.125.125 0 0 0 .058-.05l1.51-2.686c.588-.113 1.172-.094 1.841-.008-.131.244-.216.426-.322.595-.664 1.066-1.327 2.134-2.005 3.19a1.6 1.6 0 0 0-.276.956c.018.522.007 1.045.003 1.568-.002.179-.02.357-.033.555-.302.128-.593.067-.873.079-.26.01-.522.002-.808.002-.038-.195-.089-.343-.091-.491-.01-.6-.02-1.203 0-1.803a1.67 1.67 0 0 0-.303-1.027c-.668-1.001-1.315-2.017-1.968-3.028-.109-.17-.2-.35-.362-.632M175.386 12.056c.59-.147 1.124-.085 1.688-.041l.762 1.375.786 1.411c.31-.276.432-.622.622-.917.185-.285.35-.583.524-.875l.574-.957c.537-.155 1.079-.06 1.59-.066.157.22.003.336-.07.454-.663 1.066-1.32 2.135-2.007 3.185-.27.413-.391.832-.371 1.322.025.622-.001 1.246-.005 1.91-.496.129-.952.084-1.45.037-.022-.17-.055-.32-.058-.468-.008-.418-.03-.838.003-1.254.05-.627-.114-1.16-.47-1.685-.646-.952-1.233-1.943-1.842-2.92-.093-.15-.17-.312-.276-.511M171.493 19.038H170.1c-.025-.197-.062-.37-.063-.543-.005-1.387-.002-2.774-.004-4.16 0-.259-.013-.518-.02-.785-.348-.179-.694-.088-1.025-.103-.338-.015-.677-.008-1-.011-.154-.571-.154-.589-.047-1.293.086-.023.184-.065.283-.072.827-.057 4.855-.008 5.404.067.11.386.064.79.03 1.235-.681.169-1.37-.015-2.016.116-.184.259-.116.529-.118.784-.007 1.308-.002 2.616-.004 3.925 0 .257-.016.514-.027.84M164.153 12.026a4.89 4.89 0 0 1 1.544.002c.124.583.045 1.157.059 1.725.014.575.003 1.152.003 1.727 0 .55.005 1.1-.001 1.65-.006.57.025 1.142-.025 1.748-.535.11-1.025.035-1.542.054-.038-.158-.093-.279-.093-.4-.005-2.068-.003-4.135 0-6.204 0-.075.026-.15.055-.302M129.145 18.89c-.573.074-1.037.042-1.437.03-.083-.073-.108-.088-.122-.109a.166.166 0 0 1-.02-.075c-.009-.156-.024-.312-.024-.469.004-2.016.009-4.03.016-6.047 0-.047.033-.094.074-.196.457-.088.941-.07 1.465-.006.128.769.045 1.524.06 2.274.015.758.006 1.518.003 2.278-.003.753.013 1.508-.015 2.32"/></g></g></svg>