<?xml version="1.0" encoding="UTF-8"?>
<svg width="48px" height="44px" viewBox="0 0 48 44" version="1.1" xmlns="http://www.w3.org/2000/svg" xmlns:xlink="http://www.w3.org/1999/xlink">
    <title>7B4ECAE5-16B0-4DC8-9FD5-2F7A1BF81C2B</title>
    <g id="👌---Final" stroke="none" stroke-width="1" fill="none" fill-rule="evenodd">
        <g id="Payment-Final" transform="translate(-837.000000, -546.000000)" fill="#A4A5A8">
            <g id="Group-9-Copy" transform="translate(837.000000, 386.000000)">
                <g id="Group-14" transform="translate(0.000000, 156.000000)">
                    <g id="Refund" transform="translate(0.000000, 4.000000)">
                        <path d="M37.9801838,40.3713218 C37.7490838,40.0613218 37.8130838,39.6228218 38.1230838,39.3917218 C40.9681838,37.2711218 43.2325838,34.4609218 44.7044838,31.2231218 C46.1763838,27.9852218 46.8077838,24.4255218 46.5396838,20.8760218 C46.2715838,17.3265218 45.1126838,13.9033218 43.1713838,10.9258218 C41.2300838,7.94830176 38.5697838,5.51356176 35.4387838,3.84849176 C32.3078838,2.18343176 28.8082838,1.34219176 25.2664838,1.40309176 C21.7246838,1.46398176 18.2556838,2.42502176 15.1832838,4.19677176 C12.1108838,5.96852176 9.53498378,8.49333176 7.69627378,11.5359218 C5.85753378,14.5785218 4.81595378,18.0395218 4.66893378,21.5961218 C4.66319378,21.7350218 4.61737378,21.8627218 4.54308378,21.9687218 C4.61222378,22.0779218 4.65192378,22.2076218 4.65111378,22.3465218 C4.64885378,22.7331218 4.33362378,23.0447218 3.94703378,23.0424218 L2.18621378,23.0320218 L6.08676378,27.7899218 L10.0426838,23.0784218 L8.28185378,23.0680218 C7.89526378,23.0657218 7.58369378,22.7504218 7.58595378,22.3639218 C7.58821378,21.9773218 7.90344378,21.6657218 8.29003378,21.6680218 L11.5411838,21.6872218 C11.8124838,21.6888218 12.0584838,21.8470218 12.1723838,22.0933218 C12.2862838,22.3396218 12.2475838,22.6295218 12.0731838,22.8373218 L6.61646378,29.3363218 C6.48254378,29.4958218 6.28454378,29.5874218 6.07627378,29.5862218 C5.86799378,29.5849218 5.67108378,29.4910218 5.53903378,29.3300218 L0.158683784,22.7670218 C-0.0133502156,22.5572218 -0.0486212156,22.2668218 0.0681637844,22.0219218 C0.184953784,21.7770218 0.432763784,21.6216218 0.704103784,21.6232218 L3.27307378,21.6384218 C3.26975378,21.6056218 3.26872378,21.5722218 3.27012378,21.5382218 C3.42686378,17.7465218 4.53731378,14.0562218 6.49807378,10.8117218 C8.45885378,7.56723176 11.2061838,4.87412176 14.4838838,2.98396176 C17.7616838,1.09379176 21.4628838,0.0682689584 25.2422838,0.00329281836 C29.0217838,-0.0616871416 32.7557838,0.836006758 36.0960838,2.61242176 C39.4363838,4.38883176 42.2738838,6.98598176 44.3440838,10.1612218 C46.4142838,13.3365218 47.6498838,16.9865218 47.9356838,20.7706218 C48.2215838,24.5548218 47.5483838,28.3501218 45.9789838,31.8025218 C44.4094838,35.2549218 41.9947838,38.2521218 38.9596838,40.5143218 C38.6497838,40.7453218 38.2111838,40.6813218 37.9801838,40.3713218 Z M34.0498838,16.7600218 C34.3226838,16.4860218 34.3226838,16.0418218 34.0498838,15.7679218 C33.7770838,15.4939218 33.3348838,15.4939218 33.0620838,15.7679218 L26.9321838,21.9249218 C26.9050838,21.9522218 26.8805838,21.9811218 26.8588838,22.0114218 C26.2525838,21.7084218 25.5344838,21.7083218 24.9281838,22.0112218 C24.9064838,21.9810218 24.8820838,21.9521218 24.8549838,21.9249218 L21.7899838,18.8464218 C21.5172838,18.5724218 21.0749838,18.5724218 20.8022838,18.8464218 C20.5294838,19.1204218 20.5294838,19.5646218 20.8022838,19.8385218 L23.8671838,22.9170218 C23.8941838,22.9441218 23.9228838,22.9686218 23.9527838,22.9903218 C23.5487838,23.8050218 23.6847838,24.8211218 24.3608838,25.5002218 C25.2072838,26.3503218 26.5794838,26.3503218 27.4258838,25.5002218 C28.1018838,24.8212218 28.2378838,23.8052218 27.8340838,22.9905218 C27.8640838,22.9687218 27.8928838,22.9442218 27.9199838,22.9170218 L34.0498838,16.7600218 Z M28.8988838,4.65455176 C25.9381838,4.10596176 22.8879838,4.31023176 20.0261838,5.24869176 C17.1642838,6.18713176 14.5820838,7.82984176 12.5146838,10.0268218 C10.4471838,12.2238218 8.96016378,14.9052218 8.18876378,17.8266218 C8.09006378,18.2004218 8.31307378,18.5834218 8.68686378,18.6822218 C9.06068378,18.7809218 9.44368378,18.5579218 9.54238378,18.1841218 C9.87568378,16.9218218 10.3536838,15.7081218 10.9635838,14.5663218 L14.2505838,16.4724218 C14.5849838,16.6663218 15.0122838,16.5518218 15.2049838,16.2167218 C15.3975838,15.8815218 15.2826838,15.4526218 14.9482838,15.2586218 L11.6742838,13.3600218 C12.2197838,12.5170218 12.8416838,11.7221218 13.5341838,10.9863218 C14.5080838,9.95142176 15.6055838,9.04998176 16.7978838,8.30031176 L18.6566838,11.5341218 C18.8493838,11.8693218 19.2766838,11.9838218 19.6110838,11.7898218 C19.9455838,11.5959218 20.0604838,11.1669218 19.8677838,10.8318218 L18.0133838,7.60569176 C18.7985838,7.19985176 19.6173838,6.85611176 20.4624838,6.57899176 C21.9135838,6.10313176 23.4171838,5.83200176 24.9306838,5.76843176 L24.9306838,9.46909176 C24.9306838,9.85569176 25.2440838,10.1691218 25.6306838,10.1691218 C26.0172838,10.1691218 26.3306838,9.85569176 26.3306838,9.46909176 L26.3306838,5.76884176 C27.1044838,5.80180176 27.8773838,5.88910176 28.6438838,6.03112176 C30.2523838,6.32916176 31.8021838,6.86263176 33.2454838,7.60952176 L31.3932838,10.8318218 C31.2005838,11.1669218 31.3155838,11.5959218 31.6499838,11.7898218 C31.9843838,11.9838218 32.4116838,11.8693218 32.6043838,11.5341218 L34.4606838,8.30476176 C35.0259838,8.66063176 35.5711838,9.05135176 36.0927838,9.47540176 C36.3927838,9.71927176 36.8336838,9.67379176 37.0774838,9.37381176 C37.3213838,9.07384176 37.2758838,8.63296176 36.9758838,8.38909176 C34.6361838,6.48706176 31.8594838,5.20313176 28.8988838,4.65455176 Z M38.1713838,34.5133218 C37.8818838,34.2577218 37.8541838,33.8147218 38.1094838,33.5238218 C38.7291838,32.8177218 39.2848838,32.0642218 39.7730838,31.2725218 L36.3118838,29.2654218 C35.9774838,29.0714218 35.8624838,28.6425218 36.0551838,28.3073218 C36.2478838,27.9722218 36.6751838,27.8577218 37.0095838,28.0516218 L40.4573838,30.0510218 C41.5190838,27.9549218 42.1357838,25.6426218 42.2479838,23.2616218 C42.2526838,23.1617218 42.2564838,23.0617218 42.2593838,22.9619218 L38.3665838,22.9619218 C37.9799838,22.9619218 37.6665838,22.6485218 37.6665838,22.2619218 C37.6665838,21.8753218 37.9799838,21.5619218 38.3665838,21.5619218 L42.2418838,21.5619218 C42.0682838,18.3612218 40.9807838,15.2648218 39.0919838,12.6513218 C38.8655838,12.3381218 38.9354838,11.8996218 39.2481838,11.6719218 C39.5607838,11.4442218 39.9976838,11.5135218 40.2240838,11.8267218 C42.6314838,15.1578218 43.8377838,19.2132218 43.6440838,23.3251218 C43.4504838,27.4371218 41.8682838,31.3606218 39.1577838,34.4493218 C38.9024838,34.7402218 38.4608838,34.7688218 38.1713838,34.5133218 Z M25.3486838,24.5080218 C25.6494838,24.8102218 26.1372838,24.8102218 26.4380838,24.5080218 C26.7388838,24.2059218 26.7388838,23.7160218 26.4380838,23.4138218 C26.1372838,23.1116218 25.6494838,23.1116218 25.3486838,23.4138218 C25.0477838,23.7160218 25.0477838,24.2059218 25.3486838,24.5080218 Z M16.9380838,30.2396218 C16.9380838,29.9417218 16.7495838,29.6765218 16.4681838,29.5785218 C16.1868838,29.4806218 15.8743838,29.5714218 15.6893838,29.8049218 L7.95622378,39.5654218 C7.78948378,39.7758218 7.75781378,40.0631218 7.87468378,40.3048218 C7.99156378,40.5465218 8.23639378,40.7001218 8.50488378,40.7001218 L15.5380838,40.7001218 L15.5380838,43.3018218 C15.5380838,43.6884218 15.8514838,44.0018218 16.2380838,44.0018218 C16.6246838,44.0018218 16.9380838,43.6884218 16.9380838,43.3018218 L16.9380838,40.7001218 L19.0048838,40.7001218 C19.3914838,40.7001218 19.7048838,40.3867218 19.7048838,40.0001218 C19.7048838,39.6135218 19.3914838,39.3001218 19.0048838,39.3001218 L16.9380838,39.3001218 L16.9380838,30.2396218 Z M15.5380838,32.2503218 L15.5380838,39.3001218 L9.95258378,39.3001218 L15.5380838,32.2503218 Z M25.6299838,30.9396218 C24.8227838,30.9396218 24.1628838,31.5979218 24.1628838,32.4166218 C24.1628838,33.2314218 24.8162838,33.8872218 25.6180838,33.8936218 C25.6220838,33.8936218 25.6260838,33.8936218 25.6300838,33.8936218 C25.6339838,33.8936218 25.6378838,33.8936218 25.6418838,33.8936218 C26.4435838,33.8872218 27.0969838,33.2314218 27.0969838,32.4166218 C27.0969838,31.5979218 26.4371838,30.9396218 25.6299838,30.9396218 Z M22.7628838,32.4166218 C22.7628838,30.8307218 24.0434838,29.5396218 25.6299838,29.5396218 C27.2163838,29.5396218 28.4969838,30.8307218 28.4969838,32.4166218 C28.4969838,33.1647218 28.2120838,33.8471218 27.7445838,34.3595218 C29.4698838,35.1620218 30.6649838,36.9161218 30.6649838,38.9477218 C30.6649838,41.7360218 28.4136838,44.0017218 25.6300838,44.0017218 C22.8464838,44.0017218 20.5951838,41.7360218 20.5951838,38.9477218 C20.5951838,36.9162218 21.7901838,35.1621218 23.5153838,34.3595218 C23.0477838,33.8472218 22.7628838,33.1647218 22.7628838,32.4166218 Z M25.6158838,35.2936218 C23.6177838,35.3013218 21.9951838,36.9314218 21.9951838,38.9477218 C21.9951838,40.9687218 23.6254838,42.6017218 25.6300838,42.6017218 C27.6346838,42.6017218 29.2649838,40.9687218 29.2649838,38.9477218 C29.2649838,36.9314218 27.6422838,35.3012218 25.6440838,35.2936218 C25.6393838,35.2937218 25.6346838,35.2937218 25.6299838,35.2937218 C25.6252838,35.2937218 25.6205838,35.2937218 25.6158838,35.2936218 Z" id="Shape"></path>
                    </g>
                </g>
            </g>
        </g>
    </g>
</svg>