<?xml version="1.0" encoding="UTF-8"?>
<svg width="48px" height="48px" viewBox="0 0 48 48" version="1.1" xmlns="http://www.w3.org/2000/svg" xmlns:xlink="http://www.w3.org/1999/xlink">
    <title>no-fee-48</title>
    <g id="Payment" stroke="none" stroke-width="1" fill="none" fill-rule="evenodd">
        <g id="Payment---Maybe-Later" transform="translate(-900.000000, -884.000000)">
            <g id="no-fee-48" transform="translate(900.000000, 884.000000)">
                <rect id="Rectangle" fill-opacity="0" fill="#FFFFFF" x="0" y="0" width="48" height="48"></rect>
                <path d="M43.4105715,3.88280678 C43.8089144,3.88280678 44.1170701,4.20305373 44.1170701,4.58592508 L44.1170701,4.58592508 L44.1170701,7.17443169 C44.1170701,7.56274049 43.8023519,7.87754999 43.4139465,7.87754999 L43.4139465,7.87754999 L40.2342339,7.87754999 L40.2342339,10.3540264 L41.5634188,10.3540264 C41.9518243,10.3540264 42.2665424,10.6688359 42.2665424,11.0571447 C42.2665424,11.4454535 41.9518243,11.760263 41.5634188,11.760263 L41.5634188,11.760263 L40.2342339,11.760263 L40.2342339,47.1115514 C40.2342339,47.4062986 40.0747655,47.6793897 39.8181722,47.8242321 C39.561579,47.9690745 39.2454546,47.9645745 38.9929863,47.8121385 L38.9929863,47.8121385 L36.4248976,46.2619032 L33.7415903,47.8817003 C33.4808721,48.0391988 33.1565915,48.0392926 32.8958733,47.8817003 L32.8958733,47.8817003 L30.2130347,46.261997 L27.5301025,47.8817003 C27.272853,48.0375113 26.9483849,48.0411676 26.6843854,47.8817003 L26.6843854,47.8817003 L24.0010781,46.261997 L21.3176771,47.8817941 C21.0567714,48.0394801 20.7324908,48.0393863 20.471585,47.8816066 L20.471585,47.8816066 L17.7884653,46.261997 L15.1049705,47.8817941 C14.8444398,48.0392926 14.5201591,48.0394801 14.2591597,47.8817941 L14.2591597,47.8817941 L11.5753836,46.261997 L9.00663866,47.812326 C8.7543579,47.9645745 8.43823352,47.969262 8.18164027,47.8244196 C7.92504702,47.6795772 7.76557858,47.4064861 7.76557858,47.1117389 L7.76557858,47.1117389 L7.76557858,28.9275058 C7.76557858,28.539197 8.08039047,28.2243875 8.46870221,28.2243875 C8.85701395,28.2243875 9.17182584,28.539197 9.17182584,28.9275058 L9.17182584,28.9275058 L9.17182584,46.0703738 L11.152572,44.874979 C11.4135715,44.7173867 11.7378521,44.7174805 11.9986641,44.8751664 L11.9986641,44.8751664 L14.6821588,46.494776 L17.3655598,44.874979 C17.6263718,44.7174805 17.9504649,44.7173867 18.2113707,44.874979 L18.2113707,44.874979 L20.8948654,46.4946823 L23.5782664,44.8748852 C23.8387972,44.7173867 24.1630778,44.7171992 24.4240773,44.8748852 L24.4240773,44.8748852 L27.1072908,46.4945885 L29.7902231,44.8748852 C30.0512226,44.7175742 30.3749407,44.7175742 30.6354714,44.8745102 L30.6354714,44.8745102 L33.3188724,46.4945885 L36.0021797,44.8747915 C36.2635542,44.717293 36.5874598,44.7174805 36.8480843,44.8748852 L36.8480843,44.8748852 L38.8280804,46.0701863 L38.8280804,5.30844945 L13.4198175,5.30844945 C13.0315058,5.30844945 12.7166939,4.99363995 12.7166939,4.60533115 C12.7166939,4.21702235 13.0315058,3.90221284 13.4198175,3.90221284 L13.4198175,3.90221284 L39.5277353,3.90221284 Z M26.9121037,25.8851598 C27.3005092,25.8851598 27.6152273,26.1999693 27.6152273,26.5882781 C27.6152273,26.9765869 27.3005092,27.2913964 26.9121037,27.2913964 L26.9121037,27.2913964 L21.7910199,27.2913964 L21.7910199,30.7386448 L26.9121037,30.7386448 C27.3005092,30.7386448 27.6152273,31.0534543 27.6152273,31.4417631 C27.6152273,31.8300719 27.3005092,32.1448814 26.9121037,32.1448814 L26.9121037,32.1448814 L21.7910199,32.1448814 L21.7910199,35.5921298 L26.9121037,35.5921298 C27.3005092,35.5921298 27.6152273,35.9069393 27.6152273,36.2952481 C27.6152273,36.683557 27.3005092,36.9983665 26.9121037,36.9983665 L26.9121037,36.9983665 L21.0878963,36.9983665 C20.6995846,36.9983665 20.3847727,36.683557 20.3847727,36.2952481 L20.3847727,36.2952481 L20.3847727,26.5882781 C20.3847727,26.1999693 20.6995846,25.8851598 21.0878963,25.8851598 L21.0878963,25.8851598 Z M35.6483679,25.8851598 C36.0367734,25.8851598 36.3514915,26.1999693 36.3514915,26.5882781 C36.3514915,26.9765869 36.0367734,27.2913964 35.6483679,27.2913964 L35.6483679,27.2913964 L30.5272841,27.2913964 L30.5272841,30.7386448 L35.6483679,30.7386448 C36.0367734,30.7386448 36.3514915,31.0534543 36.3514915,31.4417631 C36.3514915,31.8300719 36.0367734,32.1448814 35.6483679,32.1448814 L35.6483679,32.1448814 L30.5272841,32.1448814 L30.5272841,35.5921298 L35.6483679,35.5921298 C36.0367734,35.5921298 36.3514915,35.9069393 36.3514915,36.2952481 C36.3514915,36.683557 36.0367734,36.9983665 35.6483679,36.9983665 L35.6483679,36.9983665 L29.8241605,36.9983665 C29.435755,36.9983665 29.1210369,36.683557 29.1210369,36.2952481 L29.1210369,36.2952481 L29.1210369,26.5882781 C29.1210369,26.1999693 29.435755,25.8851598 29.8241605,25.8851598 L29.8241605,25.8851598 Z M18.1757458,25.8851598 C18.5640575,25.8851598 18.8788694,26.1999693 18.8788694,26.5882781 C18.8788694,26.9765869 18.5640575,27.2913964 18.1757458,27.2913964 L18.1757458,27.2913964 L13.054662,27.2913964 L13.054662,30.7386448 L18.1757458,30.7386448 C18.5640575,30.7386448 18.8788694,31.0534543 18.8788694,31.4417631 C18.8788694,31.8300719 18.5640575,32.1448814 18.1757458,32.1448814 L18.1757458,32.1448814 L13.054662,32.1448814 L13.054662,36.2952481 C13.054662,36.683557 12.7398501,36.9983665 12.3515384,36.9983665 C11.9632266,36.9983665 11.6484147,36.683557 11.6484147,36.2952481 L11.6484147,36.2952481 L11.6484147,26.5882781 C11.6484147,26.1999693 11.9632266,25.8851598 12.3515384,25.8851598 L12.3515384,25.8851598 Z M46.3578782,2.48689958e-14 C47.2633139,2.48689958e-14 48,0.736680485 48,1.64210936 L48,1.64210936 L48,10.1182474 C48,11.02377 47.2633139,11.7603568 46.3578782,11.7603568 L46.3578782,11.7603568 L44.8449437,11.7603568 C44.4565382,11.7603568 44.14182,11.4455473 44.14182,11.0572385 C44.14182,10.6689297 44.4565382,10.3541202 44.8449437,10.3541202 L44.8449437,10.3541202 L46.3578782,10.3541202 C46.4879092,10.3541202 46.5937527,10.2482774 46.5937527,10.1182474 L46.5937527,10.1182474 L46.5937527,1.64210936 C46.5937527,1.51207935 46.4879092,1.40623661 46.3578782,1.40623661 L46.3578782,1.40623661 L1.64221554,1.40623661 C1.51218455,1.40623661 1.406341,1.51207935 1.406341,1.64210936 L1.406341,1.64210936 L1.406341,10.1181537 C1.406341,10.2482774 1.51218455,10.3540264 1.64221554,10.3540264 L1.64221554,10.3540264 L7.76567233,10.3540264 L7.76567233,7.87745624 L4.58595979,7.87745624 C4.19764805,7.87745624 3.88283617,7.56264674 3.88283617,7.17433794 L3.88283617,7.17433794 L3.88283617,4.58583133 C3.88283617,4.39880186 3.95736727,4.21945982 4.09002326,4.08746108 C4.22267925,3.95546234 4.4041789,3.88383802 4.58952229,3.88271303 C6.61905028,3.89283367 7.53902639,3.89783235 8.09829853,3.90024541 L8.26379404,3.90092444 C8.2896694,3.90102427 8.31476394,3.90111768 8.33918684,3.90120504 L8.60700981,3.90198645 C8.62780636,3.9020313 8.64836798,3.90207157 8.66880383,3.90210764 L10.1383864,3.90211909 C10.5266982,3.90211909 10.8415101,4.2169286 10.8415101,4.6052374 C10.8415101,4.9935462 10.5266982,5.3083557 10.1383864,5.3083557 L10.1383864,5.3083557 L9.17182584,5.3083557 L9.17182584,25.6461933 C9.17182584,26.0345021 8.85701395,26.3493116 8.46870221,26.3493116 C8.08039047,26.3493116 7.76557858,26.0345021 7.76557858,25.6461933 L7.76557858,25.6461933 L7.76557858,11.7603568 L1.64212179,11.7603568 C0.736686061,11.7603568 0,11.0236763 0,10.1182474 L0,10.1182474 L0,1.64210936 C0,0.736680485 0.736686061,2.48689958e-14 1.64221554,2.48689958e-14 L1.64221554,2.48689958e-14 Z M23.0292675,12.2954751 C23.4175793,12.2954751 23.7323911,12.6102862 23.7323911,12.998595 L23.7323911,12.998595 L23.7323911,22.705565 C23.7323911,23.0945301 23.4166418,23.4086834 23.0292675,23.4086834 C22.7868305,23.4086834 22.5557372,23.2828721 22.4263624,23.0672491 L22.4263624,23.0672491 L17.9081838,15.5370396 L17.9081838,22.705565 C17.9081838,23.0938739 17.5933719,23.4086834 17.2050601,23.4086834 C16.8167484,23.4086834 16.5019365,23.0938739 16.5019365,22.705565 L16.5019365,22.705565 L16.5019365,12.998595 C16.5019365,12.6825667 16.7127799,12.4053506 17.017373,12.3209764 C17.3217787,12.2367897 17.645403,12.3658823 17.8079652,12.6368172 L17.8079652,12.6368172 L22.3261439,20.1670267 L22.3261439,12.998595 C22.3261439,12.6102862 22.6409558,12.2954751 23.0292675,12.2954751 Z M28.8534749,12.2954767 C30.8468773,12.2954767 32.4686553,13.9172425 32.4686553,15.9106297 L32.4686553,15.9106297 L32.4686553,19.7934365 C32.4686553,21.7869175 30.846971,23.4085896 28.8535686,23.4085896 C26.8601663,23.4085896 25.2382945,21.7868238 25.2382945,19.7934365 L25.2382945,19.7934365 L25.2382945,15.9106297 C25.2382945,13.9172425 26.8600725,12.2954767 28.8534749,12.2954767 Z M28.8534749,13.7017133 C27.6353835,13.7017133 26.644448,14.6926413 26.644448,15.9106297 L26.644448,15.9106297 L26.644448,19.7934365 C26.644448,21.0115187 27.6354773,22.002353 28.8534749,22.002353 C30.0714725,22.002353 31.0624081,21.0114249 31.0624081,19.7934365 L31.0624081,19.7934365 L31.0624081,15.9106297 C31.0624081,14.6926413 30.0714725,13.7017133 28.8534749,13.7017133 Z M35.6483679,7.76551981 C36.0367734,7.76551981 36.3514915,8.08032931 36.3514915,8.46863811 C36.3514915,8.85694691 36.0367734,9.17175642 35.6483679,9.17175642 L35.6483679,9.17175642 L12.3515384,9.17175642 C11.9632266,9.17175642 11.6484147,8.85694691 11.6484147,8.46863811 C11.6484147,8.08032931 11.9632266,7.76551981 12.3515384,7.76551981 L12.3515384,7.76551981 Z M42.7109166,5.2925121 L40.2343277,5.30488699 L40.2343277,6.47131338 L42.7109166,6.47131338 L42.7109166,5.2925121 Z M5.28908342,5.2925121 L5.28908342,6.47131338 L7.76567233,6.47131338 L7.76567233,5.30488699 L5.28908342,5.2925121 Z" id="no-fee" fill="#A4A5A8" fill-rule="nonzero"></path>
            </g>
        </g>
    </g>
</svg>