<?xml version="1.0" encoding="UTF-8"?>
<svg width="48px" height="48px" viewBox="0 0 48 48" version="1.1" xmlns="http://www.w3.org/2000/svg" xmlns:xlink="http://www.w3.org/1999/xlink">
    <title>notification-trial-48</title>
    <g id="Payment" stroke="none" stroke-width="1" fill="none" fill-rule="evenodd">
        <g id="Payment---Maybe-Later" transform="translate(-900.000000, -968.000000)">
            <g id="notification-trial-48" transform="translate(900.000000, 968.000000)">
                <rect id="Rectangle-Copy-4" fill-opacity="0" fill="#FFFFFF" x="0" y="0" width="48" height="48"></rect>
                <path d="M39.128343,0 C40.5606912,0 41.7259212,1.15940625 41.7259212,2.58459375 L41.7259212,2.58459375 L41.7259212,4.174875 L44.4724004,4.174875 C45.3146979,4.174875 46,4.8586875 46,5.69925 L46,5.69925 L46,13.5600938 C46,14.1484688 45.6622904,14.6589375 45.1703148,14.9119688 L45.1703148,14.9119688 L45.1703148,39.8001563 C45.1703148,41.4657188 43.8087463,42.8206875 42.1352577,42.8206875 L42.1352577,42.8206875 L36.9050878,42.8206875 C36.8514383,43.6879688 36.1280168,44.377875 35.243835,44.377875 L35.243835,44.377875 L27.9538999,44.377875 L27.9538999,44.5596563 C27.9538999,46.4566875 26.404464,48 24.5,48 C22.595536,48 21.0461001,46.4566875 21.0461001,44.5595625 L21.0461001,44.5595625 L21.0461001,44.3777812 L13.756165,44.3777812 C12.8720773,44.3777812 12.1486558,43.6879688 12.0950063,42.8205938 L12.0950063,42.8205938 L6.86483647,42.8205938 C5.19125366,42.8205938 3.82977932,41.465625 3.82977932,39.8000625 L3.82977932,39.8000625 L3.82977932,14.9113125 C3.33770964,14.6580938 3,14.148 3,13.5600938 L3,13.5600938 L3,5.69925 C3,4.8586875 3.68652567,4.174875 4.53032916,4.174875 L4.53032916,4.174875 L7.27407881,4.174875 L7.27407881,2.58459375 C7.27407881,1.15940625 8.43930884,0 9.87156291,0 C11.303817,0 12.469047,1.15940625 12.469047,2.58459375 L12.469047,2.58459375 L12.469047,4.174875 L17.0281271,4.174875 L17.0281271,2.58459375 C17.0281271,1.15940625 18.1921336,0 19.6229758,0 C21.0552299,0 22.2204599,1.15940625 22.2204599,2.58459375 L22.2204599,2.58459375 L22.2204599,4.174875 L26.7795401,4.174875 L26.7795401,2.58459375 C26.7795401,1.15940625 27.9447701,0 29.3770242,0 C30.8078664,0 31.9718729,1.15940625 31.9717787,2.58459375 L31.9717787,2.58459375 L31.9717787,4.174875 L36.5308589,4.174875 L36.5308589,2.58459375 C36.5308589,1.15940625 37.6960889,0 39.128343,0 Z M26.5420703,44.377875 L22.4579297,44.377875 L22.4579297,44.5596563 C22.4579297,45.6812813 23.3739247,46.59375 24.5,46.59375 C25.6260753,46.59375 26.5420703,45.6812813 26.5420703,44.5596563 L26.5420703,44.5596563 L26.5420703,44.377875 Z M24.5,21.9751875 C20.6832599,21.9751875 17.578176,25.0680937 17.578176,28.8698437 L17.578176,28.8698437 L17.578176,32.3352187 C17.578176,34.7075625 16.5649529,36.9845625 14.4893752,39.2590312 L14.4893752,39.2590312 L22.7844388,39.2590312 C23.174292,39.2590312 23.4903536,39.57375 23.4903536,39.9621562 C23.4903536,40.3505625 23.174292,40.6652812 22.7844388,40.6652812 L22.7844388,40.6652812 L13.5015651,40.6652812 L13.5015651,42.7180312 C13.5015651,42.8554687 13.6181822,42.9715312 13.756165,42.9715312 L13.756165,42.9715312 L35.243835,42.9715312 C35.3818178,42.9715312 35.4984349,42.8554687 35.4984349,42.7180312 L35.4984349,42.7180312 L35.4984349,40.6652812 L26.0420944,40.6652812 C25.6521471,40.6652812 25.3361796,40.3505625 25.3361796,39.9621562 C25.3361796,39.57375 25.6521471,39.2590312 26.0420944,39.2590312 L26.0420944,39.2590312 L34.510719,39.2590312 C32.4368354,36.9857812 31.4244595,34.708875 31.4244595,32.3352187 L31.4244595,32.3352187 L31.4244595,28.8698437 C31.4244595,25.0680937 28.318152,21.9751875 24.5,21.9751875 Z M44.5881704,12.0495938 L4.4118296,12.0495938 L4.4118296,13.5600938 C4.4118296,13.6215 4.46717332,13.6754063 4.53032916,13.6754063 L4.53032916,13.6754063 L22.6990702,13.6754063 C23.0889234,13.6754063 23.404985,13.990125 23.404985,14.3785313 C23.404985,14.7669375 23.0889234,15.0816563 22.6990702,15.0816563 L22.6990702,15.0816563 L5.24151479,15.0816563 L5.24151479,39.8001563 C5.24151479,40.6902188 5.9697365,41.4144375 6.86474235,41.4144375 L6.86474235,41.4144375 L12.0897355,41.4144375 L12.0897355,39.9623438 C12.0897355,39.7697813 12.1729393,39.5787188 12.3147811,39.4476563 C14.9424783,37.0122188 16.1663464,34.7521875 16.1663464,32.3354063 L16.1663464,32.3354063 L16.1663464,28.8700313 C16.1663464,25.4949375 18.1991927,22.5842813 21.1090677,21.288 L21.1090677,21.288 L21.1074676,20.5268438 C21.1058675,19.6272188 21.4585426,18.7789688 22.1007368,18.1381875 C22.7435899,17.4968438 23.5956761,17.1435 24.5,17.1435 C26.3705801,17.1435 27.8925324,18.6605625 27.8925324,20.5253438 L27.8925324,20.5253438 L27.8925324,21.2881875 C30.8030662,22.5845625 32.8361949,25.495125 32.8361949,28.8699375 L32.8361949,28.8699375 L32.8361949,32.3353125 C32.8361949,34.753875 34.05931,37.0138125 36.6852189,39.4475625 C36.8273431,39.5779688 36.9102645,39.7701563 36.9102645,39.96225 L36.9102645,39.96225 L36.9102645,41.4144375 L42.1352577,41.4144375 C43.0302635,41.4144375 43.7584852,40.690125 43.7584852,39.8000625 L43.7584852,39.8000625 L43.7584852,15.0816563 L25.9567258,15.0816563 C25.5667784,15.0816563 25.250811,14.7669375 25.250811,14.3785313 C25.250811,13.990125 25.5667784,13.6754063 25.9567258,13.6754063 L25.9567258,13.6754063 L44.4724004,13.6754063 C44.5329208,13.6754063 44.5881704,13.6204688 44.5881704,13.5600938 L44.5881704,13.5600938 L44.5881704,12.0495938 Z M32.928811,17.9539688 C33.0535226,17.586 33.4543881,17.3882813 33.8234403,17.5125938 C38.3881678,19.047375 40.8477632,23.9963438 39.3063276,28.544625 C39.2069348,28.8379688 38.9320987,29.023125 38.637591,29.023125 C38.562764,29.023125 38.4866194,29.0112188 38.4117924,28.986 C38.0423636,28.8617813 37.8440486,28.4627813 37.9686661,28.0949063 C39.261055,24.28125 37.1990308,20.131875 33.3719372,18.8450625 C33.0025085,18.7208438 32.8041935,18.3218438 32.928811,17.9539688 Z M15.1792892,17.5125937 C15.5488121,17.3882812 15.9493011,17.5861875 16.0738245,17.9540625 C16.198442,18.3220312 16.0000328,18.7209375 15.6306041,18.8450625 C13.7748011,19.4685937 12.274591,20.7740625 11.4064099,22.5209062 C10.538323,24.2672812 10.4051404,26.2469062 11.031428,28.0949062 C11.1561396,28.4627812 10.9577305,28.8617812 10.5883959,28.986 C10.5134748,29.0112187 10.4373301,29.023125 10.3625031,29.023125 C10.0679955,29.023125 9.7931593,28.8380625 9.6937665,28.544625 C8.94681452,26.3408437 9.10578653,23.9799375 10.1411282,21.8969062 C11.1767523,19.8133125 12.966011,18.2563125 15.1792892,17.5125937 Z M31.9816615,20.7445313 C32.106279,20.3764688 32.506768,20.1790313 32.8761026,20.3027813 C34.3412994,20.7947813 35.5256362,21.8249063 36.2105618,23.2033125 C36.8954874,24.5817188 37.0000569,26.144625 36.5047871,27.6040313 C36.4053002,27.8972813 36.1305581,28.08225 35.8361446,28.08225 C35.7611294,28.08225 35.6849847,28.0703438 35.6100636,28.045125 C35.240729,27.9207188 35.0425081,27.5217188 35.1673138,27.1538438 C35.5419193,26.0503125 35.4630451,24.868875 34.9453742,23.8272188 C34.4277034,22.7856563 33.5327917,22.00725 32.4251643,21.6354375 C32.0557355,21.5114063 31.8572323,21.1125938 31.9816615,20.7445313 Z M16.1238974,20.3027813 C16.493232,20.1786563 16.893721,20.3764688 17.0182443,20.7445313 C17.1427677,21.1125938 16.9441703,21.5114063 16.5747416,21.6354375 C15.4672083,22.00725 14.5722025,22.7856563 14.0545316,23.8272188 C13.5368608,24.868875 13.4579866,26.0503125 13.8324979,27.1538438 C13.9573036,27.5217188 13.7590828,27.9208125 13.3897481,28.045125 C13.3148271,28.07025 13.2385883,28.08225 13.1636672,28.08225 C12.8692536,28.08225 12.5945116,27.8972813 12.4950247,27.6040313 C11.9997548,26.144625 12.1043244,24.5817188 12.78925,23.2033125 C13.4743638,21.8247188 14.6586065,20.7946875 16.1238974,20.3027813 Z M24.5,18.5496562 C23.9731993,18.5496562 23.4760471,18.7562812 23.0999356,19.1315625 C22.7245772,19.5062812 22.518356,20.0007187 22.519294,20.5240312 L22.519294,20.5240312 L22.5198619,20.8063125 C23.1548088,20.651625 23.8178981,20.5689375 24.5,20.5689375 C25.1822902,20.5689375 25.8455677,20.651625 26.4807028,20.8063125 L26.4807028,20.8063125 L26.4807028,20.52525 C26.4807028,19.435875 25.5921914,18.5496562 24.5,18.5496562 Z M7.27407881,5.581125 L4.53032916,5.581125 C4.46604386,5.581125 4.4118296,5.63521875 4.4118296,5.69925 L4.4118296,5.69925 L4.4118296,10.64325 L44.5882645,10.64325 L44.5882645,5.69925 C44.5882645,5.63634375 44.5341444,5.581125 44.4724945,5.581125 L44.4724945,5.581125 L41.7260153,5.581125 L41.7260153,6.6028125 C41.7260153,8.028 40.5607853,9.18740625 39.1284371,9.18740625 C37.696183,9.18740625 36.530953,8.028 36.530953,6.6028125 L36.530953,6.6028125 L36.530953,5.581125 L31.9718729,5.581125 L31.9718729,6.6028125 C31.9718729,8.028 30.8078664,9.18740625 29.3770242,9.18740625 C27.9447701,9.18740625 26.7795401,8.028 26.7795401,6.6028125 L26.7795401,6.6028125 L26.7795401,5.581125 L22.2204599,5.581125 L22.2204599,6.6028125 C22.2204599,8.028 21.0552299,9.18740625 19.6229758,9.18740625 C18.1921336,9.18740625 17.0281271,8.028 17.0281271,6.6028125 L17.0281271,6.6028125 L17.0281271,5.581125 L12.469047,5.581125 L12.469047,6.6028125 C12.469047,8.028 11.303817,9.18740625 9.87156291,9.18740625 C8.43930884,9.18740625 7.27407881,8.028 7.27407881,6.6028125 L7.27407881,6.6028125 L7.27407881,5.581125 Z M39.1284371,1.40625 C38.4745717,1.40625 37.9427826,1.9348125 37.9427826,2.58459375 L37.9427826,2.58459375 L37.9427826,6.60271875 C37.9427826,7.25240625 38.4745717,7.7810625 39.1284371,7.7810625 C39.7823024,7.7810625 40.3141857,7.2525 40.3141857,6.60271875 L40.3141857,6.60271875 L40.3141857,2.58459375 C40.3141857,1.93490625 39.7823024,1.40625 39.1284371,1.40625 Z M29.3770242,1.40625 C28.7231588,1.40625 28.1913697,1.9348125 28.1913697,2.58459375 L28.1913697,2.58459375 L28.1913697,6.60271875 C28.1913697,7.25240625 28.7232529,7.7810625 29.3770242,7.7810625 C30.0292894,7.7810625 30.5600433,7.2525 30.5600433,6.60271875 L30.5600433,6.60271875 L30.5600433,2.58459375 C30.5600433,1.93490625 30.0293836,1.40625 29.3770242,1.40625 Z M19.6229758,1.40625 C18.9706164,1.40625 18.4399567,1.9348125 18.4399567,2.58459375 L18.4399567,2.58459375 L18.4399567,6.60271875 C18.4399567,7.25240625 18.9706164,7.7810625 19.6229758,7.7810625 C20.2767471,7.7810625 20.8086303,7.2525 20.8086303,6.60271875 L20.8086303,6.60271875 L20.8086303,2.58459375 C20.8086303,1.93490625 20.2767471,1.40625 19.6229758,1.40625 Z M9.87156291,1.40625 C9.21779168,1.40625 8.68590841,1.93490625 8.68590841,2.58459375 L8.68590841,2.58459375 L8.68590841,6.6028125 C8.68590841,7.2525 9.21779168,7.7810625 9.87156291,7.7810625 C10.5253341,7.7810625 11.0572174,7.2525 11.0572174,6.60271875 L11.0572174,6.60271875 L11.0572174,2.58459375 C11.0572174,1.93490625 10.5253341,1.40625 9.87156291,1.40625 Z" id="reminder" fill="#A4A5A8" fill-rule="nonzero"></path>
            </g>
        </g>
    </g>
</svg>