<?xml version="1.0" encoding="UTF-8"?>
<svg width="64px" height="64px" viewBox="0 0 64 64" version="1.1" xmlns="http://www.w3.org/2000/svg" xmlns:xlink="http://www.w3.org/1999/xlink">
    <title>page-management-icon</title>
    <g id="Resources---FINAL" stroke="none" stroke-width="1" fill="none" fill-rule="evenodd">
        <g id="page-management-icon">
            <rect id="Rectangle-Copy-3" fill-opacity="0" fill="#FFFFFF" x="0" y="0" width="64" height="64"></rect>
            <g id="Group-9" transform="translate(2.000000, 4.000000)" fill-rule="nonzero">
                <polygon id="Path" fill="#B2CAFA" points="17.584523 0 0 10.0690912 0 30.2148357 17.584523 40.2839269 35.1690459 30.2148357 35.1690459 10.0690912"></polygon>
                <path d="M56.5227698,46.9122095 L42.3072799,46.9122095 C40.3127594,46.9120003 38.3939068,47.669708 36.9450294,49.0296301 L36.9450294,48.4133095 C36.949232,45.477485 39.348148,43.0991535 42.3072799,43.0970714 L49.7961372,43.0970714 L49.7961372,20.0701224 L56.5113365,20.0701224 L56.5227698,46.9122095 Z M36.9450294,18.3270315 C36.9471314,15.3897302 39.3466618,13.0090976 42.3072799,13.0070122 L47.3417738,13.0070122 L47.3417738,40.6582566 L42.3072799,40.6582566 C40.3120109,40.6579117 38.3926732,41.4171643 36.9450294,42.7794583 L36.9450294,18.3270315 L36.9450294,18.3270315 Z M34.4792326,48.4246528 L34.4792326,49.0296301 C33.03197,47.6662878 31.1127017,46.9057094 29.1169821,46.9046473 L14.9014922,46.9046473 L14.9014922,20.058779 L29.1169821,20.058779 C32.0782166,20.0629485 34.4771339,22.4446644 34.4792326,25.3825794 L34.4792326,48.4019662 L34.4792326,48.4246528 Z M56.5227698,17.646432 L49.7961372,17.646432 L49.7961372,10.5757597 L42.3072799,10.5757597 C37.9857104,10.5799284 34.4834344,14.0546216 34.4792326,18.3421559 L34.4792326,19.7714148 C33.03197,18.4080725 31.1127017,17.647494 29.1169821,17.646432 L12.4471287,17.646432 L12.4471287,49.373711 L29.1284155,49.373711 C32.0881639,49.3778762 34.4864677,51.7572917 34.490666,54.6937302 L34.490666,55 L36.9564628,55 L36.9564628,54.6899491 C36.9606653,51.7541246 39.3595814,49.3757931 42.3187133,49.373711 L59,49.373711 L59,17.646432 L56.5227698,17.646432 Z" id="Shape" fill="#221F20"></path>
            </g>
        </g>
    </g>
</svg>