<?xml version="1.0" encoding="UTF-8"?>
<svg width="32px" height="20px" viewBox="0 0 32 20" version="1.1" xmlns="http://www.w3.org/2000/svg" xmlns:xlink="http://www.w3.org/1999/xlink">
    <title>paypal copy</title>
    <g id="04/06---payment" stroke="none" stroke-width="1" fill="none" fill-rule="evenodd">
        <g id="Checkout---NEW_v2.4-FINAL" transform="translate(-1227.000000, -834.000000)">
            <g id="summary" transform="translate(864.000000, 0.000000)">
                <g id="paymen-methods-copy" transform="translate(68.000000, 826.000000)">
                    <g id="paypal-copy" transform="translate(295.000000, 8.000000)">
                        <rect id="Rectangle" stroke="#C7C8CA" stroke-width="0.5" fill="#FFFFFF" x="0.25" y="0.25" width="31.1666667" height="19.5"></rect>
                        <g id="paypal-pp_fc_hl" transform="translate(7.500000, 2.500000)" fill-rule="nonzero">
                            <g id="Group-6" transform="translate(0.000000, 11.250000)">
                                <path d="M13.350434,1.1206835 C13.6443565,1.1206835 13.9386798,1.184734 14.0707876,1.37642761 L14.0707876,1.37642761 L14.1133734,1.43824579 L14.1402185,1.26773064 C14.1483465,1.21604376 14.1928212,1.17809428 14.2450804,1.17809428 L14.2450804,1.17809428 L14.8549054,1.17809428 C14.9201579,1.17809428 14.9699559,1.23630639 14.9597673,1.30075757 L14.9597673,1.30075757 L14.6301276,3.38838047 C14.6165048,3.47441078 14.5423801,3.53771717 14.4553195,3.53771717 L14.4553195,3.53771717 L13.906168,3.53771717 C13.8408582,3.53771717 13.7910603,3.47939057 13.801306,3.41493939 L13.801306,3.41493939 L13.8284946,3.24545454 C13.8284946,3.24545454 13.5273027,3.59432659 12.9842185,3.59432659 C12.667801,3.59432659 12.402269,3.50320201 12.2161276,3.28426262 C12.0136159,3.04597643 11.9308482,2.70460269 11.9891175,2.34737373 C12.1011343,1.63125589 12.6767303,1.1206835 13.350434,1.1206835 Z M11.0483364,-1.64090963e-12 C11.4744239,-1.64090963e-12 11.7954206,0.112531982 11.9765249,0.325346793 C12.1413162,0.518929288 12.1959795,0.795451174 12.1390266,1.1473569 C12.012471,1.95196633 11.5283431,2.35796296 10.6894475,2.35796296 L10.6894475,2.35796296 L10.2864273,2.35796296 C10.1993667,2.35796296 10.1252421,2.42132659 10.1116765,2.5073569 L10.1116765,2.5073569 L9.96560235,3.43314141 C9.95615791,3.4933569 9.90424208,3.53771717 9.84328254,3.53771717 L9.84328254,3.53771717 L9.18984145,3.53771717 C9.12458893,3.53771717 9.07479093,3.47944781 9.0849795,3.41505387 L9.0849795,3.41505387 L9.59995927,0.149393932 C9.61352489,0.0633636372 9.68764952,-1.64090963e-12 9.77471011,-1.64090963e-12 L9.77471011,-1.64090963e-12 Z M16.2668785,-1.64090963e-12 C16.332131,-1.64090963e-12 16.381929,0.0582693606 16.3717404,0.122720535 L16.3717404,0.122720535 L15.8563599,3.38838047 C15.8427943,3.47435353 15.7686697,3.53771717 15.6816091,3.53771717 L15.6816091,3.53771717 L15.1558684,3.53771717 C15.0906731,3.53771717 15.0408751,3.47950504 15.0510064,3.41505387 L15.0510064,3.41505387 L15.5737135,0.0896935961 C15.5818414,0.0380639728 15.6263162,-1.64090963e-12 15.6785754,-1.64090963e-12 L15.6785754,-1.64090963e-12 Z M13.4950771,1.76765656 C13.1475788,1.76765656 12.8665351,2.00914814 12.8116428,2.35447137 C12.7830232,2.52389898 12.816966,2.6760404 12.9071748,2.78284848 C12.9982421,2.89057239 13.1397943,2.94746801 13.3167202,2.94746801 C13.6695418,2.94746801 13.9461209,2.71353198 14.0050199,2.3650606 C14.0317505,2.19649158 13.9950603,2.04331986 13.9016462,1.93382154 C13.8088616,1.82512457 13.6682253,1.76765656 13.4950771,1.76765656 Z M10.5744542,0.706730639 L10.4863634,0.706730639 C10.434104,0.706730639 10.3896293,0.744737369 10.3815013,0.796309759 L10.3815013,0.796309759 L10.2467034,1.64985858 L10.5233526,1.64959402 C10.832817,1.6466838 11.1315238,1.61176122 11.1953263,1.19269023 C11.2206259,1.03219192 11.2003634,0.916053868 11.1333936,0.837693596 C11.021434,0.706730639 10.804269,0.706730639 10.5744542,0.706730639 L10.5744542,0.706730639 Z" id="Combined-Shape" fill="#2790C3"></path>
                                <path d="M6.886599,1.17809428 C6.96478757,1.17809428 7.0337034,1.2294377 7.0560838,1.30430639 L7.0560838,1.30430639 L7.41445759,2.50100336 L8.25999292,1.2556532 C8.29290539,1.20717171 8.3477404,1.17809428 8.40635319,1.17809428 L8.40635319,1.17809428 L9.01932625,1.17809428 C9.10501315,1.17809428 9.15538349,1.27437037 9.10661587,1.3447744 L9.10661587,1.3447744 L7.06810403,4.28680471 C7.03501986,4.33454209 6.98070004,4.3629899 6.92265959,4.3629899 L6.92265959,4.3629899 L6.31025895,4.3629899 C6.22411419,4.3629899 6.17380099,4.26574073 6.22365623,4.19545117 L6.22365623,4.19545117 L6.8584946,3.29965993 L6.1835317,1.31850168 C6.16006367,1.24964309 6.2112926,1.17809428 6.28404344,1.17809428 L6.28404344,1.17809428 Z M4.26682458,1.1206835 C4.56074712,1.1206835 4.85507038,1.184734 4.9871209,1.37642761 L4.9871209,1.37642761 L5.02976399,1.43824579 L5.05660907,1.26773064 C5.06473705,1.21604376 5.10921179,1.17809428 5.16147102,1.17809428 L5.16147102,1.17809428 L5.77129596,1.17809428 C5.83654848,1.17809428 5.88634648,1.23630639 5.87615791,1.30075757 L5.87615791,1.30075757 L5.54646095,3.38838047 C5.53289533,3.47441078 5.4587707,3.53771717 5.37171011,3.53771717 L5.37171011,3.53771717 L4.82250131,3.53771717 C4.75724879,3.53771717 4.70745088,3.47939057 4.71763936,3.41493939 L4.71763936,3.41493939 L4.74488517,3.24545454 C4.74488517,3.24545454 4.44369324,3.59432659 3.90060907,3.59432659 C3.58419156,3.59432659 3.31860235,3.50320201 3.13251818,3.28426262 C2.9299492,3.04597643 2.84718149,2.70460269 2.90550812,2.34737373 C3.01752489,1.63125589 3.59306367,1.1206835 4.26682458,1.1206835 Z M1.96472694,-1.64068759e-12 C2.39075725,-1.64068759e-12 2.71175392,0.112531982 2.89291546,0.325346793 C3.05770675,0.518929288 3.11237007,0.795451174 3.05541714,1.1473569 C2.92886158,1.95196633 2.44467644,2.35796296 1.60583806,2.35796296 L1.60583806,2.35796296 L1.20281786,2.35796296 C1.11575725,2.35796296 1.04157543,2.42132659 1.02806701,2.5073569 L1.02806701,2.5073569 L0.889090582,3.38838047 C0.875524922,3.47435353 0.801343108,3.53771717 0.7142825,3.53771717 L0.7142825,3.53771717 L0.106174754,3.53771717 C0.040979471,3.53771717 -0.00881850625,3.47944781 0.0013128043,3.41505387 L0.0013128043,3.41505387 L0.516349838,0.149393932 C0.529915498,0.0633636372 0.604040079,-1.64068759e-12 0.691100687,-1.64068759e-12 L0.691100687,-1.64068759e-12 Z M4.41141043,1.76765656 C4.06396934,1.76765656 3.78292562,2.00914814 3.72797614,2.35447137 C3.69941378,2.52389898 3.73335655,2.6760404 3.82356535,2.78284848 C3.91457542,2.89057239 4.05618485,2.94746801 4.23305351,2.94746801 C4.5858751,2.94746801 4.86251147,2.71353198 4.92141043,2.3650606 C4.94814113,2.19649158 4.91145088,2.04331986 4.81803673,1.93382154 C4.72519492,1.82512457 4.58461587,1.76765656 4.41141043,1.76765656 Z M1.49078755,0.706730639 L1.40269664,0.706730639 C1.35049462,0.706730639 1.30601988,0.744737369 1.29783469,0.796309759 L1.29783469,0.796309759 L1.16309395,1.64985858 L1.43973002,1.64959402 C1.74915035,1.6466838 2.04785714,1.61176122 2.11165961,1.19269023 C2.1370165,1.03219192 2.11675388,0.916053868 2.04972694,0.837693596 C1.93782459,0.706730639 1.72065961,0.706730639 1.49078755,0.706730639 L1.49078755,0.706730639 Z" id="Combined-Shape" fill="#27346A"></path>
                            </g>
                            <g id="Group-4" transform="translate(4.583333, 0.000000)">
                                <path d="M7.6747851,2.55308822 L7.6747851,2.55308822 C7.66547063,2.61276229 7.65513258,2.67345993 7.64284975,2.73600001 C7.23106793,4.85079595 5.82181811,5.5819313 4.02197433,5.5819313 L3.10547063,5.5819313 C2.885608,5.5819313 2.69993258,5.7420175 2.66564302,5.95921885 L2.06327264,9.77825724 C2.04085648,9.92053334 2.15089016,10.0492983 2.29490631,10.0492983 L3.92023156,10.0492983 C4.11256019,10.0492983 4.27633124,9.90937644 4.3063218,9.71929966 L4.32228948,9.63669764 L4.62843897,7.69519192 L4.64819385,7.58792188 C4.67818443,7.39784512 4.84195548,7.25792323 5.03428408,7.25792323 L5.27738174,7.25792323 C6.85193796,7.25792323 8.08482685,6.61819259 8.44512314,4.76819393 C8.59558779,3.99519461 8.51779656,3.3499367 8.11973056,2.89629091 C7.99935884,2.75913267 7.84950834,2.64561885 7.6747851,2.55308822" id="Fill-11" fill="#2790C3"></path>
                                <path d="M7.24376019,2.38133334 C7.1810154,2.36290908 7.11622349,2.34642963 7.04938443,2.33158788 C6.98254537,2.31674613 6.9138639,2.30364445 6.84323762,2.29228282 C6.59594335,2.252466 6.32551642,2.23342761 6.03543695,2.23342761 L3.58716221,2.23342761 C3.5270787,2.23342761 3.46975884,2.24714343 3.41837568,2.27170908 C3.30547601,2.32585589 3.22164571,2.43281885 3.20107197,2.56352861 L2.68068948,5.86290101 L2.66564302,5.95921885 C2.69993258,5.7420175 2.885608,5.5819313 3.10547063,5.5819313 L4.02197433,5.5819313 C5.82181811,5.5819313 7.23106793,4.85079595 7.64284975,2.73600001 C7.65513258,2.67345993 7.66547063,2.61276229 7.6747851,2.55308822 C7.57079048,2.49802019 7.45778847,2.45052659 7.33639318,2.41019797 C7.30599318,2.40006464 7.27518376,2.39044311 7.24376019,2.38133334" id="Fill-12" fill="#1F264F"></path>
                                <path d="M3.20107197,2.56352861 C3.22164571,2.43281885 3.30547601,2.32585589 3.41837568,2.27170908 C3.46975884,2.24714343 3.5270787,2.23342761 3.58716221,2.23342761 L6.03543695,2.23342761 C6.32551642,2.23342761 6.59594335,2.252466 6.84323762,2.29228282 C6.9138639,2.30364445 6.98254537,2.31674613 7.04938443,2.33158788 C7.11622349,2.34642963 7.1810154,2.36290908 7.24376019,2.38133334 C7.27518376,2.39044311 7.30599318,2.40006464 7.33639318,2.41019797 C7.45778847,2.45052659 7.57079048,2.49802019 7.6747851,2.55308822 C7.79740867,1.77138855 7.67396624,1.23943973 7.25112989,0.757645791 C6.78561069,0.227232323 5.94464638,-4.05009359e-14 4.86867063,-4.05009359e-14 L1.74524975,-4.05009359e-14 C1.52538712,-4.05009359e-14 1.33817635,0.159983837 1.30388678,0.377185185 L0.00333998356,8.62438788 C-0.0223515989,8.78713536 0.103445034,8.93422223 0.26813729,8.93422223 L2.19633662,8.93422223 L3.20107197,2.56352861" id="Fill-9" fill="#27346A"></path>
                            </g>
                        </g>
                    </g>
                </g>
            </g>
        </g>
    </g>
</svg>