<?xml version="1.0" encoding="UTF-8"?>
<svg width="66px" height="32px" viewBox="0 0 66 32" version="1.1" xmlns="http://www.w3.org/2000/svg" xmlns:xlink="http://www.w3.org/1999/xlink">
    <title>paypal</title>
    <g id="04/06---payment" stroke="none" stroke-width="1" fill="none" fill-rule="evenodd">
        <g id="Checkout---NEW_v2.4-FINAL" transform="translate(-188.000000, -1310.000000)">
            <g id="payment-method" transform="translate(156.000000, 889.000000)">
                <g id="other---no-trial" transform="translate(0.000000, 369.000000)">
                    <g id="paypal" transform="translate(0.000000, 52.000000)">
                        <g transform="translate(32.000000, 0.000000)">
                            <rect id="Rectangle" x="0" y="0" width="66" height="32"></rect>
                            <g id="paypal-pp_fc_hl" transform="translate(0.000060, 8.132687)" fill-rule="nonzero">
                                <path d="M56.8641019,6.71256566 C57.6940009,6.71256566 58.5250313,6.89341414 58.8980414,7.43466668 L58.8980414,7.43466668 L59.0182838,7.60921212 L59.0940817,7.12775758 C59.1170313,6.98181817 59.242607,6.87466668 59.3901625,6.87466668 L59.3901625,6.87466668 L61.1120211,6.87466668 C61.2962635,6.87466668 61.4368697,7.0390303 61.4081019,7.22101009 L61.4081019,7.22101009 L60.4773545,13.1154748 C60.4388899,13.3583839 60.2295969,13.5371313 59.9837787,13.5371313 L59.9837787,13.5371313 L58.4332331,13.5371313 C58.2488291,13.5371313 58.1082233,13.3724444 58.1371523,13.1904647 L58.1371523,13.1904647 L58.2139201,12.7119192 C58.2139201,12.7119192 57.3634958,13.6969697 55.8300817,13.6969697 C54.9366675,13.6969697 54.1869302,13.4396768 53.6613545,12.8214949 C53.0895566,12.1486869 52.8558595,11.1848081 53.0203849,10.1761616 C53.3366675,8.15418182 54.9618798,6.71256566 56.8641019,6.71256566 Z M50.3640617,3.54828284 C51.5671323,3.54828284 52.4734758,3.8660202 52.9848291,4.46690908 C53.4501222,5.01349494 53.6044657,5.79426262 53.4436574,6.78787878 C53.0863241,9.05971718 51.7193747,10.2060606 49.3507283,10.2060606 L49.3507283,10.2060606 L48.2127889,10.2060606 C47.9669707,10.2060606 47.7576777,10.3849697 47.7193747,10.6278788 L47.7193747,10.6278788 L47.3069302,13.2418586 C47.2802635,13.4118788 47.1336777,13.5371313 46.9615566,13.5371313 L46.9615566,13.5371313 L45.1165465,13.5371313 C44.9323041,13.5371313 44.7916979,13.3726061 44.8204657,13.1907879 L44.8204657,13.1907879 L46.2745262,3.970101 C46.3128291,3.72719193 46.5221222,3.54828284 46.7679403,3.54828284 L46.7679403,3.54828284 Z M65.0987686,3.54828284 C65.283011,3.54828284 65.4236171,3.71280809 65.3948494,3.89478788 L65.3948494,3.89478788 L63.9396574,13.1154748 C63.9013545,13.3582222 63.6920617,13.5371313 63.4462433,13.5371313 L63.4462433,13.5371313 L61.961799,13.5371313 C61.7777182,13.5371313 61.6371121,13.3727677 61.6657182,13.1907879 L61.6657182,13.1907879 L63.1415969,3.80153534 C63.1645465,3.65575758 63.2901222,3.54828284 63.4376777,3.54828284 L63.4376777,3.54828284 Z M57.2725059,8.53931313 C56.2913342,8.53931313 55.497799,9.22117172 55.3428091,10.196202 C55.2620009,10.6745859 55.3578393,11.1041616 55.6125465,11.4057374 C55.8696777,11.709899 56.2693545,11.8705455 56.7689099,11.8705455 C57.7651121,11.8705455 58.5460414,11.2100202 58.7123443,10.226101 C58.787819,9.75014142 58.6842233,9.31765657 58.4204657,9.00848484 C58.1584857,8.70157574 57.761395,8.53931313 57.2725059,8.53931313 Z M49.2019292,5.5440354 L48.7773142,5.54375758 C48.6297585,5.54375758 48.5041827,5.6510707 48.4812331,5.79668686 L48.4812331,5.79668686 L48.1006273,8.20670708 L48.7676626,8.20660099 C49.6809428,8.20426695 50.591111,8.15058411 50.7790918,6.91587878 C50.8505262,6.46270708 50.7933142,6.13478788 50.6042233,5.91353534 C50.2881019,5.54375758 49.6749302,5.54375758 49.0260414,5.54375758 Z" id="Combined-Shape" fill="#2790C3"></path>
                                <path d="M38.6132737,6.87466668 C38.8340414,6.87466668 39.0286273,7.01963636 39.091819,7.2310303 L39.091819,7.2310303 L40.1036979,10.6099394 L42.4910918,7.09365657 C42.5840211,6.95676766 42.7388494,6.87466668 42.9043443,6.87466668 L42.9043443,6.87466668 L44.6350918,6.87466668 C44.8770313,6.87466668 45.0192534,7.14650505 44.8815566,7.34529292 L44.8815566,7.34529292 L39.1257585,15.652202 C39.0323443,15.7869899 38.8789707,15.8673131 38.7150918,15.8673131 L38.7150918,15.8673131 L36.9859606,15.8673131 C36.7427283,15.8673131 36.6006675,15.5927273 36.7414353,15.3942626 L36.7414353,15.3942626 L38.5339201,12.8649697 L36.6281425,7.2711111 C36.5618798,7.07668686 36.7065262,6.87466668 36.9119403,6.87466668 L36.9119403,6.87466668 Z M31.2162635,6.71256566 C32.0461625,6.71256566 32.8771929,6.89341414 33.2500414,7.43466668 L33.2500414,7.43466668 L33.3704454,7.60921212 L33.4462433,7.12775758 C33.4691929,6.98181817 33.5947686,6.87466668 33.7423241,6.87466668 L33.7423241,6.87466668 L35.4641827,6.87466668 C35.6484251,6.87466668 35.7890313,7.0390303 35.7602635,7.22101009 L35.7602635,7.22101009 L34.8293545,13.1154748 C34.7910515,13.3583839 34.5817585,13.5371313 34.3359403,13.5371313 L34.3359403,13.5371313 L32.7852331,13.5371313 C32.6009907,13.5371313 32.4603849,13.3724444 32.4891523,13.1904647 L32.4891523,13.1904647 L32.5660817,12.7119192 C32.5660817,12.7119192 31.7156574,13.6969697 30.1822433,13.6969697 C29.2888291,13.6969697 28.5389302,13.4396768 28.0135161,12.8214949 C27.4415566,12.1486869 27.2078595,11.1848081 27.3725465,10.1761616 C27.6888291,8.15418182 29.3138798,6.71256566 31.2162635,6.71256566 Z M24.7162232,3.54828284 C25.9191322,3.54828284 26.8254758,3.8660202 27.3369907,4.46690908 C27.8022838,5.01349494 27.9566273,5.79426262 27.795819,6.78787878 C27.4384857,9.05971718 26.0713747,10.2060606 23.7028898,10.2060606 L23.7028898,10.2060606 L22.5649504,10.2060606 C22.3191322,10.2060606 22.1096777,10.3849697 22.0715363,10.6278788 L22.0715363,10.6278788 L21.6791322,13.1154748 C21.6408292,13.3582222 21.4313747,13.5371313 21.1855565,13.5371313 L21.1855565,13.5371313 L19.4685464,13.5371313 C19.2844656,13.5371313 19.1438595,13.3726061 19.1724656,13.1907879 L19.1724656,13.1907879 L20.6266878,3.970101 C20.6649908,3.72719193 20.8742838,3.54828284 21.120102,3.54828284 L21.120102,3.54828284 Z M31.6245059,8.53931313 C30.6434958,8.53931313 29.8499606,9.22117172 29.6948091,10.196202 C29.6141625,10.6745859 29.7100009,11.1041616 29.9647081,11.4057374 C30.2216777,11.709899 30.6215161,11.8705455 31.1209099,11.8705455 C32.1171121,11.8705455 32.898203,11.2100202 33.0645059,10.226101 C33.1399809,9.75014142 33.0363849,9.31765657 32.7726273,9.00848484 C32.5104857,8.70157574 32.1135566,8.53931313 31.6245059,8.53931313 Z M23.5539692,5.5440354 L23.1293141,5.54375758 C22.9819201,5.54375758 22.8563444,5.6510707 22.8332333,5.79668686 L22.8332333,5.79668686 L22.4527888,8.20670708 L23.119804,8.20660099 C24.0329427,8.20426695 24.9431112,8.15058411 25.1310918,6.91587878 C25.2026878,6.46270708 25.1454757,6.13478788 24.9562232,5.91353534 C24.6402636,5.54375758 24.0270918,5.54375758 23.3780413,5.54375758 Z" id="Combined-Shape" fill="#27346A"></path>
                                <path d="M6.81238478,15.2135757 L7.2957787,12.1483636 L7.32697062,11.9785051 C7.35024336,11.8307879 7.42587971,11.6956768 7.53981912,11.5983839 C7.65375851,11.5010909 7.79905144,11.4474343 7.9488696,11.4474343 L8.332708,11.4474343 C8.97254638,11.4474343 9.56034438,11.3790707 10.0799403,11.2442828 C10.6342838,11.1006061 11.1273747,10.8767677 11.5453141,10.5795556 C11.9884656,10.264404 12.3606676,9.85696969 12.6517383,9.36888889 C12.958809,8.8539798 13.1842636,8.2340202 13.3219605,7.52646465 C13.4436575,6.90165657 13.4664454,6.34230302 13.3900009,5.86375758 C13.3090312,5.35822222 13.1142838,4.92686868 12.8112534,4.58133334 C12.6274959,4.37204041 12.3923444,4.19070708 12.1124252,4.04234342 L12.1057989,4.03878788 L12.1056373,4.03070708 C12.2034151,3.4070303 12.1996979,2.88678788 12.0944858,2.43894949 C11.9887888,1.99014141 11.774809,1.58626263 11.4397787,1.20452525 C10.7456373,0.413575758 9.48309184,0.0124444443 7.68737467,0.0124444443 L2.7556575,0.0124444443 C2.59080901,0.0124444443 2.43080901,0.0714343432 2.30539487,0.178585859 C2.17998073,0.285737374 2.09691002,0.434585859 2.07105144,0.59749495 L0.0175564866,13.6193939 C-0.00119098821,13.7381818 0.032910022,13.8589091 0.111132244,13.9500606 C0.189354466,14.041697 0.303132245,14.0942222 0.423374669,14.0942222 L3.48293022,14.0942222 L3.48018275,14.1087677 L3.27008174,15.4411313 C3.25392011,15.5447273 3.2836575,15.6497778 3.3516979,15.7292929 C3.4197383,15.8089697 3.51880902,15.8548687 3.62353627,15.8548687 L6.18967771,15.8548687 C6.33367771,15.8548687 6.47315246,15.8033131 6.58256659,15.7097374 C6.69198072,15.6161616 6.764708,15.4863839 6.78717264,15.3443232 L6.81238478,15.2135757" id="Fill-8" fill="#27346A"></path>
                                <path d="M5.05432416,4.04767676 C5.08680902,3.84129292 5.21917264,3.67240404 5.39743528,3.58690908 C5.47856659,3.54812121 5.56907163,3.52646465 5.66394032,3.52646465 L9.52963728,3.52646465 C9.9876575,3.52646465 10.4146474,3.55652526 10.805112,3.61939393 C10.9166272,3.63733334 11.0250716,3.6580202 11.130607,3.68145454 C11.2361424,3.70488889 11.3384454,3.73090908 11.4375161,3.76000001 C11.4871322,3.77438385 11.5357787,3.78957574 11.5837787,3.80557574 C11.7754555,3.86925252 11.9538797,3.94424241 12.1180817,4.03119193 C12.3116979,2.79692929 12.1167888,1.9570101 11.4491525,1.19628283 C10.7141221,0.358787878 9.38628376,0 7.68737467,0 L2.7556575,0 C2.40850598,0 2.11291002,0.252606059 2.05876861,0.595555555 L0.00527365826,13.6174545 C-0.0352919983,13.8744243 0.163334264,14.1066667 0.423374669,14.1066667 L3.46789992,14.1066667 L5.05432416,4.04767676" id="Fill-9" fill="#27346A"></path>
                                <path d="M12.1180817,4.03119193 L12.1180817,4.03119193 C12.1033747,4.12541414 12.0870514,4.22125252 12.0676575,4.32000001 C11.4174757,7.6591515 9.19234438,8.81357574 6.35048579,8.81357574 L4.90337467,8.81357574 C4.55622315,8.81357574 4.26305144,9.06634342 4.20891003,9.40929292 L3.25779891,15.4393535 C3.22240496,15.664 3.39614235,15.8673131 3.62353627,15.8673131 L6.18983931,15.8673131 C6.49351608,15.8673131 6.75210195,15.6463839 6.79945547,15.3462626 L6.8246676,15.2158384 L7.30806152,12.150303 L7.33925344,11.9809293 C7.38660699,11.6808081 7.64519286,11.4598788 7.9488696,11.4598788 L8.332708,11.4598788 C10.8188494,11.4598788 12.7655161,10.4497778 13.334405,7.52872726 C13.5719807,6.30820201 13.4491525,5.28937374 12.8206272,4.57309092 C12.6305666,4.35652526 12.3939605,4.17729292 12.1180817,4.03119193" id="Fill-11" fill="#2790C3"></path>
                                <path d="M11.4375161,3.76000001 C11.3384454,3.73090908 11.2361424,3.70488889 11.130607,3.68145454 C11.0250716,3.6580202 10.9166272,3.63733334 10.805112,3.61939393 C10.4146474,3.55652526 9.9876575,3.52646465 9.52963728,3.52646465 L5.66394032,3.52646465 C5.56907163,3.52646465 5.47856659,3.54812121 5.39743528,3.58690908 C5.21917264,3.67240404 5.08680902,3.84129292 5.05432416,4.04767676 L4.2326676,9.25721212 L4.20891003,9.40929292 C4.26305144,9.06634342 4.55622315,8.81357574 4.90337467,8.81357574 L6.35048579,8.81357574 C9.19234438,8.81357574 11.4174757,7.6591515 12.0676575,4.32000001 C12.0870514,4.22125252 12.1033747,4.12541414 12.1180817,4.03119193 C11.9538797,3.94424241 11.7754555,3.86925252 11.5837787,3.80557574 C11.5357787,3.78957574 11.4871322,3.77438385 11.4375161,3.76000001" id="Fill-12" fill="#1F264F"></path>
                            </g>
                        </g>
                    </g>
                </g>
            </g>
        </g>
    </g>
</svg>