<svg xmlns="http://www.w3.org/2000/svg" width="48" height="48" viewBox="0 0 48 48"><g fill="none" fill-rule="evenodd"><rect width="48" height="48" fill="#6F4DD6" rx="8"/><path fill="#FFF" d="M33.7107188,24.4702818 C36.1911903,24.4702818 38.3926045,25.7146502 39.7708547,27.6367004 L39.7697735,35.9978742 L33.7613474,35.9983793 C34.2035399,34.7845485 34.4456041,33.4681475 34.4456041,32.0928632 C34.4456041,29.2672756 33.4238104,26.6902446 31.7440663,24.7407122 C32.370563,24.5639606 33.0301369,24.4702818 33.7107188,24.4702818 Z M14.5137136,24.4702818 C15.0534012,24.4702818 15.5798786,24.5291886 16.0875416,24.6411654 C14.3558718,26.6023541 13.2989031,29.2190522 13.2989031,32.0928632 C13.2989031,33.4681911 13.5409827,34.7846319 13.9831847,35.9984872 L8.57464016,35.9978742 L8.57497742,27.4719605 C9.95915392,25.6438463 12.1048442,24.4702818 14.5137136,24.4702818 Z M23.8722536,23.111338 C28.6349666,23.111338 32.4959083,27.1325038 32.4959083,32.0928632 C32.4959083,33.4923932 32.1885596,34.817159 31.6403248,35.9979401 L16.1041825,35.9979401 C15.5559477,34.817159 15.248599,33.4923932 15.248599,32.0928632 C15.248599,27.1325038 19.1095407,23.111338 23.8722536,23.111338 Z M14.4237277,21.7836342 C16.5773022,21.7836342 18.3231193,19.9653679 18.3231193,17.7224228 C18.3231193,15.4794777 16.5773022,13.6612114 14.4237277,13.6612114 C12.2701531,13.6612114 10.524336,15.4794777 10.524336,17.7224228 C10.524336,19.9653679 12.2701531,21.7836342 14.4237277,21.7836342 Z M33.920686,21.7836342 C36.0742606,21.7836342 37.8200777,19.9653679 37.8200777,17.7224228 C37.8200777,15.4794777 36.0742606,13.6612114 33.920686,13.6612114 C31.7671115,13.6612114 30.0212943,15.4794777 30.0212943,17.7224228 C30.0212943,19.9653679 31.7671115,21.7836342 33.920686,21.7836342 Z M23.8722536,19.5968281 C26.5228069,19.5968281 28.6715049,17.3589619 28.6715049,14.598414 C28.6715049,11.8378662 26.5228069,9.6 23.8722536,9.6 C21.2217003,9.6 19.0730023,11.8378662 19.0730023,14.598414 C19.0730023,17.3589619 21.2217003,19.5968281 23.8722536,19.5968281 Z"/></g></svg>