<?xml version="1.0" encoding="UTF-8"?>
<svg width="17px" height="14px" viewBox="0 0 17 14" version="1.1" xmlns="http://www.w3.org/2000/svg" xmlns:xlink="http://www.w3.org/1999/xlink">
    <title>icon/nav/social media</title>
    <g id="Analytics---Features" stroke="none" stroke-width="1" fill="none" fill-rule="evenodd">
        <g id="Group" transform="translate(0.500000, -0.812500)">
            <rect id="Rectangle" transform="translate(8.000000, 8.000000) scale(-1, 1) rotate(-180.000000) translate(-8.000000, -8.000000) " x="0" y="0" width="16" height="16"></rect>
            <path d="M7.84615385,8.15384615 C10.2889518,8.15384615 12.2692308,10.1341251 12.2692308,12.5769231 C12.2692308,13.2665753 12.1113928,13.9193625 11.8298699,14.5011315 L3.86243777,14.5011315 C3.58091493,13.9193625 3.42307692,13.2665753 3.42307692,12.5769231 C3.42307692,10.1341251 5.40335591,8.15384615 7.84615385,8.15384615 Z M12.8923077,8.82307692 C14.1640649,8.82307692 15.292801,9.43542312 15.9997577,10.3813573 L16,14.5 L12.9182195,14.5003606 C13.1450699,13.902512 13.2692308,13.2542172 13.2692308,12.5769231 C13.2692308,11.2620087 12.8012533,10.0563964 12.0227656,9.1175533 L11.8837585,8.95641895 L11.9234042,8.94513272 C12.2330911,8.86545382 12.5577506,8.82307692 12.8923077,8.82307692 Z M3.04615385,8.82307692 C3.32310272,8.82307692 3.59326909,8.85211634 3.85377411,8.90731634 C2.96547083,9.87239399 2.42307692,11.1613171 2.42307692,12.5769231 C2.42307692,13.2542599 2.5472534,13.9025937 2.7740829,14.5004011 L3.43125485e-12,14.5 L-0.0011329313,10.3029523 C0.708767837,9.40172428 1.80988568,8.82307692 3.04615385,8.82307692 Z M3,3.5 C4.1045695,3.5 5,4.3954305 5,5.5 C5,6.6045695 4.1045695,7.5 3,7.5 C1.8954305,7.5 1,6.6045695 1,5.5 C1,4.3954305 1.8954305,3.5 3,3.5 Z M13,3.5 C14.1045695,3.5 15,4.3954305 15,5.5 C15,6.6045695 14.1045695,7.5 13,7.5 C11.8954305,7.5 11,6.6045695 11,5.5 C11,4.3954305 11.8954305,3.5 13,3.5 Z M7.84615385,1.5 C9.205624,1.5 10.3076923,2.60206831 10.3076923,3.96153846 C10.3076923,5.32100861 9.205624,6.42307692 7.84615385,6.42307692 C6.48668369,6.42307692 5.38461538,5.32100861 5.38461538,3.96153846 C5.38461538,2.60206831 6.48668369,1.5 7.84615385,1.5 Z" id="Combined-Shape" fill="#6A4ECE"></path>
        </g>
    </g>
</svg>