<svg xmlns="http://www.w3.org/2000/svg" width="48" height="48" viewBox="0 0 48 48"><g fill="none" fill-rule="evenodd"><rect width="48" height="48" fill="#1DB954" rx="8"/><path fill="#FFF" fill-rule="nonzero" d="M35.0060363 34.6150953C34.5761522 35.320122 33.6533343 35.5436671 32.9483243 35.1109068 27.3134034 31.6688858 20.2197424 30.889344 11.8656612 32.798075 11.0606316 32.9814966 10.2581812 32.4770872 10.074764 31.6717518 9.89048702 30.8664163 10.3928783 30.0639468 11.199914 29.8805252 20.3421161 27.7909519 28.184062 28.6911507 34.5102366 32.5573342 35.2152466 32.9900945 35.4387863 33.9100685 35.0060363 34.6150953L35.0060363 34.6150953ZM37.9435777 28.0792677C37.4019237 28.9605512 36.2498343 29.2385496 35.3700048 28.6968827 28.9188773 24.7306771 19.085135 23.582286 11.454692 25.8985569 10.4650988 26.1974768 9.41990722 25.6397605 9.11956152 24.6518632 8.82150853 23.6622463 9.37949811 22.619036 10.3673718 22.3181099 19.0834154 19.6733997 29.9190743 20.9544849 37.3274105 25.5070664 38.20724 26.0487333 38.4852317 27.2008502 37.9435777 28.0795543L37.9435777 28.0792677ZM38.1957764 21.2743263C30.4607283 16.6799018 17.698902 16.257459 10.3137796 18.4989282 9.12787261 18.8586065 7.87375737 18.1891177 7.51437425 17.0031824 7.15499113 15.8166739 7.82389081 14.5633885 9.01065754 14.2028504 17.4882588 11.6292161 31.5812929 12.1264606 40.4867721 17.4133016 41.5557506 18.0463928 41.9053897 19.4240609 41.2720271 20.4893392 40.6415304 21.5560505 39.2601694 21.9077041 38.1969227 21.2743263L38.1957764 21.2743263Z"/></g></svg>