<?xml version="1.0" encoding="utf-8"?>
<!-- Generator: Adobe Illustrator 24.0.1, SVG Export Plug-In . SVG Version: 6.00 Build 0)  -->
<svg version="1.1" id="Layer_1" xmlns="http://www.w3.org/2000/svg" xmlns:xlink="http://www.w3.org/1999/xlink" x="0px" y="0px"
	 width="200px" height="30px" viewBox="0 0 200 30" style="enable-background:new 0 0 200 30;" xml:space="preserve">
<style type="text/css">
	.st0{fill:#FFC11F;}
</style>
<g id="Help-Centre---Mobile">
	<path id="Icon_ionic-ios-star" class="st0" d="M28.9,10.9h-9.8l-3-8.6c-0.2-0.4-0.7-0.7-1.1-0.7s-0.9,0.3-1,0.6l-3,8.8H1.1
		c-0.6,0-1.1,0.4-1.1,1.1C0,12,0,12,0,12.2c0,0.3,0.2,0.5,0.4,0.7l8.1,5.5l-3.1,8.8c-0.1,0.4,0,0.9,0.3,1.2c0.2,0.1,0.3,0.2,0.7,0.2
		c0.2,0,0.4-0.1,0.7-0.2l7.9-5.5l7.9,5.5c0.2,0.1,0.4,0.2,0.7,0.2s0.4-0.1,0.6-0.2c0.3-0.3,0.6-0.7,0.3-1.2l-3.1-8.8l8.1-5.6
		l0.2-0.2c0.2-0.2,0.3-0.4,0.3-0.7C30,11.3,29.4,10.9,28.9,10.9z"/>
</g>
<g id="Help-Centre---Mobile_1_">
	<path id="Icon_ionic-ios-star_1_" class="st0" d="M156.4,10.9h-9.8l-3-8.6c-0.2-0.4-0.7-0.7-1.1-0.7s-0.9,0.3-1,0.6l-3,8.8h-9.9
		c-0.6,0-1.1,0.4-1.1,1.1c0,0.1,0,0.1,0,0.2c0,0.3,0.2,0.5,0.4,0.7l8.1,5.5l-3.1,8.8c-0.1,0.4,0,0.9,0.3,1.2
		c0.2,0.1,0.3,0.2,0.7,0.2c0.2,0,0.4-0.1,0.7-0.2l7.9-5.5l7.9,5.5c0.2,0.1,0.4,0.2,0.7,0.2c0.2,0,0.4-0.1,0.6-0.2
		c0.3-0.3,0.6-0.7,0.3-1.2l-3.1-8.8l8.1-5.6l0.2-0.2c0.2-0.2,0.3-0.4,0.3-0.7C157.5,11.3,156.9,10.9,156.4,10.9z"/>
</g>
<g id="Help-Centre---Mobile_2_">
	<path id="Icon_ionic-ios-star_2_" class="st0" d="M113.9,10.9h-9.8l-3-8.6c-0.2-0.4-0.7-0.7-1.1-0.7s-0.9,0.3-1,0.6l-3,8.8h-9.9
		c-0.6,0-1.1,0.4-1.1,1.1c0,0.1,0,0.1,0,0.2c0,0.3,0.2,0.5,0.4,0.7l8.1,5.5l-3.1,8.8c-0.1,0.4,0,0.9,0.3,1.2
		c0.2,0.1,0.3,0.2,0.7,0.2c0.2,0,0.4-0.1,0.7-0.2l7.9-5.5l7.9,5.5c0.2,0.1,0.4,0.2,0.7,0.2s0.4-0.1,0.6-0.2c0.3-0.3,0.6-0.7,0.3-1.2
		l-3.1-8.8l8.1-5.6l0.2-0.2c0.2-0.2,0.3-0.4,0.3-0.7C115,11.3,114.4,10.9,113.9,10.9z"/>
</g>
<g id="Help-Centre---Mobile_3_">
	<path id="Icon_ionic-ios-star_3_" class="st0" d="M71.4,10.9h-9.8l-3-8.6c-0.2-0.4-0.7-0.7-1.1-0.7s-0.9,0.3-1,0.6l-3,8.8h-9.9
		c-0.6,0-1.1,0.4-1.1,1.1c0,0.1,0,0.1,0,0.2c0,0.3,0.2,0.5,0.4,0.7l8.1,5.5l-3.1,8.8c-0.1,0.4,0,0.9,0.3,1.2
		c0.2,0.1,0.3,0.2,0.7,0.2c0.2,0,0.4-0.1,0.7-0.2l7.9-5.5l7.9,5.5c0.2,0.1,0.4,0.2,0.7,0.2s0.4-0.1,0.6-0.2c0.3-0.3,0.6-0.7,0.3-1.2
		l-3.1-8.8l8.1-5.6l0.2-0.2c0.2-0.2,0.3-0.4,0.3-0.7C72.5,11.3,71.9,10.9,71.4,10.9z"/>
</g>
<g id="Help-Centre---Mobile_4_">
	<path id="Icon_ionic-ios-star_4_" class="st0" d="M198.9,10.9h-9.8l-3-8.6c-0.2-0.4-0.7-0.7-1.1-0.7s-0.9,0.3-1,0.6l-3,8.8h-9.9
		c-0.6,0-1.1,0.4-1.1,1.1c0,0.1,0,0.1,0,0.2c0,0.3,0.2,0.5,0.4,0.7l8.1,5.5l-3.1,8.8c-0.1,0.4,0,0.9,0.3,1.2
		c0.2,0.1,0.3,0.2,0.7,0.2c0.2,0,0.4-0.1,0.7-0.2l7.9-5.5l7.9,5.5c0.2,0.1,0.4,0.2,0.7,0.2c0.2,0,0.4-0.1,0.6-0.2
		c0.3-0.3,0.6-0.7,0.3-1.2l-3.1-8.8l8.1-5.6l0.2-0.2c0.2-0.2,0.3-0.4,0.3-0.7C200,11.3,199.4,10.9,198.9,10.9z"/>
</g>
</svg>
