<?xml version="1.0" encoding="UTF-8"?>
<svg width="17px" height="16px" viewBox="0 0 17 16" version="1.1" xmlns="http://www.w3.org/2000/svg" xmlns:xlink="http://www.w3.org/1999/xlink">
    <title>Icon_ionic-ios-star</title>
    <g id="Help-Centre---Mobile" stroke="none" stroke-width="1" fill="none" fill-rule="evenodd">
        <path d="M16.3559301,5.54159793 L10.7719736,5.54159793 L9.07491423,0.408317417 C8.98611263,0.163047273 8.75568017,0 8.49784487,0 C8.24000957,0 8.00957712,0.163047273 7.92077552,0.408317417 L6.22458066,5.54159793 L0.605178727,5.54159793 C0.270954574,5.54159793 0,5.81613268 0,6.15478844 C-0.000245351867,6.18986003 0.00352629028,6.22484285 0.011251169,6.25903083 C0.0265924553,6.43635072 0.11995334,6.59723302 0.265421041,6.69702404 L4.85431111,9.9740893 L3.08895438,15.158177 C3.00238688,15.410216 3.08663556,15.6900456 3.29730452,15.8502063 C3.39324223,15.9372137 3.51475071,15.9898473 3.64311387,16 C3.77978299,15.9901373 3.91111384,15.9422434 4.02263963,15.8615941 L8.50173523,12.6274522 L12.9808308,15.8615941 C13.0915144,15.9438592 13.2233203,15.9919264 13.3603566,16 C13.4867826,15.9913637 13.6062982,15.9384017 13.6983852,15.8502063 C13.9090542,15.6900456 13.9933029,15.410216 13.9067354,15.158177 L12.1422432,9.96970937 L16.6930942,6.66198459 L16.8028887,6.56562608 C16.9159991,6.45737675 16.9861104,6.31093263 17,6.15391245 C16.979382,5.80911127 16.6968416,5.54050132 16.3559301,5.54159793 Z" id="Icon_ionic-ios-star" fill="#FFC11F" fill-rule="nonzero"></path>
    </g>
</svg>