<?xml version="1.0" encoding="UTF-8"?>
<svg width="74px" height="13px" viewBox="0 0 74 13" version="1.1" xmlns="http://www.w3.org/2000/svg" xmlns:xlink="http://www.w3.org/1999/xlink">
    <title>Stars_small</title>
    <g id="Analytics-landing" stroke="none" stroke-width="1" fill="none" fill-rule="evenodd">
        <g id="Avatar-for-reviews" transform="translate(-715.000000, -260.000000)">
            <g id="Card_New-Acid-Planet_secondary" transform="translate(519.000000, 105.000000)">
                <g id="Stars_small" transform="translate(196.000000, 155.139535)">
                    <g id="star_black_24dp-copy" transform="translate(15.400000, 0.000000)">
                        <g id="Group">
                            <polygon id="Path" points="0 0 11.2 0 11.2 11.2 0 11.2"></polygon>
                            <polygon id="Path" points="0 0 11.2 0 11.2 11.2 0 11.2"></polygon>
                        </g>
                        <polygon id="Path" fill="#00B67A" fill-rule="nonzero" points="5.6 8.05933333 8.484 9.8 7.71866667 6.51933333 10.2666667 4.312 6.91133333 4.02733333 5.6 0.933333333 4.28866667 4.02733333 0.933333333 4.312 3.48133333 6.51933333 2.716 9.8"></polygon>
                    </g>
                    <g id="star_black_24dp-copy-3" transform="translate(61.600000, 0.000000)">
                        <g id="Group">
                            <polygon id="Path" points="0 0 11.2 0 11.2 11.2 0 11.2"></polygon>
                            <polygon id="Path" points="0 0 11.2 0 11.2 11.2 0 11.2"></polygon>
                        </g>
                        <polygon id="Path" fill="#00B67A" fill-rule="nonzero" points="5.6 8.05933333 8.484 9.8 7.71866667 6.51933333 10.2666667 4.312 6.91133333 4.02733333 5.6 0.933333333 4.28866667 4.02733333 0.933333333 4.312 3.48133333 6.51933333 2.716 9.8"></polygon>
                    </g>
                    <g id="star_black_24dp-copy-2">
                        <g id="Group">
                            <polygon id="Path" points="0 0 11.2 0 11.2 11.2 0 11.2"></polygon>
                            <polygon id="Path" points="0 0 11.2 0 11.2 11.2 0 11.2"></polygon>
                        </g>
                        <polygon id="Path" fill="#00B67A" fill-rule="nonzero" points="5.6 8.05933333 8.484 9.8 7.71866667 6.51933333 10.2666667 4.312 6.91133333 4.02733333 5.6 0.933333333 4.28866667 4.02733333 0.933333333 4.312 3.48133333 6.51933333 2.716 9.8"></polygon>
                    </g>
                    <g id="star_black_24dp-copy-4" transform="translate(46.200000, 0.000000)">
                        <g id="Group">
                            <polygon id="Path" points="0 0 11.2 0 11.2 11.2 0 11.2"></polygon>
                            <polygon id="Path" points="0 0 11.2 0 11.2 11.2 0 11.2"></polygon>
                        </g>
                        <polygon id="Path" fill="#00B67A" fill-rule="nonzero" points="5.6 8.05933333 8.484 9.8 7.71866667 6.51933333 10.2666667 4.312 6.91133333 4.02733333 5.6 0.933333333 4.28866667 4.02733333 0.933333333 4.312 3.48133333 6.51933333 2.716 9.8"></polygon>
                    </g>
                    <g id="star_black_24dp-copy-9" transform="translate(30.800000, 0.000000)">
                        <g id="Group">
                            <polygon id="Path" points="0 0 11.2 0 11.2 11.2 0 11.2"></polygon>
                            <polygon id="Path" points="0 0 11.2 0 11.2 11.2 0 11.2"></polygon>
                        </g>
                        <polygon id="Path" fill="#00B67A" fill-rule="nonzero" points="5.6 8.05933333 8.484 9.8 7.71866667 6.51933333 10.2666667 4.312 6.91133333 4.02733333 5.6 0.933333333 4.28866667 4.02733333 0.933333333 4.312 3.48133333 6.51933333 2.716 9.8"></polygon>
                    </g>
                </g>
            </g>
        </g>
    </g>
</svg>