<?xml version="1.0" encoding="utf-8"?>
<!-- Generator: Adobe Illustrator 24.0.1, SVG Export Plug-In . SVG Version: 6.00 Build 0)  -->
<svg version="1.1" id="Layer_1" xmlns="http://www.w3.org/2000/svg" xmlns:xlink="http://www.w3.org/1999/xlink" x="0px" y="0px"
	 width="30px" height="27px" viewBox="0 0 30 27" style="enable-background:new 0 0 30 27;" xml:space="preserve">
<style type="text/css">
	.st0{fill:#FFC11F;}
</style>
<g id="Help-Centre---Mobile">
	<path id="Icon_ionic-ios-star" class="st0" d="M28.9,9.3h-9.8l-3-8.6C15.9,0.3,15.4,0,15,0s-0.9,0.3-1,0.6l-3,8.8H1.1
		C0.5,9.4,0,9.8,0,10.5c0-0.1,0-0.1,0,0.1c0,0.3,0.2,0.5,0.4,0.7l8.1,5.5l-3.1,8.8c-0.1,0.4,0,0.9,0.3,1.2C5.9,26.9,6,27,6.4,27
		c0.2,0,0.4-0.1,0.7-0.2l7.9-5.5l7.9,5.5c0.2,0.1,0.4,0.2,0.7,0.2s0.4-0.1,0.6-0.2c0.3-0.3,0.6-0.7,0.3-1.2l-3.1-8.8l8.1-5.6
		l0.2-0.2c0.2-0.2,0.3-0.4,0.3-0.7C30,9.7,29.4,9.3,28.9,9.3z"/>
</g>
</svg>
