<?xml version="1.0" encoding="UTF-8"?>
<svg width="141px" height="27px" viewBox="0 0 141 27" version="1.1" xmlns="http://www.w3.org/2000/svg" xmlns:xlink="http://www.w3.org/1999/xlink">
    <title>DA7451B7-DC0B-44CC-9727-DA90A5C6DA88</title>
    <g id="Analytics-landing" stroke="none" stroke-width="1" fill="none" fill-rule="evenodd">
        <g id="Feature-Landings-Beatport_iPhone-8-Plus" transform="translate(-139.000000, -10065.000000)" fill-rule="nonzero">
            <g id="Reviews" transform="translate(24.000000, 9981.000000)">
                <g id="Stars" transform="translate(115.000000, 84.000000)">
                    <g id="Logo_Trustpilot">
                        <polygon id="Path" fill="#00B67A" points="27.4138214 9.95825664 16.9404826 9.95825664 13.7164493 -5.42204361e-15 10.4733389 9.95825664 0 9.93917952 8.47024128 16.1010893 5.22713088 26.0593459 13.6973722 19.8974362 22.1676134 26.0593459 18.9435802 16.1010893"></polygon>
                        <polygon id="Path" fill="#005128" points="19.6685107 18.3521894 18.9435802 16.1010893 13.7164493 19.8974362"></polygon>
                    </g>
                    <g id="Logo_Trustpilot-Copy" transform="translate(28.080000, -0.000000)">
                        <polygon id="Path" fill="#00B67A" points="27.4138214 9.95825664 16.9404826 9.95825664 13.7164493 -5.42204361e-15 10.4733389 9.95825664 0 9.93917952 8.47024128 16.1010893 5.22713088 26.0593459 13.6973722 19.8974362 22.1676134 26.0593459 18.9435802 16.1010893"></polygon>
                        <polygon id="Path" fill="#005128" points="19.6685107 18.3521894 18.9435802 16.1010893 13.7164493 19.8974362"></polygon>
                    </g>
                    <g id="Logo_Trustpilot-Copy-2" transform="translate(56.160000, 0.000000)">
                        <polygon id="Path" fill="#00B67A" points="27.4138214 9.95825664 16.9404826 9.95825664 13.7164493 -5.42204361e-15 10.4733389 9.95825664 0 9.93917952 8.47024128 16.1010893 5.22713088 26.0593459 13.6973722 19.8974362 22.1676134 26.0593459 18.9435802 16.1010893"></polygon>
                        <polygon id="Path" fill="#005128" points="19.6685107 18.3521894 18.9435802 16.1010893 13.7164493 19.8974362"></polygon>
                    </g>
                    <g id="Logo_Trustpilot-Copy-3" transform="translate(84.240000, 0.000000)">
                        <polygon id="Path" fill="#00B67A" points="27.4138214 9.95825664 16.9404826 9.95825664 13.7164493 -5.42204361e-15 10.4733389 9.95825664 0 9.93917952 8.47024128 16.1010893 5.22713088 26.0593459 13.6973722 19.8974362 22.1676134 26.0593459 18.9435802 16.1010893"></polygon>
                        <polygon id="Path" fill="#005128" points="19.6685107 18.3521894 18.9435802 16.1010893 13.7164493 19.8974362"></polygon>
                    </g>
                    <g id="Logo_Trustpilot-Copy-4" transform="translate(112.320000, 0.000000)">
                        <polygon id="Path" fill="#00B67A" points="27.4138214 9.95825664 16.9404826 9.95825664 13.7164493 -5.42204361e-15 10.4733389 9.95825664 0 9.93917952 8.47024128 16.1010893 5.22713088 26.0593459 13.6973722 19.8974362 22.1676134 26.0593459 18.9435802 16.1010893"></polygon>
                        <polygon id="Path" fill="#005128" points="19.6685107 18.3521894 18.9435802 16.1010893 13.7164493 19.8974362"></polygon>
                    </g>
                </g>
            </g>
        </g>
    </g>
</svg>