<?xml version="1.0" encoding="UTF-8"?>
<svg width="104px" height="16px" viewBox="0 0 104 16" version="1.1" xmlns="http://www.w3.org/2000/svg" xmlns:xlink="http://www.w3.org/1999/xlink">
    <title>Stars_big</title>
    <g id="Analytics-landing" stroke="none" stroke-width="1" fill="none" fill-rule="evenodd">
        <g id="Avatar-for-reviews" transform="translate(-321.000000, -292.000000)">
            <g id="Card_New-Acid-Planet_primary" transform="translate(83.000000, 74.000000)">
                <g id="Stars_big" transform="translate(238.000000, 218.000000)">
                    <g id="star_black_24dp-copy" transform="translate(22.000000, 0.000000)">
                        <g id="Group">
                            <polygon id="Path" points="0 0 16 0 16 16 0 16"></polygon>
                            <polygon id="Path" points="0 0 16 0 16 16 0 16"></polygon>
                        </g>
                        <polygon id="Path" fill="#00B67A" fill-rule="nonzero" points="8 11.5133333 12.12 14 11.0266667 9.31333333 14.6666667 6.16 9.87333333 5.75333333 8 1.33333333 6.12666667 5.75333333 1.33333333 6.16 4.97333333 9.31333333 3.88 14"></polygon>
                    </g>
                    <g id="star_black_24dp-copy-3" transform="translate(88.000000, 0.000000)">
                        <g id="Group">
                            <polygon id="Path" points="0 0 16 0 16 16 0 16"></polygon>
                            <polygon id="Path" points="0 0 16 0 16 16 0 16"></polygon>
                        </g>
                        <polygon id="Path" fill="#00B67A" fill-rule="nonzero" points="8 11.5133333 12.12 14 11.0266667 9.31333333 14.6666667 6.16 9.87333333 5.75333333 8 1.33333333 6.12666667 5.75333333 1.33333333 6.16 4.97333333 9.31333333 3.88 14"></polygon>
                    </g>
                    <g id="star_black_24dp-copy-2">
                        <g id="Group">
                            <polygon id="Path" points="0 0 16 0 16 16 0 16"></polygon>
                            <polygon id="Path" points="0 0 16 0 16 16 0 16"></polygon>
                        </g>
                        <polygon id="Path" fill="#00B67A" fill-rule="nonzero" points="8 11.5133333 12.12 14 11.0266667 9.31333333 14.6666667 6.16 9.87333333 5.75333333 8 1.33333333 6.12666667 5.75333333 1.33333333 6.16 4.97333333 9.31333333 3.88 14"></polygon>
                    </g>
                    <g id="star_black_24dp-copy-4" transform="translate(66.000000, 0.000000)">
                        <g id="Group">
                            <polygon id="Path" points="0 0 16 0 16 16 0 16"></polygon>
                            <polygon id="Path" points="0 0 16 0 16 16 0 16"></polygon>
                        </g>
                        <polygon id="Path" fill="#00B67A" fill-rule="nonzero" points="8 11.5133333 12.12 14 11.0266667 9.31333333 14.6666667 6.16 9.87333333 5.75333333 8 1.33333333 6.12666667 5.75333333 1.33333333 6.16 4.97333333 9.31333333 3.88 14"></polygon>
                    </g>
                    <g id="star_black_24dp-copy-9" transform="translate(44.000000, 0.000000)">
                        <g id="Group">
                            <polygon id="Path" points="0 0 16 0 16 16 0 16"></polygon>
                            <polygon id="Path" points="0 0 16 0 16 16 0 16"></polygon>
                        </g>
                        <polygon id="Path" fill="#00B67A" fill-rule="nonzero" points="8 11.5133333 12.12 14 11.0266667 9.31333333 14.6666667 6.16 9.87333333 5.75333333 8 1.33333333 6.12666667 5.75333333 1.33333333 6.16 4.97333333 9.31333333 3.88 14"></polygon>
                    </g>
                </g>
            </g>
        </g>
    </g>
</svg>