<svg xmlns="http://www.w3.org/2000/svg" width="960" height="35"><g fill="none" fill-rule="evenodd"><path d="M0 0h960v35H0z"/><g fill="#A4A5A8"><path d="m87.28 20.302-5.083.009a6.71 6.71 0 0 1-.231-.004c-.248-.008-.548.065-.73-.049-.17-.105-.214-.41-.314-.628-.39-.844-.782-1.688-1.167-2.536-.086-.189-.211-.278-.423-.277-2.504.005-5.008.006-7.512.006-.197 0-.31.088-.398.264-.488.979-.988 1.952-1.481 2.927-.105.207-.246.307-.499.305-1.676-.012-3.351-.008-5.028-.009h-.576c.052-.131.075-.212.113-.284.664-1.288 1.337-2.572 1.995-3.863.557-1.092 1.094-2.195 1.65-3.287.417-.819.852-1.628 1.275-2.443.392-.757.772-1.52 1.17-2.273.444-.836.885-1.676 1.363-2.493.254-.433.661-.747 1.106-.975.423-.217.868-.394 1.317-.552.268-.094.56-.15.843-.164 1.1-.054 2.2-.056 3.246.356.831.329 1.535.816 1.961 1.638.446.86.912 1.708 1.36 2.567.619 1.19 1.23 2.384 1.842 3.578.332.648.648 1.303.983 1.949.5.961 1.013 1.915 1.512 2.875.537 1.037 1.065 2.078 1.6 3.117.025.048.07.087.106.13v.116ZM75.57 8.176c-.097.123-.18.195-.223.287-.38.817-.753 1.638-1.13 2.457-.328.712-.661 1.423-.989 2.136-.104.228-.02.34.237.33.096-.004.192-.012.288-.013 1.271 0 2.543.003 3.813-.003.12 0 .242-.045.396-.077L75.57 8.176ZM55.185 9.672c-.115.247-.24.489-.345.74-.557 1.325-1.106 2.654-1.663 3.98-.322.768-.653 1.531-.98 2.296-.24.565-.47 1.134-.722 1.694-.288.646-.763 1.12-1.365 1.495-.767.477-1.61.607-2.483.626-.796.017-1.572-.101-2.3-.437-.906-.416-1.545-1.083-1.898-2.021-.176-.465-.374-.922-.57-1.38-.323-.747-.656-1.49-.978-2.238-.536-1.24-1.065-2.485-1.602-3.726-.171-.395-.358-.784-.539-1.175-.01-.023-.036-.04-.105-.114-.018.188-.042.322-.042.456-.003 3.057-.003 6.114-.003 9.17 0 .327-.004.654.001.981.003.205-.078.29-.293.29-1.666-.005-3.333-.002-4.999-.003-.271 0-.286-.02-.286-.336-.001-2.307-.002-4.614 0-6.921.001-2.01.013-4.018.004-6.027-.004-.591.252-1.058.624-1.469.491-.544 1.123-.886 1.81-1.132a7.285 7.285 0 0 1 2.43-.429c.92-.004 1.828.128 2.676.499 1.003.438 1.83 1.096 2.308 2.106.29.614.533 1.251.796 1.879.432 1.034.862 2.068 1.293 3.103.44 1.052.877 2.104 1.322 3.155.044.104.13.191.238.345.173-.396.317-.716.453-1.038.627-1.483 1.251-2.967 1.878-4.45.433-1.023.863-2.047 1.304-3.066a3.43 3.43 0 0 1 1.367-1.579c1.092-.684 2.29-.878 3.553-.879 1.082 0 2.101.235 3.04.752.7.385 1.298.908 1.576 1.69.1.283.14.6.145.902.02 1.384.02 2.769.022 4.152 0 2.779-.003 5.557-.007 8.335 0 .397-.004.405-.392.405-1.628 0-3.256-.006-4.883-.002-.202 0-.274-.072-.272-.268.007-1.653.01-3.307.014-4.96.003-1.692.005-3.383.006-5.075 0-.1-.022-.202-.033-.302l-.1-.024m-43.468 2.63v-7.67c.008-.345.019-.357.358-.358 2.04-.005 4.082-.012 6.123-.012 1.886-.002 3.774-.002 5.66.009a68.56 68.56 0 0 1 2.914.061c.88.043 1.718.264 2.494.71.365.21.725.408 1.016.721.422.453.69.97.692 1.59.007 3.327.003 6.652.003 9.978 0 .528-.22.965-.569 1.341-.716.774-1.622 1.196-2.644 1.409-1.053.219-2.118.232-3.186.23-3.997-.005-7.993-.005-11.99-.007-.21 0-.423-.011-.635-.004-.177.006-.242-.074-.237-.242.006-.172.002-.346.002-.518v-7.238h-.001Zm5.79-.029h.001v4.18c0 .403-.002.406.407.405 1.896 0 3.792.004 5.688-.014.308-.003.627-.082.921-.181.406-.136.503-.33.503-.769-.002-2.411-.004-4.822.002-7.234 0-.323-.136-.539-.407-.698-.378-.223-.786-.293-1.217-.291-1.868.005-3.735.004-5.602.006-.29 0-.297.005-.297.274v4.322ZM5.877 4.363v15.94h-.46c-1.666-.001-3.332-.001-4.999-.004-.36 0-.362-.005-.362-.375 0-2.816.004-5.632 0-8.448-.001-2.22-.01-4.44-.015-6.66 0-.097.001-.193.004-.29.005-.152.083-.218.239-.217 1.83.009 3.66.015 5.489.024.027 0 .054.015.104.03M27.63 28.545c-.224.41-.448.82-.67 1.232-.222.414-.43.835-.666 1.241-.057.1-.194.213-.294.212-.1 0-.242-.113-.296-.212-.386-.718-.753-1.447-1.134-2.168-.044-.084-.135-.142-.204-.212-.046.097-.13.193-.132.29-.011.557-.002 1.114-.002 1.672 0 .115-.012.23-.015.345-.003.179-.029.313-.269.314-.265 0-.237-.18-.238-.333-.006-.884-.004-1.769-.004-2.653 0-.153.014-.309-.001-.46-.026-.238.081-.299.301-.295.243.004.431.031.558.29.388.79.8 1.57 1.209 2.35.059.111.149.207.225.31.082-.098.185-.185.243-.296.38-.731.75-1.467 1.126-2.2.253-.495.364-.54.97-.37v.87c-.002.817 0 1.633-.008 2.45-.002.227-.102.328-.298.323-.212-.005-.272-.14-.271-.327.005-.644.011-1.288.011-1.931 0-.139-.027-.277-.042-.416l-.1-.026M1.725 22.372c.433 0 .866-.013 1.3.004.46.018.86.188 1.13.584.233.342.22.647-.033.978-.234.306-.233.329.02.635.226.274.24.663.036.96a1.3 1.3 0 0 1-1.014.577c-.412.033-.825.055-1.238.055-.528 0-1.056-.027-1.584-.042-.152-.004-.3-.014-.295-.223.003-.227.183-.196.314-.198.75-.009 1.501-.003 2.252-.011.22-.003.444-.012.655-.064.314-.076.47-.296.461-.577-.008-.257-.18-.469-.48-.536-.185-.04-.382-.037-.573-.037-.597-.001-1.193.013-1.79.002-.103-.001-.253-.069-.297-.15-.093-.173.03-.31.272-.312.606-.004 1.213.006 1.819.004.182 0 .367 0 .545-.031.32-.057.513-.29.503-.57-.01-.297-.222-.532-.54-.577-.17-.024-.345-.022-.518-.023-.798-.007-1.597-.007-2.396-.02-.21-.003-.297-.126-.214-.289.034-.065.145-.124.222-.125.48-.011.962-.006 1.443-.006v-.008M.003 29.35c0-.519.004-1.037-.003-1.556-.003-.199.095-.288.275-.288.904.001 1.808.003 2.712.016.425.005.755.206.975.565a.78.78 0 0 1 .124.377c.007.585.008 1.172-.017 1.756-.025.567-.536 1.038-1.108 1.04-.885.003-1.77-.006-2.655-.003-.213 0-.298-.094-.297-.295V29.35H.003Zm.528.03h.003c0 .364.003.73 0 1.094-.004.29.028.326.33.327.23.002.461 0 .692 0 .414 0 .828.003 1.241-.002.471-.006.727-.243.741-.703.015-.46.014-.92.015-1.381.001-.482-.194-.715-.679-.74-.662-.032-1.326-.03-1.989-.041-.289-.005-.355.064-.354.351v1.095Zm6.148-7.008c.433 0 .87-.035 1.298.012.295.033.605.133.858.286.525.316.605.853.215 1.323-.166.2-.165.338.005.512.46.469.237 1.253-.49 1.472-.46.139-.964.156-1.45.177-.587.026-1.175-.002-1.762-.008-.075 0-.168.004-.221-.035-.068-.052-.146-.149-.14-.222.002-.062.107-.138.183-.17.075-.032.17-.02.257-.02.789 0 1.579 0 2.368.006.248 0 .474-.044.678-.196.311-.234.32-.706-.025-.886-.2-.105-.456-.138-.689-.145-.653-.018-1.308-.002-1.963-.006-.21-.001-.318-.138-.228-.309.04-.075.18-.132.276-.134.403-.012.808 0 1.212.003.318.003.635.01.953.008.473-.004.805-.415.655-.818-.098-.263-.33-.373-.587-.394-.335-.028-.672-.022-1.01-.025-.587-.004-1.174-.004-1.761-.008-.136-.002-.283.008-.281-.197.001-.203.132-.225.293-.224.452.003.904.001 1.356.001v-.003m59.986.844c.385 0 .77.007 1.154-.001.61-.014 1.237.599 1.159 1.238-.02.162-.003.327-.004.49 0 .576-.341 1.007-.91 1.126-.712.15-1.43.16-2.145.02-.347-.067-.593-.28-.692-.618a.721.721 0 0 1 .421-.878 2.42 2.42 0 0 1 .774-.183c.538-.026 1.077 0 1.616-.006.103-.002.287-.048.295-.095a.553.553 0 0 0-.078-.371c-.163-.235-.427-.274-.694-.274l-1.761.003c-.106-.001-.212-.008-.317-.013-.159-.008-.28-.05-.28-.247-.002-.207.148-.2.279-.202.394-.006.789-.002 1.183-.002v.013m.516 1.681v.006c-.328 0-.655-.01-.982.004-.226.01-.381.16-.396.35-.017.225.124.328.313.389a.587.587 0 0 0 .168.031c.433.004.867.02 1.3.002.293-.012.573-.1.728-.388.127-.235.03-.391-.236-.393-.298-.002-.597 0-.895 0m-11.157.792 1.069-.001c.128 0 .254.034.234.181-.012.092-.1.181-.172.255-.034.035-.108.045-.164.043-.759-.014-1.52-.006-2.277-.066-.266-.02-.542-.175-.773-.328-.27-.18-.371-.475-.35-.807a2.862 2.862 0 0 0-.004-.576c-.086-.603.528-1.158 1.092-1.161.529-.004 1.058-.022 1.587-.026.335-.002.638.086.88.337.41.425.148 1.101-.456 1.276-.191.055-.398.073-.598.076-.52.007-1.04-.007-1.56-.006-.125 0-.29-.05-.333.139-.038.168-.019.354.144.433.21.104.441.193.671.218.333.037.673.01 1.01.01v.003Zm-.649-1.277v-.01c.308 0 .615.002.923 0 .28-.001.444-.124.454-.334.01-.226-.146-.37-.431-.402-.019-.002-.038-.006-.057-.006-.461-.002-.924-.015-1.384-.001-.291.008-.548.11-.68.403-.105.236-.038.345.223.349.317.004.635.001.952.001Zm27.993-1.21c.347 0 .693.004 1.04 0 .756-.008 1.343.529 1.278 1.296a2.17 2.17 0 0 0 .002.46c.066.493-.42 1-.85 1.094a5.066 5.066 0 0 1-2.146.029 1.092 1.092 0 0 1-.534-.296c-.38-.397-.275-.954.221-1.188.229-.107.493-.175.744-.187.558-.026 1.117 0 1.675-.006.097-.001.269-.039.275-.081a.559.559 0 0 0-.066-.347c-.152-.261-.419-.317-.699-.318-.607 0-1.213.003-1.82.003-.115 0-.23-.012-.345-.017-.154-.008-.227-.09-.221-.242.005-.15.103-.196.233-.196h1.213v-.003m.546 1.682v.014c-.336 0-.673-.01-1.008.004-.226.011-.378.166-.393.351-.018.227.14.321.31.398.059.026.131.026.198.026.374.006.75.021 1.123.008.198-.008.4-.048.59-.108a.484.484 0 0 0 .34-.394c.034-.203-.033-.292-.239-.297-.307-.007-.614-.002-.92-.002m-46.078-1.612c.086-.023.167-.063.248-.062.827.003 1.655-.003 2.482.028.524.02.956.462 1 .98.024.305.031.614.017.92-.02.45-.383.807-.9.92a5.176 5.176 0 0 1-2.145.008.906.906 0 0 1-.593-.422c-.233-.363-.072-.859.363-1.048.24-.105.513-.173.775-.185.537-.026 1.078.004 1.616-.003.104-.001.283-.048.294-.102a.501.501 0 0 0-.086-.344c-.162-.242-.406-.319-.698-.315-.674.009-1.348-.012-2.021-.002-.246.004-.355-.087-.352-.373m1.979 1.61v.015c-.326 0-.653-.01-.979.003-.245.008-.399.153-.418.354-.02.202.11.351.36.411a.92.92 0 0 0 .2.026c.432.004.864.012 1.296.006.294-.003.61-.215.689-.441.085-.244 0-.371-.255-.373-.297-.004-.595-.002-.893-.002m15.68 3.436c.327 0 .655-.006.981.001.685.015 1.268.495 1.233 1.258-.007.163-.019.33.007.489.098.606-.618 1.18-1.129 1.19-.519.011-1.039.012-1.558 0-.391-.009-.755-.267-.857-.576-.18-.545.194-1.064.83-1.103.547-.033 1.096-.018 1.645-.024.019 0 .039.004.058 0 .144-.028.347.084.407-.154.045-.181-.108-.469-.31-.535a1.823 1.823 0 0 0-.536-.084 68.326 68.326 0 0 0-1.847.003c-.177.002-.268-.052-.274-.24-.007-.21.124-.23.283-.23.355.001.711 0 1.067 0v.005Zm.529 1.707v.01c-.309 0-.617-.012-.924.004-.289.016-.416.147-.415.379.002.213.16.364.432.37.461.013.923.005 1.385.003a.618.618 0 0 0 .53-.301.455.455 0 0 0 .059-.347c-.022-.065-.185-.106-.288-.112-.258-.016-.52-.006-.78-.006Zm8.528-.993c0 .355-.02.712.004 1.066.045.685-.594 1.122-1.088 1.154-.47.03-.944.026-1.415.004a1.182 1.182 0 0 1-1.126-1.212c.006-.323-.007-.661.089-.962.157-.498.576-.73 1.081-.758.509-.028 1.02-.01 1.53-.014.305-.002.335-.032.342-.325.001-.057 0-.115.002-.173.005-.251.062-.313.293-.318.219-.005.283.064.284.327.003.403.001.808.001 1.21h.003Zm-1.573-.25v.022c-.298 0-.597-.022-.892.006-.373.035-.575.288-.57.66.003.22.012.44.018.66.012.413.206.636.621.657.402.02.807.019 1.21.003.342-.014.565-.27.574-.617.01-.364.023-.728.025-1.092.002-.269-.037-.3-.295-.298h-.691Zm-46.263-4.902c0 .364.007.73-.001 1.095a1.12 1.12 0 0 1-.906 1.08c-.655.127-1.316.152-1.973.008-.507-.111-.912-.55-.874-1.06.016-.22.02-.444 0-.663-.057-.64.548-1.065 1.002-1.094.575-.036 1.154-.031 1.731-.045.416-.01.431-.027.44-.448.005-.344.05-.38.35-.366.178.008.23.09.228.254-.005.413-.001.826-.001 1.239h.004m-1.69-.241v.018c-.27 0-.539-.01-.807.003-.457.023-.679.248-.701.701-.01.2-.01.403-.002.604.015.403.23.681.638.715.457.037.928.053 1.378-.016.461-.071.628-.296.607-.726-.016-.315-.008-.632-.007-.948 0-.283-.066-.35-.357-.35l-.749-.001m4.565 7.621c-.347 0-.694.007-1.04-.001-.498-.013-1.064-.395-1.138-.82-.083-.471-.132-.965.048-1.423.173-.44.58-.64 1.022-.677.535-.045 1.08-.047 1.615-.005.628.047 1.059.694.717 1.242a.852.852 0 0 1-.747.415c-.569.008-1.136.012-1.704.018-.048 0-.1-.014-.144-.002-.097.03-.253.054-.271.114a.474.474 0 0 0 .052.346c.139.225.35.34.63.336.664-.009 1.329-.004 1.993-.007.155-.001.296.007.311.207.012.157-.029.261-.218.258-.375-.005-.75 0-1.126 0m-.576-1.69c0 .007 0 .014.002.022.363-.025.727-.04 1.09-.077a.303.303 0 0 0 .28-.316c0-.174-.054-.349-.273-.386-.094-.017-.189-.04-.284-.04-.423-.003-.847 0-1.27.003-.27.002-.452.159-.583.365-.152.24-.053.415.23.426.269.01.539.002.808.002M6.1 28.277c.484.048.973.076 1.453.151.358.056.739.473.738.95 0 .24-.008.48.01.72.035.49-.23.802-.627 1.005-.195.1-.436.137-.66.152-.353.024-.712-.01-1.066.012-.313.02-.573-.074-.844-.22-.359-.192-.501-.833-.104-1.184.205-.182.445-.288.735-.284.538.009 1.077.007 1.615-.012.136-.006.347-.062.386-.152.071-.17-.012-.378-.192-.464a1.54 1.54 0 0 0-.593-.168c-.624-.02-1.25 0-1.875-.005-.097 0-.226-.027-.283-.091-.135-.153-.015-.364.205-.368.366-.008.731-.002 1.097-.002a.787.787 0 0 0 .005-.04m.302 2.524v-.004c.25 0 .499.004.748-.002a.636.636 0 0 0 .545-.325c.161-.262.055-.455-.249-.462-.24-.005-.48 0-.72.003-.354.004-.71-.008-1.063.02-.251.021-.4.218-.378.423.02.199.182.336.426.345.23.008.46.002.69.002m60.24.466c-.405 0-.809-.004-1.214.002-.17.003-.248-.066-.246-.236.002-.166.072-.242.246-.24.683.004 1.368 0 2.051-.002.126 0 .252.003.375-.014.182-.026.29-.143.318-.322.03-.193-.075-.322-.245-.376-.124-.04-.264-.04-.398-.043-.452-.01-.905-.007-1.357-.02-.295-.01-.565-.093-.774-.322-.352-.384-.262-.996.204-1.22.193-.093.42-.151.633-.157.741-.019 1.483-.01 2.225-.008.14.001.307-.022.318.196.01.188-.066.288-.268.286-.442-.005-.886-.001-1.329 0-.327.001-.655-.002-.982.006-.284.008-.433.132-.443.35-.011.24.118.374.432.386.5.018 1.002.01 1.503.018.397.006.737.134.947.494a.773.773 0 0 1-.229 1.001c-.2.138-.411.236-.669.227-.365-.013-.732-.003-1.098-.003v-.003Zm10.19-6.573c0 .077-.009.155.002.23.087.608-.46 1.086-.964 1.17a4.965 4.965 0 0 1-1.89-.02c-.479-.105-.974-.54-.918-1.127.022-.228.006-.46.006-.69 0-.516.53-.993 1.002-1.019a18.25 18.25 0 0 1 1.728-.014c.504.02 1.12.513 1.039 1.183-.012.094-.002.191-.002.287h-.002Zm-1.779-1.016-.002-.051c-.295.022-.595.018-.885.072-.347.065-.478.253-.485.605-.004.259-.002.518.003.777.005.25.14.439.375.515.517.168 1.048.088 1.573.056.403-.024.59-.26.592-.662.002-.211-.002-.423.008-.634.016-.393-.216-.662-.602-.677-.192-.007-.384-.001-.577-.001Zm-40.39 7.584h-1.156c-.156 0-.318.016-.321-.22-.004-.255.169-.24.335-.24l2.022.003c.087 0 .173.001.26-.004.243-.015.387-.151.394-.368.009-.246-.112-.38-.392-.39-.5-.02-1.001-.007-1.5-.04a1.792 1.792 0 0 1-.69-.166c-.288-.147-.46-.427-.416-.758.04-.306.212-.554.54-.635.201-.051.407-.112.613-.116.693-.015 1.386-.004 2.08-.007.157 0 .296.015.299.217.003.207-.126.246-.305.245-.732-.005-1.463.001-2.195-.003-.176-.001-.323.038-.427.188-.136.2-.057.463.172.533.136.041.282.063.425.066.461.01.923 0 1.385.011a.963.963 0 0 1 .827.448.683.683 0 0 1-.055.852c-.21.23-.456.4-.798.387-.365-.015-.731-.003-1.097-.003m-10.742-5.24c-.353.164-.462.135-.646-.15-.02-.033-.047-.064-.058-.1-.135-.446-.464-.526-.88-.505-.48.026-.963.032-1.442.007-.31-.015-.458.139-.577.378-.046.093-.1.183-.15.275-.088.162-.238.18-.397.168-.153-.01-.207-.089-.14-.233.065-.139.128-.28.202-.414.497-.893.997-1.786 1.496-2.68.042-.074.084-.15.132-.221.168-.249.434-.255.577.002.623 1.113 1.236 2.231 1.85 3.349.018.031.02.071.033.124m-1.724-1.153.007.022c.118-.032.243-.05.35-.103.044-.021.087-.139.065-.18a33.813 33.813 0 0 0-.695-1.29c-.12-.208-.251-.194-.37.025-.205.379-.409.759-.613 1.14-.149.276-.088.382.227.385.343.003.686 0 1.03 0m28.766 5.399c.149-.441.465-.86.13-1.363-.046-.069-.057-.163-.077-.247-.028-.12-.076-.252.083-.322a.302.302 0 0 1 .402.176c.123.322.239.646.353.972.066.19.113.386.185.572.033.086.106.156.188.272.073-.137.142-.238.182-.349.165-.46.317-.925.482-1.385.034-.093.09-.213.168-.246.092-.039.243-.032.321.023.054.038.064.204.031.289-.31.823-.63 1.643-.961 2.46-.026.064-.15.134-.222.127-.097-.009-.226-.066-.273-.144-.084-.135-.109-.304-.17-.454-.051-.128-.118-.248-.18-.372h-.087c-.084.186-.168.372-.25.558-.04.088-.056.193-.116.26-.063.07-.184.163-.248.143-.113-.034-.25-.126-.293-.23-.232-.546-.439-1.104-.652-1.66-.09-.23-.18-.463-.259-.699-.038-.114-.092-.25.074-.318a.326.326 0 0 1 .425.19c.139.398.268.8.411 1.196.07.194.163.38.246.569l.107-.018Zm-1.976.947c-.33.092-.481-.028-.587-.24-.304-.61-.163-.52-.924-.528-.453-.004-.906.012-1.359-.006-.26-.01-.418.086-.514.32-.047.114-.095.237-.175.327a.536.536 0 0 1-.278.16c-.178.034-.262-.074-.208-.24.056-.172.136-.338.22-.499.48-.907.963-1.812 1.444-2.718.077-.144.141-.286.354-.276.211.01.267.158.343.302.53 1 1.063 1.997 1.587 3 .06.116.065.26.097.398m-2.037-1.213v-.01l.55-.001c.231 0 .319-.088.227-.3a17.96 17.96 0 0 0-.617-1.262c-.087-.162-.229-.16-.31-.009-.224.413-.445.83-.65 1.252-.105.218-.026.323.223.33.193.004.385 0 .577 0m17.6-4.993v.835c-.002.172-.064.31-.258.314-.272.006-.358-.074-.36-.321-.003-.49 0-.98 0-1.47.002-.42-.188-.662-.604-.686-.44-.025-.886-.022-1.326.005-.447.028-.613.222-.618.664-.006.48.002.96 0 1.44-.002.313-.102.385-.407.337-.145-.022-.205-.1-.205-.229-.001-.575-.018-1.152.012-1.727.025-.468.471-.906.984-.934a12.527 12.527 0 0 1 1.87.02c.427.04.938.484.91 1.031-.013.24-.002.48-.002.72h.004Zm16.713.012c0 .279-.005.557.002.836.006.205-.104.27-.287.267-.172-.002-.33-.007-.328-.25.006-.52-.006-1.037 0-1.556.004-.321-.18-.603-.502-.623-.507-.029-1.019-.03-1.524.007-.365.027-.51.232-.517.608-.01.499-.002.999-.007 1.498-.003.302-.098.364-.394.318-.169-.026-.206-.136-.207-.262-.007-.548-.025-1.096.001-1.641.024-.492.463-.95.976-.982.622-.038 1.25-.034 1.872.009.507.034.91.54.916 1.051.003.24 0 .48 0 .72Zm-50.377-1.795c.24 0 .481.005.722-.002.543-.014 1.188.533 1.16 1.191-.02.48-.018.96-.018 1.44-.001.189-.094.247-.267.26-.185.013-.306-.033-.31-.236-.008-.462-.015-.922-.018-1.383-.003-.634-.215-.852-.848-.85-.385 0-.77.012-1.154.025-.324.01-.578.281-.584.625-.008.5-.007 1-.01 1.499-.002.275-.043.321-.282.321-.273 0-.317-.039-.319-.315-.003-.5-.005-1 0-1.5.003-.318.153-.57.4-.76.26-.203.544-.351.893-.33.211.013.424.003.635.003v.012m-3.145 1.829c0-.25.01-.5-.002-.75-.015-.349-.162-.57-.504-.599a12.36 12.36 0 0 0-1.64-.01c-.269.015-.464.334-.465.646 0 .49.008.98.003 1.47-.003.272-.1.348-.356.311-.14-.02-.236-.084-.234-.24.006-.566-.02-1.135.03-1.697.046-.509.493-.904 1.009-.939.517-.034 1.04-.054 1.557-.03.72.036 1.177.502 1.21 1.218.02.469-.013.94-.02 1.412-.005.227-.173.256-.34.267-.192.013-.244-.114-.242-.28.002-.26 0-.52 0-.78h-.006Zm21.107-1.828c.24 0 .481-.013.721.002.704.044 1.13.485 1.139 1.183.006.48-.01.961-.008 1.442 0 .196-.084.275-.28.267-.19-.006-.307-.049-.303-.277.01-.49-.003-.98-.003-1.471 0-.445-.177-.653-.62-.682a14.555 14.555 0 0 0-1.24-.04c-.27.006-.544.063-.646.376a.93.93 0 0 0-.048.276c-.003.49.004.98 0 1.47-.002.141-.004.292-.196.338-.288.07-.417-.024-.417-.32-.001-.452.021-.905-.005-1.355-.04-.685.554-1.199 1.155-1.209.25-.004.5 0 .75 0m-15.421.024c.082-.017.156-.042.231-.046.263-.016.326.042.328.302.003.51.002 1.019.005 1.528.002.307.112.518.412.566.433.068.877.059 1.316.088.296.02.562-.038.734-.299a.737.737 0 0 0 .133-.358c.016-.51.016-1.019.007-1.528-.004-.208.07-.305.28-.302.238.005.294.063.292.309-.004.48-.037.963.005 1.439.051.577-.518 1.097-1.012 1.14-.6.05-1.202.132-1.805-.011-.57-.136-.967-.604-.965-1.186 0-.51.005-1.018.009-1.527 0-.028.014-.056.03-.115m-4.472 5.126c.107-.02.172-.038.238-.042.254-.017.332.048.335.305.008.519.003 1.037.006 1.555a.62.62 0 0 0 .589.605c.413.01.827.011 1.24 0 .38-.011.6-.238.606-.616.008-.508.002-1.017.003-1.526 0-.163.024-.307.237-.325.248-.02.315.025.318.278.005.556.006 1.113 0 1.67-.003.291-.373.724-.655.848-.463.204-.946.126-1.421.128-.243 0-.498-.034-.726-.111-.507-.174-.77-.576-.77-1.11v-1.659M16.66 30.801c.13.41.095.46-.29.461-.616 0-1.233-.013-1.849.004-.48.013-.865-.178-1.172-.514-.111-.122-.164-.323-.185-.496a6.312 6.312 0 0 1-.029-.892c.009-.432.278-.716.635-.883.233-.11.516-.142.778-.152.567-.02 1.136-.006 1.704-.006.068 0 .136-.002.203 0 .148.006.264.043.267.228.003.185-.109.227-.259.228-.308.003-.617.002-.925.003-.385 0-.77-.003-1.156 0-.43.003-.675.254-.671.686.001.221.008.443.016.664.018.463.22.662.697.668.52.006 1.04.001 1.561.001h.675m-7.71-.666c0-.182.014-.366-.002-.547-.061-.708.335-1.1.965-1.216.596-.11 1.225-.14 1.829.033.46.131.777.512.794.985.02.536-.006 1.074-.004 1.61.002.222-.178.213-.301.23-.145.02-.246-.06-.246-.24 0-.479-.06-.963-.01-1.437.046-.435-.306-.778-.723-.774-.356.003-.712-.004-1.067 0-.423.006-.691.284-.697.712-.005.49-.02.979-.014 1.468.002.22-.108.282-.298.294-.22.016-.224-.136-.227-.283-.005-.278-.001-.557-.001-.835h.002Zm31.796 1.126c-.317 0-.635.002-.952 0-.685-.005-1.193-.505-1.207-1.184-.004-.192.007-.385-.004-.576-.038-.708.554-1.141 1.101-1.166.72-.033 1.443-.011 2.165-.012.162 0 .286.051.288.242.002.214-.161.214-.303.215-.606.002-1.213-.01-1.818-.004-.276.002-.57-.016-.753.259-.046.07-.108.15-.11.227-.004.382-.03.77.03 1.143.037.234.244.393.527.39.577-.003 1.154.003 1.731.006.154 0 .308.01.462.001.171-.01.223.086.22.228-.002.14-.052.236-.222.233-.385-.007-.77-.002-1.155-.002m29.436-8.85v.434c.002.28.077.353.362.356l.404.004c.152.001.236.074.23.229-.004.153-.086.217-.242.211-.163-.005-.327 0-.49.018-.17.019-.273.098-.259.303.02.296.01.594.012.891.003.52.19.735.712.831.087.016.2.044.241.106.092.14-.014.311-.19.325-.653.053-1.413-.434-1.367-1.176.043-.697.007-1.4.01-2.1.002-.49.015-.499.577-.431m-17.324 3.701c-.397.025-.778-.03-1.104-.29-.251-.2-.395-.451-.387-.793.019-.776.015-1.553.022-2.33.002-.284.046-.328.306-.327.213 0 .273.073.28.338 0 .068.003.135-.003.201-.018.205.063.308.28.295.153-.008.307-.001.461 0 .147.002.202.083.196.223-.006.137-.06.217-.21.214-.153-.004-.307.001-.46 0-.189-.003-.28.072-.272.276.015.364.01.729.015 1.093.006.373.089.482.45.604.072.024.146.045.222.06.289.06.309.098.204.436m5.15-1.096c0-.24.005-.48-.002-.72-.015-.587.399-.927.863-1.035.331-.077.687-.05 1.032-.058.142-.003.2.097.2.23 0 .143-.08.203-.22.207-.181.004-.363.012-.546.02-.51.026-.73.25-.734.753-.004.47.001.94-.008 1.41-.004.255-.066.303-.308.301-.206-.002-.293-.096-.287-.303.01-.268.002-.536.002-.805h.008m-11.734-.775c0 .537-.002 1.074 0 1.61.001.149-.018.268-.212.265-.168-.003-.34.02-.351-.223-.004-.076-.022-.151-.022-.227 0-.958-.002-1.917.002-2.875.001-.351.076-.42.357-.41.182.006.229.087.228.25-.005.537-.002 1.074-.002 1.61m40.06-1.802c.468-.146.588-.071.59.324.002.998.004 1.997-.007 2.997-.001.116-.056.281-.142.338-.244.159-.426.033-.43-.29-.01-.75-.008-1.499-.01-2.248V22.44m-28.023 7.67c0-.211.018-.425-.004-.634-.06-.597.546-1.097 1.068-1.146.239-.023.481-.009.721-.016.173-.005.244.08.244.244-.001.166-.105.212-.245.217-.192.008-.385.025-.576.02-.394-.012-.645.319-.627.692.023.489.002.98-.002 1.47-.001.152-.026.286-.225.306-.248.025-.341-.04-.349-.29-.009-.287-.002-.575-.002-.863h-.003m-48.146-5.06c0-.23-.004-.46 0-.692a1.15 1.15 0 0 1 1.04-1.114c.278-.022.558-.032.837-.032.125 0 .261.028.249.207-.01.164-.11.236-.268.237-.193.002-.386.002-.578.006-.431.007-.692.27-.693.707-.002.471.006.942.006 1.413 0 .301-.06.35-.358.332-.146-.01-.234-.064-.231-.227.004-.279.001-.557.001-.836h-.005Zm32.09-.796c0-.52.004-1.038-.001-1.558-.002-.187.026-.32.263-.309.25.01.312.048.313.299.005 1.047-.001 2.096.007 3.143.002.224-.101.281-.298.278-.205-.003-.294-.084-.29-.296.01-.52.003-1.038.003-1.557h.004m30.149.426c0 .383-.003.767.001 1.15.001.17-.007.304-.24.295-.19-.007-.356-.01-.356-.259 0-.815-.004-1.63 0-2.445.002-.22.172-.216.331-.224.177-.009.268.053.265.246-.007.412-.002.824-.002 1.237Zm-34.515 6.551c-.446.05-.477.03-.482-.366-.008-.747-.007-1.494-.007-2.241 0-.149.011-.29.22-.303.236-.013.308.039.31.29.004.546.002 1.093 0 1.639 0 .23-.001.46-.008.69-.002.093-.02.185-.033.291m34.149-8.409c-.08-.002-.223-.035-.223-.225 0-.205.154-.239.318-.24.191-.003.278.091.267.282-.008.15-.065.187-.362.183m-34.414 4.655c.177.047.3.052.297.236-.004.185-.124.216-.27.22-.159.004-.28-.063-.238-.232.021-.086.137-.15.21-.224M73.131 27.304h-1.667l-1.179 1.176v1.664l1.179 1.176h1.667l1.179-1.176V28.48zM79.383 27.304h-1.667l-1.179 1.176v1.664l1.179 1.176h1.667l1.179-1.176V28.48zM85.635 27.304h-1.667l-1.179 1.176v1.664l1.179 1.176h1.667l1.179-1.176V28.48zM141.963 3.253c.9-.112 23.888-.159 28.49-.068.143.003.286.024.397.035.043.053.06.071.073.092.012.02.025.044.025.066.006 9.45.01 18.902.015 28.353 0 .095-.02.19-.035.325-.143.025-.28.06-.418.07-.171.013-.344.003-.516.003h-27.086c-.289 0-.582.029-.888-.045-.022-.116-.055-.208-.055-.3-.002-9.497-.002-18.993-.002-28.53M156.14 18.16c-.115-.341-.194-.566-.265-.792a3.817 3.817 0 0 1-.085-2.022c.163-.73.464-1.393.93-1.97a38.74 38.74 0 0 1 1.492-1.713c.195-.214.299-.416.254-.72a11.942 11.942 0 0 0-.769-2.817c-.024-.057-.101-.092-.16-.144-.383.96-.983 1.753-1.67 2.489-.651.697-1.283 1.41-1.778 2.233-.268.445-.45.924-.593 1.415-.08.278-.157.58-.13.862.069.742.325 1.412.865 1.968.507.522 1.11.873 1.909 1.21m1.076 0c1.166.14 2.187-.023 3.126-.567.924-.535 1.52-1.363 1.927-2.332.344-.816.48-1.684.594-2.554.014-.11-.019-.227-.035-.381-.1.063-.166.09-.215.136-.628.58-1.272 1.134-2.031 1.549-.514.28-1.014.595-1.482.945-1.047.782-1.623 1.857-1.884 3.204m3.238-8.484c-.122.203-.23.361-.317.53-.341.658-.759 1.237-1.377 1.68a8.243 8.243 0 0 0-1.674 1.635c-.96 1.226-1.108 2.564-.537 3.997.036.09.072.184.214.158.022-.06.051-.124.07-.192.018-.07.021-.145.04-.215.229-.898.663-1.679 1.35-2.305a6.654 6.654 0 0 1 1.452-.987c.282-.146.56-.303.849-.434.404-.181.587-.492.594-.923.003-.146.03-.293.02-.437a6.521 6.521 0 0 0-.684-2.507m-5.415 8.52c-.188-.15-.379-.296-.563-.45-.634-.53-1.103-1.169-1.315-1.982-.267-1.024-.069-1.982.392-2.906.087-.175.214-.332.285-.512.05-.127.085-.294.044-.415-.169-.508-.342-1.018-.642-1.53-.075.135-.145.229-.182.335-.214.606-.504 1.175-.947 1.64-.924.971-1.023 2.152-.802 3.358.193 1.051.9 1.761 1.888 2.182.57.243 1.17.313 1.842.28m1.48 10.282c.059-.212.126-.37.146-.536.301-2.411.595-4.823.89-7.234a.125.125 0 0 0-.015-.069c-.011-.021-.032-.037-.044-.05-.764-.112-1.752-.096-2.274.046.014.302.011.615.045.925.188 1.69.387 3.38.579 5.07.057.507.1 1.015.156 1.522.03.255.082.287.517.326m-2.16-8.618c.736.104 3.187.099 3.796-.006a2.412 2.412 0 0 0-.012-1.066c-.148-.011-.266-.027-.384-.027-1-.002-2-.004-3 .002-.136.001-.271.05-.431.081 0 .228-.004.422.001.616.003.12.017.24.03.4m46.187-1.145c.555-1.53.887-2.956 1.393-4.34a5.49 5.49 0 0 1 1.443.008c-.157.78-.463 1.469-.696 2.179-.244.743-.502 1.482-.754 2.222l-.727 2.13c-.435.107-.823.037-1.233.06-.09-.197-.181-.367-.245-.545-.354-.99-.7-1.982-1.05-2.972-.063-.177-.14-.35-.238-.591-.366.692-.532 1.383-.781 2.039-.251.66-.477 1.33-.718 2.009-.435.098-.84.07-1.288.022a445.88 445.88 0 0 1-2.162-6.234c-.02-.062-.003-.137-.003-.23.107-.018.2-.047.294-.047.39-.006.781-.003 1.19-.003.07.159.142.284.181.418.33 1.126.654 2.252.98 3.38.032.11.066.218.12.395.287-.341.321-.715.447-1.047.138-.365.247-.741.37-1.112.116-.348.233-.695.351-1.042l.353-1.023c.435-.087.822-.063 1.25-.026.074.167.164.336.225.515.352 1.042.697 2.085 1.046 3.128.06.185.13.367.252.707m51.972-4.29h1.123c.158.001.284.068.38.19.091.115.177.234.266.352.691.919 1.382 1.839 2.075 2.756.114.152.239.297.356.441.2-.114.145-.271.146-.4.005-.93 0-1.859.005-2.789.001-.189.028-.378.046-.589.18-.02.321-.046.464-.048.315-.005.632.002.96.004.037.134.082.225.082.316.005 1.981.005 3.962.003 5.943 0 .094-.025.188-.044.32-.396.094-.782.041-1.2.045-.138-.156-.289-.312-.423-.482-.791-.997-1.577-1.998-2.367-2.995-.117-.148-.252-.28-.455-.502-.092 1.368.014 2.627-.065 3.909a2.748 2.748 0 0 1-1.277.02c-.035-.078-.072-.12-.072-.165-.004-2.078-.003-4.156-.003-6.326M184.2 20.952h-1.213c-1.082-1.254-2.113-2.585-3.196-3.86-.22.104-.156.267-.156.395-.008.93-.002 1.861-.006 2.792-.002.215.04.442-.103.652-.36.067-.72.05-1.11.013-.028-.106-.071-.195-.071-.285a1726.34 1726.34 0 0 1-.004-5.877c0-.092.03-.185.049-.291.35-.123.694-.072 1.03-.05.106.007.226.09.307.172.138.138.252.3.372.454.74.945 1.478 1.893 2.222 2.836.1.127.159.314.405.326.055-1.264-.008-2.526.037-3.826.482-.11.935-.075 1.414-.033.027.104.07.194.07.284.005 1.984.006 3.967.004 5.95 0 .095-.027.188-.051.348m45.036-2.335c.472.81 1.035 1.485 1.5 2.283-.296.123-.56.058-.813.07-.243.013-.487.004-.749.004l-1.5-2.086a2.549 2.549 0 0 0-1.084-.005c-.022.139-.058.275-.062.412-.008.39 0 .782-.005 1.173-.002.141-.023.283-.038.454-.433.086-.836.057-1.188.03-.069-.064-.09-.078-.103-.098a.161.161 0 0 1-.018-.07c-.008-1.98-.015-3.958-.019-5.938 0-.096.022-.192.039-.287.003-.021.025-.039.065-.096.136-.013.302-.039.468-.04.76-.005 1.518-.009 2.277.002.293.004.587.035.877.073 1 .132 1.716.925 1.771 1.928.049.893-.295 1.564-1.08 2.004-.084.048-.17.094-.338.187m-2.479-2.901c-.127.708-.122 1.26.011 1.848.47.031.956.034 1.441.002.143-.01.289-.062.424-.117.352-.146.523-.424.512-.81-.01-.376-.168-.666-.533-.798a1.928 1.928 0 0 0-.57-.12c-.416-.017-.832-.005-1.285-.005m53.53-1.266c.187-.011.33-.027.474-.028.76-.002 1.519-.01 2.278.003.341.006.685.038 1.022.09.837.13 1.512.815 1.652 1.648.164.977-.174 1.725-1.015 2.245-.103.062-.21.118-.355.2.076.143.13.274.207.389.342.507.691 1.008 1.034 1.515.08.117.143.245.25.432-.55.049-1.03.026-1.543.02-.577-.65-1.006-1.423-1.586-2.13-.24 0-.483-.005-.725.002-.094.003-.186.033-.323.058-.124.656.013 1.318-.087 1.986-.398.179-.809.065-1.25.079-.032-.124-.084-.236-.084-.347-.005-1.955-.004-3.91-.001-5.867 0-.071.025-.142.053-.295Zm1.482 3.13c.537 0 .996.007 1.455-.006.142-.004.287-.052.424-.1.401-.142.59-.415.582-.825-.007-.416-.197-.685-.586-.83-.068-.026-.137-.06-.208-.066-.55-.048-1.1-.095-1.667.035v1.791Zm-62.393-3.274a3.577 3.577 0 0 1 2.201.732c1.64 1.232 1.754 3.654.341 5.037-1.816 1.777-4.995 1.209-5.766-1.362-.603-2.012.507-3.784 2.214-4.249.327-.09.673-.107 1.01-.158m2.117 3.378c-.008-1.186-.867-2.1-1.981-2.108-1.14-.01-2.018.942-1.997 2.162.02 1.129.885 1.96 2.03 1.949 1.167-.01 1.957-.823 1.948-2.003m55.951-.706v1.168c-.15.023-.288.062-.426.064-.614.007-1.227.003-1.84.003h-.612c-.143.487-.08.937-.062 1.429 1.153.117 2.276-.012 3.414.079.152.388.087.768.056 1.176-.108.028-.199.07-.289.07-1.496.003-2.994 0-4.49-.001-.047 0-.096-.021-.182-.041-.024-.095-.079-.207-.08-.32-.005-1.934-.004-3.869-.002-5.803.001-.094.032-.187.054-.311.415-.133.832-.054 1.241-.067.416-.014.834-.004 1.251-.004.393 0 .786-.006 1.178.002.413.01.83-.041 1.274.05.142.383.054.762.067 1.166-.4.129-.768.062-1.127.072-.392.012-.785.003-1.178.003h-1.114c-.156.389-.088.744-.07 1.143.156.025.292.065.43.066.637.008 1.275 0 1.913.007.19.002.38.03.594.05m-86.19.074a4.16 4.16 0 0 1-.004 1.111c-.166.018-.305.046-.444.047-.687.005-1.374 0-2.06.005-.166 0-.332.026-.52.042-.114.46-.07.891-.033 1.357.148.026.286.07.426.07.833.007 1.667.002 2.5.006.191 0 .383.02.597.032.087.417.08.794.015 1.164-.56.105-3.83.134-4.905.044-.025-.098-.078-.209-.079-.32-.004-1.958-.003-3.916 0-5.873 0-.071.026-.143.045-.238.087-.024.177-.072.269-.072 1.47-.004 2.942-.004 4.413 0 .07 0 .139.034.241.06.1.376.065.754.024 1.176-.404.086-.793.04-1.178.047-.367.008-.735.002-1.103.002h-1.184c-.183.386-.11.74-.08 1.13.151.03.289.077.426.079.686.008 1.373.002 2.06.006.192.002.395-.035.574.125m57.348-2.577c.535-.08.967-.064 1.439-.026.03.162.078.298.08.434a173.75 173.75 0 0 1-.003 3.23c-.004.413-.026.828-.174 1.229-.27.732-.756 1.247-1.484 1.53-.837.323-1.676.31-2.512-.007-.713-.27-1.174-.79-1.407-1.5a3.48 3.48 0 0 1-.19-1.003c-.021-1.223-.009-2.446-.007-3.67 0-.047.022-.094.042-.176.406-.168.833-.095 1.306-.052.024.153.063.29.064.428.005 1.003.002 2.007.004 3.01 0 .196-.006.393.015.586.067.643.483 1.078 1.123 1.173.168.025.343.029.513.017.609-.043 1.007-.373 1.134-.967.05-.237.053-.486.054-.73.006-.905.003-1.81.003-2.716v-.79m-13.525 3.81c-.313.195-.517.432-.758.72v1.866c-.437.18-.846.077-1.29.087-.034-.13-.088-.24-.088-.351-.004-1.957-.002-3.916.002-5.873 0-.07.03-.141.052-.233.4-.15.806-.07 1.162-.06.194.142.16.299.16.44.005.683.002 1.367.002 2.033.222.127.296-.044.384-.135.63-.65 1.264-1.299 1.874-1.97.25-.274.512-.425.894-.395.339.028.682.006.994.006.128.179.025.265-.055.35l-1.875 1.968c-.134.141-.261.288-.391.432.023.226.18.359.289.51.662.912 1.335 1.815 1.997 2.726.11.151.287.279.245.534-.163.01-.33.03-.497.031-.365.003-.73-.001-1.098-.003-.699-.887-1.296-1.808-2.003-2.683m52.484 1.662c.25-.37.51-.685.838-.95.18.118.337.232.506.328.528.3 1.097.41 1.7.35.097-.01.196-.026.288-.055.404-.128.505-.6.174-.866a1.722 1.722 0 0 0-.52-.26c-.324-.111-.66-.187-.986-.292a9.921 9.921 0 0 1-.756-.284c-1.45-.609-1.244-2.41-.355-3.094.276-.213.58-.382.923-.433 1.019-.152 2.007-.082 2.902.5.06.04.11.095.196.167-.102.455-.422.796-.663 1.228-.148-.078-.277-.133-.394-.207a3.678 3.678 0 0 0-1.075-.462c-.305-.078-.585-.026-.858.096-.355.16-.396.598-.07.832.156.113.335.206.518.27.369.13.752.22 1.12.354.32.117.645.239.934.415.421.259.63.664.658 1.166.066 1.155-.544 1.936-1.664 2.265-.95.28-2.747-.194-3.416-1.068m-19.117 1.025c-.303 0-.546.004-.789-.001-.145-.003-.29-.017-.473-.027-.94-2.047-1.832-4.108-2.742-6.161-.037-.083-.051-.177-.087-.302.571-.109 1.1-.062 1.664-.032.082.177.173.345.239.523.394 1.079.782 2.16 1.175 3.24.064.174.142.345.244.59.41-.758.614-1.513.906-2.23.293-.722.556-1.456.837-2.195.204-.016.372-.039.54-.04.29-.003.58.007.816.012.068.062.092.075.099.094a.123.123 0 0 1-.004.073c-.07.208-.135.419-.213.624-.726 1.92-1.455 3.838-2.212 5.832m-59.953-6.529h1.698c.59.837 1.037 1.763 1.59 2.594.057.005.08.013.096.007a.117.117 0 0 0 .054-.048c.467-.83.933-1.662 1.409-2.512.548-.105 1.093-.088 1.717-.007-.122.228-.202.398-.3.557-.62.997-1.238 1.995-1.87 2.983a1.5 1.5 0 0 0-.258.894c.017.489.007.978.003 1.467-.002.167-.019.334-.03.519-.282.12-.554.063-.815.074-.243.009-.487.002-.754.002-.035-.182-.083-.32-.085-.46a34.681 34.681 0 0 1 0-1.686 1.566 1.566 0 0 0-.282-.96c-.623-.937-1.227-1.887-1.836-2.833-.101-.158-.187-.327-.337-.59m97.055-.03c.55-.138 1.048-.08 1.574-.04l.711 1.287.733 1.32c.29-.258.403-.582.58-.858.172-.267.326-.546.488-.819l.537-.895c.5-.144 1.005-.055 1.482-.062.147.207.003.315-.065.425-.618.997-1.231 1.997-1.872 2.98a2.014 2.014 0 0 0-.346 1.236c.024.582-.001 1.166-.005 1.786-.462.121-.888.08-1.352.035-.02-.159-.051-.298-.054-.437-.007-.392-.029-.785.003-1.173.047-.587-.106-1.085-.44-1.577-.601-.89-1.149-1.817-1.717-2.73-.087-.141-.158-.293-.257-.479m-3.63 6.531h-1.3c-.023-.184-.059-.346-.06-.508-.004-1.297-.001-2.594-.003-3.891 0-.242-.012-.484-.02-.735-.323-.167-.646-.082-.955-.095-.315-.015-.63-.008-.932-.011-.144-.535-.144-.55-.044-1.21.08-.02.171-.06.264-.067.771-.053 4.528-.008 5.04.063.103.361.06.74.027 1.155-.635.158-1.277-.014-1.88.109-.171.241-.108.494-.11.733-.006 1.223-.001 2.447-.003 3.671 0 .24-.015.48-.025.786m-6.847-6.56a4.547 4.547 0 0 1 1.441.003c.115.545.041 1.082.055 1.613.013.539.002 1.078.002 1.616 0 .515.005 1.03 0 1.543-.006.533.023 1.068-.024 1.635-.499.104-.956.033-1.438.051-.036-.148-.086-.26-.087-.374-.004-1.934-.003-3.869 0-5.803 0-.07.025-.14.051-.283m-32.651 6.42c-.535.07-.968.04-1.34.028-.078-.068-.101-.081-.114-.101a.156.156 0 0 1-.019-.07c-.008-.147-.022-.292-.022-.439.003-1.886.008-3.77.014-5.656 0-.044.032-.088.07-.184.426-.082.877-.065 1.366-.005.12.719.042 1.425.056 2.126.014.71.005 1.42.002 2.131-.002.705.012 1.411-.013 2.17M505.595.67c.684.401 1.365.807 2.052 1.204 1.838 1.063 3.68 2.121 5.52 3.182l9.13 5.264c.696.4 1.39.8 2.085 1.203.062.035.12.08.193.13l-9.143 5.261 6.984 4.03c-.268.156-.515.302-.763.445l-9.292 5.347-11.068 6.368-3.13 1.8c-.044.024-.08.063-.118.095-.014-.007-.042-.014-.042-.022-.004-.06-.002-.119-.002-.178V6.912c.068.023.142.037.203.072l6.42 3.702c.3.172.6.341.918.522.006-.068.011-.104.011-.14L505.55.67h.045Zm-.036 21.919 9.861-5.674a48129.77 48129.77 0 0 1-9.86-5.686v11.36ZM582.703 22.07h-3.784v2.683h3.367v.583h-3.366v2.798h3.783v.579h-4.41V21.49h4.41zM550.85 10.172v6.168h-.606V9.138c.228 0 .456-.013.682.008.063.006.135.1.173.17.593 1.121 1.18 2.245 1.77 3.368l.632 1.188c.32-.61.622-1.185.923-1.762.494-.947.986-1.895 1.485-2.84.031-.058.112-.122.175-.127.206-.016.414-.006.637-.006v7.199h-.624v-6.174a.998.998 0 0 1-.043-.008c-.229.43-.458.86-.685 1.29-.502.953-1.01 1.901-1.498 2.86-.11.216-.237.32-.478.275-.05-.01-.103-.002-.163-.002l-2.33-4.412-.05.007m-3.434-.014-.87 1.647c-.46.872-.927 1.742-1.375 2.62-.094.186-.23.141-.37.154-.141.013-.226-.027-.298-.165-.721-1.38-1.45-2.757-2.178-4.134a.215.215 0 0 0-.102-.105v6.162h-.618V9.138c.235 0 .465-.01.692.008.057.004.124.093.158.158.673 1.271 1.342 2.545 2.012 3.819.123.234.249.467.397.745.15-.28.278-.517.403-.757.661-1.27 1.322-2.54 1.98-3.81.061-.12.135-.178.276-.168.183.013.367.003.564.003v7.198h-.617V10.17l-.054-.012m-11.743 2.461c.285.127.623.22.896.409.624.43.706 1.085.597 1.771-.106.662-.491 1.136-1.136 1.332a5.166 5.166 0 0 1-1.266.212c-.765.033-1.533.009-2.3.008-.035 0-.071-.007-.124-.013V9.17c.013-.009.025-.024.036-.024.981.013 1.967-.029 2.942.054 1.298.11 1.97 1.302 1.478 2.51-.162.399-.456.67-.86.82-.102.038-.209.07-.263.088Zm-2.685.302v2.88c.062.003.106.01.15.01.61-.004 1.219 0 1.828-.015.191-.005.385-.04.57-.088.678-.175 1.017-.635 1.014-1.35-.002-.673-.354-1.194-1.026-1.286-.832-.112-1.681-.105-2.536-.151Zm-.008-.477c.737-.024 1.469.001 2.186-.086.768-.095 1.113-.58 1.106-1.364-.006-.694-.402-1.157-1.133-1.257-.395-.055-.8-.035-1.201-.042-.316-.006-.633-.001-.958-.001v2.75Zm2.758 10.164v6.075h-.606v-7.189c.187 0 .38-.014.57.008.067.008.14.09.186.157.846 1.256 1.689 2.514 2.532 3.772.442.659.883 1.319 1.326 1.978.039.059.084.116.16.22v-6.116h.626V28.7c-.186 0-.356.011-.524-.005-.06-.006-.13-.065-.166-.118-1.029-1.516-2.054-3.035-3.08-4.553l-.973-1.432-.05.015m11.264.694-.57.134c-.026-.1-.046-.192-.073-.28-.203-.662-.626-1.087-1.325-1.194-.685-.105-1.33-.029-1.817.53-.513.59-.369 1.49.327 1.837.42.21.893.311 1.342.458.366.12.744.21 1.099.356.699.286 1.075.822 1.098 1.58.022.733-.274 1.306-.903 1.7-1.089.683-2.875.452-3.675-.48a2.333 2.333 0 0 1-.52-1.181c.185-.06.375-.12.582-.188.086.426.238.814.55 1.12.726.716 2.173.79 2.886.145.716-.647.59-1.712-.281-2.122-.412-.194-.87-.291-1.305-.435-.373-.122-.755-.225-1.116-.374-1.353-.557-1.26-2.337-.26-3.051.9-.644 2.42-.624 3.28.065.37.297.642.838.68 1.38m22.043-1.797h.656v.228c0 1.485.001 2.97-.001 4.455-.001.443-.081.872-.27 1.274a2.164 2.164 0 0 1-1.286 1.162 3.234 3.234 0 0 1-2.123.035c-.999-.325-1.502-1.062-1.628-2.076a5.881 5.881 0 0 1-.037-.71c-.003-1.36-.001-2.719-.001-4.078v-.283h.655v.23c0 1.425-.01 2.852.007 4.277.004.344.05.701.153 1.028.266.84 1.06 1.295 2.028 1.21 1.119-.098 1.8-.76 1.829-1.886.038-1.53.015-3.06.018-4.59v-.276M551.112 28.697h-.656v-6.622h-2.633v-.564h5.908v.551h-2.619zM557.188 21.506h5.908v.555h-2.619v6.637h-.65v-6.631h-2.639zM573.594 22.066h-2.641v-.556h5.898v.55h-2.614v6.635h-.643zM532.339 28.686h.615v-7.179h-.615zM538.838 16.34h.603V9.153h-.603zM555.153 28.699h.615v-7.188h-.615zM388.504 3.382c.009.32.024.641.025.961v26.585c0 .32-.016.64-.025.96h-8.629c0-5.761.002-11.524 0-17.286-.002-2.236-1.515-3.299-3.607-2.541-2.02.73-4.037 1.465-6.06 2.185-.917.327-1.662-.067-1.664-.925-.012-3.313.013-6.626.024-9.939h19.936Z"/><path d="M364.254 3.382c.004 7.24.007 14.479.014 21.718 0 .32 0 .647.06.959.309 1.577 1.724 2.375 3.246 1.83 2.39-.856 4.777-1.724 7.166-2.586.25-.09.502-.17.82-.277v6.863H359.94V3.382h4.315ZM462 20.012c-.339.039-.677.11-1.015.113-2.003.01-4.005.005-6.091.005.001 1.286.247 2.438 1.274 3.197 1.554 1.148 3.131.685 4.704-.19l.651 1.23c-.164.124-.3.26-.464.345-1.511.79-3.11.989-4.752.559-1.552-.406-2.592-1.421-3.081-2.941-.542-1.684-.482-3.366.251-4.987 1-2.213 3.576-3.29 5.863-2.457 1.326.483 2.039 1.499 2.358 2.835.066.277.2.538.302.805v1.485Zm-2.075-1.242c-.094-1.033-.218-1.966-1.184-2.464-.884-.455-1.782-.365-2.592.195-.77.533-1.094 1.314-1.174 2.269h4.95Zm-62.396-6.345c-1.742-.294-1.742-.294-1.552-1.493h1.372c1.635.01 3.27-.001 4.905.041a6.355 6.355 0 0 1 1.603.268c1.545.452 2.39 1.46 2.482 2.879.108 1.646-.524 2.698-2.052 3.421-.065.031-.123.077-.26.163.279.11.512.196.74.294 1.319.564 2.124 1.513 2.186 2.986.068 1.596-.485 2.888-2.006 3.567-.668.298-1.413.56-2.131.583-2.272.073-4.548.027-6.877.027.016-.444-.336-.975.246-1.23.388-.17.87-.128 1.344-.186v-11.32Zm2.05 6.034v5.288c1.104-.052 2.146-.032 3.17-.164 1.469-.187 2.186-1.04 2.194-2.423.007-1.374-.709-2.306-2.121-2.52-1.044-.157-2.117-.125-3.243-.181Zm-.029-1.31c1.137-.091 2.23-.084 3.28-.289 1.046-.203 1.587-1.12 1.548-2.243-.038-1.057-.587-1.833-1.636-2.01-1.033-.174-2.096-.169-3.192-.245v4.786Zm17.622 3.002h-6.743c-.322 3.308 2.292 4.63 5.935 3.016l.618 1.208c-.168.125-.307.26-.471.345-1.54.794-3.158.988-4.826.52-1.616-.453-2.618-1.562-3.068-3.143a6.976 6.976 0 0 1 .134-4.305c.832-2.365 3.222-3.63 5.66-3.022 1.1.274 1.9.915 2.394 1.939.463.963.624 2.262.367 3.442Zm-1.836-1.39c.027-1.725-.795-2.704-2.21-2.72-1.493-.016-2.641 1.161-2.612 2.72h4.822Zm29.518 1.368c.043 1.382.317 2.552 1.45 3.332 1.168.803 2.482.706 4.54-.308l.664 1.277c-1.938 1.147-3.912 1.447-5.94.575-1.903-.819-2.627-2.49-2.683-4.434-.027-.92.104-1.89.389-2.763.764-2.347 3.064-3.583 5.487-3.073 1.595.335 2.684 1.492 2.933 3.237.096.674.016 1.373.016 2.157h-6.856Zm4.911-1.37c.21-1.494-.597-2.592-1.944-2.717-1.19-.111-2.787.69-2.832 2.717h4.776Zm-19.431 6.425h-4.967c.121-.46.103-1.02.366-1.228.296-.235.844-.153 1.321-.215V11.265l-1.577-.182V9.851h3.48v13.807c.475.15.986.211 1.35.475.161.117.027.642.027 1.05m7.076-14.106V9.89c.611-.042 1.197-.098 1.783-.12.565-.02 1.132-.004 1.742-.004v13.963c.212.035.426.079.643.104 1.093.127 1.095.129.874 1.337h-4.986v-1.223l1.559-.204V11.27l-1.615-.192"/><path d="m425.69 14.92-.43 1.62c-1.439-.456-2.419.186-3.186 1.29-.121.175-.233.401-.235.604-.018 1.753-.01 3.507-.01 5.307.318.038.584.076.85.101 1.13.104 1.179.174.909 1.342h-5.227c-.025-.453-.341-.98.206-1.247.377-.182.868-.129 1.358-.188v-7.47l-1.53-.153c-.268-1.156-.207-1.252.942-1.286.81-.023 1.622-.004 2.5-.004v1.495c1.607-1.715 2.478-2.035 3.852-1.411m3.284 4.694 3.447-3.08-.13-.189-1.05-.244v-1.168h4.857v1.114c-.063.043-.103.094-.14.092-1.206-.058-1.997.647-2.751 1.453-.622.666-1.285 1.294-1.982 1.992 1.319 1.349 2.623 2.691 3.943 4.017.125.125.346.181.533.215 1.072.197 1.072.192.973 1.335h-4.628c-.275-1.091-.227-1.18.92-1.364-1.33-1.392-2.59-2.708-3.992-4.173m-60.379 1.433c0-.738-.265-1.652.076-2.165.335-.505 1.278-.619 1.966-.876 1.385-.518 2.777-1.02 4.17-1.521.703-.253.785-.2.792.522.01 1.063-.008 2.125.006 3.188.008.596-.243.978-.808 1.182-1.88.677-3.757 1.364-5.632 2.054-.457.168-.646.026-.635-.456.014-.642.003-1.285.003-1.928h.062ZM806.634 4.15c.417.092.833.184 1.25.278 4.686 1.068 8.012 3.778 9.958 8.178 2.227 5.036.924 11.164-3.02 15.045-2.083 2.05-4.61 3.19-7.45 3.717-.198.037-.39.1-.584.151h-3.371c-.14-.048-.277-.12-.42-.14a12.72 12.72 0 0 1-4.137-1.286c-3.623-1.871-5.993-4.81-7.08-8.746-.2-.726-.314-1.474-.467-2.213v-2.6c.044-.088.12-.174.126-.265.139-1.885.784-3.61 1.73-5.218 1.944-3.303 4.779-5.464 8.496-6.452.63-.168 1.27-.3 1.905-.45h3.064Zm-6.264 7.218-4.168 12.73.131.098 8.794-6.362 8.763 6.348.15-.1-4.156-12.72-2.143 1.561 1.462 4.581-.145.08-3.928-2.831-3.972 2.84-.117-.12 1.473-4.553-2.144-1.552ZM960 23.262h-1.726l-5.878-7.535v7.486h-1.956v-10.77h1.841l5.556 7.09.134-.04v-7.086H960v10.855Zm-125.514-3.006 2.532-7.817h1.759l2.597 7.828 2.55-7.817h2.104l-3.806 10.948h-1.709l-2.57-7.456-.14-.014c-.85 2.481-1.698 4.961-2.555 7.469h-1.664l-3.794-10.938h2.17l2.526 7.797m86.017 2.995h-1.937V12.406c.656 0 1.268-.066 1.854.032.257.042.508.389.677.652.844 1.318 1.659 2.654 2.488 3.982.052.083.136.146.292.31l3.246-4.948h2.042v10.8h-1.907v-7.29c-.052-.017-.103-.036-.155-.054l-3.26 4.81-3.21-4.836c-.044.013-.087.025-.13.039v7.348Zm-6.998-.007h-2.362l-2.573-3.626h-2.32v3.613h-1.993V12.468c.196-.023.389-.066.582-.067 1.456-.005 2.912-.037 4.365.011.908.03 1.8.21 2.6.707.902.563 1.253 1.399 1.332 2.415.09 1.156-.172 2.18-1.105 2.926-.389.31-.865.511-1.354.794l2.828 3.99Zm-7.25-5.5c.955 0 1.843.03 2.726-.013.417-.02.843-.138 1.237-.287.607-.23.853-.725.9-1.361.052-.676-.171-1.206-.762-1.524a2.358 2.358 0 0 0-.994-.293c-1.03-.037-2.061-.014-3.107-.014v3.493Zm-7.553-5.28v1.662c-1.017.141-2.03.05-3.034.067-.99.016-1.98.003-3.019.003v2.623c1.806.08 3.604-.026 5.427.063v1.765h-5.412v2.877h6.172v1.709h-8.177v-10.77h8.043Zm-45.313-.053h1.943l4.743 10.82h-2.11l-1.107-2.528h-5.035c-.368.844-.738 1.692-1.11 2.549h-2.065l4.741-10.84m-.786 6.4h3.48l-1.754-4.057-1.726 4.057m86.26-6.396h1.947l4.755 10.86h-2.11l-1.123-2.571h-5.039l-1.114 2.545h-2.058l4.743-10.834Zm2.701 6.413-1.758-4.061-1.743 4.06h3.501Zm-77.528 2.87 1.106-1.329c.737.381 1.384.77 2.073 1.056.703.292 1.442.42 2.215.16.733-.247 1.061-.562 1.08-1.178.02-.645-.224-1.002-.982-1.256-.857-.288-1.738-.5-2.6-.775-.38-.122-.746-.302-1.103-.484-1.033-.523-1.406-1.46-1.364-2.52.047-1.173.555-2.126 1.713-2.644 1.21-.542 2.447-.594 3.7-.254.824.225 1.655.478 2.34 1.17l-1.012 1.434c-.511-.263-.926-.501-1.36-.693-.745-.33-1.51-.537-2.334-.285-.538.166-.91.512-.958.95-.086.772.006 1.013.73 1.31.646.264 1.348.392 2.006.634.707.26 1.405.557 2.083.888 1.569.766 1.36 3.342.565 4.222-.79.875-1.754 1.284-2.941 1.338-1.87.085-3.489-.449-4.957-1.744m12.89-.02 1.204-1.395c.846.683 1.714 1.158 2.734 1.366.633.13 1.209.044 1.78-.176.495-.191.731-.565.75-1.118.019-.536-.202-.886-.674-1.061-.611-.227-1.247-.387-1.86-.61a40.37 40.37 0 0 1-2.308-.908c-1.465-.638-1.42-3.261-.61-4.155 1.064-1.172 2.403-1.513 3.92-1.277.494.077.994.176 1.463.344.607.217 1.187.513 1.886.824l-1.135 1.56c-.504-.259-.919-.499-1.356-.69-.745-.327-1.51-.534-2.336-.28-.53.162-.917.52-.96.943-.073.72.076 1.051.743 1.319.629.251 1.298.4 1.94.62.642.22 1.295.43 1.907.72 1.923.91 1.721 3.739.439 4.793-.715.588-1.51.873-2.426.937-1.574.111-3.019-.238-4.329-1.116-.25-.168-.469-.385-.773-.64M760.343 10.622c.148-.978.238-1.777.238-2.37 0-2.458-1.722-2.606-5.283-2.606-2.641 0-4.275.03-5.283 1.096-.802.858-1.01 2.103-1.277 3.88l-2.137 14.364c-.178 1.126-.237 2.015-.237 2.636 0 2.133 1.84 2.4 5.283 2.4 2.612 0 4.214-.09 5.194-1.066.89-.89 1.069-2.163 1.335-3.97l.832-5.36h-5.046l-.772 5.212c-.119.77-.267 1.215-.95 1.215-.474 0-.653-.208-.653-.712 0-.118 0-.295.03-.503l2.107-14.068c.12-.741.238-1.184.891-1.184.534 0 .742.206.742.71 0 .03-.03.178-.06.474l-.474 3.198h5.015l.505-3.346Zm-19.498 1.303h.208l-.653 9.27h-1.632l2.077-9.27Zm-2.018-6.131-6.707 24.05h4.72l1.097-4.74h2.107l-.356 4.74h4.748l.475-24.05h-6.084Zm-9.674 0-3.591 24.05h5.016l3.591-24.05h-5.016Zm-13.83 0-3.59 24.05h4.333l1.75-11.788h.209l.653 11.788h4.66l3.59-24.05h-4.302l-1.87 12.321h-.209l-.534-12.321h-4.69Zm-18.1 0-3.592 24.05h4.54l2.078-13.861h.178l-.267 13.86h2.82l3.858-13.86h.208l-2.078 13.86h4.511l3.621-24.05h-6.143l-3.532 12.174h-.208l.148-12.173h-6.143Zm-7.864 4.976-2.108 14.068c-.118.8-.267 1.215-.95 1.215-.475 0-.652-.208-.652-.712 0-.147 0-.295.03-.503l2.106-14.068c.118-.741.238-1.184.89-1.184.536 0 .743.206.743.71 0 .03 0 .178-.06.474Zm5.045-.148c.148-1.007.238-1.777.238-2.37 0-2.458-1.722-2.606-5.283-2.606-2.612 0-4.273.03-5.283 1.096-.831.858-1.01 2.133-1.277 3.88l-2.136 14.364c-.178 1.126-.237 2.015-.237 2.636 0 2.133 1.84 2.4 5.281 2.4 2.613 0 4.215-.09 5.195-1.066.92-.919 1.068-2.192 1.335-3.97l2.167-14.364Zm-13.562-.03c.12-.83.268-1.6.268-2.28 0-2.518-1.722-2.666-5.314-2.666-4.926 0-5.876.503-6.529 4.947l-.415 2.813a8.13 8.13 0 0 0-.119 1.243c0 1.363.564 2.4 1.662 3.081l3.146 1.895c.742.445.801.711.801 1.156 0 .148-.03.325-.06.533l-.533 3.584c-.124.804-.313 1.22-.971 1.182-.361-.021-.632-.348-.632-.709 0-.207 0-.355.03-.473l.712-4.71h-5.045l-.742 4.858c-.178 1.155-.208 1.925-.208 2.31 0 2.458 1.661 2.666 5.312 2.666 2.671 0 4.304-.09 5.254-1.126.83-.888.949-2.162 1.216-3.85l.683-4.502c.06-.356.12-.711.12-1.096 0-1.303-.625-2.34-1.871-3.05l-2.879-1.689c-.653-.385-.83-.681-.83-1.096 0-.266.03-.473.059-.592l.326-2.28c.119-.74.327-1.186.92-1.186.505 0 .713.208.713.711 0 0 0 .148-.06.474l-.505 3.435h4.957l.534-3.582ZM656.33 5.795l-3.59 24.05h4.332l1.751-11.788h.208l.653 11.788h4.659l3.591-24.05h-4.303l-1.87 12.321h-.207l-.535-12.321h-4.689Zm-7.24 0-3.592 24.05h5.016l3.591-24.05h-5.015Zm-19.085 21.681c-5.335 0-9.66-4.316-9.66-9.64 0-5.325 4.325-9.641 9.66-9.641s9.661 4.316 9.661 9.64c0 5.325-4.326 9.641-9.66 9.641Zm10.07-17.168a71.534 71.534 0 0 0-1.063-1.16 12.485 12.485 0 0 0-8.987-3.802c-3.344 0-6.38 1.31-8.626 3.442-.199.19-.714.705-.968.978-1.016 1.085-3.746 4.182-5.713 8.055 1.837 3.617 4.337 6.555 5.486 7.811.21.229.806.867.976 1.036a12.484 12.484 0 0 0 8.845 3.657c3.727 0 7.072-1.627 9.364-4.205l.872-.995c1.27-1.445 3.409-4.11 5.031-7.304-1.704-3.357-3.98-6.127-5.217-7.513Z"/><path d="M630.004 13.58a4.264 4.264 0 0 0-4.263 4.254 4.263 4.263 0 0 0 8.527 0 4.264 4.264 0 0 0-4.264-4.254"/><path d="M624.12 17.864c.005 3.234 2.643 5.863 5.884 5.863 3.242 0 5.879-2.628 5.885-5.86v-.043c-.006-3.233-2.643-5.862-5.885-5.862-3.24 0-5.878 2.627-5.884 5.86V17.865m5.884 7.786c-4.318 0-7.831-3.506-7.831-7.816 0-4.309 3.513-7.815 7.831-7.815 4.319 0 7.832 3.506 7.832 7.815 0 4.31-3.513 7.816-7.832 7.816"/></g></g></svg>