<?xml version="1.0" encoding="UTF-8"?>
<svg width="24px" height="21px" viewBox="0 0 24 21" version="1.1" xmlns="http://www.w3.org/2000/svg" xmlns:xlink="http://www.w3.org/1999/xlink">
    <title>icon/link/twitter/black</title>
    <g id="Resources---Mobile" stroke="none" stroke-width="1" fill="none" fill-rule="evenodd">
        <g id="icon/link/twitter/black" transform="translate(0.000000, -1.000000)">
            <rect id="Rectangle" transform="translate(11.733333, 11.733333) scale(-1, 1) rotate(-180.000000) translate(-11.733333, -11.733333) " x="0" y="0" width="23.4666667" height="23.4666667"></rect>
            <path d="M23.4666667,3.89744553 C22.6044178,4.3097436 21.676054,4.58856387 20.7022363,4.71314313 C21.696715,4.07244974 22.4597914,3.05653545 22.8192913,1.84633682 C21.8881728,2.43957145 20.8592593,2.87114963 19.7600985,3.10251113 C18.8840758,2.09549537 17.6320244,1.46666667 16.2463658,1.46666667 C13.5893722,1.46666667 11.4337501,3.78769712 11.4337501,6.65005417 C11.4337501,7.05641989 11.4750719,7.4509209 11.5577155,7.83059107 C7.55638511,7.61406043 4.0095948,5.55257012 1.63358964,2.41287589 C1.21899395,3.18111472 0.982082134,4.07244974 0.982082134,5.02162514 C0.982082134,6.81912604 1.83193441,8.40602865 3.12393027,9.33592392 C2.33606073,9.31071145 1.5922678,9.07490068 0.9421377,8.68929819 L0.9421377,8.75307091 C0.9421377,11.2654195 2.60189782,13.3610208 4.80572871,13.8356085 C4.40215217,13.9572216 3.97653733,14.0180282 3.53714856,14.0180282 C3.22723484,14.0180282 2.92420809,13.9868834 2.6308231,13.9260768 C3.24376357,15.984601 5.02060221,17.4840015 7.12801549,17.5240448 C5.48065192,18.9151799 3.40354131,19.7442253 1.14874684,19.7442253 C0.760321653,19.7442253 0.376028644,19.720496 0,19.6730372 C2.13082898,21.1412929 4.6624797,22 7.38007865,22 C16.236724,22 21.0782649,14.1025641 21.0782649,7.25218732 C21.0782649,7.02675815 21.0741328,6.801329 21.0658684,6.5803491 C22.0066287,5.84918744 22.8234236,4.9370892 23.4666667,3.89744553" id="path-1" fill="#D5DDE0"></path>
        </g>
    </g>
</svg>