<?xml version="1.0" encoding="UTF-8"?>
<svg width="16px" height="16px" viewBox="0 0 16 16" version="1.1" xmlns="http://www.w3.org/2000/svg" xmlns:xlink="http://www.w3.org/1999/xlink">
    <title>icon/link/vevo music/color</title>
    <g id="icon/link/vevo-music/color" stroke="none" stroke-width="1" fill="none" fill-rule="evenodd">
        <circle id="Oval" fill="#D5DDE0" cx="8" cy="8" r="8"></circle>
        <path d="M12.8623319,8 C12.1999566,8 11.602803,8.39591229 11.3493227,9.00312426 C11.0958425,9.61033624 11.2359543,10.3092676 11.7043242,10.7740077 C12.1726941,11.2387478 12.8770847,11.377774 13.4890397,11.1262586 C14.1009947,10.8747433 14.5,10.2822179 14.5,9.62497635 C14.5,8.72752698 13.7667912,8 12.8623319,8 Z M12.8623319,10.3832987 C12.4528819,10.3832987 12.1526753,10.0583035 12.1526753,9.62497635 C12.1526753,9.19164935 12.4531385,8.86665407 12.8623319,8.86665407 C13.2717491,8.86665407 13.5719878,9.19171435 13.5719878,9.62497635 C13.5719878,10.0582385 13.2717491,10.3832987 12.8623319,10.3832987 Z M8.05850299,9.62497635 C8.05850299,8.72752359 7.34973681,8 6.47542358,8 C5.60111034,8 4.89234363,8.72752359 4.89234363,9.62497635 C4.89234363,10.5224292 5.60189642,11.2499528 6.50271809,11.2499528 C7.2222279,11.2499528 7.7864698,10.8184457 7.97417396,10.220801 L7.02131324,10.220801 C6.88912059,10.4148774 6.69474565,10.4645475 6.50271809,10.4645475 C6.13443364,10.4645475 5.89975567,10.213012 5.82611512,9.86872283 L8.04072336,9.86872283 C8.05256044,9.78800515 8.05850299,9.7065441 8.05850299,9.62497635 L8.05850299,9.62497635 Z M6.47542358,8.75832231 C6.79129719,8.75832231 7.03610139,8.97423292 7.11115025,9.29998111 L5.83844134,9.29998111 C5.92339809,8.96136311 6.14958208,8.75832231 6.47542358,8.75832231 Z M3.3092636,11.2228698 L1.5,8.09479029 L2.56522667,8.09479029 L3.3092636,9.51664464 L4.05331121,8.09479029 L5.11853297,8.09479029 L3.3092636,11.2228698 Z M9.64158296,11.2228698 L7.83231907,8.09479029 L8.89755176,8.09479029 L9.64158296,9.51664464 L10.3856306,8.09479029 L11.4508632,8.09479029 L9.64158296,11.2228698 Z" id="path5069" fill="#FFFFFF" fill-rule="nonzero"></path>
    </g>
</svg>