<svg width="152" height="31" xmlns="http://www.w3.org/2000/svg"><g fill="none" fill-rule="evenodd"><path fill="none" d="M0 0h152v31H0z"/><g fill="#DEDEDE"><path d="M13.97 3.544c.375.083.75.165 1.125.25 4.218.962 7.21 3.4 8.962 7.36 2.005 4.533.832 10.048-2.718 13.54-1.874 1.846-4.148 2.872-6.705 3.346-.178.033-.35.09-.525.136h-3.034c-.126-.043-.25-.108-.379-.126a11.448 11.448 0 0 1-3.722-1.158C3.713 25.21 1.58 22.564.602 19.022c-.18-.654-.282-1.328-.42-1.992v-2.34c.04-.08.107-.157.113-.239.125-1.696.706-3.248 1.557-4.696 1.75-2.973 4.3-4.918 7.646-5.807.567-.151 1.143-.27 1.715-.404h2.758ZM8.333 10.04l-3.75 11.457.118.088 7.914-5.726 7.887 5.713.135-.09-3.74-11.447-1.929 1.405 1.315 4.123-.13.071-3.536-2.547-3.574 2.555-.106-.107 1.326-4.098-1.93-1.397ZM152 20.745h-1.554l-5.29-6.782v6.738h-1.76v-9.694h1.657l5 6.382.12-.036v-6.378H152v9.77ZM39.037 18.04l2.279-7.036h1.583l2.337 7.046 2.295-7.036h1.894L46 20.867h-1.538l-2.314-6.71-.126-.013-2.3 6.722h-1.496l-3.415-9.844h1.953l2.273 7.017M116.452 20.735h-1.742v-9.76c.59 0 1.14-.06 1.668.028.231.038.457.35.609.587.76 1.186 1.493 2.389 2.24 3.584.046.075.121.131.262.279l2.922-4.454h1.837v9.72h-1.716v-6.56l-.14-.049-2.933 4.33-2.89-4.353a8.653 8.653 0 0 0-.117.034v6.614ZM110.154 20.728h-2.125l-2.316-3.263h-2.088v3.251h-1.794V11.03c.177-.021.35-.06.524-.06 1.31-.005 2.62-.033 3.928.01.817.027 1.62.188 2.34.636.812.507 1.128 1.259 1.199 2.173.08 1.04-.154 1.962-.995 2.634-.35.279-.778.46-1.218.715l2.545 3.59Zm-6.525-4.949c.86 0 1.658.027 2.454-.012.375-.018.759-.124 1.113-.259.546-.206.767-.652.81-1.225.047-.608-.154-1.085-.686-1.371a2.122 2.122 0 0 0-.894-.263c-.927-.034-1.856-.013-2.797-.013v3.143ZM96.832 11.026v1.496c-.916.128-1.827.045-2.73.06-.892.015-1.783.003-2.718.003v2.36c1.625.074 3.243-.022 4.884.058v1.588h-4.87v2.59h5.554v1.538h-7.36v-9.693h7.24ZM56.05 10.979h1.748l4.27 9.738h-1.9l-.996-2.276H54.64c-.33.76-.664 1.524-1 2.295h-1.857l4.267-9.757m-.707 5.761h3.132l-1.58-3.651-1.552 3.651M132.977 10.983h1.752c1.404 3.207 2.81 6.42 4.28 9.774h-1.9l-1.01-2.314h-4.535l-1.003 2.291h-1.852l4.268-9.75Zm2.43 5.772-1.582-3.655-1.569 3.655h3.152ZM65.632 19.338l.995-1.196c.664.343 1.246.693 1.866.95.633.263 1.298.378 1.993.144.66-.222.956-.505.973-1.06.018-.58-.202-.901-.884-1.13-.772-.26-1.565-.45-2.34-.698a6.791 6.791 0 0 1-.993-.435c-.93-.47-1.265-1.314-1.227-2.268.042-1.056.499-1.913 1.541-2.38 1.089-.488 2.202-.535 3.33-.228.742.202 1.49.43 2.107 1.052l-.911 1.29c-.46-.236-.834-.45-1.225-.623-.67-.297-1.358-.483-2.1-.256-.484.149-.819.46-.862.854-.078.696.005.913.657 1.18.581.237 1.213.352 1.805.57.637.235 1.265.502 1.874.8 1.413.689 1.224 3.008.51 3.799-.713.788-1.58 1.156-2.648 1.205-1.683.076-3.14-.404-4.46-1.57M77.232 19.32l1.085-1.256c.76.615 1.542 1.043 2.46 1.23.57.116 1.088.04 1.602-.159.446-.172.659-.508.676-1.006.016-.482-.182-.797-.607-.955-.55-.204-1.122-.348-1.674-.549a36.333 36.333 0 0 1-2.077-.817c-1.319-.574-1.278-2.935-.55-3.739.958-1.055 2.164-1.362 3.53-1.15.443.07.893.159 1.315.31.547.196 1.068.462 1.698.741l-1.022 1.405c-.453-.233-.827-.45-1.22-.621-.67-.294-1.36-.481-2.103-.253-.477.147-.825.469-.864.85-.065.647.068.945.67 1.186.565.227 1.167.36 1.744.558.579.199 1.167.387 1.718.649 1.73.82 1.548 3.364.394 4.313-.643.53-1.359.786-2.183.844-1.417.1-2.717-.215-3.896-1.005-.226-.15-.422-.347-.696-.576"/></g></g></svg>