<?xml version="1.0" encoding="utf-8"?>
<!-- Generator: Adobe Illustrator 26.0.3, SVG Export Plug-In . SVG Version: 6.00 Build 0)  -->
<svg version="1.1" id="Layer_1" xmlns="http://www.w3.org/2000/svg" xmlns:xlink="http://www.w3.org/1999/xlink" x="0px" y="0px"
	 viewBox="0 0 48 48" style="enable-background:new 0 0 48 48;" xml:space="preserve">
<style type="text/css">
	.st0{clip-path:url(#SVGID_00000009569200411011408530000013748176178330084515_);fill:#FF0000;}
	.st1{clip-path:url(#SVGID_00000009569200411011408530000013748176178330084515_);fill:#FFFFFF;}
</style>
<g>
	<defs>
		<rect id="SVGID_1_" width="48" height="48"/>
	</defs>
	<clipPath id="SVGID_00000021814977255870853380000016426719430628718484_">
		<use xlink:href="#SVGID_1_"  style="overflow:visible;"/>
	</clipPath>
	<path style="clip-path:url(#SVGID_00000021814977255870853380000016426719430628718484_);fill:#FF0000;" d="M8,0C3.6,0,0,3.6,0,8
		v32c0,4.4,3.6,8,8,8h32c4.4,0,8-3.6,8-8V8c0-4.4-3.6-8-8-8H8z"/>
	<path style="clip-path:url(#SVGID_00000021814977255870853380000016426719430628718484_);fill:#FFFFFF;" d="M38.8,24
		c0,0,0-4.8-0.6-7.1c-0.3-1.3-1.3-2.3-2.6-2.6C33.3,13.6,24,13.6,24,13.6s-9.3,0-11.6,0.6c-1.3,0.3-2.3,1.3-2.6,2.6
		C9.2,19.2,9.2,24,9.2,24s0,4.8,0.6,7.1c0.3,1.3,1.3,2.3,2.6,2.6c2.3,0.6,11.6,0.6,11.6,0.6s9.3,0,11.6-0.6c1.3-0.3,2.3-1.3,2.6-2.6
		C38.8,28.8,38.8,24,38.8,24 M28.7,24L21,28.4v-8.9L28.7,24z"/>
</g>
</svg>
